M48
;DRILL file generated by ESPNoise
METRIC,TZ
T1C1.000
%
G90
G05
T1
X005000Y009750
X007000Y009750
X009000Y009750
X005000Y014750
X007000Y014750
X009000Y014750
X016000Y009750
X018000Y009750
X020000Y009750
X016000Y014750
X018000Y014750
X020000Y014750
X033460Y008440
X036000Y008440
X038540Y008440
X033460Y016060
X036000Y016060
X038540Y016060
X010000Y003000
X015000Y003000
T0
M30
