M48
;DRILL file generated by ESPNoise
METRIC,TZ
T1C0.900
%
G90
G05
T1
X006000Y031000
X008540Y031000
X011080Y031000
X013620Y031000
X016160Y031000
X018700Y031000
X003500Y045000
X006000Y045000
X008500Y045000
X011000Y045000
X013500Y045000
X016000Y045000
X018500Y045000
X021000Y045000
X023500Y045000
X026000Y045000
X030000Y045000
X032500Y045000
X035000Y045000
X037500Y045000
X040000Y045000
X045000Y045000
X047500Y045000
X030000Y004500
X030000Y007040
X030000Y009580
X030000Y012120
X030000Y014660
X030000Y017200
X030000Y019740
X037620Y004500
X037620Y007040
X037620Y009580
X037620Y012120
X037620Y014660
X037620Y017200
X037620Y019740
X043000Y016000
X050000Y016000
X043000Y028000
X050000Y028000
X050000Y032000
X057000Y032000
X050000Y023000
X060000Y023000
X040000Y005500
X042000Y005500
X052460Y028000
X055000Y028000
X057540Y028000
T0
M30
