G04 ESPNoise Rev C unit B.Cu*
%FSLAX46Y46*%
%MOMM*%
%LPD*%
%ADD10C,1.000000*%
%ADD11C,1.300000*%
%ADD12C,1.600000*%
%ADD13C,2.000000*%
%ADD14C,2.400000*%
%ADD15C,1.700000*%
D10*
X0038000000Y0016000000D02*
X0037500000Y0016500000D01*
X0037500000Y0016750000D01*
X0034250000Y0020000000D01*
X0031000000Y0020000000D01*
X0029250000Y0021750000D01*
X0029250000Y0022000000D01*
D10*
X0035500000Y0016000000D02*
X0034750000Y0016750000D01*
X0034750000Y0017000000D01*
X0033500000Y0018250000D01*
D10*
X0038000000Y0008500000D02*
X0038000000Y0010000000D01*
X0039750000Y0011750000D01*
X0039750000Y0015000000D01*
X0040000000Y0015250000D01*
X0040000000Y0016750000D01*
X0039750000Y0017000000D01*
X0039750000Y0017250000D01*
X0036750000Y0020250000D01*
X0036750000Y0022000000D01*
D10*
X0035500000Y0008500000D02*
X0035750000Y0008750000D01*
X0035750000Y0009000000D01*
X0036000000Y0009250000D01*
X0036000000Y0009500000D01*
X0036500000Y0010000000D01*
X0036500000Y0010500000D01*
X0038000000Y0012000000D01*
X0038000000Y0012500000D01*
D10*
X0017500000Y0014750000D02*
X0017500000Y0022000000D01*
D11*
X0019500000Y0014750000D02*
X0020750000Y0016000000D01*
X0033000000Y0016000000D01*
D11*
X0033000000Y0016000000D02*
X0033000000Y0008500000D01*
D11*
X0033000000Y0010500000D02*
X0034500000Y0010500000D01*
D11*
X0020750000Y0016000000D02*
X0020500000Y0016250000D01*
X0020500000Y0016500000D01*
X0020250000Y0016750000D01*
X0020250000Y0017000000D01*
X0019750000Y0017500000D01*
X0019750000Y0017750000D01*
X0019250000Y0018250000D01*
D11*
X0003750000Y0004000000D02*
X0005000000Y0005250000D01*
X0007000000Y0005250000D01*
X0009250000Y0003000000D01*
X0009500000Y0003000000D01*
D11*
X0006500000Y0014750000D02*
X0006500000Y0014250000D01*
X0006750000Y0014000000D01*
X0006750000Y0013750000D01*
X0008750000Y0011750000D01*
X0009000000Y0011750000D01*
X0009250000Y0011500000D01*
X0009500000Y0011500000D01*
X0014500000Y0006500000D01*
X0014500000Y0003000000D01*
D11*
X0014500000Y0006250000D02*
X0038500000Y0006250000D01*
X0038750000Y0006500000D01*
X0039000000Y0006500000D01*
X0042000000Y0009500000D01*
X0042000000Y0012750000D01*
X0043500000Y0014250000D01*
X0043500000Y0022000000D01*
D10*
X0055500000Y0006000000D02*
X0051500000Y0010000000D01*
X0048500000Y0010000000D01*
D10*
X0055250000Y0006250000D02*
X0059000000Y0010000000D01*
X0059000000Y0011500000D01*
X0059250000Y0011750000D01*
X0059250000Y0012750000D01*
X0059000000Y0013000000D01*
X0059000000Y0017000000D01*
D11*
X0004500000Y0014750000D02*
X0004500000Y0015250000D01*
X0004750000Y0015500000D01*
X0004750000Y0015750000D01*
X0005500000Y0016500000D01*
X0005750000Y0016500000D01*
X0006000000Y0016750000D01*
X0009000000Y0016750000D01*
X0009250000Y0016500000D01*
X0009500000Y0016500000D01*
X0013750000Y0012250000D01*
X0026250000Y0012250000D01*
X0029000000Y0009500000D01*
D12*
X0004500000Y0014750000D03*
D12*
X0006500000Y0014750000D03*
D12*
X0017500000Y0014750000D03*
D12*
X0019500000Y0014750000D03*
D13*
X0032960000Y0008440000D03*
D13*
X0035500000Y0008440000D03*
D13*
X0038040000Y0008440000D03*
D13*
X0032960000Y0016060000D03*
D13*
X0035500000Y0016060000D03*
D13*
X0038040000Y0016060000D03*
D13*
X0063750000Y0012250000D03*
D13*
X0057250000Y0012250000D03*
D14*
X0002500000Y0003000000D03*
D14*
X0006000000Y0003000000D03*
D13*
X0002000000Y0022000000D03*
D13*
X0005500000Y0022000000D03*
D13*
X0039310000Y0022000000D03*
D13*
X0029150000Y0022000000D03*
D13*
X0031690000Y0022000000D03*
D13*
X0036770000Y0022000000D03*
D13*
X0034500000Y0003000000D03*
D13*
X0047500000Y0003000000D03*
D13*
X0017500000Y0022000000D03*
D13*
X0043500000Y0022000000D03*
D13*
X0041500000Y0003000000D03*
D13*
X0047500000Y0022000000D03*
D12*
X0048500000Y0006000000D03*
D12*
X0055500000Y0006000000D03*
D12*
X0048500000Y0010000000D03*
D12*
X0048500000Y0016000000D03*
D12*
X0065500000Y0021000000D03*
D12*
X0055500000Y0021000000D03*
D12*
X0009500000Y0003000000D03*
D12*
X0014500000Y0003000000D03*
D12*
X0056460000Y0017000000D03*
D12*
X0059000000Y0017000000D03*
D12*
X0061540000Y0017000000D03*
D15*
X0029250000Y0022000000D03*
D15*
X0033500000Y0018250000D03*
D15*
X0036750000Y0022000000D03*
D15*
X0038000000Y0012500000D03*
D15*
X0017500000Y0022000000D03*
D15*
X0034500000Y0010500000D03*
D15*
X0019250000Y0018250000D03*
D15*
X0003750000Y0004000000D03*
D15*
X0009500000Y0003000000D03*
D15*
X0014500000Y0003000000D03*
D15*
X0043500000Y0022000000D03*
D15*
X0057250000Y0012250000D03*
D15*
X0029000000Y0009500000D03*
D15*
X0063750000Y0012250000D03*
M02*
