M48
;DRILL file generated by ESPNoise
METRIC,TZ
T1C1.200
%
G90
G05
T1
X003000Y003000
X006500Y003000
X002500Y022000
X006000Y022000
X039810Y022000
X029650Y022000
X032190Y022000
X037270Y022000
X035000Y003000
X048000Y003000
X018000Y022000
X044000Y022000
X042000Y003000
X048000Y022000
X067000Y047000
X063500Y047000
X067500Y028000
X064000Y028000
X030190Y028000
X040350Y028000
X037810Y028000
X032730Y028000
X035000Y047000
X022000Y047000
X052000Y028000
X026000Y028000
X028000Y047000
X022000Y028000
T0
M30
