M48
;DRILL file generated by ESPNoise
METRIC,TZ
T1C0.800
%
G90
G05
T1
X008500Y045000
X009500Y034500
X009000Y031500
X013500Y031000
X023500Y045000
X050000Y023000
X054500Y016000
X060000Y023000
X030500Y012500
X037500Y014500
X037500Y026500
X037500Y045000
X030000Y045000
X024500Y008000
X030500Y025000
X032000Y018000
X038000Y017000
X025500Y029000
X018500Y031000
X026000Y045000
X040500Y044500
X047500Y045000
X006000Y044500
X052500Y027500
X057000Y032000
T0
M30
