M48
;DRILL file generated by ESPNoise
METRIC,TZ
T1C1.000
%
G90
G05
T1
X004500Y009750
X006500Y009750
X008500Y009750
X004500Y014750
X006500Y014750
X008500Y014750
X015500Y009750
X017500Y009750
X019500Y009750
X015500Y014750
X017500Y014750
X019500Y014750
X032960Y008440
X035500Y008440
X038040Y008440
X032960Y016060
X035500Y016060
X038040Y016060
X009500Y003000
X014500Y003000
T0
M30
