M48
;DRILL file generated by ESPNoise
METRIC,TZ
T1C0.800
%
G90
G05
T1
X064250Y012250
X057750Y012250
X029750Y022000
X033500Y018500
X037250Y022000
X038500Y012500
X018000Y022000
X035000Y010500
X019750Y018250
X004250Y004000
X010000Y003000
X015000Y003000
X044000Y022000
X057750Y012250
X029500Y009500
X064250Y012250
X005750Y037750
X012250Y037750
X040250Y028000
X036500Y031500
X032750Y028000
X031500Y037500
X052000Y028000
X035000Y039500
X050250Y031750
X065750Y046000
X060000Y047000
X055000Y047000
X026000Y028000
X012250Y037750
X040500Y040500
X005750Y037750
T0
M30
