G04 ESPNoise Rev C two-unit panel F.Cu*
%FSLAX46Y46*%
%MOMM*%
%LPD*%
%ADD10C,0.500000*%
%ADD11C,1.000000*%
%ADD12C,1.600000*%
%ADD13C,2.400000*%
%ADD14C,2.000000*%
%ADD15C,1.700000*%
D10*
X0033250000Y0018750000D02*
X0032250000Y0019750000D01*
X0032250000Y0022000000D01*
D10*
X0038500000Y0012750000D02*
X0039750000Y0014000000D01*
X0039750000Y0015250000D01*
X0040000000Y0015500000D01*
X0040000000Y0016750000D01*
X0039750000Y0017000000D01*
X0039750000Y0022000000D01*
D10*
X0048000000Y0003000000D02*
X0049000000Y0004000000D01*
X0049000000Y0006000000D01*
D10*
X0035000000Y0003000000D02*
X0042000000Y0003000000D01*
D11*
X0035500000Y0011000000D02*
X0039250000Y0011000000D01*
X0044250000Y0016000000D01*
X0049000000Y0016000000D01*
D11*
X0048000000Y0016000000D02*
X0048000000Y0022000000D01*
D11*
X0049000000Y0016000000D02*
X0050000000Y0017000000D01*
X0057000000Y0017000000D01*
D11*
X0019500000Y0017750000D02*
X0015250000Y0022000000D01*
X0006000000Y0022000000D01*
D11*
X0010750000Y0022000000D02*
X0010750000Y0009000000D01*
X0006500000Y0004750000D01*
X0006500000Y0003000000D01*
D11*
X0003000000Y0003000000D02*
X0004750000Y0004750000D01*
D11*
X0003000000Y0003000000D02*
X0002500000Y0003500000D01*
X0002500000Y0022000000D01*
D10*
X0058000000Y0012500000D02*
X0062000000Y0016500000D01*
X0062000000Y0017000000D01*
D10*
X0062000000Y0017000000D02*
X0058000000Y0021000000D01*
X0056000000Y0021000000D01*
D11*
X0030000000Y0009250000D02*
X0032250000Y0007000000D01*
X0032500000Y0007000000D01*
X0032750000Y0006750000D01*
X0033250000Y0006750000D01*
X0033500000Y0006500000D01*
X0038500000Y0006500000D01*
X0038750000Y0006750000D01*
X0039250000Y0006750000D01*
X0039500000Y0007000000D01*
X0039750000Y0007000000D01*
X0044500000Y0011750000D01*
X0055750000Y0011750000D01*
X0057000000Y0010500000D01*
X0058500000Y0010500000D01*
X0060250000Y0012250000D01*
X0064250000Y0012250000D01*
D11*
X0064250000Y0012250000D02*
X0066000000Y0014000000D01*
X0066000000Y0021000000D01*
D12*
X0005000000Y0014750000D03*
D12*
X0007000000Y0014750000D03*
D12*
X0018000000Y0014750000D03*
D12*
X0020000000Y0014750000D03*
D12*
X0033460000Y0008440000D03*
D12*
X0036000000Y0008440000D03*
D12*
X0038540000Y0008440000D03*
D12*
X0033460000Y0016060000D03*
D12*
X0036000000Y0016060000D03*
D12*
X0038540000Y0016060000D03*
D12*
X0064250000Y0012250000D03*
D12*
X0057750000Y0012250000D03*
D13*
X0003000000Y0003000000D03*
D13*
X0006500000Y0003000000D03*
D14*
X0002500000Y0022000000D03*
D14*
X0006000000Y0022000000D03*
D14*
X0039810000Y0022000000D03*
D14*
X0029650000Y0022000000D03*
D14*
X0032190000Y0022000000D03*
D14*
X0037270000Y0022000000D03*
D14*
X0035000000Y0003000000D03*
D14*
X0048000000Y0003000000D03*
D14*
X0018000000Y0022000000D03*
D14*
X0044000000Y0022000000D03*
D14*
X0042000000Y0003000000D03*
D14*
X0048000000Y0022000000D03*
D12*
X0049000000Y0006000000D03*
D12*
X0056000000Y0006000000D03*
D12*
X0049000000Y0010000000D03*
D12*
X0049000000Y0016000000D03*
D12*
X0066000000Y0021000000D03*
D12*
X0056000000Y0021000000D03*
D12*
X0010000000Y0003000000D03*
D12*
X0015000000Y0003000000D03*
D12*
X0056960000Y0017000000D03*
D12*
X0059500000Y0017000000D03*
D12*
X0062040000Y0017000000D03*
D15*
X0029750000Y0022000000D03*
D15*
X0033250000Y0018750000D03*
D15*
X0037250000Y0022000000D03*
D15*
X0038500000Y0012750000D03*
D15*
X0018000000Y0022000000D03*
D15*
X0035500000Y0011000000D03*
D15*
X0019500000Y0017750000D03*
D15*
X0004750000Y0004750000D03*
D15*
X0010000000Y0003000000D03*
D15*
X0015000000Y0003000000D03*
D15*
X0044000000Y0022000000D03*
D15*
X0058000000Y0012500000D03*
D15*
X0030000000Y0009250000D03*
D15*
X0064250000Y0012250000D03*
D10*
X0036750000Y0031250000D02*
X0037750000Y0030250000D01*
X0037750000Y0028000000D01*
D10*
X0031500000Y0037250000D02*
X0030250000Y0036000000D01*
X0030250000Y0034750000D01*
X0030000000Y0034500000D01*
X0030000000Y0033250000D01*
X0030250000Y0033000000D01*
X0030250000Y0028000000D01*
D10*
X0022000000Y0047000000D02*
X0021000000Y0046000000D01*
X0021000000Y0044000000D01*
D10*
X0035000000Y0047000000D02*
X0028000000Y0047000000D01*
D11*
X0034500000Y0039000000D02*
X0030750000Y0039000000D01*
X0025750000Y0034000000D01*
X0021000000Y0034000000D01*
D11*
X0022000000Y0034000000D02*
X0022000000Y0028000000D01*
D11*
X0021000000Y0034000000D02*
X0020000000Y0033000000D01*
X0013000000Y0033000000D01*
D11*
X0050500000Y0032250000D02*
X0054750000Y0028000000D01*
X0064000000Y0028000000D01*
D11*
X0059250000Y0028000000D02*
X0059250000Y0041000000D01*
X0063500000Y0045250000D01*
X0063500000Y0047000000D01*
D11*
X0067000000Y0047000000D02*
X0065250000Y0045250000D01*
D11*
X0067000000Y0047000000D02*
X0067500000Y0046500000D01*
X0067500000Y0028000000D01*
D10*
X0012000000Y0037500000D02*
X0008000000Y0033500000D01*
X0008000000Y0033000000D01*
D10*
X0008000000Y0033000000D02*
X0012000000Y0029000000D01*
X0014000000Y0029000000D01*
D11*
X0040000000Y0040750000D02*
X0037750000Y0043000000D01*
X0037500000Y0043000000D01*
X0037250000Y0043250000D01*
X0036750000Y0043250000D01*
X0036500000Y0043500000D01*
X0031500000Y0043500000D01*
X0031250000Y0043250000D01*
X0030750000Y0043250000D01*
X0030500000Y0043000000D01*
X0030250000Y0043000000D01*
X0025500000Y0038250000D01*
X0014250000Y0038250000D01*
X0013000000Y0039500000D01*
X0011500000Y0039500000D01*
X0009750000Y0037750000D01*
X0005750000Y0037750000D01*
D11*
X0005750000Y0037750000D02*
X0004000000Y0036000000D01*
X0004000000Y0029000000D01*
D12*
X0065000000Y0035250000D03*
D12*
X0063000000Y0035250000D03*
D12*
X0052000000Y0035250000D03*
D12*
X0050000000Y0035250000D03*
D12*
X0036540000Y0041560000D03*
D12*
X0034000000Y0041560000D03*
D12*
X0031460000Y0041560000D03*
D12*
X0036540000Y0033940000D03*
D12*
X0034000000Y0033940000D03*
D12*
X0031460000Y0033940000D03*
D12*
X0005750000Y0037750000D03*
D12*
X0012250000Y0037750000D03*
D13*
X0067000000Y0047000000D03*
D13*
X0063500000Y0047000000D03*
D14*
X0067500000Y0028000000D03*
D14*
X0064000000Y0028000000D03*
D14*
X0030190000Y0028000000D03*
D14*
X0040350000Y0028000000D03*
D14*
X0037810000Y0028000000D03*
D14*
X0032730000Y0028000000D03*
D14*
X0035000000Y0047000000D03*
D14*
X0022000000Y0047000000D03*
D14*
X0052000000Y0028000000D03*
D14*
X0026000000Y0028000000D03*
D14*
X0028000000Y0047000000D03*
D14*
X0022000000Y0028000000D03*
D12*
X0021000000Y0044000000D03*
D12*
X0014000000Y0044000000D03*
D12*
X0021000000Y0040000000D03*
D12*
X0021000000Y0034000000D03*
D12*
X0004000000Y0029000000D03*
D12*
X0014000000Y0029000000D03*
D12*
X0060000000Y0047000000D03*
D12*
X0055000000Y0047000000D03*
D12*
X0013040000Y0033000000D03*
D12*
X0010500000Y0033000000D03*
D12*
X0007960000Y0033000000D03*
D15*
X0040250000Y0028000000D03*
D15*
X0036750000Y0031250000D03*
D15*
X0032750000Y0028000000D03*
D15*
X0031500000Y0037250000D03*
D15*
X0052000000Y0028000000D03*
D15*
X0034500000Y0039000000D03*
D15*
X0050500000Y0032250000D03*
D15*
X0065250000Y0045250000D03*
D15*
X0060000000Y0047000000D03*
D15*
X0055000000Y0047000000D03*
D15*
X0026000000Y0028000000D03*
D15*
X0012000000Y0037500000D03*
D15*
X0040000000Y0040750000D03*
D15*
X0005750000Y0037750000D03*
M02*
