M48
;DRILL file generated by ESPNoise
METRIC,TZ
T1C0.800
%
G90
G05
T1
X029750Y022000
X032250Y022000
X037250Y022000
X039750Y022000
X018000Y022000
X027500Y008000
X048000Y022000
X019500Y016250
X015000Y003000
X022500Y008000
X055750Y015250
X056000Y021000
X024750Y007750
X047250Y019250
X054500Y019250
X040250Y028000
X037750Y028000
X032750Y028000
X030250Y028000
X052000Y028000
X042500Y042000
X022000Y028000
X050500Y033750
X055000Y047000
X047500Y042000
X014250Y034750
X014000Y029000
X045250Y042250
X022750Y030750
X015500Y030750
T0
M30
