M48
;DRILL file generated by ESPNoise
METRIC,TZ
T1C0.900
%
G90
G05
T1
X029650Y018500
X032190Y018500
X034730Y018500
X037270Y018500
X039810Y018500
X042350Y018500
X035000Y008000
X042000Y008000
X049000Y006000
X056000Y006000
X049000Y010000
X049000Y016000
X066000Y021000
X056000Y021000
X056960Y017000
X059500Y017000
X062040Y017000
X040350Y031500
X037810Y031500
X035270Y031500
X032730Y031500
X030190Y031500
X027650Y031500
X035000Y042000
X028000Y042000
X021000Y044000
X014000Y044000
X021000Y040000
X021000Y034000
X004000Y029000
X014000Y029000
X013040Y033000
X010500Y033000
X007960Y033000
T0
M30
