G04 ESPNoise Rev C unit F.Cu*
%FSLAX46Y46*%
%MOMM*%
%LPD*%
%ADD10C,0.500000*%
%ADD11C,1.000000*%
%ADD12C,1.600000*%
%ADD13C,2.400000*%
%ADD14C,2.000000*%
%ADD15C,1.700000*%
D10*
X0033250000Y0018750000D02*
X0032250000Y0019750000D01*
X0032250000Y0022000000D01*
D10*
X0038500000Y0012750000D02*
X0039750000Y0014000000D01*
X0039750000Y0015250000D01*
X0040000000Y0015500000D01*
X0040000000Y0016750000D01*
X0039750000Y0017000000D01*
X0039750000Y0022000000D01*
D10*
X0048000000Y0003000000D02*
X0049000000Y0004000000D01*
X0049000000Y0006000000D01*
D10*
X0035000000Y0003000000D02*
X0042000000Y0003000000D01*
D11*
X0035500000Y0011000000D02*
X0039250000Y0011000000D01*
X0044250000Y0016000000D01*
X0049000000Y0016000000D01*
D11*
X0048000000Y0016000000D02*
X0048000000Y0022000000D01*
D11*
X0049000000Y0016000000D02*
X0050000000Y0017000000D01*
X0057000000Y0017000000D01*
D11*
X0019500000Y0017750000D02*
X0015250000Y0022000000D01*
X0006000000Y0022000000D01*
D11*
X0010750000Y0022000000D02*
X0010750000Y0009000000D01*
X0006500000Y0004750000D01*
X0006500000Y0003000000D01*
D11*
X0003000000Y0003000000D02*
X0004750000Y0004750000D01*
D11*
X0003000000Y0003000000D02*
X0002500000Y0003500000D01*
X0002500000Y0022000000D01*
D10*
X0058000000Y0013500000D02*
X0060250000Y0015750000D01*
X0060500000Y0015750000D01*
X0061750000Y0017000000D01*
X0062000000Y0017000000D01*
D10*
X0061500000Y0016750000D02*
X0061000000Y0017250000D01*
X0061000000Y0017500000D01*
X0060750000Y0017750000D01*
X0060750000Y0018000000D01*
X0057750000Y0021000000D01*
X0056000000Y0021000000D01*
D11*
X0030000000Y0009250000D02*
X0032250000Y0007000000D01*
X0032500000Y0007000000D01*
X0032750000Y0006750000D01*
X0033250000Y0006750000D01*
X0033500000Y0006500000D01*
X0038500000Y0006500000D01*
X0038750000Y0006750000D01*
X0039250000Y0006750000D01*
X0039500000Y0007000000D01*
X0039750000Y0007000000D01*
X0044500000Y0011750000D01*
X0055250000Y0011750000D01*
X0056500000Y0010500000D01*
X0058000000Y0010500000D01*
X0059750000Y0012250000D01*
X0064750000Y0012250000D01*
D11*
X0064750000Y0012250000D02*
X0066000000Y0013500000D01*
X0066000000Y0021000000D01*
D12*
X0005000000Y0014750000D03*
D12*
X0007000000Y0014750000D03*
D12*
X0018000000Y0014750000D03*
D12*
X0020000000Y0014750000D03*
D12*
X0033460000Y0008440000D03*
D12*
X0036000000Y0008440000D03*
D12*
X0038540000Y0008440000D03*
D12*
X0033460000Y0016060000D03*
D12*
X0036000000Y0016060000D03*
D12*
X0038540000Y0016060000D03*
D12*
X0064800000Y0012250000D03*
D12*
X0057200000Y0012250000D03*
D13*
X0003000000Y0003000000D03*
D13*
X0006500000Y0003000000D03*
D14*
X0002500000Y0022000000D03*
D14*
X0006000000Y0022000000D03*
D14*
X0039810000Y0022000000D03*
D14*
X0029650000Y0022000000D03*
D14*
X0032190000Y0022000000D03*
D14*
X0037270000Y0022000000D03*
D14*
X0035000000Y0003000000D03*
D14*
X0048000000Y0003000000D03*
D14*
X0018000000Y0022000000D03*
D14*
X0044000000Y0022000000D03*
D14*
X0042000000Y0003000000D03*
D14*
X0048000000Y0022000000D03*
D12*
X0049000000Y0006000000D03*
D12*
X0056000000Y0006000000D03*
D12*
X0049000000Y0010000000D03*
D12*
X0049000000Y0016000000D03*
D12*
X0066000000Y0021000000D03*
D12*
X0056000000Y0021000000D03*
D12*
X0010000000Y0003000000D03*
D12*
X0015000000Y0003000000D03*
D12*
X0056960000Y0017000000D03*
D12*
X0059500000Y0017000000D03*
D12*
X0062040000Y0017000000D03*
D15*
X0029750000Y0022000000D03*
D15*
X0033250000Y0018750000D03*
D15*
X0037250000Y0022000000D03*
D15*
X0038500000Y0012750000D03*
D15*
X0018000000Y0022000000D03*
D15*
X0035500000Y0011000000D03*
D15*
X0019500000Y0017750000D03*
D15*
X0004750000Y0004750000D03*
D15*
X0010000000Y0003000000D03*
D15*
X0015000000Y0003000000D03*
D15*
X0044000000Y0022000000D03*
D15*
X0058000000Y0013500000D03*
D15*
X0030000000Y0009250000D03*
D15*
X0064750000Y0012250000D03*
M02*
