M48
;DRILL file generated by ESPNoise
METRIC,TZ
T1C0.800
%
G90
G05
T1
X029750Y022000
X033250Y018750
X037250Y022000
X038500Y012750
X018000Y022000
X035500Y011000
X019500Y017750
X004750Y004750
X010000Y003000
X015000Y003000
X044000Y022000
X058000Y013500
X030000Y009250
X064750Y012250
X040250Y028000
X036750Y031250
X032750Y028000
X031500Y037250
X052000Y028000
X034500Y039000
X050500Y032250
X065250Y045250
X060000Y047000
X055000Y047000
X026000Y028000
X012000Y036500
X040000Y040750
X005250Y037750
T0
M30
