G04 ESPNoise Rev C two-unit panel F.Cu*
%FSLAX46Y46*%
%MOMM*%
%LPD*%
%ADD10C,1.000000*%
%ADD11C,1.300000*%
%ADD12C,1.600000*%
%ADD13C,2.000000*%
%ADD14C,2.400000*%
%ADD15C,1.700000*%
D10*
X0034000000Y0018250000D02*
X0032250000Y0020000000D01*
X0032250000Y0022000000D01*
D10*
X0038500000Y0012500000D02*
X0039750000Y0013750000D01*
X0039750000Y0014500000D01*
X0040500000Y0015250000D01*
X0040500000Y0016750000D01*
X0040250000Y0017000000D01*
X0040250000Y0017250000D01*
X0039750000Y0017750000D01*
X0039750000Y0022000000D01*
D10*
X0048000000Y0003000000D02*
X0049000000Y0004000000D01*
X0049000000Y0006000000D01*
D10*
X0035000000Y0003000000D02*
X0042000000Y0003000000D01*
D11*
X0035000000Y0010500000D02*
X0039000000Y0010500000D01*
X0039250000Y0010750000D01*
X0039500000Y0010750000D01*
X0044750000Y0016000000D01*
X0049000000Y0016000000D01*
D11*
X0048000000Y0016000000D02*
X0048000000Y0022000000D01*
D11*
X0049000000Y0016000000D02*
X0050000000Y0017000000D01*
X0057000000Y0017000000D01*
D11*
X0019750000Y0018250000D02*
X0018250000Y0019750000D01*
X0017750000Y0019750000D01*
X0017500000Y0020000000D01*
X0017000000Y0020000000D01*
X0015000000Y0022000000D01*
X0006000000Y0022000000D01*
D11*
X0011000000Y0022000000D02*
X0011000000Y0009250000D01*
X0010750000Y0009000000D01*
X0010750000Y0008750000D01*
X0006500000Y0004500000D01*
X0006500000Y0003000000D01*
D11*
X0003000000Y0003000000D02*
X0003250000Y0003000000D01*
X0004250000Y0004000000D01*
D11*
X0003000000Y0003000000D02*
X0002500000Y0003500000D01*
X0002500000Y0022000000D01*
D10*
X0057750000Y0012250000D02*
X0062000000Y0016500000D01*
X0062000000Y0017000000D01*
D10*
X0062000000Y0017000000D02*
X0058000000Y0021000000D01*
X0056000000Y0021000000D01*
D11*
X0029500000Y0009500000D02*
X0032500000Y0006500000D01*
X0032750000Y0006500000D01*
X0033000000Y0006250000D01*
X0039000000Y0006250000D01*
X0039250000Y0006500000D01*
X0039500000Y0006500000D01*
X0041000000Y0008000000D01*
X0049500000Y0008000000D01*
X0049750000Y0008250000D01*
X0050000000Y0008250000D01*
X0051750000Y0010000000D01*
X0058000000Y0010000000D01*
X0058250000Y0010250000D01*
X0058750000Y0010250000D01*
X0060750000Y0012250000D01*
X0064250000Y0012250000D01*
D11*
X0064250000Y0012250000D02*
X0066000000Y0014000000D01*
X0066000000Y0021000000D01*
D12*
X0005000000Y0014750000D03*
D12*
X0007000000Y0014750000D03*
D12*
X0018000000Y0014750000D03*
D12*
X0020000000Y0014750000D03*
D13*
X0033460000Y0008440000D03*
D13*
X0036000000Y0008440000D03*
D13*
X0038540000Y0008440000D03*
D13*
X0033460000Y0016060000D03*
D13*
X0036000000Y0016060000D03*
D13*
X0038540000Y0016060000D03*
D13*
X0064250000Y0012250000D03*
D13*
X0057750000Y0012250000D03*
D14*
X0003000000Y0003000000D03*
D14*
X0006500000Y0003000000D03*
D13*
X0002500000Y0022000000D03*
D13*
X0006000000Y0022000000D03*
D13*
X0039810000Y0022000000D03*
D13*
X0029650000Y0022000000D03*
D13*
X0032190000Y0022000000D03*
D13*
X0037270000Y0022000000D03*
D13*
X0035000000Y0003000000D03*
D13*
X0048000000Y0003000000D03*
D13*
X0018000000Y0022000000D03*
D13*
X0044000000Y0022000000D03*
D13*
X0042000000Y0003000000D03*
D13*
X0048000000Y0022000000D03*
D12*
X0049000000Y0006000000D03*
D12*
X0056000000Y0006000000D03*
D12*
X0049000000Y0010000000D03*
D12*
X0049000000Y0016000000D03*
D12*
X0066000000Y0021000000D03*
D12*
X0056000000Y0021000000D03*
D12*
X0010000000Y0003000000D03*
D12*
X0015000000Y0003000000D03*
D12*
X0056960000Y0017000000D03*
D12*
X0059500000Y0017000000D03*
D12*
X0062040000Y0017000000D03*
D15*
X0029750000Y0022000000D03*
D15*
X0034000000Y0018250000D03*
D15*
X0037250000Y0022000000D03*
D15*
X0038500000Y0012500000D03*
D15*
X0018000000Y0022000000D03*
D15*
X0035000000Y0010500000D03*
D15*
X0019750000Y0018250000D03*
D15*
X0004250000Y0004000000D03*
D15*
X0010000000Y0003000000D03*
D15*
X0015000000Y0003000000D03*
D15*
X0044000000Y0022000000D03*
D15*
X0057750000Y0012250000D03*
D15*
X0029500000Y0009500000D03*
D15*
X0064250000Y0012250000D03*
D10*
X0036000000Y0031750000D02*
X0037750000Y0030000000D01*
X0037750000Y0028000000D01*
D10*
X0031500000Y0037500000D02*
X0030250000Y0036250000D01*
X0030250000Y0035500000D01*
X0029500000Y0034750000D01*
X0029500000Y0033250000D01*
X0029750000Y0033000000D01*
X0029750000Y0032750000D01*
X0030250000Y0032250000D01*
X0030250000Y0028000000D01*
D10*
X0022000000Y0047000000D02*
X0021000000Y0046000000D01*
X0021000000Y0044000000D01*
D10*
X0035000000Y0047000000D02*
X0028000000Y0047000000D01*
D11*
X0035000000Y0039500000D02*
X0031000000Y0039500000D01*
X0030750000Y0039250000D01*
X0030500000Y0039250000D01*
X0025250000Y0034000000D01*
X0021000000Y0034000000D01*
D11*
X0022000000Y0034000000D02*
X0022000000Y0028000000D01*
D11*
X0021000000Y0034000000D02*
X0020000000Y0033000000D01*
X0013000000Y0033000000D01*
D11*
X0050250000Y0031750000D02*
X0051750000Y0030250000D01*
X0052250000Y0030250000D01*
X0052500000Y0030000000D01*
X0053000000Y0030000000D01*
X0055000000Y0028000000D01*
X0064000000Y0028000000D01*
D11*
X0059000000Y0028000000D02*
X0059000000Y0040750000D01*
X0059250000Y0041000000D01*
X0059250000Y0041250000D01*
X0063500000Y0045500000D01*
X0063500000Y0047000000D01*
D11*
X0067000000Y0047000000D02*
X0066750000Y0047000000D01*
X0065750000Y0046000000D01*
D11*
X0067000000Y0047000000D02*
X0067500000Y0046500000D01*
X0067500000Y0028000000D01*
D10*
X0012250000Y0037750000D02*
X0008000000Y0033500000D01*
X0008000000Y0033000000D01*
D10*
X0008000000Y0033000000D02*
X0012000000Y0029000000D01*
X0014000000Y0029000000D01*
D11*
X0040500000Y0040500000D02*
X0037500000Y0043500000D01*
X0037250000Y0043500000D01*
X0037000000Y0043750000D01*
X0031000000Y0043750000D01*
X0030750000Y0043500000D01*
X0030500000Y0043500000D01*
X0029000000Y0042000000D01*
X0020500000Y0042000000D01*
X0020250000Y0041750000D01*
X0020000000Y0041750000D01*
X0018250000Y0040000000D01*
X0012000000Y0040000000D01*
X0011750000Y0039750000D01*
X0011250000Y0039750000D01*
X0009250000Y0037750000D01*
X0005750000Y0037750000D01*
D11*
X0005750000Y0037750000D02*
X0004000000Y0036000000D01*
X0004000000Y0029000000D01*
D12*
X0065000000Y0035250000D03*
D12*
X0063000000Y0035250000D03*
D12*
X0052000000Y0035250000D03*
D12*
X0050000000Y0035250000D03*
D13*
X0036540000Y0041560000D03*
D13*
X0034000000Y0041560000D03*
D13*
X0031460000Y0041560000D03*
D13*
X0036540000Y0033940000D03*
D13*
X0034000000Y0033940000D03*
D13*
X0031460000Y0033940000D03*
D13*
X0005750000Y0037750000D03*
D13*
X0012250000Y0037750000D03*
D14*
X0067000000Y0047000000D03*
D14*
X0063500000Y0047000000D03*
D13*
X0067500000Y0028000000D03*
D13*
X0064000000Y0028000000D03*
D13*
X0030190000Y0028000000D03*
D13*
X0040350000Y0028000000D03*
D13*
X0037810000Y0028000000D03*
D13*
X0032730000Y0028000000D03*
D13*
X0035000000Y0047000000D03*
D13*
X0022000000Y0047000000D03*
D13*
X0052000000Y0028000000D03*
D13*
X0026000000Y0028000000D03*
D13*
X0028000000Y0047000000D03*
D13*
X0022000000Y0028000000D03*
D12*
X0021000000Y0044000000D03*
D12*
X0014000000Y0044000000D03*
D12*
X0021000000Y0040000000D03*
D12*
X0021000000Y0034000000D03*
D12*
X0004000000Y0029000000D03*
D12*
X0014000000Y0029000000D03*
D12*
X0060000000Y0047000000D03*
D12*
X0055000000Y0047000000D03*
D12*
X0013040000Y0033000000D03*
D12*
X0010500000Y0033000000D03*
D12*
X0007960000Y0033000000D03*
D15*
X0040250000Y0028000000D03*
D15*
X0036000000Y0031750000D03*
D15*
X0032750000Y0028000000D03*
D15*
X0031500000Y0037500000D03*
D15*
X0052000000Y0028000000D03*
D15*
X0035000000Y0039500000D03*
D15*
X0050250000Y0031750000D03*
D15*
X0065750000Y0046000000D03*
D15*
X0060000000Y0047000000D03*
D15*
X0055000000Y0047000000D03*
D15*
X0026000000Y0028000000D03*
D15*
X0012250000Y0037750000D03*
D15*
X0040500000Y0040500000D03*
D15*
X0005750000Y0037750000D03*
M02*
