G04 ESPNoise Rev C F.Cu*
%FSLAX46Y46*%
%MOMM*%
%LPD*%
%ADD10C,0.500000*%
%ADD11C,0.600000*%
%ADD12C,1.600000*%
%ADD13R,4.150000X3.000000*%
%ADD14C,1.800000*%
D10*
X0009500000Y0034500000D02*
X0011000000Y0036000000D01*
X0011000000Y0045000000D01*
D10*
X0009000000Y0031500000D02*
X0013500000Y0036000000D01*
X0013500000Y0045000000D01*
D10*
X0013500000Y0031000000D02*
X0016000000Y0033500000D01*
X0016000000Y0045000000D01*
D10*
X0018500000Y0045000000D02*
X0028500000Y0035000000D01*
X0028500000Y0009000000D01*
X0030000000Y0007500000D01*
X0030000000Y0007000000D01*
D10*
X0021000000Y0045000000D02*
X0038000000Y0028000000D01*
X0043000000Y0028000000D01*
D11*
X0050000000Y0023000000D02*
X0060000000Y0013000000D01*
X0062500000Y0013000000D01*
D10*
X0030000000Y0009500000D02*
X0036000000Y0015500000D01*
X0036000000Y0020500000D01*
X0037000000Y0021500000D01*
X0038000000Y0021500000D01*
X0043000000Y0016500000D01*
X0043000000Y0016000000D01*
D10*
X0035000000Y0045000000D02*
X0048000000Y0032000000D01*
X0048000000Y0023000000D01*
X0048500000Y0022500000D01*
X0048500000Y0022000000D01*
X0050000000Y0020500000D01*
X0050000000Y0016000000D01*
D10*
X0050000000Y0028000000D02*
X0050000000Y0032000000D01*
D10*
X0050000000Y0029500000D02*
X0053500000Y0029500000D01*
X0055000000Y0028000000D01*
D10*
X0051500000Y0013000000D02*
X0054500000Y0016000000D01*
D10*
X0060000000Y0023000000D02*
X0057500000Y0025500000D01*
X0057500000Y0028000000D01*
D11*
X0003500000Y0045000000D02*
X0005000000Y0046500000D01*
X0005500000Y0046500000D01*
X0006000000Y0047000000D01*
X0040000000Y0047000000D01*
X0040500000Y0046500000D01*
X0041000000Y0046500000D01*
X0042500000Y0045000000D01*
X0045000000Y0045000000D01*
D11*
X0045000000Y0045000000D02*
X0050000000Y0040000000D01*
X0055500000Y0040000000D01*
D11*
X0030500000Y0012500000D02*
X0030000000Y0012000000D01*
D11*
X0037500000Y0014500000D02*
X0036000000Y0013000000D01*
X0036000000Y0009000000D01*
X0037500000Y0007500000D01*
X0037500000Y0007000000D01*
D11*
X0037500000Y0007000000D02*
X0037500000Y0004500000D01*
D11*
X0037500000Y0005500000D02*
X0040000000Y0005500000D01*
D11*
X0030500000Y0012500000D02*
X0031000000Y0013000000D01*
X0031000000Y0013500000D01*
X0031500000Y0014000000D01*
X0031500000Y0014500000D01*
X0032500000Y0015500000D01*
X0032500000Y0016000000D01*
X0035000000Y0018500000D01*
X0035000000Y0021000000D01*
X0037500000Y0023500000D01*
X0037500000Y0026500000D01*
D11*
X0037500000Y0045000000D02*
X0042500000Y0040000000D01*
X0043000000Y0040000000D01*
X0043500000Y0039500000D01*
X0049000000Y0039500000D01*
X0049500000Y0039000000D01*
X0051000000Y0039000000D01*
X0051500000Y0038500000D01*
X0055000000Y0038500000D01*
X0055500000Y0038000000D01*
X0056000000Y0038500000D01*
X0056500000Y0038500000D01*
X0058000000Y0040000000D01*
X0060500000Y0040000000D01*
D11*
X0060500000Y0040000000D02*
X0061500000Y0039000000D01*
X0061500000Y0034000000D01*
D11*
X0024500000Y0008000000D02*
X0028000000Y0004500000D01*
X0030000000Y0004500000D01*
D11*
X0030500000Y0025000000D02*
X0030500000Y0019000000D01*
X0031500000Y0018000000D01*
X0031500000Y0016500000D01*
X0030000000Y0015000000D01*
X0030000000Y0014500000D01*
D11*
X0030500000Y0019500000D02*
X0030000000Y0019500000D01*
D11*
X0031500000Y0018000000D02*
X0032000000Y0018000000D01*
D11*
X0038000000Y0017000000D02*
X0037500000Y0017000000D01*
D11*
X0038000000Y0017000000D02*
X0038000000Y0016500000D01*
X0039500000Y0015000000D01*
X0039500000Y0012000000D01*
X0039000000Y0011500000D01*
X0039000000Y0011000000D01*
X0037500000Y0009500000D01*
D11*
X0038500000Y0010500000D02*
X0042000000Y0007000000D01*
X0042000000Y0005500000D01*
D11*
X0025500000Y0029000000D02*
X0023500000Y0031000000D01*
X0018500000Y0031000000D01*
D11*
X0026000000Y0045000000D02*
X0027500000Y0045000000D01*
X0029500000Y0043000000D01*
X0030500000Y0043000000D01*
X0032500000Y0045000000D01*
D11*
X0040500000Y0044500000D02*
X0040000000Y0045000000D01*
D11*
X0006000000Y0044500000D02*
X0006000000Y0045000000D01*
D11*
X0052500000Y0027500000D02*
X0052500000Y0028000000D01*
D11*
X0057000000Y0032000000D02*
X0061500000Y0032000000D01*
X0062000000Y0032500000D01*
X0062500000Y0032500000D01*
X0064000000Y0034000000D01*
X0066500000Y0034000000D01*
D12*
X0007000000Y0007500000D03*
D12*
X0009000000Y0007500000D03*
D12*
X0022000000Y0007500000D03*
D12*
X0024000000Y0007500000D03*
D12*
X0006000000Y0031000000D03*
D12*
X0008540000Y0031000000D03*
D12*
X0011080000Y0031000000D03*
D12*
X0013620000Y0031000000D03*
D12*
X0016160000Y0031000000D03*
D12*
X0018700000Y0031000000D03*
D13*
X0062325000Y0013000000D03*
D13*
X0051675000Y0013000000D03*
D12*
X0003500000Y0045000000D03*
D12*
X0006000000Y0045000000D03*
D12*
X0008500000Y0045000000D03*
D12*
X0011000000Y0045000000D03*
D12*
X0013500000Y0045000000D03*
D12*
X0016000000Y0045000000D03*
D12*
X0018500000Y0045000000D03*
D12*
X0021000000Y0045000000D03*
D12*
X0023500000Y0045000000D03*
D12*
X0026000000Y0045000000D03*
D12*
X0030000000Y0045000000D03*
D12*
X0032500000Y0045000000D03*
D12*
X0035000000Y0045000000D03*
D12*
X0037500000Y0045000000D03*
D12*
X0040000000Y0045000000D03*
D12*
X0045000000Y0045000000D03*
D12*
X0047500000Y0045000000D03*
D12*
X0030000000Y0004500000D03*
D12*
X0030000000Y0007040000D03*
D12*
X0030000000Y0009580000D03*
D12*
X0030000000Y0012120000D03*
D12*
X0030000000Y0014660000D03*
D12*
X0030000000Y0019740000D03*
D12*
X0037620000Y0004500000D03*
D12*
X0037620000Y0007040000D03*
D12*
X0037620000Y0009580000D03*
D12*
X0037620000Y0014660000D03*
D12*
X0037620000Y0017200000D03*
D12*
X0043000000Y0016000000D03*
D12*
X0050000000Y0016000000D03*
D12*
X0043000000Y0028000000D03*
D12*
X0050000000Y0028000000D03*
D12*
X0050000000Y0032000000D03*
D12*
X0057000000Y0032000000D03*
D12*
X0050000000Y0023000000D03*
D12*
X0060000000Y0023000000D03*
D12*
X0040000000Y0005500000D03*
D12*
X0042000000Y0005500000D03*
D12*
X0055500000Y0040000000D03*
D12*
X0060500000Y0040000000D03*
D12*
X0061500000Y0034000000D03*
D12*
X0066500000Y0034000000D03*
D12*
X0052460000Y0028000000D03*
D12*
X0055000000Y0028000000D03*
D12*
X0057540000Y0028000000D03*
D14*
X0008500000Y0045000000D03*
D14*
X0009500000Y0034500000D03*
D14*
X0009000000Y0031500000D03*
D14*
X0013500000Y0031000000D03*
D14*
X0023500000Y0045000000D03*
D14*
X0050000000Y0023000000D03*
D14*
X0054500000Y0016000000D03*
D14*
X0060000000Y0023000000D03*
D14*
X0030500000Y0012500000D03*
D14*
X0037500000Y0014500000D03*
D14*
X0037500000Y0026500000D03*
D14*
X0037500000Y0045000000D03*
D14*
X0030000000Y0045000000D03*
D14*
X0024500000Y0008000000D03*
D14*
X0030500000Y0025000000D03*
D14*
X0032000000Y0018000000D03*
D14*
X0038000000Y0017000000D03*
D14*
X0025500000Y0029000000D03*
D14*
X0018500000Y0031000000D03*
D14*
X0026000000Y0045000000D03*
D14*
X0040500000Y0044500000D03*
D14*
X0047500000Y0045000000D03*
D14*
X0006000000Y0044500000D03*
D14*
X0052500000Y0027500000D03*
D14*
X0057000000Y0032000000D03*
M02*
