G04 ESPNoise Rev C unit F.Cu*
%FSLAX46Y46*%
%MOMM*%
%LPD*%
%ADD10C,1.000000*%
%ADD11C,1.300000*%
%ADD12C,1.600000*%
%ADD13C,2.000000*%
%ADD14C,2.400000*%
%ADD15C,1.700000*%
D10*
X0034000000Y0018250000D02*
X0032250000Y0020000000D01*
X0032250000Y0022000000D01*
D10*
X0038500000Y0012500000D02*
X0039750000Y0013750000D01*
X0039750000Y0014500000D01*
X0040500000Y0015250000D01*
X0040500000Y0016750000D01*
X0040250000Y0017000000D01*
X0040250000Y0017250000D01*
X0039750000Y0017750000D01*
X0039750000Y0022000000D01*
D10*
X0048000000Y0003000000D02*
X0049000000Y0004000000D01*
X0049000000Y0006000000D01*
D10*
X0035000000Y0003000000D02*
X0042000000Y0003000000D01*
D11*
X0035000000Y0010500000D02*
X0039000000Y0010500000D01*
X0039250000Y0010750000D01*
X0039500000Y0010750000D01*
X0044750000Y0016000000D01*
X0049000000Y0016000000D01*
D11*
X0048000000Y0016000000D02*
X0048000000Y0022000000D01*
D11*
X0049000000Y0016000000D02*
X0050000000Y0017000000D01*
X0057000000Y0017000000D01*
D11*
X0019750000Y0018250000D02*
X0018250000Y0019750000D01*
X0017750000Y0019750000D01*
X0017500000Y0020000000D01*
X0017000000Y0020000000D01*
X0015000000Y0022000000D01*
X0006000000Y0022000000D01*
D11*
X0011000000Y0022000000D02*
X0011000000Y0009250000D01*
X0010750000Y0009000000D01*
X0010750000Y0008750000D01*
X0006500000Y0004500000D01*
X0006500000Y0003000000D01*
D11*
X0003000000Y0003000000D02*
X0003250000Y0003000000D01*
X0004250000Y0004000000D01*
D11*
X0003000000Y0003000000D02*
X0002500000Y0003500000D01*
X0002500000Y0022000000D01*
D10*
X0057750000Y0012250000D02*
X0062000000Y0016500000D01*
X0062000000Y0017000000D01*
D10*
X0062000000Y0017000000D02*
X0058000000Y0021000000D01*
X0056000000Y0021000000D01*
D11*
X0029500000Y0009500000D02*
X0032500000Y0006500000D01*
X0032750000Y0006500000D01*
X0033000000Y0006250000D01*
X0039000000Y0006250000D01*
X0039250000Y0006500000D01*
X0039500000Y0006500000D01*
X0041000000Y0008000000D01*
X0049500000Y0008000000D01*
X0049750000Y0008250000D01*
X0050000000Y0008250000D01*
X0051750000Y0010000000D01*
X0058000000Y0010000000D01*
X0058250000Y0010250000D01*
X0058750000Y0010250000D01*
X0060750000Y0012250000D01*
X0064250000Y0012250000D01*
D11*
X0064250000Y0012250000D02*
X0066000000Y0014000000D01*
X0066000000Y0021000000D01*
D12*
X0005000000Y0014750000D03*
D12*
X0007000000Y0014750000D03*
D12*
X0018000000Y0014750000D03*
D12*
X0020000000Y0014750000D03*
D13*
X0033460000Y0008440000D03*
D13*
X0036000000Y0008440000D03*
D13*
X0038540000Y0008440000D03*
D13*
X0033460000Y0016060000D03*
D13*
X0036000000Y0016060000D03*
D13*
X0038540000Y0016060000D03*
D13*
X0064250000Y0012250000D03*
D13*
X0057750000Y0012250000D03*
D14*
X0003000000Y0003000000D03*
D14*
X0006500000Y0003000000D03*
D13*
X0002500000Y0022000000D03*
D13*
X0006000000Y0022000000D03*
D13*
X0039810000Y0022000000D03*
D13*
X0029650000Y0022000000D03*
D13*
X0032190000Y0022000000D03*
D13*
X0037270000Y0022000000D03*
D13*
X0035000000Y0003000000D03*
D13*
X0048000000Y0003000000D03*
D13*
X0018000000Y0022000000D03*
D13*
X0044000000Y0022000000D03*
D13*
X0042000000Y0003000000D03*
D13*
X0048000000Y0022000000D03*
D12*
X0049000000Y0006000000D03*
D12*
X0056000000Y0006000000D03*
D12*
X0049000000Y0010000000D03*
D12*
X0049000000Y0016000000D03*
D12*
X0066000000Y0021000000D03*
D12*
X0056000000Y0021000000D03*
D12*
X0010000000Y0003000000D03*
D12*
X0015000000Y0003000000D03*
D12*
X0056960000Y0017000000D03*
D12*
X0059500000Y0017000000D03*
D12*
X0062040000Y0017000000D03*
D15*
X0029750000Y0022000000D03*
D15*
X0034000000Y0018250000D03*
D15*
X0037250000Y0022000000D03*
D15*
X0038500000Y0012500000D03*
D15*
X0018000000Y0022000000D03*
D15*
X0035000000Y0010500000D03*
D15*
X0019750000Y0018250000D03*
D15*
X0004250000Y0004000000D03*
D15*
X0010000000Y0003000000D03*
D15*
X0015000000Y0003000000D03*
D15*
X0044000000Y0022000000D03*
D15*
X0057750000Y0012250000D03*
D15*
X0029500000Y0009500000D03*
D15*
X0064250000Y0012250000D03*
M02*
