G04 ESPNoise Rev C two-unit panel B.Cu*
%FSLAX46Y46*%
%MOMM*%
%LPD*%
%ADD10C,0.500000*%
%ADD11C,0.600000*%
%ADD12C,1.600000*%
%ADD13C,2.400000*%
%ADD14C,2.000000*%
%ADD15C,1.700000*%
D10*
X0029750000Y0018500000D02*
X0029750000Y0022000000D01*
D10*
X0032250000Y0018500000D02*
X0032250000Y0022000000D01*
D10*
X0037250000Y0018500000D02*
X0037250000Y0022000000D01*
D10*
X0039750000Y0018500000D02*
X0039750000Y0022000000D01*
D10*
X0018000000Y0014750000D02*
X0018000000Y0022000000D01*
D11*
X0020000000Y0014750000D02*
X0026750000Y0008000000D01*
X0027500000Y0008000000D01*
D11*
X0027500000Y0008000000D02*
X0034750000Y0015250000D01*
X0034750000Y0018500000D01*
D11*
X0034750000Y0017000000D02*
X0040500000Y0017000000D01*
X0042000000Y0018500000D01*
X0042250000Y0018500000D01*
D11*
X0042250000Y0018500000D02*
X0044000000Y0020250000D01*
X0044750000Y0020250000D01*
X0046500000Y0022000000D01*
X0048000000Y0022000000D01*
D11*
X0020000000Y0014750000D02*
X0019750000Y0015000000D01*
X0019750000Y0015250000D01*
X0019500000Y0015500000D01*
X0019500000Y0016250000D01*
D11*
X0007000000Y0014750000D02*
X0007500000Y0014250000D01*
X0007500000Y0014000000D01*
X0015000000Y0006500000D01*
X0015000000Y0003000000D01*
D11*
X0015000000Y0006500000D02*
X0015250000Y0006750000D01*
X0015500000Y0006750000D01*
X0015750000Y0007000000D01*
X0016000000Y0007000000D01*
X0016500000Y0007500000D01*
X0016750000Y0007500000D01*
X0017250000Y0008000000D01*
X0022500000Y0008000000D01*
D10*
X0056000000Y0006000000D02*
X0052000000Y0010000000D01*
X0049000000Y0010000000D01*
D10*
X0055750000Y0006250000D02*
X0059500000Y0010000000D01*
X0059500000Y0017000000D01*
D10*
X0055750000Y0015250000D02*
X0055750000Y0016000000D01*
X0055500000Y0016250000D01*
X0055500000Y0017750000D01*
X0056000000Y0018250000D01*
X0056000000Y0021000000D01*
D11*
X0005000000Y0014750000D02*
X0005250000Y0015000000D01*
X0005250000Y0015250000D01*
X0006500000Y0016500000D01*
X0012000000Y0016500000D01*
X0015250000Y0013250000D01*
X0015750000Y0013250000D01*
X0016000000Y0013000000D01*
X0019750000Y0013000000D01*
X0024750000Y0008000000D01*
X0024750000Y0007750000D01*
D11*
X0047250000Y0019250000D02*
X0054500000Y0019250000D01*
D12*
X0005000000Y0014750000D03*
D12*
X0007000000Y0014750000D03*
D12*
X0018000000Y0014750000D03*
D12*
X0020000000Y0014750000D03*
D12*
X0029650000Y0018500000D03*
D12*
X0032190000Y0018500000D03*
D12*
X0034730000Y0018500000D03*
D12*
X0037270000Y0018500000D03*
D12*
X0039810000Y0018500000D03*
D12*
X0042350000Y0018500000D03*
D13*
X0003000000Y0003000000D03*
D13*
X0006500000Y0003000000D03*
D14*
X0002500000Y0022000000D03*
D14*
X0006000000Y0022000000D03*
D14*
X0018000000Y0022000000D03*
D14*
X0029650000Y0022000000D03*
D14*
X0032190000Y0022000000D03*
D14*
X0037270000Y0022000000D03*
D14*
X0039810000Y0022000000D03*
D14*
X0035000000Y0003000000D03*
D14*
X0048000000Y0003000000D03*
D14*
X0044000000Y0022000000D03*
D14*
X0042000000Y0003000000D03*
D14*
X0048000000Y0022000000D03*
D12*
X0035000000Y0008000000D03*
D12*
X0042000000Y0008000000D03*
D12*
X0049000000Y0006000000D03*
D12*
X0056000000Y0006000000D03*
D12*
X0049000000Y0010000000D03*
D12*
X0049000000Y0016000000D03*
D12*
X0066000000Y0021000000D03*
D12*
X0056000000Y0021000000D03*
D12*
X0010000000Y0003000000D03*
D12*
X0015000000Y0003000000D03*
D12*
X0022500000Y0008000000D03*
D12*
X0027500000Y0008000000D03*
D12*
X0056960000Y0017000000D03*
D12*
X0059500000Y0017000000D03*
D12*
X0062040000Y0017000000D03*
D15*
X0029750000Y0022000000D03*
D15*
X0032250000Y0022000000D03*
D15*
X0037250000Y0022000000D03*
D15*
X0039750000Y0022000000D03*
D15*
X0018000000Y0022000000D03*
D15*
X0027500000Y0008000000D03*
D15*
X0048000000Y0022000000D03*
D15*
X0019500000Y0016250000D03*
D15*
X0015000000Y0003000000D03*
D15*
X0022500000Y0008000000D03*
D15*
X0055750000Y0015250000D03*
D15*
X0056000000Y0021000000D03*
D15*
X0024750000Y0007750000D03*
D15*
X0047250000Y0019250000D03*
D15*
X0054500000Y0019250000D03*
D10*
X0040250000Y0031500000D02*
X0040250000Y0028000000D01*
D10*
X0037750000Y0031500000D02*
X0037750000Y0028000000D01*
D10*
X0032750000Y0031500000D02*
X0032750000Y0028000000D01*
D10*
X0030250000Y0031500000D02*
X0030250000Y0028000000D01*
D10*
X0052000000Y0035250000D02*
X0052000000Y0028000000D01*
D11*
X0050000000Y0035250000D02*
X0043250000Y0042000000D01*
X0042500000Y0042000000D01*
D11*
X0042500000Y0042000000D02*
X0035250000Y0034750000D01*
X0035250000Y0031500000D01*
D11*
X0035250000Y0033000000D02*
X0029500000Y0033000000D01*
X0028000000Y0031500000D01*
X0027750000Y0031500000D01*
D11*
X0027750000Y0031500000D02*
X0026000000Y0029750000D01*
X0025250000Y0029750000D01*
X0023500000Y0028000000D01*
X0022000000Y0028000000D01*
D11*
X0050000000Y0035250000D02*
X0050250000Y0035000000D01*
X0050250000Y0034750000D01*
X0050500000Y0034500000D01*
X0050500000Y0033750000D01*
D11*
X0063000000Y0035250000D02*
X0062500000Y0035750000D01*
X0062500000Y0036000000D01*
X0055000000Y0043500000D01*
X0055000000Y0047000000D01*
D11*
X0055000000Y0043500000D02*
X0054750000Y0043250000D01*
X0054500000Y0043250000D01*
X0054250000Y0043000000D01*
X0054000000Y0043000000D01*
X0053500000Y0042500000D01*
X0053250000Y0042500000D01*
X0052750000Y0042000000D01*
X0047500000Y0042000000D01*
D10*
X0014000000Y0044000000D02*
X0018000000Y0040000000D01*
X0021000000Y0040000000D01*
D10*
X0014250000Y0043750000D02*
X0010500000Y0040000000D01*
X0010500000Y0033000000D01*
D10*
X0014250000Y0034750000D02*
X0014250000Y0034000000D01*
X0014500000Y0033750000D01*
X0014500000Y0032250000D01*
X0014000000Y0031750000D01*
X0014000000Y0029000000D01*
D11*
X0065000000Y0035250000D02*
X0064750000Y0035000000D01*
X0064750000Y0034750000D01*
X0063500000Y0033500000D01*
X0058000000Y0033500000D01*
X0054750000Y0036750000D01*
X0054250000Y0036750000D01*
X0054000000Y0037000000D01*
X0050250000Y0037000000D01*
X0045250000Y0042000000D01*
X0045250000Y0042250000D01*
D11*
X0022750000Y0030750000D02*
X0015500000Y0030750000D01*
D12*
X0065000000Y0035250000D03*
D12*
X0063000000Y0035250000D03*
D12*
X0052000000Y0035250000D03*
D12*
X0050000000Y0035250000D03*
D12*
X0040350000Y0031500000D03*
D12*
X0037810000Y0031500000D03*
D12*
X0035270000Y0031500000D03*
D12*
X0032730000Y0031500000D03*
D12*
X0030190000Y0031500000D03*
D12*
X0027650000Y0031500000D03*
D13*
X0067000000Y0047000000D03*
D13*
X0063500000Y0047000000D03*
D14*
X0067500000Y0028000000D03*
D14*
X0064000000Y0028000000D03*
D14*
X0052000000Y0028000000D03*
D14*
X0040350000Y0028000000D03*
D14*
X0037810000Y0028000000D03*
D14*
X0032730000Y0028000000D03*
D14*
X0030190000Y0028000000D03*
D14*
X0035000000Y0047000000D03*
D14*
X0022000000Y0047000000D03*
D14*
X0026000000Y0028000000D03*
D14*
X0028000000Y0047000000D03*
D14*
X0022000000Y0028000000D03*
D12*
X0035000000Y0042000000D03*
D12*
X0028000000Y0042000000D03*
D12*
X0021000000Y0044000000D03*
D12*
X0014000000Y0044000000D03*
D12*
X0021000000Y0040000000D03*
D12*
X0021000000Y0034000000D03*
D12*
X0004000000Y0029000000D03*
D12*
X0014000000Y0029000000D03*
D12*
X0060000000Y0047000000D03*
D12*
X0055000000Y0047000000D03*
D12*
X0047500000Y0042000000D03*
D12*
X0042500000Y0042000000D03*
D12*
X0013040000Y0033000000D03*
D12*
X0010500000Y0033000000D03*
D12*
X0007960000Y0033000000D03*
D15*
X0040250000Y0028000000D03*
D15*
X0037750000Y0028000000D03*
D15*
X0032750000Y0028000000D03*
D15*
X0030250000Y0028000000D03*
D15*
X0052000000Y0028000000D03*
D15*
X0042500000Y0042000000D03*
D15*
X0022000000Y0028000000D03*
D15*
X0050500000Y0033750000D03*
D15*
X0055000000Y0047000000D03*
D15*
X0047500000Y0042000000D03*
D15*
X0014250000Y0034750000D03*
D15*
X0014000000Y0029000000D03*
D15*
X0045250000Y0042250000D03*
D15*
X0022750000Y0030750000D03*
D15*
X0015500000Y0030750000D03*
M02*
