G04 ESPNoise Rev C unit F.Cu*
%FSLAX46Y46*%
%MOMM*%
%LPD*%
%ADD10C,1.000000*%
%ADD11C,1.300000*%
%ADD12C,1.600000*%
%ADD13C,2.000000*%
%ADD14C,2.400000*%
%ADD15C,1.700000*%
D10*
X0033500000Y0018250000D02*
X0031750000Y0020000000D01*
X0031750000Y0022000000D01*
D10*
X0038000000Y0012500000D02*
X0039250000Y0013750000D01*
X0039250000Y0014500000D01*
X0040000000Y0015250000D01*
X0040000000Y0016750000D01*
X0039750000Y0017000000D01*
X0039750000Y0017250000D01*
X0039250000Y0017750000D01*
X0039250000Y0022000000D01*
D10*
X0047500000Y0003000000D02*
X0048500000Y0004000000D01*
X0048500000Y0006000000D01*
D10*
X0034500000Y0003000000D02*
X0041500000Y0003000000D01*
D11*
X0034500000Y0010500000D02*
X0038500000Y0010500000D01*
X0038750000Y0010750000D01*
X0039000000Y0010750000D01*
X0044250000Y0016000000D01*
X0048500000Y0016000000D01*
D11*
X0047500000Y0016000000D02*
X0047500000Y0022000000D01*
D11*
X0048500000Y0016000000D02*
X0049500000Y0017000000D01*
X0056500000Y0017000000D01*
D11*
X0019250000Y0018250000D02*
X0017750000Y0019750000D01*
X0017250000Y0019750000D01*
X0017000000Y0020000000D01*
X0016500000Y0020000000D01*
X0014500000Y0022000000D01*
X0005500000Y0022000000D01*
D11*
X0010500000Y0022000000D02*
X0010500000Y0009250000D01*
X0010250000Y0009000000D01*
X0010250000Y0008750000D01*
X0006000000Y0004500000D01*
X0006000000Y0003000000D01*
D11*
X0002500000Y0003000000D02*
X0002750000Y0003000000D01*
X0003750000Y0004000000D01*
D11*
X0002500000Y0003000000D02*
X0002000000Y0003500000D01*
X0002000000Y0022000000D01*
D10*
X0057250000Y0012250000D02*
X0061500000Y0016500000D01*
X0061500000Y0017000000D01*
D10*
X0061500000Y0017000000D02*
X0057500000Y0021000000D01*
X0055500000Y0021000000D01*
D11*
X0029000000Y0009500000D02*
X0032000000Y0006500000D01*
X0032250000Y0006500000D01*
X0032500000Y0006250000D01*
X0038500000Y0006250000D01*
X0038750000Y0006500000D01*
X0039000000Y0006500000D01*
X0040500000Y0008000000D01*
X0049000000Y0008000000D01*
X0049250000Y0008250000D01*
X0049500000Y0008250000D01*
X0051250000Y0010000000D01*
X0057500000Y0010000000D01*
X0057750000Y0010250000D01*
X0058250000Y0010250000D01*
X0060250000Y0012250000D01*
X0063750000Y0012250000D01*
D11*
X0063750000Y0012250000D02*
X0065500000Y0014000000D01*
X0065500000Y0021000000D01*
D12*
X0004500000Y0014750000D03*
D12*
X0006500000Y0014750000D03*
D12*
X0017500000Y0014750000D03*
D12*
X0019500000Y0014750000D03*
D13*
X0032960000Y0008440000D03*
D13*
X0035500000Y0008440000D03*
D13*
X0038040000Y0008440000D03*
D13*
X0032960000Y0016060000D03*
D13*
X0035500000Y0016060000D03*
D13*
X0038040000Y0016060000D03*
D13*
X0063750000Y0012250000D03*
D13*
X0057250000Y0012250000D03*
D14*
X0002500000Y0003000000D03*
D14*
X0006000000Y0003000000D03*
D13*
X0002000000Y0022000000D03*
D13*
X0005500000Y0022000000D03*
D13*
X0039310000Y0022000000D03*
D13*
X0029150000Y0022000000D03*
D13*
X0031690000Y0022000000D03*
D13*
X0036770000Y0022000000D03*
D13*
X0034500000Y0003000000D03*
D13*
X0047500000Y0003000000D03*
D13*
X0017500000Y0022000000D03*
D13*
X0043500000Y0022000000D03*
D13*
X0041500000Y0003000000D03*
D13*
X0047500000Y0022000000D03*
D12*
X0048500000Y0006000000D03*
D12*
X0055500000Y0006000000D03*
D12*
X0048500000Y0010000000D03*
D12*
X0048500000Y0016000000D03*
D12*
X0065500000Y0021000000D03*
D12*
X0055500000Y0021000000D03*
D12*
X0009500000Y0003000000D03*
D12*
X0014500000Y0003000000D03*
D12*
X0056460000Y0017000000D03*
D12*
X0059000000Y0017000000D03*
D12*
X0061540000Y0017000000D03*
D15*
X0029250000Y0022000000D03*
D15*
X0033500000Y0018250000D03*
D15*
X0036750000Y0022000000D03*
D15*
X0038000000Y0012500000D03*
D15*
X0017500000Y0022000000D03*
D15*
X0034500000Y0010500000D03*
D15*
X0019250000Y0018250000D03*
D15*
X0003750000Y0004000000D03*
D15*
X0009500000Y0003000000D03*
D15*
X0014500000Y0003000000D03*
D15*
X0043500000Y0022000000D03*
D15*
X0057250000Y0012250000D03*
D15*
X0029000000Y0009500000D03*
D15*
X0063750000Y0012250000D03*
M02*
