M48
;DRILL file generated by ESPNoise
METRIC,TZ
T1C1.000
%
G90
G05
T1
X005000Y009750
X007000Y009750
X009000Y009750
X005000Y014750
X007000Y014750
X009000Y014750
X016000Y009750
X018000Y009750
X020000Y009750
X016000Y014750
X018000Y014750
X020000Y014750
X033460Y008440
X036000Y008440
X038540Y008440
X033460Y016060
X036000Y016060
X038540Y016060
X064800Y012250
X057200Y012250
X010000Y003000
X015000Y003000
X065000Y040250
X063000Y040250
X061000Y040250
X065000Y035250
X063000Y035250
X061000Y035250
X054000Y040250
X052000Y040250
X050000Y040250
X054000Y035250
X052000Y035250
X050000Y035250
X036540Y041560
X034000Y041560
X031460Y041560
X036540Y033940
X034000Y033940
X031460Y033940
X005200Y037750
X012800Y037750
X060000Y047000
X055000Y047000
T0
M30
