%TF.GenerationSoftware,KiCad,Pcbnew,10.0.5*%
%TF.CreationDate,2026-08-03T21:14:08+04:00*%
%TF.ProjectId,espnoise-carrier,6573706e-6f69-4736-952d-636172726965,rev?*%
%TF.SameCoordinates,Original*%
%TF.FileFunction,Copper,L1,Top*%
%TF.FilePolarity,Positive*%
%FSLAX46Y46*%
G04 Gerber Fmt 4.6, Leading zero omitted, Abs format (unit mm)*
G04 Created by KiCad (PCBNEW 10.0.5) date 2026-08-03 21:14:08*
%MOMM*%
%LPD*%
G01*
G04 APERTURE LIST*
%TA.AperFunction,ComponentPad*%
%ADD10R,1.600000X1.600000*%
%TD*%
%TA.AperFunction,ComponentPad*%
%ADD11C,1.600000*%
%TD*%
%TA.AperFunction,ViaPad*%
%ADD12C,0.700000*%
%TD*%
%TA.AperFunction,ViaPad*%
%ADD13C,0.600000*%
%TD*%
%TA.AperFunction,Conductor*%
%ADD14C,0.900000*%
%TD*%
%TA.AperFunction,Conductor*%
%ADD15C,0.700000*%
%TD*%
%TA.AperFunction,Conductor*%
%ADD16C,0.250000*%
%TD*%
%TA.AperFunction,Conductor*%
%ADD17C,0.500000*%
%TD*%
G04 APERTURE END LIST*
D10*
%TO.P,SW2,1*%
%TO.N,+5V_BUZZER_SW*%
X20900000Y-8900000D03*
D11*
%TO.P,SW2,2*%
%TO.N,+5V_PERIPH*%
X22900000Y-8900000D03*
%TO.P,SW2,3*%
%TO.N,N/C*%
X24900000Y-8900000D03*
%TO.P,SW2,4*%
X20900000Y-13900000D03*
%TO.P,SW2,5*%
X22900000Y-13900000D03*
%TO.P,SW2,6*%
X24900000Y-13900000D03*
%TD*%
D10*
%TO.P,SW1,1*%
%TO.N,N/C*%
X50900000Y-7600000D03*
D11*
%TO.P,SW1,2*%
%TO.N,MUTE_N*%
X52900000Y-7600000D03*
%TO.P,SW1,3*%
%TO.N,GND*%
X54900000Y-7600000D03*
%TO.P,SW1,4*%
%TO.N,N/C*%
X50900000Y-12600000D03*
%TO.P,SW1,5*%
X52900000Y-12600000D03*
%TO.P,SW1,6*%
X54900000Y-12600000D03*
%TD*%
D12*
%TO.N,+5V_IN*%
X62000000Y-28000000D03*
X63600000Y-20000000D03*
X6000000Y-34500000D03*
X65000000Y-34500000D03*
%TO.N,+5V_BUZZER_SW*%
X74000000Y-30000000D03*
%TO.N,MIC_SCK*%
X12000000Y-33500000D03*
X36000000Y-33500000D03*
%TO.N,MIC_SD*%
X16000000Y-29000000D03*
X40000000Y-29000000D03*
D13*
%TO.N,LED_DATA_3V3*%
X45700000Y-16000000D03*
D12*
X18000000Y-29000000D03*
%TO.N,LED_DATA_5V*%
X56000000Y-21830000D03*
X53500000Y-29000000D03*
%TO.N,BUZZER_PWM*%
X20000000Y-29000000D03*
X68000000Y-18000000D03*
%TO.N,BUZZER_COLLECTOR*%
X78000000Y-21940000D03*
X77500000Y-28000000D03*
%TO.N,MUTE_N*%
X22000000Y-33500000D03*
%TD*%
%TO.N,+5V_IN*%
D14*
X6000000Y-34500000D02*
X6000000Y-36500000D01*
X62000000Y-28000000D02*
X69000000Y-20000000D01*
X69000000Y-20000000D02*
X63600000Y-20000000D01*
X6000000Y-36500000D02*
X65000000Y-36500000D01*
X65000000Y-36500000D02*
X65000000Y-34500000D01*
%TO.N,+5V_BUZZER_SW*%
D15*
X85000000Y-3500000D02*
X85000000Y-30000000D01*
X18500000Y-3500000D02*
X85000000Y-3500000D01*
X85000000Y-30000000D02*
X74000000Y-30000000D01*
X18500000Y-8900000D02*
X18500000Y-3500000D01*
X20900000Y-8900000D02*
X18500000Y-8900000D01*
%TO.N,MIC_SCK*%
D16*
X12000000Y-35000000D02*
X36000000Y-35000000D01*
X12000000Y-33500000D02*
X12000000Y-35000000D01*
X36000000Y-35000000D02*
X36000000Y-33500000D01*
%TO.N,MIC_SD*%
X16000000Y-27000000D02*
X40000000Y-27000000D01*
X40000000Y-27000000D02*
X40000000Y-29000000D01*
X16000000Y-29000000D02*
X16000000Y-27000000D01*
%TO.N,LED_DATA_3V3*%
X18000000Y-31300000D02*
X44000000Y-31300000D01*
X44000000Y-16000000D02*
X45700000Y-16000000D01*
X44000000Y-31300000D02*
X44000000Y-16000000D01*
X18000000Y-29000000D02*
X18000000Y-31300000D01*
%TO.N,LED_DATA_5V*%
X58000000Y-29000000D02*
X53500000Y-29000000D01*
X58000000Y-27000000D02*
X58000000Y-29000000D01*
X56000000Y-21830000D02*
X58000000Y-27000000D01*
%TO.N,BUZZER_PWM*%
X20000000Y-29000000D02*
X20000000Y-30000000D01*
X28000000Y-23500000D02*
X28000000Y-11000000D01*
X42000000Y-23500000D02*
X28000000Y-23500000D01*
X20000000Y-30000000D02*
X42000000Y-30000000D01*
X28000000Y-11000000D02*
X68000000Y-11000000D01*
X42000000Y-30000000D02*
X42000000Y-23500000D01*
X68000000Y-11000000D02*
X68000000Y-18000000D01*
%TO.N,BUZZER_COLLECTOR*%
D17*
X78000000Y-21940000D02*
X80000000Y-26500000D01*
X80000000Y-28000000D02*
X77500000Y-28000000D01*
X80000000Y-26500000D02*
X80000000Y-28000000D01*
%TO.N,MUTE_N*%
D16*
X75000000Y-15000000D02*
X75000000Y-5500000D01*
X22000000Y-33500000D02*
X24000000Y-32500000D01*
X75000000Y-5500000D02*
X52900000Y-5500000D01*
X24000000Y-32500000D02*
X70000000Y-32500000D01*
X70000000Y-15000000D02*
X75000000Y-15000000D01*
X52900000Y-5500000D02*
X52900000Y-7600000D01*
X70000000Y-32500000D02*
X70000000Y-15000000D01*
%TD*%
%TA.AperFunction,Conductor*%
%TO.N,GND*%
G36*
X95458691Y-519407D02*
G01*
X95494655Y-568907D01*
X95499500Y-599500D01*
X95499500Y-37400500D01*
X95480593Y-37458691D01*
X95431093Y-37494655D01*
X95400500Y-37499500D01*
X599500Y-37499500D01*
X541309Y-37480593D01*
X505345Y-37431093D01*
X500500Y-37400500D01*
X500500Y-34431004D01*
X5299500Y-34431004D01*
X5299500Y-36568995D01*
X5326420Y-36704327D01*
X5326420Y-36704329D01*
X5379222Y-36831806D01*
X5379228Y-36831817D01*
X5455885Y-36946541D01*
X5553458Y-37044114D01*
X5668182Y-37120771D01*
X5668193Y-37120777D01*
X5715283Y-37140282D01*
X5795672Y-37173580D01*
X5931007Y-37200500D01*
X5931008Y-37200500D01*
X65068992Y-37200500D01*
X65068993Y-37200500D01*
X65204328Y-37173580D01*
X65331811Y-37120775D01*
X65446542Y-37044114D01*
X65544114Y-36946542D01*
X65620775Y-36831811D01*
X65673580Y-36704328D01*
X65700500Y-36568993D01*
X65700500Y-34431007D01*
X65673580Y-34295672D01*
X65620775Y-34168189D01*
X65620774Y-34168187D01*
X65620771Y-34168182D01*
X65544114Y-34053458D01*
X65446541Y-33955885D01*
X65331817Y-33879228D01*
X65331806Y-33879222D01*
X65204328Y-33826420D01*
X65068995Y-33799500D01*
X65068993Y-33799500D01*
X64931007Y-33799500D01*
X64931004Y-33799500D01*
X64795672Y-33826420D01*
X64795670Y-33826420D01*
X64668193Y-33879222D01*
X64668182Y-33879228D01*
X64553458Y-33955885D01*
X64455885Y-34053458D01*
X64379228Y-34168182D01*
X64379222Y-34168193D01*
X64326420Y-34295670D01*
X64326420Y-34295672D01*
X64299500Y-34431004D01*
X64299500Y-35700500D01*
X64280593Y-35758691D01*
X64231093Y-35794655D01*
X64200500Y-35799500D01*
X6799500Y-35799500D01*
X6741309Y-35780593D01*
X6705345Y-35731093D01*
X6700500Y-35700500D01*
X6700500Y-34431008D01*
X6700499Y-34431004D01*
X6673580Y-34295672D01*
X6620775Y-34168189D01*
X6620774Y-34168187D01*
X6620771Y-34168182D01*
X6544114Y-34053458D01*
X6446541Y-33955885D01*
X6331817Y-33879228D01*
X6331806Y-33879222D01*
X6204328Y-33826420D01*
X6068995Y-33799500D01*
X6068993Y-33799500D01*
X5931007Y-33799500D01*
X5931004Y-33799500D01*
X5795672Y-33826420D01*
X5795670Y-33826420D01*
X5668193Y-33879222D01*
X5668182Y-33879228D01*
X5553458Y-33955885D01*
X5455885Y-34053458D01*
X5379228Y-34168182D01*
X5379222Y-34168193D01*
X5326420Y-34295670D01*
X5326420Y-34295672D01*
X5299500Y-34431004D01*
X500500Y-34431004D01*
X500500Y-33420943D01*
X11399500Y-33420943D01*
X11399500Y-33579057D01*
X11440423Y-33731784D01*
X11519480Y-33868716D01*
X11595505Y-33944741D01*
X11623281Y-33999256D01*
X11624500Y-34014743D01*
X11624500Y-35049435D01*
X11647067Y-35133657D01*
X11650091Y-35144942D01*
X11699523Y-35230559D01*
X11699525Y-35230562D01*
X11769438Y-35300475D01*
X11769440Y-35300476D01*
X11855058Y-35349908D01*
X11855056Y-35349908D01*
X11855060Y-35349909D01*
X11855062Y-35349910D01*
X11950565Y-35375500D01*
X11950567Y-35375500D01*
X36049433Y-35375500D01*
X36049435Y-35375500D01*
X36144938Y-35349910D01*
X36144940Y-35349908D01*
X36144942Y-35349908D01*
X36170377Y-35335222D01*
X36230562Y-35300475D01*
X36300475Y-35230562D01*
X36349910Y-35144938D01*
X36375500Y-35049435D01*
X36375500Y-34014743D01*
X36394407Y-33956552D01*
X36404490Y-33944745D01*
X36480520Y-33868716D01*
X36559577Y-33731784D01*
X36600500Y-33579057D01*
X36600500Y-33420943D01*
X36559577Y-33268216D01*
X36480520Y-33131284D01*
X36393737Y-33044501D01*
X36365962Y-32989987D01*
X36375533Y-32929555D01*
X36418798Y-32886290D01*
X36463743Y-32875500D01*
X70049433Y-32875500D01*
X70049435Y-32875500D01*
X70144938Y-32849910D01*
X70144940Y-32849908D01*
X70144942Y-32849908D01*
X70170377Y-32835222D01*
X70230562Y-32800475D01*
X70300475Y-32730562D01*
X70349910Y-32644938D01*
X70375500Y-32549435D01*
X70375500Y-27920943D01*
X76899500Y-27920943D01*
X76899500Y-28079057D01*
X76940423Y-28231784D01*
X77019480Y-28368716D01*
X77131284Y-28480520D01*
X77268216Y-28559577D01*
X77420943Y-28600500D01*
X77420945Y-28600500D01*
X77579055Y-28600500D01*
X77579057Y-28600500D01*
X77731784Y-28559577D01*
X77811137Y-28513762D01*
X77860636Y-28500500D01*
X80065890Y-28500500D01*
X80065892Y-28500500D01*
X80193186Y-28466392D01*
X80193188Y-28466390D01*
X80193190Y-28466390D01*
X80307309Y-28400503D01*
X80307309Y-28400502D01*
X80307314Y-28400500D01*
X80400500Y-28307314D01*
X80400503Y-28307309D01*
X80466390Y-28193190D01*
X80466390Y-28193188D01*
X80466392Y-28193186D01*
X80500500Y-28065892D01*
X80500500Y-26533093D01*
X80501101Y-26522198D01*
X80504712Y-26489586D01*
X80501634Y-26469428D01*
X80500500Y-26454485D01*
X80500500Y-26434109D01*
X80500500Y-26434108D01*
X80492007Y-26402412D01*
X80489771Y-26391752D01*
X80484818Y-26359311D01*
X80476633Y-26340648D01*
X80471669Y-26326506D01*
X80466394Y-26306820D01*
X80466393Y-26306818D01*
X80466392Y-26306814D01*
X80449978Y-26278385D01*
X80445065Y-26268676D01*
X78607136Y-22078196D01*
X78601922Y-22025789D01*
X78599653Y-22025491D01*
X78600500Y-22019057D01*
X78600500Y-21860944D01*
X78600500Y-21860943D01*
X78559577Y-21708216D01*
X78480520Y-21571284D01*
X78368716Y-21459480D01*
X78231784Y-21380423D01*
X78079057Y-21339500D01*
X77920943Y-21339500D01*
X77768216Y-21380423D01*
X77631284Y-21459480D01*
X77519480Y-21571284D01*
X77440423Y-21708216D01*
X77399500Y-21860943D01*
X77399500Y-22019057D01*
X77440423Y-22171784D01*
X77519480Y-22308716D01*
X77631284Y-22420520D01*
X77631286Y-22420521D01*
X77647280Y-22429755D01*
X77688222Y-22475224D01*
X77688442Y-22475723D01*
X79463212Y-26522198D01*
X79491163Y-26585925D01*
X79499500Y-26625689D01*
X79499500Y-27400500D01*
X79480593Y-27458691D01*
X79431093Y-27494655D01*
X79400500Y-27499500D01*
X77860636Y-27499500D01*
X77811137Y-27486237D01*
X77731784Y-27440423D01*
X77579057Y-27399500D01*
X77420943Y-27399500D01*
X77268216Y-27440423D01*
X77131284Y-27519480D01*
X77019480Y-27631284D01*
X76940423Y-27768216D01*
X76899500Y-27920943D01*
X70375500Y-27920943D01*
X70375500Y-15474500D01*
X70394407Y-15416309D01*
X70443907Y-15380345D01*
X70474500Y-15375500D01*
X75049433Y-15375500D01*
X75049435Y-15375500D01*
X75144938Y-15349910D01*
X75144940Y-15349908D01*
X75144942Y-15349908D01*
X75170377Y-15335222D01*
X75230562Y-15300475D01*
X75300475Y-15230562D01*
X75349910Y-15144938D01*
X75375500Y-15049435D01*
X75375500Y-5450565D01*
X75349910Y-5355062D01*
X75349908Y-5355059D01*
X75349908Y-5355057D01*
X75300476Y-5269440D01*
X75300475Y-5269438D01*
X75230562Y-5199525D01*
X75230559Y-5199523D01*
X75144941Y-5150091D01*
X75144943Y-5150091D01*
X75107885Y-5140161D01*
X75049435Y-5124500D01*
X52949435Y-5124500D01*
X52850565Y-5124500D01*
X52792114Y-5140161D01*
X52755057Y-5150091D01*
X52669440Y-5199523D01*
X52599523Y-5269440D01*
X52550091Y-5355057D01*
X52524500Y-5450566D01*
X52524500Y-6552334D01*
X52505593Y-6610525D01*
X52463386Y-6643798D01*
X52402402Y-6669058D01*
X52230348Y-6784020D01*
X52230345Y-6784022D01*
X52230345Y-6784023D01*
X52119501Y-6894866D01*
X52064987Y-6922642D01*
X52004555Y-6913071D01*
X51961290Y-6869806D01*
X51950500Y-6824861D01*
X51950500Y-6775327D01*
X51950498Y-6775315D01*
X51947015Y-6757808D01*
X51935966Y-6702260D01*
X51880601Y-6619399D01*
X51880599Y-6619397D01*
X51797742Y-6564035D01*
X51797740Y-6564034D01*
X51797737Y-6564033D01*
X51797736Y-6564033D01*
X51724684Y-6549501D01*
X51724674Y-6549500D01*
X50075326Y-6549500D01*
X50075325Y-6549500D01*
X50075315Y-6549501D01*
X50002263Y-6564033D01*
X50002257Y-6564035D01*
X49919400Y-6619397D01*
X49919397Y-6619400D01*
X49864035Y-6702257D01*
X49864033Y-6702263D01*
X49849501Y-6775315D01*
X49849500Y-6775327D01*
X49849500Y-8424672D01*
X49849501Y-8424684D01*
X49864033Y-8497736D01*
X49864035Y-8497742D01*
X49919397Y-8580599D01*
X49919400Y-8580602D01*
X49938825Y-8593581D01*
X50002260Y-8635966D01*
X50057808Y-8647015D01*
X50075315Y-8650498D01*
X50075320Y-8650498D01*
X50075326Y-8650500D01*
X50075327Y-8650500D01*
X51724673Y-8650500D01*
X51724674Y-8650500D01*
X51797740Y-8635966D01*
X51880601Y-8580601D01*
X51935966Y-8497740D01*
X51950500Y-8424674D01*
X51950500Y-8375139D01*
X51969407Y-8316948D01*
X52018907Y-8280984D01*
X52080093Y-8280984D01*
X52119501Y-8305133D01*
X52230345Y-8415977D01*
X52402402Y-8530941D01*
X52593580Y-8610130D01*
X52796535Y-8650500D01*
X52796536Y-8650500D01*
X53003464Y-8650500D01*
X53003465Y-8650500D01*
X53206420Y-8610130D01*
X53397598Y-8530941D01*
X53569655Y-8415977D01*
X53715977Y-8269655D01*
X53830941Y-8097598D01*
X53910130Y-7906420D01*
X53950500Y-7703465D01*
X53950500Y-7496535D01*
X53910130Y-7293580D01*
X53830941Y-7102402D01*
X53715977Y-6930345D01*
X53569655Y-6784023D01*
X53569651Y-6784020D01*
X53397597Y-6669058D01*
X53336614Y-6643798D01*
X53290088Y-6604061D01*
X53275500Y-6552334D01*
X53275500Y-5974500D01*
X53294407Y-5916309D01*
X53343907Y-5880345D01*
X53374500Y-5875500D01*
X74525500Y-5875500D01*
X74583691Y-5894407D01*
X74619655Y-5943907D01*
X74624500Y-5974500D01*
X74624500Y-14525500D01*
X74605593Y-14583691D01*
X74556093Y-14619655D01*
X74525500Y-14624500D01*
X70049435Y-14624500D01*
X69950565Y-14624500D01*
X69892114Y-14640161D01*
X69855057Y-14650091D01*
X69769440Y-14699523D01*
X69699523Y-14769440D01*
X69650091Y-14855057D01*
X69650090Y-14855062D01*
X69624518Y-14950500D01*
X69624500Y-14950566D01*
X69624500Y-19394836D01*
X69605593Y-19453027D01*
X69556093Y-19488991D01*
X69494907Y-19488991D01*
X69455499Y-19464842D01*
X69446543Y-19455887D01*
X69446542Y-19455886D01*
X69432370Y-19446417D01*
X69422186Y-19438611D01*
X69409360Y-19427388D01*
X69372620Y-19406230D01*
X69367047Y-19402768D01*
X69331812Y-19379225D01*
X69316067Y-19372703D01*
X69304554Y-19367033D01*
X69289785Y-19358528D01*
X69249641Y-19344951D01*
X69243477Y-19342635D01*
X69204330Y-19326421D01*
X69204328Y-19326420D01*
X69187610Y-19323094D01*
X69175224Y-19319782D01*
X69159076Y-19314322D01*
X69159075Y-19314321D01*
X69159070Y-19314320D01*
X69159067Y-19314319D01*
X69159061Y-19314318D01*
X69117057Y-19308836D01*
X69110558Y-19307767D01*
X69068998Y-19299500D01*
X69068993Y-19299500D01*
X69051953Y-19299500D01*
X69039140Y-19298667D01*
X69036336Y-19298301D01*
X69022248Y-19296462D01*
X69022246Y-19296462D01*
X69022245Y-19296462D01*
X68996503Y-19298178D01*
X68979959Y-19299281D01*
X68973375Y-19299500D01*
X63531004Y-19299500D01*
X63395672Y-19326420D01*
X63395670Y-19326420D01*
X63268193Y-19379222D01*
X63268182Y-19379228D01*
X63153458Y-19455885D01*
X63055885Y-19553458D01*
X62979228Y-19668182D01*
X62979222Y-19668193D01*
X62926420Y-19795670D01*
X62926420Y-19795672D01*
X62899500Y-19931004D01*
X62899500Y-20068995D01*
X62926420Y-20204327D01*
X62926420Y-20204329D01*
X62979222Y-20331806D01*
X62979228Y-20331817D01*
X63055885Y-20446541D01*
X63153458Y-20544114D01*
X63268182Y-20620771D01*
X63268193Y-20620777D01*
X63315283Y-20640282D01*
X63395672Y-20673580D01*
X63531007Y-20700500D01*
X67238087Y-20700500D01*
X67296278Y-20719407D01*
X67332242Y-20768907D01*
X67332242Y-20830093D01*
X67312592Y-20864692D01*
X61427388Y-27590639D01*
X61358530Y-27710212D01*
X61314318Y-27840934D01*
X61296463Y-27977746D01*
X61296463Y-27977754D01*
X61305641Y-28115440D01*
X61341503Y-28248680D01*
X61341504Y-28248682D01*
X61402672Y-28372370D01*
X61402675Y-28372374D01*
X61402677Y-28372377D01*
X61486797Y-28481750D01*
X61486799Y-28481752D01*
X61557308Y-28543447D01*
X61590640Y-28572612D01*
X61710217Y-28641472D01*
X61840930Y-28685680D01*
X61840931Y-28685680D01*
X61840934Y-28685681D01*
X61935036Y-28697961D01*
X61977756Y-28703537D01*
X62115438Y-28694359D01*
X62248682Y-28658496D01*
X62372370Y-28597328D01*
X62481748Y-28513205D01*
X69450996Y-20548348D01*
X69503543Y-20517007D01*
X69564478Y-20522537D01*
X69610525Y-20562828D01*
X69624500Y-20613541D01*
X69624500Y-32025500D01*
X69605593Y-32083691D01*
X69556093Y-32119655D01*
X69525500Y-32124500D01*
X24014220Y-32124500D01*
X24008288Y-32124322D01*
X23973153Y-32122212D01*
X23973152Y-32122212D01*
X23971953Y-32122458D01*
X23971797Y-32122490D01*
X23951951Y-32124500D01*
X23950565Y-32124500D01*
X23920199Y-32132635D01*
X23916549Y-32133614D01*
X23910780Y-32134975D01*
X23876293Y-32142033D01*
X23876275Y-32142039D01*
X23875030Y-32142662D01*
X23856421Y-32149725D01*
X23855063Y-32150089D01*
X23855060Y-32150090D01*
X23824555Y-32167701D01*
X23819333Y-32170510D01*
X22296463Y-32931946D01*
X22235960Y-32941059D01*
X22226569Y-32939025D01*
X22079057Y-32899500D01*
X21920943Y-32899500D01*
X21768216Y-32940423D01*
X21631284Y-33019480D01*
X21519480Y-33131284D01*
X21440423Y-33268216D01*
X21399500Y-33420943D01*
X21399500Y-33579057D01*
X21440423Y-33731784D01*
X21519480Y-33868716D01*
X21631284Y-33980520D01*
X21768216Y-34059577D01*
X21920943Y-34100500D01*
X21920945Y-34100500D01*
X22079055Y-34100500D01*
X22079057Y-34100500D01*
X22231784Y-34059577D01*
X22368716Y-33980520D01*
X22480520Y-33868716D01*
X22559577Y-33731784D01*
X22576440Y-33668848D01*
X22609763Y-33617535D01*
X22627784Y-33605928D01*
X24067739Y-32885952D01*
X24112013Y-32875500D01*
X35536257Y-32875500D01*
X35594448Y-32894407D01*
X35630412Y-32943907D01*
X35630412Y-33005093D01*
X35606262Y-33044501D01*
X35519480Y-33131284D01*
X35440423Y-33268216D01*
X35399500Y-33420943D01*
X35399500Y-33579057D01*
X35440423Y-33731784D01*
X35519480Y-33868716D01*
X35595505Y-33944741D01*
X35623281Y-33999256D01*
X35624500Y-34014743D01*
X35624500Y-34525500D01*
X35605593Y-34583691D01*
X35556093Y-34619655D01*
X35525500Y-34624500D01*
X12474500Y-34624500D01*
X12416309Y-34605593D01*
X12380345Y-34556093D01*
X12375500Y-34525500D01*
X12375500Y-34014743D01*
X12394407Y-33956552D01*
X12404490Y-33944745D01*
X12480520Y-33868716D01*
X12559577Y-33731784D01*
X12600500Y-33579057D01*
X12600500Y-33420943D01*
X12559577Y-33268216D01*
X12480520Y-33131284D01*
X12368716Y-33019480D01*
X12231784Y-32940423D01*
X12079057Y-32899500D01*
X11920943Y-32899500D01*
X11768216Y-32940423D01*
X11631284Y-33019480D01*
X11519480Y-33131284D01*
X11440423Y-33268216D01*
X11399500Y-33420943D01*
X500500Y-33420943D01*
X500500Y-28920943D01*
X15399500Y-28920943D01*
X15399500Y-29079057D01*
X15440423Y-29231784D01*
X15519480Y-29368716D01*
X15631284Y-29480520D01*
X15768216Y-29559577D01*
X15920943Y-29600500D01*
X15920945Y-29600500D01*
X16079055Y-29600500D01*
X16079057Y-29600500D01*
X16231784Y-29559577D01*
X16368716Y-29480520D01*
X16480520Y-29368716D01*
X16559577Y-29231784D01*
X16600500Y-29079057D01*
X16600500Y-28920943D01*
X17399500Y-28920943D01*
X17399500Y-29079057D01*
X17440423Y-29231784D01*
X17519480Y-29368716D01*
X17595505Y-29444741D01*
X17623281Y-29499256D01*
X17624500Y-29514743D01*
X17624500Y-31349435D01*
X17647067Y-31433657D01*
X17650091Y-31444942D01*
X17699523Y-31530559D01*
X17699525Y-31530562D01*
X17769438Y-31600475D01*
X17769440Y-31600476D01*
X17855058Y-31649908D01*
X17855056Y-31649908D01*
X17855060Y-31649909D01*
X17855062Y-31649910D01*
X17950565Y-31675500D01*
X17950567Y-31675500D01*
X44049433Y-31675500D01*
X44049435Y-31675500D01*
X44144938Y-31649910D01*
X44144940Y-31649908D01*
X44144942Y-31649908D01*
X44170377Y-31635222D01*
X44230562Y-31600475D01*
X44300475Y-31530562D01*
X44349910Y-31444938D01*
X44375500Y-31349435D01*
X44375500Y-28920943D01*
X52899500Y-28920943D01*
X52899500Y-29079057D01*
X52940423Y-29231784D01*
X53019480Y-29368716D01*
X53131284Y-29480520D01*
X53268216Y-29559577D01*
X53420943Y-29600500D01*
X53420945Y-29600500D01*
X53579055Y-29600500D01*
X53579057Y-29600500D01*
X53731784Y-29559577D01*
X53868716Y-29480520D01*
X53908813Y-29440423D01*
X53944741Y-29404496D01*
X53999258Y-29376719D01*
X54014744Y-29375500D01*
X58049433Y-29375500D01*
X58049435Y-29375500D01*
X58144938Y-29349910D01*
X58144940Y-29349908D01*
X58144942Y-29349908D01*
X58170377Y-29335222D01*
X58230562Y-29300475D01*
X58300475Y-29230562D01*
X58349910Y-29144938D01*
X58375500Y-29049435D01*
X58375500Y-27036724D01*
X58376679Y-27021492D01*
X58378635Y-27008930D01*
X58376070Y-26985122D01*
X58375500Y-26974518D01*
X58375500Y-26950565D01*
X58372208Y-26938282D01*
X58369406Y-26923269D01*
X58368044Y-26910630D01*
X58368044Y-26910628D01*
X58359398Y-26888279D01*
X58356110Y-26878202D01*
X58349910Y-26855062D01*
X58343548Y-26844044D01*
X58336960Y-26830276D01*
X56536374Y-22175762D01*
X56533014Y-22114671D01*
X56542972Y-22090544D01*
X56559575Y-22061787D01*
X56559574Y-22061787D01*
X56559577Y-22061784D01*
X56600500Y-21909057D01*
X56600500Y-21750943D01*
X56559577Y-21598216D01*
X56480520Y-21461284D01*
X56368716Y-21349480D01*
X56231784Y-21270423D01*
X56079057Y-21229500D01*
X55920943Y-21229500D01*
X55768216Y-21270423D01*
X55631284Y-21349480D01*
X55519480Y-21461284D01*
X55440423Y-21598216D01*
X55399500Y-21750943D01*
X55399500Y-21909057D01*
X55440423Y-22061784D01*
X55519480Y-22198716D01*
X55631284Y-22310520D01*
X55768216Y-22389577D01*
X55768218Y-22389577D01*
X55768219Y-22389578D01*
X55770562Y-22390206D01*
X55772019Y-22391152D01*
X55774215Y-22392062D01*
X55774046Y-22392468D01*
X55821877Y-22423529D01*
X55837272Y-22450115D01*
X57314467Y-26268662D01*
X57562809Y-26910628D01*
X57617832Y-27052861D01*
X57624500Y-27088579D01*
X57624500Y-28525500D01*
X57605593Y-28583691D01*
X57556093Y-28619655D01*
X57525500Y-28624500D01*
X54014744Y-28624500D01*
X53956553Y-28605593D01*
X53944741Y-28595504D01*
X53868718Y-28519482D01*
X53868716Y-28519480D01*
X53731784Y-28440423D01*
X53579057Y-28399500D01*
X53420943Y-28399500D01*
X53268216Y-28440423D01*
X53131284Y-28519480D01*
X53019480Y-28631284D01*
X52940423Y-28768216D01*
X52899500Y-28920943D01*
X44375500Y-28920943D01*
X44375500Y-16474500D01*
X44394407Y-16416309D01*
X44443907Y-16380345D01*
X44474500Y-16375500D01*
X45255968Y-16375500D01*
X45314159Y-16394407D01*
X45325971Y-16404496D01*
X45361983Y-16440507D01*
X45361989Y-16440512D01*
X45487511Y-16512982D01*
X45487512Y-16512982D01*
X45487515Y-16512984D01*
X45627525Y-16550500D01*
X45627526Y-16550500D01*
X45772474Y-16550500D01*
X45772475Y-16550500D01*
X45912485Y-16512984D01*
X45912487Y-16512982D01*
X45912489Y-16512982D01*
X46038010Y-16440512D01*
X46038010Y-16440511D01*
X46038015Y-16440509D01*
X46140509Y-16338015D01*
X46212984Y-16212485D01*
X46250500Y-16072475D01*
X46250500Y-15927525D01*
X46212984Y-15787515D01*
X46212982Y-15787512D01*
X46212982Y-15787510D01*
X46140512Y-15661989D01*
X46140510Y-15661987D01*
X46140509Y-15661985D01*
X46038015Y-15559491D01*
X46038012Y-15559489D01*
X46038010Y-15559487D01*
X45912488Y-15487017D01*
X45912489Y-15487017D01*
X45865775Y-15474500D01*
X45772475Y-15449500D01*
X45627525Y-15449500D01*
X45565790Y-15466041D01*
X45487510Y-15487017D01*
X45361989Y-15559487D01*
X45361983Y-15559492D01*
X45325971Y-15595504D01*
X45271454Y-15623281D01*
X45255968Y-15624500D01*
X44049435Y-15624500D01*
X43950565Y-15624500D01*
X43892114Y-15640161D01*
X43855057Y-15650091D01*
X43769440Y-15699523D01*
X43699523Y-15769440D01*
X43650091Y-15855057D01*
X43624500Y-15950566D01*
X43624500Y-30825500D01*
X43605593Y-30883691D01*
X43556093Y-30919655D01*
X43525500Y-30924500D01*
X18474500Y-30924500D01*
X18416309Y-30905593D01*
X18380345Y-30856093D01*
X18375500Y-30825500D01*
X18375500Y-29514743D01*
X18394407Y-29456552D01*
X18404490Y-29444745D01*
X18480520Y-29368716D01*
X18559577Y-29231784D01*
X18600500Y-29079057D01*
X18600500Y-28920943D01*
X18559577Y-28768216D01*
X18480520Y-28631284D01*
X18368716Y-28519480D01*
X18231784Y-28440423D01*
X18079057Y-28399500D01*
X17920943Y-28399500D01*
X17768216Y-28440423D01*
X17631284Y-28519480D01*
X17519480Y-28631284D01*
X17440423Y-28768216D01*
X17399500Y-28920943D01*
X16600500Y-28920943D01*
X16559577Y-28768216D01*
X16480520Y-28631284D01*
X16444740Y-28595504D01*
X16404496Y-28555259D01*
X16376719Y-28500742D01*
X16375500Y-28485256D01*
X16375500Y-27474500D01*
X16394407Y-27416309D01*
X16443907Y-27380345D01*
X16474500Y-27375500D01*
X39525500Y-27375500D01*
X39583691Y-27394407D01*
X39619655Y-27443907D01*
X39624500Y-27474500D01*
X39624500Y-28485256D01*
X39605593Y-28543447D01*
X39595504Y-28555259D01*
X39519482Y-28631281D01*
X39519480Y-28631283D01*
X39519480Y-28631284D01*
X39440423Y-28768216D01*
X39399500Y-28920943D01*
X39399500Y-29079057D01*
X39440423Y-29231784D01*
X39519480Y-29368716D01*
X39606262Y-29455498D01*
X39634038Y-29510013D01*
X39624467Y-29570445D01*
X39581202Y-29613710D01*
X39536257Y-29624500D01*
X20474500Y-29624500D01*
X20416309Y-29605593D01*
X20380345Y-29556093D01*
X20375500Y-29525500D01*
X20375500Y-29514743D01*
X20394407Y-29456552D01*
X20404490Y-29444745D01*
X20480520Y-29368716D01*
X20559577Y-29231784D01*
X20600500Y-29079057D01*
X20600500Y-28920943D01*
X20559577Y-28768216D01*
X20480520Y-28631284D01*
X20368716Y-28519480D01*
X20231784Y-28440423D01*
X20079057Y-28399500D01*
X19920943Y-28399500D01*
X19768216Y-28440423D01*
X19631284Y-28519480D01*
X19519480Y-28631284D01*
X19440423Y-28768216D01*
X19399500Y-28920943D01*
X19399500Y-29079057D01*
X19440423Y-29231784D01*
X19519480Y-29368716D01*
X19595505Y-29444741D01*
X19623281Y-29499256D01*
X19624500Y-29514743D01*
X19624500Y-30049435D01*
X19647067Y-30133657D01*
X19650091Y-30144942D01*
X19699523Y-30230559D01*
X19699525Y-30230562D01*
X19769438Y-30300475D01*
X19769440Y-30300476D01*
X19855058Y-30349908D01*
X19855056Y-30349908D01*
X19855060Y-30349909D01*
X19855062Y-30349910D01*
X19950565Y-30375500D01*
X19950567Y-30375500D01*
X42049433Y-30375500D01*
X42049435Y-30375500D01*
X42144938Y-30349910D01*
X42144940Y-30349908D01*
X42144942Y-30349908D01*
X42170377Y-30335222D01*
X42230562Y-30300475D01*
X42300475Y-30230562D01*
X42349910Y-30144938D01*
X42375500Y-30049435D01*
X42375500Y-23450565D01*
X42349910Y-23355062D01*
X42349908Y-23355059D01*
X42349908Y-23355057D01*
X42300476Y-23269440D01*
X42300475Y-23269438D01*
X42230562Y-23199525D01*
X42230559Y-23199523D01*
X42144941Y-23150091D01*
X42144943Y-23150091D01*
X42107885Y-23140161D01*
X42049435Y-23124500D01*
X42049433Y-23124500D01*
X28474500Y-23124500D01*
X28416309Y-23105593D01*
X28380345Y-23056093D01*
X28375500Y-23025500D01*
X28375500Y-11474500D01*
X28394407Y-11416309D01*
X28443907Y-11380345D01*
X28474500Y-11375500D01*
X50666126Y-11375500D01*
X50724317Y-11394407D01*
X50760281Y-11443907D01*
X50760281Y-11505093D01*
X50724317Y-11554593D01*
X50685440Y-11571598D01*
X50593581Y-11589869D01*
X50402402Y-11669058D01*
X50230348Y-11784020D01*
X50084020Y-11930348D01*
X49969058Y-12102402D01*
X49889869Y-12293581D01*
X49849500Y-12496532D01*
X49849500Y-12703467D01*
X49889869Y-12906418D01*
X49969058Y-13097597D01*
X50057757Y-13230345D01*
X50084023Y-13269655D01*
X50230345Y-13415977D01*
X50402402Y-13530941D01*
X50593580Y-13610130D01*
X50796535Y-13650500D01*
X50796536Y-13650500D01*
X51003464Y-13650500D01*
X51003465Y-13650500D01*
X51206420Y-13610130D01*
X51397598Y-13530941D01*
X51569655Y-13415977D01*
X51715977Y-13269655D01*
X51817684Y-13117437D01*
X51865734Y-13079558D01*
X51926872Y-13077156D01*
X51977746Y-13111148D01*
X51982310Y-13117430D01*
X52084023Y-13269655D01*
X52230345Y-13415977D01*
X52402402Y-13530941D01*
X52593580Y-13610130D01*
X52796535Y-13650500D01*
X52796536Y-13650500D01*
X53003464Y-13650500D01*
X53003465Y-13650500D01*
X53206420Y-13610130D01*
X53397598Y-13530941D01*
X53569655Y-13415977D01*
X53715977Y-13269655D01*
X53817684Y-13117437D01*
X53865734Y-13079558D01*
X53926872Y-13077156D01*
X53977746Y-13111148D01*
X53982310Y-13117430D01*
X54084023Y-13269655D01*
X54230345Y-13415977D01*
X54402402Y-13530941D01*
X54593580Y-13610130D01*
X54796535Y-13650500D01*
X54796536Y-13650500D01*
X55003464Y-13650500D01*
X55003465Y-13650500D01*
X55206420Y-13610130D01*
X55397598Y-13530941D01*
X55569655Y-13415977D01*
X55715977Y-13269655D01*
X55830941Y-13097598D01*
X55910130Y-12906420D01*
X55950500Y-12703465D01*
X55950500Y-12496535D01*
X55910130Y-12293580D01*
X55830941Y-12102402D01*
X55715977Y-11930345D01*
X55569655Y-11784023D01*
X55397598Y-11669059D01*
X55397599Y-11669059D01*
X55397597Y-11669058D01*
X55206418Y-11589869D01*
X55114560Y-11571598D01*
X55061176Y-11541701D01*
X55035560Y-11486136D01*
X55047497Y-11426126D01*
X55092427Y-11384594D01*
X55133874Y-11375500D01*
X67525500Y-11375500D01*
X67583691Y-11394407D01*
X67619655Y-11443907D01*
X67624500Y-11474500D01*
X67624500Y-17485256D01*
X67605593Y-17543447D01*
X67595504Y-17555259D01*
X67519482Y-17631281D01*
X67519480Y-17631283D01*
X67519480Y-17631284D01*
X67440423Y-17768216D01*
X67399500Y-17920943D01*
X67399500Y-18079057D01*
X67440423Y-18231784D01*
X67519480Y-18368716D01*
X67631284Y-18480520D01*
X67768216Y-18559577D01*
X67920943Y-18600500D01*
X67920945Y-18600500D01*
X68079055Y-18600500D01*
X68079057Y-18600500D01*
X68231784Y-18559577D01*
X68368716Y-18480520D01*
X68480520Y-18368716D01*
X68559577Y-18231784D01*
X68600500Y-18079057D01*
X68600500Y-17920943D01*
X68559577Y-17768216D01*
X68480520Y-17631284D01*
X68480517Y-17631281D01*
X68404496Y-17555259D01*
X68376719Y-17500742D01*
X68375500Y-17485256D01*
X68375500Y-10950566D01*
X68375500Y-10950565D01*
X68349910Y-10855062D01*
X68349908Y-10855059D01*
X68349908Y-10855057D01*
X68300476Y-10769440D01*
X68300475Y-10769438D01*
X68230562Y-10699525D01*
X68230559Y-10699523D01*
X68144941Y-10650091D01*
X68144943Y-10650091D01*
X68107885Y-10640161D01*
X68049435Y-10624500D01*
X28049435Y-10624500D01*
X27950565Y-10624500D01*
X27892114Y-10640161D01*
X27855057Y-10650091D01*
X27769440Y-10699523D01*
X27699523Y-10769440D01*
X27650091Y-10855057D01*
X27650090Y-10855062D01*
X27624500Y-10950565D01*
X27624500Y-23450565D01*
X27624500Y-23549435D01*
X27647067Y-23633657D01*
X27650091Y-23644942D01*
X27699523Y-23730559D01*
X27699525Y-23730562D01*
X27769438Y-23800475D01*
X27769440Y-23800476D01*
X27855058Y-23849908D01*
X27855056Y-23849908D01*
X27855060Y-23849909D01*
X27855062Y-23849910D01*
X27950565Y-23875500D01*
X41525500Y-23875500D01*
X41583691Y-23894407D01*
X41619655Y-23943907D01*
X41624500Y-23974500D01*
X41624500Y-29525500D01*
X41605593Y-29583691D01*
X41556093Y-29619655D01*
X41525500Y-29624500D01*
X40463743Y-29624500D01*
X40405552Y-29605593D01*
X40369588Y-29556093D01*
X40369588Y-29494907D01*
X40393737Y-29455498D01*
X40480520Y-29368716D01*
X40559577Y-29231784D01*
X40600500Y-29079057D01*
X40600500Y-28920943D01*
X40559577Y-28768216D01*
X40480520Y-28631284D01*
X40444740Y-28595504D01*
X40404496Y-28555259D01*
X40376719Y-28500742D01*
X40375500Y-28485256D01*
X40375500Y-26950566D01*
X40375500Y-26950565D01*
X40349910Y-26855062D01*
X40349908Y-26855059D01*
X40349908Y-26855057D01*
X40300476Y-26769440D01*
X40300475Y-26769438D01*
X40230562Y-26699525D01*
X40230559Y-26699523D01*
X40144941Y-26650091D01*
X40144943Y-26650091D01*
X40107885Y-26640161D01*
X40049435Y-26624500D01*
X16049435Y-26624500D01*
X15950565Y-26624500D01*
X15892114Y-26640161D01*
X15855057Y-26650091D01*
X15769440Y-26699523D01*
X15699523Y-26769440D01*
X15650091Y-26855057D01*
X15641186Y-26888291D01*
X15627790Y-26938289D01*
X15624500Y-26950566D01*
X15624500Y-28485256D01*
X15605593Y-28543447D01*
X15595504Y-28555259D01*
X15519482Y-28631281D01*
X15519480Y-28631283D01*
X15519480Y-28631284D01*
X15440423Y-28768216D01*
X15399500Y-28920943D01*
X500500Y-28920943D01*
X500500Y-13796532D01*
X19849500Y-13796532D01*
X19849500Y-14003467D01*
X19889869Y-14206418D01*
X19969058Y-14397597D01*
X20084020Y-14569651D01*
X20084023Y-14569655D01*
X20230345Y-14715977D01*
X20402402Y-14830941D01*
X20593580Y-14910130D01*
X20796535Y-14950500D01*
X20796536Y-14950500D01*
X21003464Y-14950500D01*
X21003465Y-14950500D01*
X21206420Y-14910130D01*
X21397598Y-14830941D01*
X21569655Y-14715977D01*
X21715977Y-14569655D01*
X21817684Y-14417437D01*
X21865734Y-14379558D01*
X21926872Y-14377156D01*
X21977746Y-14411148D01*
X21982310Y-14417430D01*
X22084023Y-14569655D01*
X22230345Y-14715977D01*
X22402402Y-14830941D01*
X22593580Y-14910130D01*
X22796535Y-14950500D01*
X22796536Y-14950500D01*
X23003464Y-14950500D01*
X23003465Y-14950500D01*
X23206420Y-14910130D01*
X23397598Y-14830941D01*
X23569655Y-14715977D01*
X23715977Y-14569655D01*
X23817684Y-14417437D01*
X23865734Y-14379558D01*
X23926872Y-14377156D01*
X23977746Y-14411148D01*
X23982310Y-14417430D01*
X24084023Y-14569655D01*
X24230345Y-14715977D01*
X24402402Y-14830941D01*
X24593580Y-14910130D01*
X24796535Y-14950500D01*
X24796536Y-14950500D01*
X25003464Y-14950500D01*
X25003465Y-14950500D01*
X25206420Y-14910130D01*
X25397598Y-14830941D01*
X25569655Y-14715977D01*
X25715977Y-14569655D01*
X25830941Y-14397598D01*
X25910130Y-14206420D01*
X25950500Y-14003465D01*
X25950500Y-13796535D01*
X25910130Y-13593580D01*
X25830941Y-13402402D01*
X25715977Y-13230345D01*
X25569655Y-13084023D01*
X25397598Y-12969059D01*
X25397599Y-12969059D01*
X25397597Y-12969058D01*
X25206418Y-12889869D01*
X25003467Y-12849500D01*
X25003465Y-12849500D01*
X24796535Y-12849500D01*
X24796532Y-12849500D01*
X24593581Y-12889869D01*
X24402402Y-12969058D01*
X24230348Y-13084020D01*
X24084020Y-13230348D01*
X23982316Y-13382561D01*
X23934266Y-13420441D01*
X23873128Y-13422843D01*
X23822254Y-13388851D01*
X23817684Y-13382561D01*
X23715979Y-13230348D01*
X23715977Y-13230345D01*
X23569655Y-13084023D01*
X23397598Y-12969059D01*
X23397599Y-12969059D01*
X23397597Y-12969058D01*
X23206418Y-12889869D01*
X23003467Y-12849500D01*
X23003465Y-12849500D01*
X22796535Y-12849500D01*
X22796532Y-12849500D01*
X22593581Y-12889869D01*
X22402402Y-12969058D01*
X22230348Y-13084020D01*
X22084020Y-13230348D01*
X21982316Y-13382561D01*
X21934266Y-13420441D01*
X21873128Y-13422843D01*
X21822254Y-13388851D01*
X21817684Y-13382561D01*
X21715979Y-13230348D01*
X21715977Y-13230345D01*
X21569655Y-13084023D01*
X21397598Y-12969059D01*
X21397599Y-12969059D01*
X21397597Y-12969058D01*
X21206418Y-12889869D01*
X21003467Y-12849500D01*
X21003465Y-12849500D01*
X20796535Y-12849500D01*
X20796532Y-12849500D01*
X20593581Y-12889869D01*
X20402402Y-12969058D01*
X20230348Y-13084020D01*
X20084020Y-13230348D01*
X19969058Y-13402402D01*
X19889869Y-13593581D01*
X19849500Y-13796532D01*
X500500Y-13796532D01*
X500500Y-3878710D01*
X2149500Y-3878710D01*
X2149500Y-4121289D01*
X2181161Y-4361781D01*
X2181161Y-4361786D01*
X2243944Y-4596092D01*
X2243948Y-4596105D01*
X2336772Y-4820204D01*
X2336774Y-4820208D01*
X2336776Y-4820212D01*
X2458064Y-5030289D01*
X2458066Y-5030292D01*
X2605729Y-5222731D01*
X2605731Y-5222733D01*
X2605735Y-5222738D01*
X2777262Y-5394265D01*
X2777266Y-5394268D01*
X2777268Y-5394270D01*
X2850635Y-5450566D01*
X2969711Y-5541936D01*
X3179788Y-5663224D01*
X3403900Y-5756054D01*
X3638211Y-5818838D01*
X3878712Y-5850500D01*
X3878713Y-5850500D01*
X4121287Y-5850500D01*
X4121288Y-5850500D01*
X4361789Y-5818838D01*
X4596100Y-5756054D01*
X4820212Y-5663224D01*
X5030289Y-5541936D01*
X5222738Y-5394265D01*
X5394265Y-5222738D01*
X5541936Y-5030289D01*
X5663224Y-4820212D01*
X5756054Y-4596100D01*
X5818838Y-4361789D01*
X5850500Y-4121288D01*
X5850500Y-3878712D01*
X5818838Y-3638211D01*
X5765748Y-3440077D01*
X5765748Y-3440074D01*
X5760621Y-3420943D01*
X17899500Y-3420943D01*
X17899500Y-8820943D01*
X17899500Y-8979057D01*
X17940423Y-9131784D01*
X18019480Y-9268716D01*
X18131284Y-9380520D01*
X18268216Y-9459577D01*
X18420943Y-9500500D01*
X19750500Y-9500500D01*
X19808691Y-9519407D01*
X19844655Y-9568907D01*
X19849500Y-9599500D01*
X19849500Y-9724672D01*
X19849501Y-9724684D01*
X19864033Y-9797736D01*
X19864035Y-9797742D01*
X19919397Y-9880599D01*
X19919399Y-9880601D01*
X20002260Y-9935966D01*
X20057808Y-9947015D01*
X20075315Y-9950498D01*
X20075320Y-9950498D01*
X20075326Y-9950500D01*
X20075327Y-9950500D01*
X21724673Y-9950500D01*
X21724674Y-9950500D01*
X21797740Y-9935966D01*
X21880601Y-9880601D01*
X21935966Y-9797740D01*
X21950500Y-9724674D01*
X21950500Y-9675139D01*
X21969407Y-9616948D01*
X22018907Y-9580984D01*
X22080093Y-9580984D01*
X22119501Y-9605133D01*
X22230345Y-9715977D01*
X22402402Y-9830941D01*
X22593580Y-9910130D01*
X22796535Y-9950500D01*
X22796536Y-9950500D01*
X23003464Y-9950500D01*
X23003465Y-9950500D01*
X23206420Y-9910130D01*
X23397598Y-9830941D01*
X23569655Y-9715977D01*
X23715977Y-9569655D01*
X23817684Y-9417437D01*
X23865734Y-9379558D01*
X23926872Y-9377156D01*
X23977746Y-9411148D01*
X23982310Y-9417430D01*
X24084023Y-9569655D01*
X24230345Y-9715977D01*
X24402402Y-9830941D01*
X24593580Y-9910130D01*
X24796535Y-9950500D01*
X24796536Y-9950500D01*
X25003464Y-9950500D01*
X25003465Y-9950500D01*
X25206420Y-9910130D01*
X25397598Y-9830941D01*
X25569655Y-9715977D01*
X25715977Y-9569655D01*
X25830941Y-9397598D01*
X25910130Y-9206420D01*
X25950500Y-9003465D01*
X25950500Y-8796535D01*
X25910130Y-8593580D01*
X25830941Y-8402402D01*
X25715977Y-8230345D01*
X25569655Y-8084023D01*
X25569651Y-8084020D01*
X25397597Y-7969058D01*
X25206418Y-7889869D01*
X25003467Y-7849500D01*
X25003465Y-7849500D01*
X24796535Y-7849500D01*
X24796532Y-7849500D01*
X24593581Y-7889869D01*
X24402402Y-7969058D01*
X24230348Y-8084020D01*
X24084020Y-8230348D01*
X23982316Y-8382561D01*
X23934266Y-8420441D01*
X23873128Y-8422843D01*
X23822254Y-8388851D01*
X23817684Y-8382561D01*
X23715979Y-8230348D01*
X23715977Y-8230345D01*
X23569655Y-8084023D01*
X23569651Y-8084020D01*
X23397597Y-7969058D01*
X23206418Y-7889869D01*
X23003467Y-7849500D01*
X23003465Y-7849500D01*
X22796535Y-7849500D01*
X22796532Y-7849500D01*
X22593581Y-7889869D01*
X22402402Y-7969058D01*
X22230348Y-8084020D01*
X22230345Y-8084022D01*
X22230345Y-8084023D01*
X22119501Y-8194866D01*
X22064987Y-8222642D01*
X22004555Y-8213071D01*
X21961290Y-8169806D01*
X21950500Y-8124861D01*
X21950500Y-8075327D01*
X21950498Y-8075315D01*
X21946018Y-8052792D01*
X21935966Y-8002260D01*
X21880601Y-7919399D01*
X21880599Y-7919397D01*
X21797742Y-7864035D01*
X21797740Y-7864034D01*
X21797737Y-7864033D01*
X21797736Y-7864033D01*
X21724684Y-7849501D01*
X21724674Y-7849500D01*
X20075326Y-7849500D01*
X20075325Y-7849500D01*
X20075315Y-7849501D01*
X20002263Y-7864033D01*
X20002257Y-7864035D01*
X19919400Y-7919397D01*
X19919397Y-7919400D01*
X19864035Y-8002257D01*
X19864033Y-8002263D01*
X19849501Y-8075315D01*
X19849500Y-8075327D01*
X19849500Y-8200500D01*
X19830593Y-8258691D01*
X19781093Y-8294655D01*
X19750500Y-8299500D01*
X19199500Y-8299500D01*
X19141309Y-8280593D01*
X19105345Y-8231093D01*
X19100500Y-8200500D01*
X19100500Y-4199500D01*
X19119407Y-4141309D01*
X19168907Y-4105345D01*
X19199500Y-4100500D01*
X84300500Y-4100500D01*
X84358691Y-4119407D01*
X84394655Y-4168907D01*
X84399500Y-4199500D01*
X84399500Y-29300500D01*
X84380593Y-29358691D01*
X84331093Y-29394655D01*
X84300500Y-29399500D01*
X73920943Y-29399500D01*
X73768216Y-29440423D01*
X73631284Y-29519480D01*
X73519480Y-29631284D01*
X73440423Y-29768216D01*
X73399500Y-29920943D01*
X73399500Y-30079057D01*
X73440423Y-30231784D01*
X73519480Y-30368716D01*
X73631284Y-30480520D01*
X73768216Y-30559577D01*
X73920943Y-30600500D01*
X73920945Y-30600500D01*
X85079055Y-30600500D01*
X85079057Y-30600500D01*
X85231784Y-30559577D01*
X85368716Y-30480520D01*
X85480520Y-30368716D01*
X85559577Y-30231784D01*
X85600500Y-30079057D01*
X85600500Y-3878710D01*
X90149500Y-3878710D01*
X90149500Y-4121289D01*
X90181161Y-4361781D01*
X90181161Y-4361786D01*
X90243944Y-4596092D01*
X90243948Y-4596105D01*
X90336772Y-4820204D01*
X90336774Y-4820208D01*
X90336776Y-4820212D01*
X90458064Y-5030289D01*
X90458066Y-5030292D01*
X90605729Y-5222731D01*
X90605731Y-5222733D01*
X90605735Y-5222738D01*
X90777262Y-5394265D01*
X90777266Y-5394268D01*
X90777268Y-5394270D01*
X90850635Y-5450566D01*
X90969711Y-5541936D01*
X91179788Y-5663224D01*
X91403900Y-5756054D01*
X91638211Y-5818838D01*
X91878712Y-5850500D01*
X91878713Y-5850500D01*
X92121287Y-5850500D01*
X92121288Y-5850500D01*
X92361789Y-5818838D01*
X92596100Y-5756054D01*
X92820212Y-5663224D01*
X93030289Y-5541936D01*
X93222738Y-5394265D01*
X93394265Y-5222738D01*
X93541936Y-5030289D01*
X93663224Y-4820212D01*
X93756054Y-4596100D01*
X93818838Y-4361789D01*
X93850500Y-4121288D01*
X93850500Y-3878712D01*
X93818838Y-3638211D01*
X93756054Y-3403900D01*
X93663224Y-3179788D01*
X93541936Y-2969711D01*
X93519463Y-2940423D01*
X93394270Y-2777268D01*
X93394268Y-2777266D01*
X93394265Y-2777262D01*
X93222738Y-2605735D01*
X93222733Y-2605731D01*
X93222731Y-2605729D01*
X93030292Y-2458066D01*
X93030289Y-2458064D01*
X92820212Y-2336776D01*
X92820208Y-2336774D01*
X92820204Y-2336772D01*
X92596105Y-2243948D01*
X92596104Y-2243947D01*
X92596100Y-2243946D01*
X92361789Y-2181162D01*
X92361786Y-2181161D01*
X92361784Y-2181161D01*
X92121289Y-2149500D01*
X92121288Y-2149500D01*
X91878712Y-2149500D01*
X91878710Y-2149500D01*
X91638218Y-2181161D01*
X91638213Y-2181161D01*
X91403907Y-2243944D01*
X91403894Y-2243948D01*
X91179795Y-2336772D01*
X90969707Y-2458066D01*
X90777268Y-2605729D01*
X90605729Y-2777268D01*
X90458066Y-2969707D01*
X90336772Y-3179795D01*
X90243948Y-3403894D01*
X90243944Y-3403907D01*
X90181161Y-3638213D01*
X90181161Y-3638218D01*
X90149500Y-3878710D01*
X85600500Y-3878710D01*
X85600500Y-3420943D01*
X85559577Y-3268216D01*
X85480520Y-3131284D01*
X85368716Y-3019480D01*
X85231784Y-2940423D01*
X85079057Y-2899500D01*
X18579057Y-2899500D01*
X18420943Y-2899500D01*
X18268216Y-2940423D01*
X18131284Y-3019480D01*
X18019480Y-3131284D01*
X17940423Y-3268216D01*
X17899500Y-3420943D01*
X5760621Y-3420943D01*
X5756059Y-3403917D01*
X5756056Y-3403907D01*
X5756054Y-3403900D01*
X5663224Y-3179788D01*
X5541936Y-2969711D01*
X5519463Y-2940423D01*
X5394270Y-2777268D01*
X5394268Y-2777266D01*
X5394265Y-2777262D01*
X5222738Y-2605735D01*
X5222733Y-2605731D01*
X5222731Y-2605729D01*
X5030292Y-2458066D01*
X5030289Y-2458064D01*
X4820212Y-2336776D01*
X4820208Y-2336774D01*
X4820204Y-2336772D01*
X4596105Y-2243948D01*
X4596104Y-2243947D01*
X4596100Y-2243946D01*
X4361789Y-2181162D01*
X4361786Y-2181161D01*
X4361784Y-2181161D01*
X4121289Y-2149500D01*
X4121288Y-2149500D01*
X3878712Y-2149500D01*
X3878710Y-2149500D01*
X3638218Y-2181161D01*
X3638213Y-2181161D01*
X3403907Y-2243944D01*
X3403894Y-2243948D01*
X3179795Y-2336772D01*
X2969707Y-2458066D01*
X2777268Y-2605729D01*
X2605729Y-2777268D01*
X2458066Y-2969707D01*
X2336772Y-3179795D01*
X2243948Y-3403894D01*
X2243944Y-3403907D01*
X2181161Y-3638213D01*
X2181161Y-3638218D01*
X2149500Y-3878710D01*
X500500Y-3878710D01*
X500500Y-599500D01*
X519407Y-541309D01*
X568907Y-505345D01*
X599500Y-500500D01*
X95400500Y-500500D01*
X95458691Y-519407D01*
G37*
%TD.AperFunction*%
%TD*%
M02*
