%TF.GenerationSoftware,KiCad,Pcbnew,10.0.5*%
%TF.CreationDate,2026-08-03T21:14:08+04:00*%
%TF.ProjectId,espnoise-carrier,6573706e-6f69-4736-952d-636172726965,rev?*%
%TF.SameCoordinates,Original*%
%TF.FileFunction,Legend,Top*%
%TF.FilePolarity,Positive*%
%FSLAX46Y46*%
G04 Gerber Fmt 4.6, Leading zero omitted, Abs format (unit mm)*
G04 Created by KiCad (PCBNEW 10.0.5) date 2026-08-03 21:14:08*
%MOMM*%
%LPD*%
G01*
G04 APERTURE LIST*
%ADD10C,0.150000*%
%ADD11C,0.250000*%
G04 APERTURE END LIST*
D10*
X18157142Y-17743247D02*
X18423808Y-17743247D01*
X18538094Y-18162295D02*
X18157142Y-18162295D01*
X18157142Y-18162295D02*
X18157142Y-17362295D01*
X18157142Y-17362295D02*
X18538094Y-17362295D01*
X18804761Y-17362295D02*
X19338095Y-18162295D01*
X19338095Y-17362295D02*
X18804761Y-18162295D01*
X19528571Y-17362295D02*
X19985714Y-17362295D01*
X19757142Y-18162295D02*
X19757142Y-17362295D01*
X20252381Y-17743247D02*
X20519047Y-17743247D01*
X20633333Y-18162295D02*
X20252381Y-18162295D01*
X20252381Y-18162295D02*
X20252381Y-17362295D01*
X20252381Y-17362295D02*
X20633333Y-17362295D01*
X20976191Y-18162295D02*
X20976191Y-17362295D01*
X20976191Y-17362295D02*
X21433334Y-18162295D01*
X21433334Y-18162295D02*
X21433334Y-17362295D01*
X21814286Y-18162295D02*
X21814286Y-17362295D01*
X21814286Y-17362295D02*
X22004762Y-17362295D01*
X22004762Y-17362295D02*
X22119048Y-17400390D01*
X22119048Y-17400390D02*
X22195238Y-17476580D01*
X22195238Y-17476580D02*
X22233333Y-17552771D01*
X22233333Y-17552771D02*
X22271429Y-17705152D01*
X22271429Y-17705152D02*
X22271429Y-17819438D01*
X22271429Y-17819438D02*
X22233333Y-17971819D01*
X22233333Y-17971819D02*
X22195238Y-18048009D01*
X22195238Y-18048009D02*
X22119048Y-18124200D01*
X22119048Y-18124200D02*
X22004762Y-18162295D01*
X22004762Y-18162295D02*
X21814286Y-18162295D01*
X22614286Y-17743247D02*
X22880952Y-17743247D01*
X22995238Y-18162295D02*
X22614286Y-18162295D01*
X22614286Y-18162295D02*
X22614286Y-17362295D01*
X22614286Y-17362295D02*
X22995238Y-17362295D01*
X23338096Y-18162295D02*
X23338096Y-17362295D01*
X23338096Y-17362295D02*
X23528572Y-17362295D01*
X23528572Y-17362295D02*
X23642858Y-17400390D01*
X23642858Y-17400390D02*
X23719048Y-17476580D01*
X23719048Y-17476580D02*
X23757143Y-17552771D01*
X23757143Y-17552771D02*
X23795239Y-17705152D01*
X23795239Y-17705152D02*
X23795239Y-17819438D01*
X23795239Y-17819438D02*
X23757143Y-17971819D01*
X23757143Y-17971819D02*
X23719048Y-18048009D01*
X23719048Y-18048009D02*
X23642858Y-18124200D01*
X23642858Y-18124200D02*
X23528572Y-18162295D01*
X23528572Y-18162295D02*
X23338096Y-18162295D01*
X24747620Y-17743247D02*
X25357144Y-17743247D01*
X25357144Y-17971819D02*
X24747620Y-17971819D01*
X26500001Y-17362295D02*
X26652382Y-17362295D01*
X26652382Y-17362295D02*
X26728572Y-17400390D01*
X26728572Y-17400390D02*
X26804763Y-17476580D01*
X26804763Y-17476580D02*
X26842858Y-17628961D01*
X26842858Y-17628961D02*
X26842858Y-17895628D01*
X26842858Y-17895628D02*
X26804763Y-18048009D01*
X26804763Y-18048009D02*
X26728572Y-18124200D01*
X26728572Y-18124200D02*
X26652382Y-18162295D01*
X26652382Y-18162295D02*
X26500001Y-18162295D01*
X26500001Y-18162295D02*
X26423810Y-18124200D01*
X26423810Y-18124200D02*
X26347620Y-18048009D01*
X26347620Y-18048009D02*
X26309524Y-17895628D01*
X26309524Y-17895628D02*
X26309524Y-17628961D01*
X26309524Y-17628961D02*
X26347620Y-17476580D01*
X26347620Y-17476580D02*
X26423810Y-17400390D01*
X26423810Y-17400390D02*
X26500001Y-17362295D01*
X27185715Y-18162295D02*
X27185715Y-17362295D01*
X27185715Y-17362295D02*
X27642858Y-18162295D01*
X27642858Y-18162295D02*
X27642858Y-17362295D01*
X17949999Y-5137128D02*
X18078571Y-5179985D01*
X18078571Y-5179985D02*
X18121428Y-5222842D01*
X18121428Y-5222842D02*
X18164285Y-5308557D01*
X18164285Y-5308557D02*
X18164285Y-5437128D01*
X18164285Y-5437128D02*
X18121428Y-5522842D01*
X18121428Y-5522842D02*
X18078571Y-5565700D01*
X18078571Y-5565700D02*
X17992856Y-5608557D01*
X17992856Y-5608557D02*
X17649999Y-5608557D01*
X17649999Y-5608557D02*
X17649999Y-4708557D01*
X17649999Y-4708557D02*
X17949999Y-4708557D01*
X17949999Y-4708557D02*
X18035714Y-4751414D01*
X18035714Y-4751414D02*
X18078571Y-4794271D01*
X18078571Y-4794271D02*
X18121428Y-4879985D01*
X18121428Y-4879985D02*
X18121428Y-4965700D01*
X18121428Y-4965700D02*
X18078571Y-5051414D01*
X18078571Y-5051414D02*
X18035714Y-5094271D01*
X18035714Y-5094271D02*
X17949999Y-5137128D01*
X17949999Y-5137128D02*
X17649999Y-5137128D01*
X18549999Y-4708557D02*
X18549999Y-5437128D01*
X18549999Y-5437128D02*
X18592856Y-5522842D01*
X18592856Y-5522842D02*
X18635714Y-5565700D01*
X18635714Y-5565700D02*
X18721428Y-5608557D01*
X18721428Y-5608557D02*
X18892856Y-5608557D01*
X18892856Y-5608557D02*
X18978571Y-5565700D01*
X18978571Y-5565700D02*
X19021428Y-5522842D01*
X19021428Y-5522842D02*
X19064285Y-5437128D01*
X19064285Y-5437128D02*
X19064285Y-4708557D01*
X19407142Y-4708557D02*
X20007142Y-4708557D01*
X20007142Y-4708557D02*
X19407142Y-5608557D01*
X19407142Y-5608557D02*
X20007142Y-5608557D01*
X20264285Y-4708557D02*
X20864285Y-4708557D01*
X20864285Y-4708557D02*
X20264285Y-5608557D01*
X20264285Y-5608557D02*
X20864285Y-5608557D01*
X21207142Y-5137128D02*
X21507142Y-5137128D01*
X21635714Y-5608557D02*
X21207142Y-5608557D01*
X21207142Y-5608557D02*
X21207142Y-4708557D01*
X21207142Y-4708557D02*
X21635714Y-4708557D01*
X22535714Y-5608557D02*
X22235714Y-5179985D01*
X22021428Y-5608557D02*
X22021428Y-4708557D01*
X22021428Y-4708557D02*
X22364285Y-4708557D01*
X22364285Y-4708557D02*
X22450000Y-4751414D01*
X22450000Y-4751414D02*
X22492857Y-4794271D01*
X22492857Y-4794271D02*
X22535714Y-4879985D01*
X22535714Y-4879985D02*
X22535714Y-5008557D01*
X22535714Y-5008557D02*
X22492857Y-5094271D01*
X22492857Y-5094271D02*
X22450000Y-5137128D01*
X22450000Y-5137128D02*
X22364285Y-5179985D01*
X22364285Y-5179985D02*
X22021428Y-5179985D01*
X23607142Y-5137128D02*
X23907142Y-5137128D01*
X24035714Y-5608557D02*
X23607142Y-5608557D01*
X23607142Y-5608557D02*
X23607142Y-4708557D01*
X23607142Y-4708557D02*
X24035714Y-4708557D01*
X24421428Y-5608557D02*
X24421428Y-4708557D01*
X24421428Y-4708557D02*
X24935714Y-5608557D01*
X24935714Y-5608557D02*
X24935714Y-4708557D01*
X25321428Y-5351414D02*
X25750000Y-5351414D01*
X25235714Y-5608557D02*
X25535714Y-4708557D01*
X25535714Y-4708557D02*
X25835714Y-5608557D01*
X26435714Y-5137128D02*
X26564286Y-5179985D01*
X26564286Y-5179985D02*
X26607143Y-5222842D01*
X26607143Y-5222842D02*
X26650000Y-5308557D01*
X26650000Y-5308557D02*
X26650000Y-5437128D01*
X26650000Y-5437128D02*
X26607143Y-5522842D01*
X26607143Y-5522842D02*
X26564286Y-5565700D01*
X26564286Y-5565700D02*
X26478571Y-5608557D01*
X26478571Y-5608557D02*
X26135714Y-5608557D01*
X26135714Y-5608557D02*
X26135714Y-4708557D01*
X26135714Y-4708557D02*
X26435714Y-4708557D01*
X26435714Y-4708557D02*
X26521429Y-4751414D01*
X26521429Y-4751414D02*
X26564286Y-4794271D01*
X26564286Y-4794271D02*
X26607143Y-4879985D01*
X26607143Y-4879985D02*
X26607143Y-4965700D01*
X26607143Y-4965700D02*
X26564286Y-5051414D01*
X26564286Y-5051414D02*
X26521429Y-5094271D01*
X26521429Y-5094271D02*
X26435714Y-5137128D01*
X26435714Y-5137128D02*
X26135714Y-5137128D01*
X27464286Y-5608557D02*
X27035714Y-5608557D01*
X27035714Y-5608557D02*
X27035714Y-4708557D01*
X27764285Y-5137128D02*
X28064285Y-5137128D01*
X28192857Y-5608557D02*
X27764285Y-5608557D01*
X27764285Y-5608557D02*
X27764285Y-4708557D01*
X27764285Y-4708557D02*
X28192857Y-4708557D01*
X51378571Y-4908557D02*
X51378571Y-4008557D01*
X51378571Y-4008557D02*
X51678571Y-4651414D01*
X51678571Y-4651414D02*
X51978571Y-4008557D01*
X51978571Y-4008557D02*
X51978571Y-4908557D01*
X52407142Y-4008557D02*
X52407142Y-4737128D01*
X52407142Y-4737128D02*
X52449999Y-4822842D01*
X52449999Y-4822842D02*
X52492857Y-4865700D01*
X52492857Y-4865700D02*
X52578571Y-4908557D01*
X52578571Y-4908557D02*
X52749999Y-4908557D01*
X52749999Y-4908557D02*
X52835714Y-4865700D01*
X52835714Y-4865700D02*
X52878571Y-4822842D01*
X52878571Y-4822842D02*
X52921428Y-4737128D01*
X52921428Y-4737128D02*
X52921428Y-4008557D01*
X53221428Y-4008557D02*
X53735714Y-4008557D01*
X53478571Y-4908557D02*
X53478571Y-4008557D01*
X54035713Y-4437128D02*
X54335713Y-4437128D01*
X54464285Y-4908557D02*
X54035713Y-4908557D01*
X54035713Y-4908557D02*
X54035713Y-4008557D01*
X54035713Y-4008557D02*
X54464285Y-4008557D01*
X37914286Y-2118771D02*
X38314286Y-2118771D01*
X38485714Y-2747342D02*
X37914286Y-2747342D01*
X37914286Y-2747342D02*
X37914286Y-1547342D01*
X37914286Y-1547342D02*
X38485714Y-1547342D01*
X38942857Y-2690200D02*
X39114286Y-2747342D01*
X39114286Y-2747342D02*
X39400000Y-2747342D01*
X39400000Y-2747342D02*
X39514286Y-2690200D01*
X39514286Y-2690200D02*
X39571428Y-2633057D01*
X39571428Y-2633057D02*
X39628571Y-2518771D01*
X39628571Y-2518771D02*
X39628571Y-2404485D01*
X39628571Y-2404485D02*
X39571428Y-2290200D01*
X39571428Y-2290200D02*
X39514286Y-2233057D01*
X39514286Y-2233057D02*
X39400000Y-2175914D01*
X39400000Y-2175914D02*
X39171428Y-2118771D01*
X39171428Y-2118771D02*
X39057143Y-2061628D01*
X39057143Y-2061628D02*
X39000000Y-2004485D01*
X39000000Y-2004485D02*
X38942857Y-1890200D01*
X38942857Y-1890200D02*
X38942857Y-1775914D01*
X38942857Y-1775914D02*
X39000000Y-1661628D01*
X39000000Y-1661628D02*
X39057143Y-1604485D01*
X39057143Y-1604485D02*
X39171428Y-1547342D01*
X39171428Y-1547342D02*
X39457143Y-1547342D01*
X39457143Y-1547342D02*
X39628571Y-1604485D01*
X40142857Y-2747342D02*
X40142857Y-1547342D01*
X40142857Y-1547342D02*
X40600000Y-1547342D01*
X40600000Y-1547342D02*
X40714285Y-1604485D01*
X40714285Y-1604485D02*
X40771428Y-1661628D01*
X40771428Y-1661628D02*
X40828571Y-1775914D01*
X40828571Y-1775914D02*
X40828571Y-1947342D01*
X40828571Y-1947342D02*
X40771428Y-2061628D01*
X40771428Y-2061628D02*
X40714285Y-2118771D01*
X40714285Y-2118771D02*
X40600000Y-2175914D01*
X40600000Y-2175914D02*
X40142857Y-2175914D01*
X41342857Y-2747342D02*
X41342857Y-1547342D01*
X41342857Y-1547342D02*
X42028571Y-2747342D01*
X42028571Y-2747342D02*
X42028571Y-1547342D01*
X42771428Y-2747342D02*
X42657143Y-2690200D01*
X42657143Y-2690200D02*
X42600000Y-2633057D01*
X42600000Y-2633057D02*
X42542857Y-2518771D01*
X42542857Y-2518771D02*
X42542857Y-2175914D01*
X42542857Y-2175914D02*
X42600000Y-2061628D01*
X42600000Y-2061628D02*
X42657143Y-2004485D01*
X42657143Y-2004485D02*
X42771428Y-1947342D01*
X42771428Y-1947342D02*
X42942857Y-1947342D01*
X42942857Y-1947342D02*
X43057143Y-2004485D01*
X43057143Y-2004485D02*
X43114286Y-2061628D01*
X43114286Y-2061628D02*
X43171428Y-2175914D01*
X43171428Y-2175914D02*
X43171428Y-2518771D01*
X43171428Y-2518771D02*
X43114286Y-2633057D01*
X43114286Y-2633057D02*
X43057143Y-2690200D01*
X43057143Y-2690200D02*
X42942857Y-2747342D01*
X42942857Y-2747342D02*
X42771428Y-2747342D01*
X43685714Y-2747342D02*
X43685714Y-1947342D01*
X43685714Y-1547342D02*
X43628571Y-1604485D01*
X43628571Y-1604485D02*
X43685714Y-1661628D01*
X43685714Y-1661628D02*
X43742857Y-1604485D01*
X43742857Y-1604485D02*
X43685714Y-1547342D01*
X43685714Y-1547342D02*
X43685714Y-1661628D01*
X44200000Y-2690200D02*
X44314286Y-2747342D01*
X44314286Y-2747342D02*
X44542857Y-2747342D01*
X44542857Y-2747342D02*
X44657143Y-2690200D01*
X44657143Y-2690200D02*
X44714286Y-2575914D01*
X44714286Y-2575914D02*
X44714286Y-2518771D01*
X44714286Y-2518771D02*
X44657143Y-2404485D01*
X44657143Y-2404485D02*
X44542857Y-2347342D01*
X44542857Y-2347342D02*
X44371429Y-2347342D01*
X44371429Y-2347342D02*
X44257143Y-2290200D01*
X44257143Y-2290200D02*
X44200000Y-2175914D01*
X44200000Y-2175914D02*
X44200000Y-2118771D01*
X44200000Y-2118771D02*
X44257143Y-2004485D01*
X44257143Y-2004485D02*
X44371429Y-1947342D01*
X44371429Y-1947342D02*
X44542857Y-1947342D01*
X44542857Y-1947342D02*
X44657143Y-2004485D01*
X45685715Y-2690200D02*
X45571429Y-2747342D01*
X45571429Y-2747342D02*
X45342858Y-2747342D01*
X45342858Y-2747342D02*
X45228572Y-2690200D01*
X45228572Y-2690200D02*
X45171429Y-2575914D01*
X45171429Y-2575914D02*
X45171429Y-2118771D01*
X45171429Y-2118771D02*
X45228572Y-2004485D01*
X45228572Y-2004485D02*
X45342858Y-1947342D01*
X45342858Y-1947342D02*
X45571429Y-1947342D01*
X45571429Y-1947342D02*
X45685715Y-2004485D01*
X45685715Y-2004485D02*
X45742858Y-2118771D01*
X45742858Y-2118771D02*
X45742858Y-2233057D01*
X45742858Y-2233057D02*
X45171429Y-2347342D01*
X47685715Y-2690200D02*
X47571429Y-2747342D01*
X47571429Y-2747342D02*
X47342857Y-2747342D01*
X47342857Y-2747342D02*
X47228572Y-2690200D01*
X47228572Y-2690200D02*
X47171429Y-2633057D01*
X47171429Y-2633057D02*
X47114286Y-2518771D01*
X47114286Y-2518771D02*
X47114286Y-2175914D01*
X47114286Y-2175914D02*
X47171429Y-2061628D01*
X47171429Y-2061628D02*
X47228572Y-2004485D01*
X47228572Y-2004485D02*
X47342857Y-1947342D01*
X47342857Y-1947342D02*
X47571429Y-1947342D01*
X47571429Y-1947342D02*
X47685715Y-2004485D01*
X48714286Y-2747342D02*
X48714286Y-2118771D01*
X48714286Y-2118771D02*
X48657143Y-2004485D01*
X48657143Y-2004485D02*
X48542857Y-1947342D01*
X48542857Y-1947342D02*
X48314286Y-1947342D01*
X48314286Y-1947342D02*
X48200000Y-2004485D01*
X48714286Y-2690200D02*
X48600000Y-2747342D01*
X48600000Y-2747342D02*
X48314286Y-2747342D01*
X48314286Y-2747342D02*
X48200000Y-2690200D01*
X48200000Y-2690200D02*
X48142857Y-2575914D01*
X48142857Y-2575914D02*
X48142857Y-2461628D01*
X48142857Y-2461628D02*
X48200000Y-2347342D01*
X48200000Y-2347342D02*
X48314286Y-2290200D01*
X48314286Y-2290200D02*
X48600000Y-2290200D01*
X48600000Y-2290200D02*
X48714286Y-2233057D01*
X49285714Y-2747342D02*
X49285714Y-1947342D01*
X49285714Y-2175914D02*
X49342857Y-2061628D01*
X49342857Y-2061628D02*
X49400000Y-2004485D01*
X49400000Y-2004485D02*
X49514285Y-1947342D01*
X49514285Y-1947342D02*
X49628571Y-1947342D01*
X50028571Y-2747342D02*
X50028571Y-1947342D01*
X50028571Y-2175914D02*
X50085714Y-2061628D01*
X50085714Y-2061628D02*
X50142857Y-2004485D01*
X50142857Y-2004485D02*
X50257142Y-1947342D01*
X50257142Y-1947342D02*
X50371428Y-1947342D01*
X50771428Y-2747342D02*
X50771428Y-1947342D01*
X50771428Y-1547342D02*
X50714285Y-1604485D01*
X50714285Y-1604485D02*
X50771428Y-1661628D01*
X50771428Y-1661628D02*
X50828571Y-1604485D01*
X50828571Y-1604485D02*
X50771428Y-1547342D01*
X50771428Y-1547342D02*
X50771428Y-1661628D01*
X51800000Y-2690200D02*
X51685714Y-2747342D01*
X51685714Y-2747342D02*
X51457143Y-2747342D01*
X51457143Y-2747342D02*
X51342857Y-2690200D01*
X51342857Y-2690200D02*
X51285714Y-2575914D01*
X51285714Y-2575914D02*
X51285714Y-2118771D01*
X51285714Y-2118771D02*
X51342857Y-2004485D01*
X51342857Y-2004485D02*
X51457143Y-1947342D01*
X51457143Y-1947342D02*
X51685714Y-1947342D01*
X51685714Y-1947342D02*
X51800000Y-2004485D01*
X51800000Y-2004485D02*
X51857143Y-2118771D01*
X51857143Y-2118771D02*
X51857143Y-2233057D01*
X51857143Y-2233057D02*
X51285714Y-2347342D01*
X52371428Y-2747342D02*
X52371428Y-1947342D01*
X52371428Y-2175914D02*
X52428571Y-2061628D01*
X52428571Y-2061628D02*
X52485714Y-2004485D01*
X52485714Y-2004485D02*
X52599999Y-1947342D01*
X52599999Y-1947342D02*
X52714285Y-1947342D01*
X54028571Y-2747342D02*
X54028571Y-1947342D01*
X54028571Y-2175914D02*
X54085714Y-2061628D01*
X54085714Y-2061628D02*
X54142857Y-2004485D01*
X54142857Y-2004485D02*
X54257142Y-1947342D01*
X54257142Y-1947342D02*
X54371428Y-1947342D01*
X55228571Y-2690200D02*
X55114285Y-2747342D01*
X55114285Y-2747342D02*
X54885714Y-2747342D01*
X54885714Y-2747342D02*
X54771428Y-2690200D01*
X54771428Y-2690200D02*
X54714285Y-2575914D01*
X54714285Y-2575914D02*
X54714285Y-2118771D01*
X54714285Y-2118771D02*
X54771428Y-2004485D01*
X54771428Y-2004485D02*
X54885714Y-1947342D01*
X54885714Y-1947342D02*
X55114285Y-1947342D01*
X55114285Y-1947342D02*
X55228571Y-2004485D01*
X55228571Y-2004485D02*
X55285714Y-2118771D01*
X55285714Y-2118771D02*
X55285714Y-2233057D01*
X55285714Y-2233057D02*
X54714285Y-2347342D01*
X55685713Y-1947342D02*
X55971427Y-2747342D01*
X55971427Y-2747342D02*
X56257142Y-1947342D01*
X57571428Y-2404485D02*
X58142857Y-2404485D01*
X57457142Y-2747342D02*
X57857142Y-1547342D01*
X57857142Y-1547342D02*
X58257142Y-2747342D01*
%TO.C,SW2*%
D11*
X19400000Y-7900000D02*
X26400000Y-7900000D01*
X26400000Y-14900000D01*
X19400000Y-14900000D01*
X19400000Y-7900000D01*
%TO.C,SW1*%
X49400000Y-6600000D02*
X56400000Y-6600000D01*
X56400000Y-13600000D01*
X49400000Y-13600000D01*
X49400000Y-6600000D01*
%TD*%
M02*
