%TF.GenerationSoftware,KiCad,Pcbnew,10.0.5*%
%TF.CreationDate,2026-08-03T21:53:20+04:00*%
%TF.ProjectId,espnoise-carrier,6573706e-6f69-4736-952d-636172726965,rev?*%
%TF.SameCoordinates,Original*%
%TF.FileFunction,Copper,L2,Bot*%
%TF.FilePolarity,Positive*%
%FSLAX46Y46*%
G04 Gerber Fmt 4.6, Leading zero omitted, Abs format (unit mm)*
G04 Created by KiCad (PCBNEW 10.0.5) date 2026-08-03 21:53:20*
%MOMM*%
%LPD*%
G01*
G04 APERTURE LIST*
G04 Aperture macros list*
%AMRoundRect*
0 Rectangle with rounded corners*
0 $1 Rounding radius*
0 $2 $3 $4 $5 $6 $7 $8 $9 X,Y pos of 4 corners*
0 Add a 4 corners polygon primitive as box body*
4,1,4,$2,$3,$4,$5,$6,$7,$8,$9,$2,$3,0*
0 Add four circle primitives for the rounded corners*
1,1,$1+$1,$2,$3*
1,1,$1+$1,$4,$5*
1,1,$1+$1,$6,$7*
1,1,$1+$1,$8,$9*
0 Add four rect primitives between the rounded corners*
20,1,$1+$1,$2,$3,$4,$5,0*
20,1,$1+$1,$4,$5,$6,$7,0*
20,1,$1+$1,$6,$7,$8,$9,0*
20,1,$1+$1,$8,$9,$2,$3,0*%
%AMFreePoly0*
4,1,64,0.031751,0.146088,0.079639,0.146088,0.235856,0.115014,0.383010,0.054061,0.515445,-0.034429,0.628071,-0.147055,0.716561,-0.279490,0.777514,-0.426644,0.808588,-0.582861,0.808588,-0.742139,0.777514,-0.898356,0.716561,-1.045510,0.628071,-1.177945,0.515445,-1.290571,0.383010,-1.379061,0.235856,-1.440014,0.079639,-1.471088,-0.079639,-1.471088,-0.235856,-1.440014,-0.383010,-1.379061,
-0.515445,-1.290571,-0.628071,-1.177945,-0.716561,-1.045510,-0.777514,-0.898356,-0.808588,-0.742139,-0.808588,-0.595028,-0.512500,-0.595028,-0.512500,-0.729972,-0.477574,-0.860317,-0.410102,-0.977182,-0.314682,-1.072602,-0.197817,-1.140074,-0.067472,-1.175000,0.067472,-1.175000,0.197817,-1.140074,0.314682,-1.072602,0.410102,-0.977182,0.477574,-0.860317,0.512500,-0.729972,0.512500,-0.595028,
0.477574,-0.464683,0.410102,-0.347818,0.314682,-0.252398,0.197817,-0.184926,0.067472,-0.150000,-0.067472,-0.150000,-0.197817,-0.184926,-0.314682,-0.252398,-0.410102,-0.347818,-0.477574,-0.464683,-0.512500,-0.595028,-0.808588,-0.595028,-0.808588,-0.582861,-0.777514,-0.426644,-0.716561,-0.279490,-0.628071,-0.147055,-0.515445,-0.034429,-0.383010,0.054061,-0.235856,0.115014,-0.079639,0.146088,
-0.031751,0.146088,-0.029264,0.147118,0.029264,0.147118,0.031751,0.146088,0.031751,0.146088,$1*%
G04 Aperture macros list end*
%TA.AperFunction,ComponentPad*%
%ADD10R,1.600000X1.600000*%
%TD*%
%TA.AperFunction,ComponentPad*%
%ADD11C,1.600000*%
%TD*%
%TA.AperFunction,SMDPad,CuDef*%
%ADD12R,0.600000X0.522000*%
%TD*%
%TA.AperFunction,SMDPad,CuDef*%
%ADD13FreePoly0,270.000000*%
%TD*%
%TA.AperFunction,SMDPad,CuDef*%
%ADD14RoundRect,0.200000X-0.200000X-0.275000X0.200000X-0.275000X0.200000X0.275000X-0.200000X0.275000X0*%
%TD*%
%TA.AperFunction,SMDPad,CuDef*%
%ADD15RoundRect,0.250000X-0.250000X-2.500000X0.250000X-2.500000X0.250000X2.500000X-0.250000X2.500000X0*%
%TD*%
%TA.AperFunction,SMDPad,CuDef*%
%ADD16RoundRect,0.250000X-0.550000X-1.250000X0.550000X-1.250000X0.550000X1.250000X-0.550000X1.250000X0*%
%TD*%
%TA.AperFunction,SMDPad,CuDef*%
%ADD17RoundRect,0.250000X-1.950000X-1.000000X1.950000X-1.000000X1.950000X1.000000X-1.950000X1.000000X0*%
%TD*%
%TA.AperFunction,SMDPad,CuDef*%
%ADD18RoundRect,0.250000X-0.625000X0.375000X-0.625000X-0.375000X0.625000X-0.375000X0.625000X0.375000X0*%
%TD*%
%TA.AperFunction,SMDPad,CuDef*%
%ADD19RoundRect,0.225000X-0.250000X0.225000X-0.250000X-0.225000X0.250000X-0.225000X0.250000X0.225000X0*%
%TD*%
%TA.AperFunction,SMDPad,CuDef*%
%ADD20RoundRect,0.225000X-0.225000X-0.250000X0.225000X-0.250000X0.225000X0.250000X-0.225000X0.250000X0*%
%TD*%
%TA.AperFunction,SMDPad,CuDef*%
%ADD21RoundRect,0.200000X-0.275000X0.200000X-0.275000X-0.200000X0.275000X-0.200000X0.275000X0.200000X0*%
%TD*%
%TA.AperFunction,SMDPad,CuDef*%
%ADD22RoundRect,0.150000X-0.587500X-0.150000X0.587500X-0.150000X0.587500X0.150000X-0.587500X0.150000X0*%
%TD*%
%TA.AperFunction,SMDPad,CuDef*%
%ADD23RoundRect,0.100000X-0.637500X-0.100000X0.637500X-0.100000X0.637500X0.100000X-0.637500X0.100000X0*%
%TD*%
%TA.AperFunction,ViaPad*%
%ADD24C,0.700000*%
%TD*%
%TA.AperFunction,ViaPad*%
%ADD25C,0.600000*%
%TD*%
%TA.AperFunction,Conductor*%
%ADD26C,0.250000*%
%TD*%
%TA.AperFunction,Conductor*%
%ADD27C,0.800000*%
%TD*%
%TA.AperFunction,Conductor*%
%ADD28C,0.700000*%
%TD*%
%TA.AperFunction,Conductor*%
%ADD29C,0.350000*%
%TD*%
%TA.AperFunction,Conductor*%
%ADD30C,0.400000*%
%TD*%
%TA.AperFunction,Conductor*%
%ADD31C,0.450000*%
%TD*%
G04 APERTURE END LIST*
D10*
%TO.P,SW2,1*%
%TO.N,+5V_BUZZER_SW*%
X5000000Y-7500000D03*
D11*
%TO.P,SW2,2*%
%TO.N,+5V_PERIPH*%
X7000000Y-7500000D03*
%TO.P,SW2,3*%
%TO.N,N/C*%
X9000000Y-7500000D03*
%TO.P,SW2,4*%
X5000000Y-12500000D03*
%TO.P,SW2,5*%
X7000000Y-12500000D03*
%TO.P,SW2,6*%
X9000000Y-12500000D03*
%TD*%
D10*
%TO.P,SW1,1*%
%TO.N,N/C*%
X18000000Y-7500000D03*
D11*
%TO.P,SW1,2*%
%TO.N,MUTE_N*%
X20000000Y-7500000D03*
%TO.P,SW1,3*%
%TO.N,GND*%
X22000000Y-7500000D03*
%TO.P,SW1,4*%
%TO.N,N/C*%
X18000000Y-12500000D03*
%TO.P,SW1,5*%
X20000000Y-12500000D03*
%TO.P,SW1,6*%
X22000000Y-12500000D03*
%TD*%
D12*
%TO.P,MIC1,1*%
%TO.N,MIC_WS*%
X28600000Y-12074000D03*
%TO.P,MIC1,2*%
%TO.N,GND*%
X28600000Y-11252000D03*
D13*
%TO.P,MIC1,3*%
X30162500Y-10000000D03*
D12*
%TO.P,MIC1,4*%
%TO.N,MIC_SCK*%
X30400000Y-11252000D03*
%TO.P,MIC1,5*%
%TO.N,+3V3*%
X30400000Y-12074000D03*
%TO.P,MIC1,6*%
%TO.N,MIC_SD*%
X29500000Y-12074000D03*
%TD*%
D14*
%TO.P,R2,1*%
%TO.N,BUZZER_PWM*%
X59175000Y-17000000D03*
%TO.P,R2,2*%
%TO.N,BUZZER_BASE*%
X60825000Y-17000000D03*
%TD*%
D15*
%TO.P,J2,1*%
%TO.N,+5V_IN*%
X35500000Y-14500000D03*
%TO.P,J2,2*%
%TO.N,GND*%
X37500000Y-14500000D03*
%TO.P,J2,3*%
%TO.N,+3V3*%
X39500000Y-14500000D03*
%TO.P,J2,4*%
%TO.N,MIC_SCK*%
X41500000Y-14500000D03*
%TO.P,J2,5*%
%TO.N,MIC_WS*%
X43500000Y-14500000D03*
%TO.P,J2,6*%
%TO.N,MIC_SD*%
X45500000Y-14500000D03*
%TO.P,J2,7*%
%TO.N,LED_DATA_3V3*%
X47500000Y-14500000D03*
%TO.P,J2,8*%
%TO.N,BUZZER_PWM*%
X49500000Y-14500000D03*
%TO.P,J2,9*%
%TO.N,MUTE_N*%
X51500000Y-14500000D03*
%TO.P,J2,10*%
%TO.N,GND*%
X53500000Y-14500000D03*
D16*
%TO.P,J2,MP*%
%TO.N,N/C*%
X33100000Y-16750000D03*
X55900000Y-16750000D03*
%TD*%
D17*
%TO.P,C2,1*%
%TO.N,+5V_PERIPH*%
X68300000Y-15000000D03*
%TO.P,C2,2*%
%TO.N,GND*%
X75700000Y-15000000D03*
%TD*%
D18*
%TO.P,F1,1*%
%TO.N,+5V_IN*%
X24500000Y-2600000D03*
%TO.P,F1,2*%
%TO.N,+5V_PERIPH*%
X24500000Y-5400000D03*
%TD*%
D15*
%TO.P,J1,1*%
%TO.N,+5V_IN*%
X74200000Y-4500000D03*
%TO.P,J1,2*%
%TO.N,GND*%
X76200000Y-4500000D03*
D16*
%TO.P,J1,MP*%
%TO.N,N/C*%
X71800000Y-6750000D03*
X78600000Y-6750000D03*
%TD*%
D19*
%TO.P,C3,1*%
%TO.N,+3V3*%
X26500000Y-9225000D03*
%TO.P,C3,2*%
%TO.N,GND*%
X26500000Y-10775000D03*
%TD*%
D15*
%TO.P,J3,1*%
%TO.N,+5V_PERIPH*%
X58500000Y-4500000D03*
%TO.P,J3,2*%
%TO.N,GND*%
X60500000Y-4500000D03*
%TO.P,J3,3*%
%TO.N,LED_DATA_5V*%
X62500000Y-4500000D03*
%TO.P,J3,4*%
%TO.N,+5V_PERIPH*%
X64500000Y-4500000D03*
%TO.P,J3,5*%
%TO.N,GND*%
X66500000Y-4500000D03*
D16*
%TO.P,J3,MP*%
%TO.N,N/C*%
X56100000Y-6750000D03*
X68900000Y-6750000D03*
%TD*%
D20*
%TO.P,C1,1*%
%TO.N,+5V_PERIPH*%
X29725000Y-4000000D03*
%TO.P,C1,2*%
%TO.N,GND*%
X31275000Y-4000000D03*
%TD*%
D14*
%TO.P,R1,1*%
%TO.N,LED_DATA_5V_RAW*%
X47675000Y-5000000D03*
%TO.P,R1,2*%
%TO.N,LED_DATA_5V*%
X49325000Y-5000000D03*
%TD*%
D21*
%TO.P,R3,1*%
%TO.N,BUZZER_BASE*%
X64000000Y-16175000D03*
%TO.P,R3,2*%
%TO.N,GND*%
X64000000Y-17825000D03*
%TD*%
D22*
%TO.P,Q1,1*%
%TO.N,BUZZER_BASE*%
X59562500Y-14950000D03*
%TO.P,Q1,2*%
%TO.N,GND*%
X59562500Y-13050000D03*
%TO.P,Q1,3*%
%TO.N,BUZZER_COLLECTOR*%
X61437500Y-14000000D03*
%TD*%
D23*
%TO.P,U1,1*%
%TO.N,GND*%
X36637500Y-6950000D03*
%TO.P,U1,2*%
%TO.N,LED_DATA_3V3*%
X36637500Y-6300000D03*
%TO.P,U1,3*%
%TO.N,LED_DATA_5V_RAW*%
X36637500Y-5650000D03*
%TO.P,U1,4*%
%TO.N,+5V_PERIPH*%
X36637500Y-5000000D03*
%TO.P,U1,5*%
%TO.N,GND*%
X36637500Y-4350000D03*
%TO.P,U1,6*%
%TO.N,N/C*%
X36637500Y-3700000D03*
%TO.P,U1,7*%
%TO.N,GND*%
X36637500Y-3050000D03*
%TO.P,U1,8*%
%TO.N,N/C*%
X42362500Y-3050000D03*
%TO.P,U1,9*%
%TO.N,GND*%
X42362500Y-3700000D03*
%TO.P,U1,10*%
%TO.N,+5V_PERIPH*%
X42362500Y-4350000D03*
%TO.P,U1,11*%
%TO.N,N/C*%
X42362500Y-5000000D03*
%TO.P,U1,12*%
%TO.N,GND*%
X42362500Y-5650000D03*
%TO.P,U1,13*%
%TO.N,+5V_PERIPH*%
X42362500Y-6300000D03*
%TO.P,U1,14*%
X42362500Y-6950000D03*
%TD*%
D24*
%TO.N,GND*%
X61000000Y-13050000D03*
%TO.N,+5V_IN*%
X35500000Y-17500000D03*
X24500000Y-1200000D03*
X72800000Y-3000000D03*
%TO.N,+5V_PERIPH*%
X58500000Y-3100000D03*
X25800000Y-5400000D03*
X29000000Y-3000000D03*
X66800000Y-15000000D03*
X64500000Y-3100000D03*
D25*
X35000000Y-5000000D03*
D24*
X44200000Y-4350000D03*
%TO.N,+5V_BUZZER_SW*%
X55000000Y-10600000D03*
X76500000Y-10600000D03*
D25*
%TO.N,+3V3*%
X31000000Y-13900000D03*
X39500000Y-13900000D03*
%TO.N,MIC_SCK*%
X32500000Y-11800000D03*
X41500000Y-11800000D03*
%TO.N,MIC_WS*%
X27300000Y-12500000D03*
X43500000Y-12500000D03*
%TO.N,MIC_SD*%
X29500000Y-13200000D03*
X45500000Y-13200000D03*
D24*
%TO.N,LED_DATA_5V_RAW*%
X33500000Y-5650000D03*
X46500000Y-5000000D03*
%TO.N,BUZZER_PWM*%
X59175000Y-11800000D03*
X49500000Y-11800000D03*
%TO.N,BUZZER_COLLECTOR*%
X62000000Y-12000000D03*
%TO.N,MUTE_N*%
X51500000Y-15700000D03*
%TD*%
%TO.N,GND*%
D26*
X59562500Y-13050000D02*
X61000000Y-13050000D01*
%TO.N,+5V_IN*%
D27*
X35500000Y-14500000D02*
X35500000Y-17500000D01*
X74200000Y-4500000D02*
X72800000Y-3000000D01*
X24500000Y-1200000D02*
X24500000Y-2600000D01*
%TO.N,+5V_PERIPH*%
D28*
X66800000Y-15000000D02*
X68300000Y-15000000D01*
D29*
X42362500Y-6950000D02*
X45000000Y-6950000D01*
D30*
X44200000Y-4350000D02*
X42362500Y-4350000D01*
X58500000Y-3100000D02*
X58500000Y-4500000D01*
D28*
X24500000Y-5400000D02*
X25800000Y-5400000D01*
D29*
X45000000Y-6950000D02*
X45000000Y-4350000D01*
D28*
X11000000Y-5400000D02*
X11000000Y-6000000D01*
X11000000Y-6000000D02*
X7000000Y-6000000D01*
X7000000Y-6000000D02*
X7000000Y-7500000D01*
D29*
X45000000Y-4350000D02*
X44200000Y-4350000D01*
D26*
X35000000Y-5000000D02*
X36637500Y-5000000D01*
D29*
X42362500Y-6300000D02*
X44200000Y-6300000D01*
X44200000Y-6300000D02*
X44200000Y-4350000D01*
D30*
X64500000Y-3100000D02*
X64500000Y-4500000D01*
X29000000Y-3000000D02*
X29725000Y-4000000D01*
D28*
X24500000Y-5400000D02*
X11000000Y-5400000D01*
%TO.N,+5V_BUZZER_SW*%
D30*
X55000000Y-10600000D02*
X76500000Y-10600000D01*
%TO.N,+3V3*%
D26*
X39500000Y-14500000D02*
X39500000Y-13900000D01*
X30400000Y-12074000D02*
X30800000Y-14200000D01*
X25200000Y-9225000D02*
X26500000Y-9225000D01*
X30800000Y-14200000D02*
X25200000Y-14200000D01*
X31000000Y-13900000D02*
X31000000Y-12074000D01*
X31000000Y-12074000D02*
X30400000Y-12074000D01*
X25200000Y-14200000D02*
X25200000Y-9225000D01*
%TO.N,MIC_SCK*%
X41500000Y-14500000D02*
X41500000Y-11800000D01*
X32500000Y-11252000D02*
X30400000Y-11252000D01*
X32500000Y-11800000D02*
X32500000Y-11252000D01*
%TO.N,MIC_WS*%
X27300000Y-12500000D02*
X28600000Y-12074000D01*
X43500000Y-14500000D02*
X43500000Y-12500000D01*
%TO.N,MIC_SD*%
X45500000Y-14500000D02*
X45500000Y-13200000D01*
X29500000Y-13200000D02*
X29500000Y-12074000D01*
%TO.N,LED_DATA_3V3*%
X34500000Y-10800000D02*
X34500000Y-6300000D01*
X47500000Y-14500000D02*
X47500000Y-10800000D01*
X34500000Y-6300000D02*
X36637500Y-6300000D01*
X47500000Y-10800000D02*
X34500000Y-10800000D01*
%TO.N,LED_DATA_5V_RAW*%
X46500000Y-5000000D02*
X47675000Y-5000000D01*
X36637500Y-5650000D02*
X33500000Y-5650000D01*
%TO.N,LED_DATA_5V*%
X49325000Y-5000000D02*
X50000000Y-5000000D01*
X62500000Y-9800000D02*
X62500000Y-4500000D01*
X50000000Y-9800000D02*
X62500000Y-9800000D01*
X50000000Y-5000000D02*
X50000000Y-9800000D01*
%TO.N,BUZZER_PWM*%
X59175000Y-11800000D02*
X57600000Y-11800000D01*
X57600000Y-17000000D02*
X59175000Y-17000000D01*
X57600000Y-11800000D02*
X57600000Y-17000000D01*
X49500000Y-14500000D02*
X49500000Y-11800000D01*
%TO.N,BUZZER_BASE*%
X59562500Y-14950000D02*
X62200000Y-14950000D01*
X60825000Y-15800000D02*
X59562500Y-14950000D01*
X62200000Y-14950000D02*
X62200000Y-17000000D01*
X62200000Y-17000000D02*
X64000000Y-16175000D01*
X60825000Y-17000000D02*
X60825000Y-15800000D01*
%TO.N,BUZZER_COLLECTOR*%
D31*
X62000000Y-14000000D02*
X62000000Y-12000000D01*
X61437500Y-14000000D02*
X62000000Y-14000000D01*
%TO.N,MUTE_N*%
D26*
X51500000Y-14500000D02*
X51500000Y-15700000D01*
%TD*%
%TA.AperFunction,Conductor*%
%TO.N,GND*%
G36*
X24107840Y-519407D02*
G01*
X24143804Y-568907D01*
X24143804Y-630093D01*
X24107840Y-679593D01*
X24104651Y-681815D01*
X24085331Y-694723D01*
X23994727Y-785327D01*
X23994724Y-785331D01*
X23923538Y-891866D01*
X23923534Y-891874D01*
X23874500Y-1010252D01*
X23874499Y-1010257D01*
X23849500Y-1135930D01*
X23849500Y-1633203D01*
X23830593Y-1691394D01*
X23781093Y-1727358D01*
X23773275Y-1729548D01*
X23767515Y-1730909D01*
X23632670Y-1781202D01*
X23517458Y-1867450D01*
X23517450Y-1867458D01*
X23431202Y-1982670D01*
X23380910Y-2117511D01*
X23380908Y-2117522D01*
X23374500Y-2177129D01*
X23374500Y-3022866D01*
X23374501Y-3022870D01*
X23380908Y-3082480D01*
X23380909Y-3082485D01*
X23431202Y-3217329D01*
X23501176Y-3310802D01*
X23517454Y-3332546D01*
X23517457Y-3332548D01*
X23517458Y-3332549D01*
X23632670Y-3418797D01*
X23767511Y-3469089D01*
X23767512Y-3469089D01*
X23767517Y-3469091D01*
X23827127Y-3475500D01*
X25172872Y-3475499D01*
X25232483Y-3469091D01*
X25312630Y-3439198D01*
X25367329Y-3418797D01*
X25367329Y-3418796D01*
X25367331Y-3418796D01*
X25482546Y-3332546D01*
X25568796Y-3217331D01*
X25619091Y-3082483D01*
X25625500Y-3022873D01*
X25625500Y-2920943D01*
X28399500Y-2920943D01*
X28399500Y-3079057D01*
X28440423Y-3231784D01*
X28519480Y-3368716D01*
X28631284Y-3480520D01*
X28768216Y-3559577D01*
X28834872Y-3577437D01*
X28886186Y-3610760D01*
X28889400Y-3614953D01*
X29005651Y-3775298D01*
X29024500Y-3833408D01*
X29024500Y-4295478D01*
X29024501Y-4295484D01*
X29030587Y-4352111D01*
X29030587Y-4352112D01*
X29030588Y-4352114D01*
X29078372Y-4480226D01*
X29160313Y-4589687D01*
X29216196Y-4631520D01*
X29268579Y-4670734D01*
X29269774Y-4671628D01*
X29397886Y-4719412D01*
X29454515Y-4725500D01*
X29995484Y-4725499D01*
X30052114Y-4719412D01*
X30180226Y-4671628D01*
X30289687Y-4589687D01*
X30371628Y-4480226D01*
X30419412Y-4352114D01*
X30425500Y-4295485D01*
X30425500Y-4216740D01*
X41374500Y-4216740D01*
X41374500Y-4483260D01*
X41380509Y-4524500D01*
X41384427Y-4551395D01*
X41423598Y-4631520D01*
X41432169Y-4692102D01*
X41423598Y-4718480D01*
X41384427Y-4798604D01*
X41384151Y-4800500D01*
X41374500Y-4866740D01*
X41374500Y-5133260D01*
X41376921Y-5149877D01*
X41384427Y-5201395D01*
X41423483Y-5281284D01*
X41435802Y-5306483D01*
X41518517Y-5389198D01*
X41571945Y-5415317D01*
X41623604Y-5440572D01*
X41623605Y-5440572D01*
X41623607Y-5440573D01*
X41691740Y-5450500D01*
X41691743Y-5450500D01*
X43033257Y-5450500D01*
X43033260Y-5450500D01*
X43101393Y-5440573D01*
X43206483Y-5389198D01*
X43289198Y-5306483D01*
X43340573Y-5201393D01*
X43350500Y-5133260D01*
X43350500Y-4899500D01*
X43369407Y-4841309D01*
X43418907Y-4805345D01*
X43449500Y-4800500D01*
X43675500Y-4800500D01*
X43733691Y-4819407D01*
X43769655Y-4868907D01*
X43774500Y-4899500D01*
X43774500Y-5775500D01*
X43755593Y-5833691D01*
X43706093Y-5869655D01*
X43675500Y-5874500D01*
X43155130Y-5874500D01*
X43111650Y-5864441D01*
X43108100Y-5862706D01*
X43101394Y-5859427D01*
X43084359Y-5856945D01*
X43033260Y-5849500D01*
X41691740Y-5849500D01*
X41657673Y-5854463D01*
X41623604Y-5859427D01*
X41518518Y-5910801D01*
X41435801Y-5993518D01*
X41384427Y-6098604D01*
X41384427Y-6098607D01*
X41374500Y-6166740D01*
X41374500Y-6433260D01*
X41378984Y-6464033D01*
X41384427Y-6501395D01*
X41423598Y-6581520D01*
X41432169Y-6642102D01*
X41423598Y-6668480D01*
X41384427Y-6748604D01*
X41384427Y-6748607D01*
X41374500Y-6816740D01*
X41374500Y-7083260D01*
X41379014Y-7114241D01*
X41384427Y-7151395D01*
X41435801Y-7256481D01*
X41435802Y-7256483D01*
X41518517Y-7339198D01*
X41556049Y-7357546D01*
X41623604Y-7390572D01*
X41623605Y-7390572D01*
X41623607Y-7390573D01*
X41691740Y-7400500D01*
X41691743Y-7400500D01*
X43033257Y-7400500D01*
X43033260Y-7400500D01*
X43101393Y-7390573D01*
X43111650Y-7385558D01*
X43155130Y-7375500D01*
X45056016Y-7375500D01*
X45056018Y-7375500D01*
X45164237Y-7346503D01*
X45164239Y-7346501D01*
X45164241Y-7346501D01*
X45193064Y-7329859D01*
X45261263Y-7290485D01*
X45340485Y-7211263D01*
X45396503Y-7114237D01*
X45425500Y-7006018D01*
X45425500Y-4920943D01*
X45899500Y-4920943D01*
X45899500Y-5079057D01*
X45940423Y-5231784D01*
X46019480Y-5368716D01*
X46131284Y-5480520D01*
X46268216Y-5559577D01*
X46420943Y-5600500D01*
X46420945Y-5600500D01*
X46579055Y-5600500D01*
X46579057Y-5600500D01*
X46731784Y-5559577D01*
X46868716Y-5480520D01*
X46906142Y-5443093D01*
X46960656Y-5415317D01*
X47021088Y-5424888D01*
X47064353Y-5468152D01*
X47069587Y-5480396D01*
X47072207Y-5487883D01*
X47152845Y-5597144D01*
X47152847Y-5597146D01*
X47152850Y-5597150D01*
X47152853Y-5597152D01*
X47152855Y-5597154D01*
X47262116Y-5677792D01*
X47262117Y-5677792D01*
X47262118Y-5677793D01*
X47390301Y-5722646D01*
X47420725Y-5725499D01*
X47420727Y-5725500D01*
X47420734Y-5725500D01*
X47929273Y-5725500D01*
X47929273Y-5725499D01*
X47959699Y-5722646D01*
X48087882Y-5677793D01*
X48197150Y-5597150D01*
X48277793Y-5487882D01*
X48322646Y-5359699D01*
X48325499Y-5329273D01*
X48325500Y-5329273D01*
X48325500Y-4670727D01*
X48325499Y-4670725D01*
X48674500Y-4670725D01*
X48674500Y-5329274D01*
X48677353Y-5359694D01*
X48677355Y-5359703D01*
X48722207Y-5487883D01*
X48802845Y-5597144D01*
X48802847Y-5597146D01*
X48802850Y-5597150D01*
X48802853Y-5597152D01*
X48802855Y-5597154D01*
X48912116Y-5677792D01*
X48912117Y-5677792D01*
X48912118Y-5677793D01*
X49040301Y-5722646D01*
X49070725Y-5725499D01*
X49070727Y-5725500D01*
X49525500Y-5725500D01*
X49583691Y-5744407D01*
X49619655Y-5793907D01*
X49624500Y-5824500D01*
X49624500Y-9849435D01*
X49630446Y-9871626D01*
X49650091Y-9944942D01*
X49681591Y-9999500D01*
X49699525Y-10030562D01*
X49769438Y-10100475D01*
X49769440Y-10100476D01*
X49855058Y-10149908D01*
X49855056Y-10149908D01*
X49855060Y-10149909D01*
X49855062Y-10149910D01*
X49950565Y-10175500D01*
X50049435Y-10175500D01*
X54380215Y-10175500D01*
X54438406Y-10194407D01*
X54474370Y-10243907D01*
X54474370Y-10305093D01*
X54465951Y-10324000D01*
X54440424Y-10368213D01*
X54440424Y-10368214D01*
X54440423Y-10368216D01*
X54399500Y-10520943D01*
X54399500Y-10679057D01*
X54440423Y-10831784D01*
X54519480Y-10968716D01*
X54631284Y-11080520D01*
X54768216Y-11159577D01*
X54920943Y-11200500D01*
X54920945Y-11200500D01*
X55079055Y-11200500D01*
X55079057Y-11200500D01*
X55231784Y-11159577D01*
X55368716Y-11080520D01*
X55369741Y-11079494D01*
X55370668Y-11079022D01*
X55373866Y-11076569D01*
X55374320Y-11077161D01*
X55424256Y-11051719D01*
X55439743Y-11050500D01*
X58904024Y-11050500D01*
X58962215Y-11069407D01*
X58998179Y-11118907D01*
X58998179Y-11180093D01*
X58962215Y-11229593D01*
X58948795Y-11237108D01*
X58948836Y-11237179D01*
X58943218Y-11240422D01*
X58943216Y-11240423D01*
X58806284Y-11319480D01*
X58806281Y-11319482D01*
X58730259Y-11395504D01*
X58675742Y-11423281D01*
X58660256Y-11424500D01*
X57649435Y-11424500D01*
X57550565Y-11424500D01*
X57492114Y-11440161D01*
X57455057Y-11450091D01*
X57369440Y-11499523D01*
X57299523Y-11569440D01*
X57250091Y-11655057D01*
X57250090Y-11655062D01*
X57224500Y-11750565D01*
X57224500Y-17049435D01*
X57240055Y-17107488D01*
X57250091Y-17144942D01*
X57294776Y-17222337D01*
X57299525Y-17230562D01*
X57369438Y-17300475D01*
X57369440Y-17300476D01*
X57455058Y-17349908D01*
X57455056Y-17349908D01*
X57455060Y-17349909D01*
X57455062Y-17349910D01*
X57550565Y-17375500D01*
X57649435Y-17375500D01*
X58462639Y-17375500D01*
X58520830Y-17394407D01*
X58556082Y-17441801D01*
X58571097Y-17484712D01*
X58572208Y-17487885D01*
X58652845Y-17597144D01*
X58652847Y-17597146D01*
X58652850Y-17597150D01*
X58652853Y-17597152D01*
X58652855Y-17597154D01*
X58762116Y-17677792D01*
X58762117Y-17677792D01*
X58762118Y-17677793D01*
X58890301Y-17722646D01*
X58920725Y-17725499D01*
X58920727Y-17725500D01*
X58920734Y-17725500D01*
X59429273Y-17725500D01*
X59429273Y-17725499D01*
X59459699Y-17722646D01*
X59587882Y-17677793D01*
X59697150Y-17597150D01*
X59777793Y-17487882D01*
X59822646Y-17359699D01*
X59825499Y-17329273D01*
X59825500Y-17329273D01*
X59825500Y-16670727D01*
X59825499Y-16670725D01*
X59822646Y-16640305D01*
X59822646Y-16640301D01*
X59777793Y-16512118D01*
X59777790Y-16512114D01*
X59697154Y-16402855D01*
X59697152Y-16402853D01*
X59697150Y-16402850D01*
X59697146Y-16402847D01*
X59697144Y-16402845D01*
X59587883Y-16322207D01*
X59459703Y-16277355D01*
X59459694Y-16277353D01*
X59429274Y-16274500D01*
X59429266Y-16274500D01*
X58920734Y-16274500D01*
X58920725Y-16274500D01*
X58890305Y-16277353D01*
X58890296Y-16277355D01*
X58762116Y-16322207D01*
X58652855Y-16402845D01*
X58652845Y-16402855D01*
X58572208Y-16512114D01*
X58572207Y-16512118D01*
X58556082Y-16558198D01*
X58519018Y-16606878D01*
X58462639Y-16624500D01*
X58074500Y-16624500D01*
X58016309Y-16605593D01*
X57980345Y-16556093D01*
X57975500Y-16525500D01*
X57975500Y-14768477D01*
X58574500Y-14768477D01*
X58574500Y-15131520D01*
X58574501Y-15131523D01*
X58589352Y-15225299D01*
X58589354Y-15225304D01*
X58646950Y-15338342D01*
X58736658Y-15428050D01*
X58849696Y-15485646D01*
X58943481Y-15500500D01*
X59677577Y-15500499D01*
X59732867Y-15517377D01*
X59973693Y-15679517D01*
X60405790Y-15970434D01*
X60443501Y-16018616D01*
X60449500Y-16052555D01*
X60449500Y-16244639D01*
X60430593Y-16302830D01*
X60409289Y-16324294D01*
X60302852Y-16402848D01*
X60302845Y-16402855D01*
X60222207Y-16512116D01*
X60177355Y-16640296D01*
X60177353Y-16640305D01*
X60174500Y-16670725D01*
X60174500Y-17329274D01*
X60177353Y-17359694D01*
X60177355Y-17359703D01*
X60222207Y-17487883D01*
X60302845Y-17597144D01*
X60302847Y-17597146D01*
X60302850Y-17597150D01*
X60302853Y-17597152D01*
X60302855Y-17597154D01*
X60412116Y-17677792D01*
X60412117Y-17677792D01*
X60412118Y-17677793D01*
X60540301Y-17722646D01*
X60570725Y-17725499D01*
X60570727Y-17725500D01*
X60570734Y-17725500D01*
X61079273Y-17725500D01*
X61079273Y-17725499D01*
X61109699Y-17722646D01*
X61237882Y-17677793D01*
X61347150Y-17597150D01*
X61427793Y-17487882D01*
X61472646Y-17359699D01*
X61475499Y-17329273D01*
X61475500Y-17329273D01*
X61475500Y-16670727D01*
X61475499Y-16670725D01*
X61472646Y-16640305D01*
X61472646Y-16640301D01*
X61427793Y-16512118D01*
X61427790Y-16512114D01*
X61347154Y-16402855D01*
X61347152Y-16402853D01*
X61347150Y-16402850D01*
X61285852Y-16357610D01*
X61240711Y-16324294D01*
X61205119Y-16274526D01*
X61200500Y-16244639D01*
X61200500Y-15816361D01*
X61200735Y-15809540D01*
X61203013Y-15776556D01*
X61202334Y-15773082D01*
X61200500Y-15754110D01*
X61200500Y-15750564D01*
X61191940Y-15718621D01*
X61190404Y-15711985D01*
X61184065Y-15679517D01*
X61182508Y-15676332D01*
X61175826Y-15658480D01*
X61174911Y-15655065D01*
X61174910Y-15655063D01*
X61174910Y-15655062D01*
X61158365Y-15626406D01*
X61155168Y-15620399D01*
X61140647Y-15590690D01*
X61138315Y-15588012D01*
X61127247Y-15572507D01*
X61125475Y-15569438D01*
X61125470Y-15569433D01*
X61102080Y-15546042D01*
X61097436Y-15541067D01*
X61075718Y-15516126D01*
X61072771Y-15514142D01*
X61058073Y-15502036D01*
X61055562Y-15499525D01*
X61055559Y-15499523D01*
X61050973Y-15494937D01*
X61053104Y-15492805D01*
X61025483Y-15452593D01*
X61027100Y-15391429D01*
X61064360Y-15342897D01*
X61120413Y-15325500D01*
X61725500Y-15325500D01*
X61783691Y-15344407D01*
X61819655Y-15393907D01*
X61824500Y-15424500D01*
X61824500Y-16977725D01*
X61824064Y-16987001D01*
X61821520Y-17014033D01*
X61823107Y-17023392D01*
X61824500Y-17039944D01*
X61824500Y-17049434D01*
X61831529Y-17075667D01*
X61833509Y-17084739D01*
X61838049Y-17111515D01*
X61842003Y-17120141D01*
X61847632Y-17135764D01*
X61850090Y-17144939D01*
X61863668Y-17168456D01*
X61867929Y-17176708D01*
X61879242Y-17201393D01*
X61885298Y-17208707D01*
X61894776Y-17222337D01*
X61899523Y-17230559D01*
X61899526Y-17230563D01*
X61918730Y-17249768D01*
X61924979Y-17256633D01*
X61942297Y-17277549D01*
X61942298Y-17277550D01*
X61950038Y-17283046D01*
X61962722Y-17293760D01*
X61969129Y-17300166D01*
X61969438Y-17300475D01*
X61969442Y-17300477D01*
X61969443Y-17300478D01*
X61992956Y-17314053D01*
X62000774Y-17319070D01*
X62020557Y-17333117D01*
X62022913Y-17334790D01*
X62031810Y-17338094D01*
X62046845Y-17345165D01*
X62055062Y-17349910D01*
X62055064Y-17349910D01*
X62055067Y-17349912D01*
X62081299Y-17356941D01*
X62090143Y-17359761D01*
X62115599Y-17369216D01*
X62125051Y-17370105D01*
X62141392Y-17373042D01*
X62150565Y-17375500D01*
X62177727Y-17375500D01*
X62187002Y-17375935D01*
X62214034Y-17378480D01*
X62223395Y-17376892D01*
X62239944Y-17375500D01*
X62249435Y-17375500D01*
X62275685Y-17368465D01*
X62284717Y-17366493D01*
X62311514Y-17361951D01*
X62320137Y-17357997D01*
X62335766Y-17352366D01*
X62344938Y-17349910D01*
X62368475Y-17336319D01*
X62376690Y-17332077D01*
X63517760Y-16809087D01*
X63578535Y-16802030D01*
X63591693Y-16805637D01*
X63640301Y-16822646D01*
X63670725Y-16825499D01*
X63670727Y-16825500D01*
X63670734Y-16825500D01*
X64329273Y-16825500D01*
X64329273Y-16825499D01*
X64359699Y-16822646D01*
X64487882Y-16777793D01*
X64597150Y-16697150D01*
X64677793Y-16587882D01*
X64722646Y-16459699D01*
X64725499Y-16429273D01*
X64725500Y-16429273D01*
X64725500Y-15920727D01*
X64725499Y-15920725D01*
X64722646Y-15890305D01*
X64722646Y-15890301D01*
X64677793Y-15762118D01*
X64643252Y-15715317D01*
X64597154Y-15652855D01*
X64597152Y-15652853D01*
X64597150Y-15652850D01*
X64597146Y-15652847D01*
X64597144Y-15652845D01*
X64487883Y-15572207D01*
X64359703Y-15527355D01*
X64359694Y-15527353D01*
X64329274Y-15524500D01*
X64329266Y-15524500D01*
X63670734Y-15524500D01*
X63670725Y-15524500D01*
X63640305Y-15527353D01*
X63640296Y-15527355D01*
X63512116Y-15572207D01*
X63402855Y-15652845D01*
X63402845Y-15652855D01*
X63322207Y-15762116D01*
X63277355Y-15890296D01*
X63277353Y-15890305D01*
X63274500Y-15920725D01*
X63274500Y-16030931D01*
X63255593Y-16089122D01*
X63216749Y-16120928D01*
X62715749Y-16350552D01*
X62654972Y-16357610D01*
X62601654Y-16327596D01*
X62576161Y-16271974D01*
X62575500Y-16260555D01*
X62575500Y-14900566D01*
X62575500Y-14900565D01*
X62549910Y-14805062D01*
X62549908Y-14805059D01*
X62549908Y-14805057D01*
X62500476Y-14719440D01*
X62500475Y-14719438D01*
X62430562Y-14649525D01*
X62430559Y-14649523D01*
X62344941Y-14600091D01*
X62338946Y-14597608D01*
X62340029Y-14594992D01*
X62298628Y-14568085D01*
X62276722Y-14510956D01*
X62292579Y-14451861D01*
X62305580Y-14435811D01*
X62353050Y-14388342D01*
X62410646Y-14275304D01*
X62415537Y-14244416D01*
X62427580Y-14210407D01*
X62443095Y-14183536D01*
X62475500Y-14062601D01*
X62475500Y-13952129D01*
X65849500Y-13952129D01*
X65849500Y-16047866D01*
X65849500Y-16047869D01*
X65849501Y-16047872D01*
X65851044Y-16062229D01*
X65855908Y-16107480D01*
X65855909Y-16107485D01*
X65906202Y-16242329D01*
X65970033Y-16327596D01*
X65992454Y-16357546D01*
X65992457Y-16357548D01*
X65992458Y-16357549D01*
X66107670Y-16443797D01*
X66242511Y-16494089D01*
X66242512Y-16494089D01*
X66242517Y-16494091D01*
X66302127Y-16500500D01*
X70297872Y-16500499D01*
X70357483Y-16494091D01*
X70449706Y-16459694D01*
X70492329Y-16443797D01*
X70492329Y-16443796D01*
X70492331Y-16443796D01*
X70607546Y-16357546D01*
X70693796Y-16242331D01*
X70744091Y-16107483D01*
X70750500Y-16047873D01*
X70750499Y-13952128D01*
X70744091Y-13892517D01*
X70719851Y-13827525D01*
X70693797Y-13757670D01*
X70607549Y-13642458D01*
X70607548Y-13642457D01*
X70607546Y-13642454D01*
X70607541Y-13642450D01*
X70492329Y-13556202D01*
X70357488Y-13505910D01*
X70357483Y-13505909D01*
X70357481Y-13505908D01*
X70357477Y-13505908D01*
X70326249Y-13502550D01*
X70297873Y-13499500D01*
X70297870Y-13499500D01*
X66302133Y-13499500D01*
X66302129Y-13499500D01*
X66302128Y-13499501D01*
X66294949Y-13500272D01*
X66242519Y-13505908D01*
X66242514Y-13505909D01*
X66107670Y-13556202D01*
X65992458Y-13642450D01*
X65992450Y-13642458D01*
X65906202Y-13757670D01*
X65855910Y-13892511D01*
X65855908Y-13892522D01*
X65849500Y-13952129D01*
X62475500Y-13952129D01*
X62475500Y-12403937D01*
X62488762Y-12354439D01*
X62559577Y-12231784D01*
X62600500Y-12079057D01*
X62600500Y-11920943D01*
X62559577Y-11768216D01*
X62480520Y-11631284D01*
X62368716Y-11519480D01*
X62231784Y-11440423D01*
X62079057Y-11399500D01*
X61920943Y-11399500D01*
X61768216Y-11440423D01*
X61631284Y-11519480D01*
X61519480Y-11631284D01*
X61440423Y-11768216D01*
X61399500Y-11920943D01*
X61399500Y-12079057D01*
X61440423Y-12231784D01*
X61511237Y-12354439D01*
X61524500Y-12403937D01*
X61524500Y-13350500D01*
X61505593Y-13408691D01*
X61456093Y-13444655D01*
X61425500Y-13449500D01*
X60818479Y-13449500D01*
X60818476Y-13449501D01*
X60724700Y-13464352D01*
X60724695Y-13464354D01*
X60611659Y-13521949D01*
X60521949Y-13611659D01*
X60464354Y-13724695D01*
X60449500Y-13818477D01*
X60449500Y-14181520D01*
X60449501Y-14181523D01*
X60464352Y-14275299D01*
X60464353Y-14275302D01*
X60488011Y-14321733D01*
X60497582Y-14382165D01*
X60469805Y-14436681D01*
X60415288Y-14464459D01*
X60354856Y-14454888D01*
X60275303Y-14414353D01*
X60181521Y-14399500D01*
X58943478Y-14399500D01*
X58943476Y-14399501D01*
X58849700Y-14414352D01*
X58849695Y-14414354D01*
X58736659Y-14471949D01*
X58646949Y-14561659D01*
X58589354Y-14674695D01*
X58574500Y-14768477D01*
X57975500Y-14768477D01*
X57975500Y-12274500D01*
X57994407Y-12216309D01*
X58043907Y-12180345D01*
X58074500Y-12175500D01*
X58660256Y-12175500D01*
X58718447Y-12194407D01*
X58730259Y-12204496D01*
X58800264Y-12274500D01*
X58806284Y-12280520D01*
X58943216Y-12359577D01*
X59095943Y-12400500D01*
X59095945Y-12400500D01*
X59254055Y-12400500D01*
X59254057Y-12400500D01*
X59406784Y-12359577D01*
X59543716Y-12280520D01*
X59655520Y-12168716D01*
X59734577Y-12031784D01*
X59775500Y-11879057D01*
X59775500Y-11720943D01*
X59734577Y-11568216D01*
X59655520Y-11431284D01*
X59543716Y-11319480D01*
X59406784Y-11240423D01*
X59406781Y-11240422D01*
X59401164Y-11237179D01*
X59401987Y-11235752D01*
X59361563Y-11201225D01*
X59347281Y-11141730D01*
X59370698Y-11085202D01*
X59422868Y-11053235D01*
X59445976Y-11050500D01*
X76060257Y-11050500D01*
X76118448Y-11069407D01*
X76130254Y-11079490D01*
X76131284Y-11080520D01*
X76268216Y-11159577D01*
X76420943Y-11200500D01*
X76420945Y-11200500D01*
X76579055Y-11200500D01*
X76579057Y-11200500D01*
X76731784Y-11159577D01*
X76868716Y-11080520D01*
X76980520Y-10968716D01*
X77059577Y-10831784D01*
X77100500Y-10679057D01*
X77100500Y-10520943D01*
X77059577Y-10368216D01*
X76980520Y-10231284D01*
X76868716Y-10119480D01*
X76731784Y-10040423D01*
X76579057Y-9999500D01*
X76420943Y-9999500D01*
X76268216Y-10040423D01*
X76131284Y-10119480D01*
X76130258Y-10120505D01*
X76129331Y-10120977D01*
X76126134Y-10123431D01*
X76125679Y-10122838D01*
X76075744Y-10148281D01*
X76060257Y-10149500D01*
X62903279Y-10149500D01*
X62845088Y-10130593D01*
X62809124Y-10081093D01*
X62809124Y-10019907D01*
X62817543Y-10001000D01*
X62849908Y-9944942D01*
X62849908Y-9944940D01*
X62849910Y-9944938D01*
X62875500Y-9849435D01*
X62875500Y-7556108D01*
X62894407Y-7497917D01*
X62939901Y-7463350D01*
X62992331Y-7443796D01*
X63107546Y-7357546D01*
X63193796Y-7242331D01*
X63244091Y-7107483D01*
X63250500Y-7047873D01*
X63250499Y-1952129D01*
X63749500Y-1952129D01*
X63749500Y-7047866D01*
X63749501Y-7047870D01*
X63755908Y-7107480D01*
X63755909Y-7107485D01*
X63806202Y-7242329D01*
X63884187Y-7346503D01*
X63892454Y-7357546D01*
X63892457Y-7357548D01*
X63892458Y-7357549D01*
X64007670Y-7443797D01*
X64142511Y-7494089D01*
X64142512Y-7494089D01*
X64142517Y-7494091D01*
X64202127Y-7500500D01*
X64797872Y-7500499D01*
X64857483Y-7494091D01*
X64939907Y-7463349D01*
X64992329Y-7443797D01*
X64992329Y-7443796D01*
X64992331Y-7443796D01*
X65107546Y-7357546D01*
X65193796Y-7242331D01*
X65244091Y-7107483D01*
X65250500Y-7047873D01*
X65250499Y-5452129D01*
X67849500Y-5452129D01*
X67849500Y-8047866D01*
X67849501Y-8047870D01*
X67855908Y-8107480D01*
X67855909Y-8107485D01*
X67906202Y-8242329D01*
X67967846Y-8324674D01*
X67992454Y-8357546D01*
X67992457Y-8357548D01*
X67992458Y-8357549D01*
X68107670Y-8443797D01*
X68242511Y-8494089D01*
X68242512Y-8494089D01*
X68242517Y-8494091D01*
X68302127Y-8500500D01*
X69497872Y-8500499D01*
X69557483Y-8494091D01*
X69672928Y-8451033D01*
X69692329Y-8443797D01*
X69692329Y-8443796D01*
X69692331Y-8443796D01*
X69807546Y-8357546D01*
X69893796Y-8242331D01*
X69944091Y-8107483D01*
X69950500Y-8047873D01*
X69950499Y-5452129D01*
X70749500Y-5452129D01*
X70749500Y-8047866D01*
X70749501Y-8047870D01*
X70755908Y-8107480D01*
X70755909Y-8107485D01*
X70806202Y-8242329D01*
X70867846Y-8324674D01*
X70892454Y-8357546D01*
X70892457Y-8357548D01*
X70892458Y-8357549D01*
X71007670Y-8443797D01*
X71142511Y-8494089D01*
X71142512Y-8494089D01*
X71142517Y-8494091D01*
X71202127Y-8500500D01*
X72397872Y-8500499D01*
X72457483Y-8494091D01*
X72572928Y-8451033D01*
X72592329Y-8443797D01*
X72592329Y-8443796D01*
X72592331Y-8443796D01*
X72707546Y-8357546D01*
X72793796Y-8242331D01*
X72844091Y-8107483D01*
X72850500Y-8047873D01*
X72850499Y-5452128D01*
X72844091Y-5392517D01*
X72835214Y-5368716D01*
X72793797Y-5257670D01*
X72707549Y-5142458D01*
X72707548Y-5142457D01*
X72707546Y-5142454D01*
X72699499Y-5136430D01*
X72592329Y-5056202D01*
X72457488Y-5005910D01*
X72457483Y-5005909D01*
X72457481Y-5005908D01*
X72457477Y-5005908D01*
X72426249Y-5002550D01*
X72397873Y-4999500D01*
X72397870Y-4999500D01*
X71202133Y-4999500D01*
X71202129Y-4999500D01*
X71202128Y-4999501D01*
X71194949Y-5000272D01*
X71142519Y-5005908D01*
X71142514Y-5005909D01*
X71007670Y-5056202D01*
X70892458Y-5142450D01*
X70892450Y-5142458D01*
X70806202Y-5257670D01*
X70755910Y-5392511D01*
X70755908Y-5392522D01*
X70753146Y-5418216D01*
X70749879Y-5448607D01*
X70749500Y-5452129D01*
X69950499Y-5452129D01*
X69950499Y-5452128D01*
X69944091Y-5392517D01*
X69935214Y-5368716D01*
X69893797Y-5257670D01*
X69807549Y-5142458D01*
X69807548Y-5142457D01*
X69807546Y-5142454D01*
X69799499Y-5136430D01*
X69692329Y-5056202D01*
X69557488Y-5005910D01*
X69557483Y-5005909D01*
X69557481Y-5005908D01*
X69557477Y-5005908D01*
X69526249Y-5002550D01*
X69497873Y-4999500D01*
X69497870Y-4999500D01*
X68302133Y-4999500D01*
X68302129Y-4999500D01*
X68302128Y-4999501D01*
X68294949Y-5000272D01*
X68242519Y-5005908D01*
X68242514Y-5005909D01*
X68107670Y-5056202D01*
X67992458Y-5142450D01*
X67992450Y-5142458D01*
X67906202Y-5257670D01*
X67855910Y-5392511D01*
X67855908Y-5392522D01*
X67853146Y-5418216D01*
X67849879Y-5448607D01*
X67849500Y-5452129D01*
X65250499Y-5452129D01*
X65250499Y-4487017D01*
X65250499Y-3043062D01*
X65250499Y-3041611D01*
X72147678Y-3041611D01*
X72168332Y-3168075D01*
X72168334Y-3168083D01*
X72186772Y-3217331D01*
X72213258Y-3288077D01*
X72213260Y-3288081D01*
X72213261Y-3288082D01*
X72263206Y-3368715D01*
X72280733Y-3397010D01*
X73399328Y-4595504D01*
X73422874Y-4620732D01*
X73448757Y-4676174D01*
X73449500Y-4688282D01*
X73449500Y-7047866D01*
X73449501Y-7047870D01*
X73455908Y-7107480D01*
X73455909Y-7107485D01*
X73506202Y-7242329D01*
X73584187Y-7346503D01*
X73592454Y-7357546D01*
X73592457Y-7357548D01*
X73592458Y-7357549D01*
X73707670Y-7443797D01*
X73842511Y-7494089D01*
X73842512Y-7494089D01*
X73842517Y-7494091D01*
X73902127Y-7500500D01*
X74497872Y-7500499D01*
X74557483Y-7494091D01*
X74639907Y-7463349D01*
X74692329Y-7443797D01*
X74692329Y-7443796D01*
X74692331Y-7443796D01*
X74807546Y-7357546D01*
X74893796Y-7242331D01*
X74944091Y-7107483D01*
X74950500Y-7047873D01*
X74950499Y-1952128D01*
X74944091Y-1892517D01*
X74934742Y-1867450D01*
X74893797Y-1757670D01*
X74807549Y-1642458D01*
X74807548Y-1642457D01*
X74807546Y-1642454D01*
X74807541Y-1642450D01*
X74692329Y-1556202D01*
X74557488Y-1505910D01*
X74557483Y-1505909D01*
X74557481Y-1505908D01*
X74557477Y-1505908D01*
X74526249Y-1502550D01*
X74497873Y-1499500D01*
X74497870Y-1499500D01*
X73902133Y-1499500D01*
X73902129Y-1499500D01*
X73902128Y-1499501D01*
X73894949Y-1500272D01*
X73842519Y-1505908D01*
X73842514Y-1505909D01*
X73707670Y-1556202D01*
X73592458Y-1642450D01*
X73592450Y-1642458D01*
X73506202Y-1757670D01*
X73455910Y-1892511D01*
X73455908Y-1892522D01*
X73449500Y-1952129D01*
X73449500Y-2491360D01*
X73430593Y-2549551D01*
X73381093Y-2585515D01*
X73319907Y-2585515D01*
X73278126Y-2558910D01*
X73231835Y-2509313D01*
X73179823Y-2471905D01*
X73127810Y-2434496D01*
X73127809Y-2434495D01*
X73127807Y-2434494D01*
X73011186Y-2381409D01*
X73011181Y-2381408D01*
X72886453Y-2352096D01*
X72886451Y-2352095D01*
X72886448Y-2352095D01*
X72886444Y-2352094D01*
X72886438Y-2352094D01*
X72758388Y-2347678D01*
X72631924Y-2368332D01*
X72631916Y-2368334D01*
X72511931Y-2413255D01*
X72511923Y-2413258D01*
X72511920Y-2413259D01*
X72511917Y-2413261D01*
X72402992Y-2480731D01*
X72402985Y-2480737D01*
X72309313Y-2568164D01*
X72234497Y-2672188D01*
X72234494Y-2672192D01*
X72181409Y-2788813D01*
X72181408Y-2788818D01*
X72152096Y-2913546D01*
X72152094Y-2913561D01*
X72147678Y-3041611D01*
X65250499Y-3041611D01*
X65250499Y-1952133D01*
X65250499Y-1952128D01*
X65244091Y-1892517D01*
X65234742Y-1867450D01*
X65193797Y-1757670D01*
X65107549Y-1642458D01*
X65107548Y-1642457D01*
X65107546Y-1642454D01*
X65107541Y-1642450D01*
X64992329Y-1556202D01*
X64857488Y-1505910D01*
X64857483Y-1505909D01*
X64857481Y-1505908D01*
X64857477Y-1505908D01*
X64826249Y-1502550D01*
X64797873Y-1499500D01*
X64797870Y-1499500D01*
X64202133Y-1499500D01*
X64202129Y-1499500D01*
X64202128Y-1499501D01*
X64194949Y-1500272D01*
X64142519Y-1505908D01*
X64142514Y-1505909D01*
X64007670Y-1556202D01*
X63892458Y-1642450D01*
X63892450Y-1642458D01*
X63806202Y-1757670D01*
X63755910Y-1892511D01*
X63755908Y-1892522D01*
X63749500Y-1952129D01*
X63250499Y-1952129D01*
X63250499Y-1952128D01*
X63244091Y-1892517D01*
X63234742Y-1867450D01*
X63193797Y-1757670D01*
X63107549Y-1642458D01*
X63107548Y-1642457D01*
X63107546Y-1642454D01*
X63107541Y-1642450D01*
X62992329Y-1556202D01*
X62857488Y-1505910D01*
X62857483Y-1505909D01*
X62857481Y-1505908D01*
X62857477Y-1505908D01*
X62826249Y-1502550D01*
X62797873Y-1499500D01*
X62797870Y-1499500D01*
X62202133Y-1499500D01*
X62202129Y-1499500D01*
X62202128Y-1499501D01*
X62194949Y-1500272D01*
X62142519Y-1505908D01*
X62142514Y-1505909D01*
X62007670Y-1556202D01*
X61892458Y-1642450D01*
X61892450Y-1642458D01*
X61806202Y-1757670D01*
X61755910Y-1892511D01*
X61755908Y-1892522D01*
X61749500Y-1952129D01*
X61749500Y-7047866D01*
X61749501Y-7047870D01*
X61755908Y-7107480D01*
X61755909Y-7107485D01*
X61806202Y-7242329D01*
X61884187Y-7346503D01*
X61892454Y-7357546D01*
X61892457Y-7357548D01*
X61892458Y-7357549D01*
X62007667Y-7443795D01*
X62007668Y-7443795D01*
X62007669Y-7443796D01*
X62060098Y-7463350D01*
X62108011Y-7501400D01*
X62124500Y-7556108D01*
X62124500Y-9325500D01*
X62105593Y-9383691D01*
X62056093Y-9419655D01*
X62025500Y-9424500D01*
X50474500Y-9424500D01*
X50416309Y-9405593D01*
X50380345Y-9356093D01*
X50375500Y-9325500D01*
X50375500Y-5452129D01*
X55049500Y-5452129D01*
X55049500Y-8047866D01*
X55049501Y-8047870D01*
X55055908Y-8107480D01*
X55055909Y-8107485D01*
X55106202Y-8242329D01*
X55167846Y-8324674D01*
X55192454Y-8357546D01*
X55192457Y-8357548D01*
X55192458Y-8357549D01*
X55307670Y-8443797D01*
X55442511Y-8494089D01*
X55442512Y-8494089D01*
X55442517Y-8494091D01*
X55502127Y-8500500D01*
X56697872Y-8500499D01*
X56757483Y-8494091D01*
X56872928Y-8451033D01*
X56892329Y-8443797D01*
X56892329Y-8443796D01*
X56892331Y-8443796D01*
X57007546Y-8357546D01*
X57093796Y-8242331D01*
X57144091Y-8107483D01*
X57150500Y-8047873D01*
X57150499Y-5452128D01*
X57144091Y-5392517D01*
X57135214Y-5368716D01*
X57093797Y-5257670D01*
X57007549Y-5142458D01*
X57007548Y-5142457D01*
X57007546Y-5142454D01*
X56999499Y-5136430D01*
X56892329Y-5056202D01*
X56757488Y-5005910D01*
X56757483Y-5005909D01*
X56757481Y-5005908D01*
X56757477Y-5005908D01*
X56726249Y-5002550D01*
X56697873Y-4999500D01*
X56697870Y-4999500D01*
X55502133Y-4999500D01*
X55502129Y-4999500D01*
X55502128Y-4999501D01*
X55494949Y-5000272D01*
X55442519Y-5005908D01*
X55442514Y-5005909D01*
X55307670Y-5056202D01*
X55192458Y-5142450D01*
X55192450Y-5142458D01*
X55106202Y-5257670D01*
X55055910Y-5392511D01*
X55055908Y-5392522D01*
X55053146Y-5418216D01*
X55049879Y-5448607D01*
X55049500Y-5452129D01*
X50375500Y-5452129D01*
X50375500Y-4950566D01*
X50367563Y-4920944D01*
X50349910Y-4855062D01*
X50349908Y-4855059D01*
X50349908Y-4855057D01*
X50300476Y-4769440D01*
X50300475Y-4769438D01*
X50230562Y-4699525D01*
X50220156Y-4693517D01*
X50144941Y-4650091D01*
X50144943Y-4650091D01*
X50107885Y-4640161D01*
X50049435Y-4624500D01*
X50049433Y-4624500D01*
X50037361Y-4624500D01*
X49979170Y-4605593D01*
X49943917Y-4558198D01*
X49927793Y-4512118D01*
X49927791Y-4512116D01*
X49927791Y-4512114D01*
X49847154Y-4402855D01*
X49847152Y-4402853D01*
X49847150Y-4402850D01*
X49847146Y-4402847D01*
X49847144Y-4402845D01*
X49737883Y-4322207D01*
X49609703Y-4277355D01*
X49609694Y-4277353D01*
X49579274Y-4274500D01*
X49579266Y-4274500D01*
X49070734Y-4274500D01*
X49070725Y-4274500D01*
X49040305Y-4277353D01*
X49040296Y-4277355D01*
X48912116Y-4322207D01*
X48802855Y-4402845D01*
X48802845Y-4402855D01*
X48722207Y-4512116D01*
X48677355Y-4640296D01*
X48677353Y-4640305D01*
X48674500Y-4670725D01*
X48325499Y-4670725D01*
X48324680Y-4661989D01*
X48322646Y-4640301D01*
X48277793Y-4512118D01*
X48277790Y-4512114D01*
X48197154Y-4402855D01*
X48197152Y-4402853D01*
X48197150Y-4402850D01*
X48197146Y-4402847D01*
X48197144Y-4402845D01*
X48087883Y-4322207D01*
X47959703Y-4277355D01*
X47959694Y-4277353D01*
X47929274Y-4274500D01*
X47929266Y-4274500D01*
X47420734Y-4274500D01*
X47420725Y-4274500D01*
X47390305Y-4277353D01*
X47390296Y-4277355D01*
X47262116Y-4322207D01*
X47152855Y-4402845D01*
X47152845Y-4402855D01*
X47072207Y-4512116D01*
X47072205Y-4512119D01*
X47069586Y-4519605D01*
X47032517Y-4568283D01*
X46973915Y-4585876D01*
X46916165Y-4565663D01*
X46906147Y-4556911D01*
X46868716Y-4519480D01*
X46731784Y-4440423D01*
X46579057Y-4399500D01*
X46420943Y-4399500D01*
X46268216Y-4440423D01*
X46131284Y-4519480D01*
X46019480Y-4631284D01*
X45940423Y-4768216D01*
X45899500Y-4920943D01*
X45425500Y-4920943D01*
X45425500Y-4293982D01*
X45396503Y-4185763D01*
X45396501Y-4185760D01*
X45396501Y-4185758D01*
X45340486Y-4088739D01*
X45340485Y-4088737D01*
X45261263Y-4009515D01*
X45261260Y-4009513D01*
X45164240Y-3953498D01*
X45164242Y-3953498D01*
X45122251Y-3942247D01*
X45056018Y-3924500D01*
X45056016Y-3924500D01*
X44664744Y-3924500D01*
X44606553Y-3905593D01*
X44594742Y-3895505D01*
X44568718Y-3869482D01*
X44568716Y-3869480D01*
X44431784Y-3790423D01*
X44279057Y-3749500D01*
X44120943Y-3749500D01*
X43968216Y-3790423D01*
X43831284Y-3869480D01*
X43830258Y-3870505D01*
X43829331Y-3870977D01*
X43826134Y-3873431D01*
X43825679Y-3872838D01*
X43775744Y-3898281D01*
X43760257Y-3899500D01*
X43033260Y-3899500D01*
X41691740Y-3899500D01*
X41657673Y-3904463D01*
X41623604Y-3909427D01*
X41518518Y-3960801D01*
X41435801Y-4043518D01*
X41384427Y-4148604D01*
X41384427Y-4148607D01*
X41374500Y-4216740D01*
X30425500Y-4216740D01*
X30425499Y-3704516D01*
X30419412Y-3647886D01*
X30389146Y-3566740D01*
X35649500Y-3566740D01*
X35649500Y-3833260D01*
X35654995Y-3870977D01*
X35659427Y-3901395D01*
X35688470Y-3960802D01*
X35710802Y-4006483D01*
X35793517Y-4089198D01*
X35847285Y-4115483D01*
X35898604Y-4140572D01*
X35898605Y-4140572D01*
X35898607Y-4140573D01*
X35966740Y-4150500D01*
X35966743Y-4150500D01*
X37308257Y-4150500D01*
X37308260Y-4150500D01*
X37376393Y-4140573D01*
X37481483Y-4089198D01*
X37564198Y-4006483D01*
X37615573Y-3901393D01*
X37625500Y-3833260D01*
X37625500Y-3566740D01*
X37615573Y-3498607D01*
X37611645Y-3490573D01*
X37586530Y-3439198D01*
X37564198Y-3393517D01*
X37481483Y-3310802D01*
X37481481Y-3310801D01*
X37376395Y-3259427D01*
X37349139Y-3255456D01*
X37308260Y-3249500D01*
X35966740Y-3249500D01*
X35932673Y-3254463D01*
X35898604Y-3259427D01*
X35793518Y-3310801D01*
X35710801Y-3393518D01*
X35659427Y-3498604D01*
X35659427Y-3498607D01*
X35649500Y-3566740D01*
X30389146Y-3566740D01*
X30371628Y-3519774D01*
X30289687Y-3410313D01*
X30217778Y-3356483D01*
X30180228Y-3328373D01*
X30180226Y-3328372D01*
X30052114Y-3280588D01*
X30052113Y-3280587D01*
X30013895Y-3276479D01*
X29995485Y-3274500D01*
X29995481Y-3274500D01*
X29805960Y-3274500D01*
X29747769Y-3255593D01*
X29725808Y-3233610D01*
X29619348Y-3086768D01*
X29600500Y-3028805D01*
X29600500Y-2920943D01*
X29599374Y-2916740D01*
X41374500Y-2916740D01*
X41374500Y-3183260D01*
X41379464Y-3217329D01*
X41384427Y-3251395D01*
X41424100Y-3332546D01*
X41435802Y-3356483D01*
X41518517Y-3439198D01*
X41572285Y-3465483D01*
X41623604Y-3490572D01*
X41623605Y-3490572D01*
X41623607Y-3490573D01*
X41691740Y-3500500D01*
X41691743Y-3500500D01*
X43033257Y-3500500D01*
X43033260Y-3500500D01*
X43101393Y-3490573D01*
X43206483Y-3439198D01*
X43289198Y-3356483D01*
X43340573Y-3251393D01*
X43350500Y-3183260D01*
X43350500Y-2916740D01*
X43340573Y-2848607D01*
X43289198Y-2743517D01*
X43206483Y-2660802D01*
X43206481Y-2660801D01*
X43101395Y-2609427D01*
X43074139Y-2605456D01*
X43033260Y-2599500D01*
X41691740Y-2599500D01*
X41657673Y-2604463D01*
X41623604Y-2609427D01*
X41518518Y-2660801D01*
X41435801Y-2743518D01*
X41384427Y-2848604D01*
X41384427Y-2848607D01*
X41374500Y-2916740D01*
X29599374Y-2916740D01*
X29559577Y-2768216D01*
X29480520Y-2631284D01*
X29368716Y-2519480D01*
X29231784Y-2440423D01*
X29079057Y-2399500D01*
X28920943Y-2399500D01*
X28768216Y-2440423D01*
X28631284Y-2519480D01*
X28519480Y-2631284D01*
X28440423Y-2768216D01*
X28399500Y-2920943D01*
X25625500Y-2920943D01*
X25625499Y-2599500D01*
X25625499Y-2177133D01*
X25625499Y-2177128D01*
X25619091Y-2117517D01*
X25619089Y-2117511D01*
X25569320Y-1984072D01*
X25568796Y-1982669D01*
X25545934Y-1952129D01*
X57749500Y-1952129D01*
X57749500Y-7047866D01*
X57749501Y-7047870D01*
X57755908Y-7107480D01*
X57755909Y-7107485D01*
X57806202Y-7242329D01*
X57884187Y-7346503D01*
X57892454Y-7357546D01*
X57892457Y-7357548D01*
X57892458Y-7357549D01*
X58007670Y-7443797D01*
X58142511Y-7494089D01*
X58142512Y-7494089D01*
X58142517Y-7494091D01*
X58202127Y-7500500D01*
X58797872Y-7500499D01*
X58857483Y-7494091D01*
X58939907Y-7463349D01*
X58992329Y-7443797D01*
X58992329Y-7443796D01*
X58992331Y-7443796D01*
X59107546Y-7357546D01*
X59193796Y-7242331D01*
X59244091Y-7107483D01*
X59250500Y-7047873D01*
X59250499Y-1952128D01*
X59244091Y-1892517D01*
X59234742Y-1867450D01*
X59193797Y-1757670D01*
X59107549Y-1642458D01*
X59107548Y-1642457D01*
X59107546Y-1642454D01*
X59107541Y-1642450D01*
X58992329Y-1556202D01*
X58857488Y-1505910D01*
X58857483Y-1505909D01*
X58857481Y-1505908D01*
X58857477Y-1505908D01*
X58826249Y-1502550D01*
X58797873Y-1499500D01*
X58797870Y-1499500D01*
X58202133Y-1499500D01*
X58202129Y-1499500D01*
X58202128Y-1499501D01*
X58194949Y-1500272D01*
X58142519Y-1505908D01*
X58142514Y-1505909D01*
X58007670Y-1556202D01*
X57892458Y-1642450D01*
X57892450Y-1642458D01*
X57806202Y-1757670D01*
X57755910Y-1892511D01*
X57755908Y-1892522D01*
X57749500Y-1952129D01*
X25545934Y-1952129D01*
X25482549Y-1867458D01*
X25482548Y-1867457D01*
X25482546Y-1867454D01*
X25482541Y-1867450D01*
X25367329Y-1781202D01*
X25232484Y-1730909D01*
X25226725Y-1729548D01*
X25174445Y-1697761D01*
X25150833Y-1641315D01*
X25150500Y-1633203D01*
X25150500Y-1135932D01*
X25150500Y-1135931D01*
X25125501Y-1010256D01*
X25076465Y-891873D01*
X25076463Y-891870D01*
X25076461Y-891866D01*
X25047717Y-848848D01*
X25005276Y-785331D01*
X24914669Y-694724D01*
X24895348Y-681814D01*
X24857470Y-633765D01*
X24855068Y-572626D01*
X24889061Y-521753D01*
X24946465Y-500576D01*
X24950351Y-500500D01*
X79400500Y-500500D01*
X79458691Y-519407D01*
X79494655Y-568907D01*
X79499500Y-599500D01*
X79499500Y-4953588D01*
X79480593Y-5011779D01*
X79431093Y-5047743D01*
X79369907Y-5047743D01*
X79365904Y-5046347D01*
X79325517Y-5031284D01*
X79257483Y-5005909D01*
X79257479Y-5005908D01*
X79257477Y-5005908D01*
X79226249Y-5002550D01*
X79197873Y-4999500D01*
X79197870Y-4999500D01*
X78002133Y-4999500D01*
X78002129Y-4999500D01*
X78002128Y-4999501D01*
X77994949Y-5000272D01*
X77942519Y-5005908D01*
X77942514Y-5005909D01*
X77807670Y-5056202D01*
X77692458Y-5142450D01*
X77692450Y-5142458D01*
X77606202Y-5257670D01*
X77555910Y-5392511D01*
X77555908Y-5392522D01*
X77553146Y-5418216D01*
X77549879Y-5448607D01*
X77549500Y-5452129D01*
X77549500Y-8047866D01*
X77549501Y-8047870D01*
X77555908Y-8107480D01*
X77555909Y-8107485D01*
X77606202Y-8242329D01*
X77667846Y-8324674D01*
X77692454Y-8357546D01*
X77692457Y-8357548D01*
X77692458Y-8357549D01*
X77807670Y-8443797D01*
X77942511Y-8494089D01*
X77942512Y-8494089D01*
X77942517Y-8494091D01*
X78002127Y-8500500D01*
X79197872Y-8500499D01*
X79257483Y-8494091D01*
X79301166Y-8477798D01*
X79365904Y-8453653D01*
X79427033Y-8451033D01*
X79478028Y-8484844D01*
X79499409Y-8542172D01*
X79499500Y-8546411D01*
X79499500Y-19400500D01*
X79480593Y-19458691D01*
X79431093Y-19494655D01*
X79400500Y-19499500D01*
X599500Y-19499500D01*
X541309Y-19480593D01*
X505345Y-19431093D01*
X500500Y-19400500D01*
X500500Y-15452129D01*
X32049500Y-15452129D01*
X32049500Y-18047866D01*
X32049501Y-18047870D01*
X32055908Y-18107480D01*
X32055909Y-18107485D01*
X32106202Y-18242329D01*
X32192450Y-18357541D01*
X32192454Y-18357546D01*
X32192457Y-18357548D01*
X32192458Y-18357549D01*
X32307670Y-18443797D01*
X32442511Y-18494089D01*
X32442512Y-18494089D01*
X32442517Y-18494091D01*
X32502127Y-18500500D01*
X33697872Y-18500499D01*
X33757483Y-18494091D01*
X33824907Y-18468943D01*
X33892329Y-18443797D01*
X33892329Y-18443796D01*
X33892331Y-18443796D01*
X34007546Y-18357546D01*
X34093796Y-18242331D01*
X34144091Y-18107483D01*
X34150500Y-18047873D01*
X34150499Y-15452128D01*
X34144091Y-15392517D01*
X34123885Y-15338342D01*
X34093797Y-15257670D01*
X34007549Y-15142458D01*
X34007548Y-15142457D01*
X34007546Y-15142454D01*
X33992940Y-15131520D01*
X33892329Y-15056202D01*
X33757488Y-15005910D01*
X33757483Y-15005909D01*
X33757481Y-15005908D01*
X33757477Y-15005908D01*
X33726249Y-15002550D01*
X33697873Y-14999500D01*
X33697870Y-14999500D01*
X32502133Y-14999500D01*
X32502129Y-14999500D01*
X32502128Y-14999501D01*
X32494949Y-15000272D01*
X32442519Y-15005908D01*
X32442514Y-15005909D01*
X32307670Y-15056202D01*
X32192458Y-15142450D01*
X32192450Y-15142458D01*
X32106202Y-15257670D01*
X32055910Y-15392511D01*
X32055908Y-15392522D01*
X32049500Y-15452129D01*
X500500Y-15452129D01*
X500500Y-12396532D01*
X3949500Y-12396532D01*
X3949500Y-12603467D01*
X3989869Y-12806418D01*
X4069058Y-12997597D01*
X4155873Y-13127525D01*
X4184023Y-13169655D01*
X4330345Y-13315977D01*
X4502402Y-13430941D01*
X4693580Y-13510130D01*
X4896535Y-13550500D01*
X4896536Y-13550500D01*
X5103464Y-13550500D01*
X5103465Y-13550500D01*
X5306420Y-13510130D01*
X5497598Y-13430941D01*
X5669655Y-13315977D01*
X5815977Y-13169655D01*
X5917684Y-13017437D01*
X5965734Y-12979558D01*
X6026872Y-12977156D01*
X6077746Y-13011148D01*
X6082310Y-13017430D01*
X6184023Y-13169655D01*
X6330345Y-13315977D01*
X6502402Y-13430941D01*
X6693580Y-13510130D01*
X6896535Y-13550500D01*
X6896536Y-13550500D01*
X7103464Y-13550500D01*
X7103465Y-13550500D01*
X7306420Y-13510130D01*
X7497598Y-13430941D01*
X7669655Y-13315977D01*
X7815977Y-13169655D01*
X7917684Y-13017437D01*
X7965734Y-12979558D01*
X8026872Y-12977156D01*
X8077746Y-13011148D01*
X8082310Y-13017430D01*
X8184023Y-13169655D01*
X8330345Y-13315977D01*
X8502402Y-13430941D01*
X8693580Y-13510130D01*
X8896535Y-13550500D01*
X8896536Y-13550500D01*
X9103464Y-13550500D01*
X9103465Y-13550500D01*
X9306420Y-13510130D01*
X9497598Y-13430941D01*
X9669655Y-13315977D01*
X9815977Y-13169655D01*
X9930941Y-12997598D01*
X10010130Y-12806420D01*
X10050500Y-12603465D01*
X10050500Y-12396535D01*
X10050499Y-12396532D01*
X16949500Y-12396532D01*
X16949500Y-12603467D01*
X16989869Y-12806418D01*
X17069058Y-12997597D01*
X17155873Y-13127525D01*
X17184023Y-13169655D01*
X17330345Y-13315977D01*
X17502402Y-13430941D01*
X17693580Y-13510130D01*
X17896535Y-13550500D01*
X17896536Y-13550500D01*
X18103464Y-13550500D01*
X18103465Y-13550500D01*
X18306420Y-13510130D01*
X18497598Y-13430941D01*
X18669655Y-13315977D01*
X18815977Y-13169655D01*
X18917684Y-13017437D01*
X18965734Y-12979558D01*
X19026872Y-12977156D01*
X19077746Y-13011148D01*
X19082310Y-13017430D01*
X19184023Y-13169655D01*
X19330345Y-13315977D01*
X19502402Y-13430941D01*
X19693580Y-13510130D01*
X19896535Y-13550500D01*
X19896536Y-13550500D01*
X20103464Y-13550500D01*
X20103465Y-13550500D01*
X20306420Y-13510130D01*
X20497598Y-13430941D01*
X20669655Y-13315977D01*
X20815977Y-13169655D01*
X20917684Y-13017437D01*
X20965734Y-12979558D01*
X21026872Y-12977156D01*
X21077746Y-13011148D01*
X21082310Y-13017430D01*
X21184023Y-13169655D01*
X21330345Y-13315977D01*
X21502402Y-13430941D01*
X21693580Y-13510130D01*
X21896535Y-13550500D01*
X21896536Y-13550500D01*
X22103464Y-13550500D01*
X22103465Y-13550500D01*
X22306420Y-13510130D01*
X22497598Y-13430941D01*
X22669655Y-13315977D01*
X22815977Y-13169655D01*
X22930941Y-12997598D01*
X23010130Y-12806420D01*
X23050500Y-12603465D01*
X23050500Y-12396535D01*
X23010130Y-12193580D01*
X22930941Y-12002402D01*
X22815977Y-11830345D01*
X22669655Y-11684023D01*
X22669651Y-11684020D01*
X22497597Y-11569058D01*
X22306418Y-11489869D01*
X22103467Y-11449500D01*
X22103465Y-11449500D01*
X21896535Y-11449500D01*
X21896532Y-11449500D01*
X21693581Y-11489869D01*
X21502402Y-11569058D01*
X21330348Y-11684020D01*
X21184020Y-11830348D01*
X21082316Y-11982561D01*
X21034266Y-12020441D01*
X20973128Y-12022843D01*
X20922254Y-11988851D01*
X20917684Y-11982561D01*
X20815979Y-11830348D01*
X20815977Y-11830345D01*
X20669655Y-11684023D01*
X20669651Y-11684020D01*
X20497597Y-11569058D01*
X20306418Y-11489869D01*
X20103467Y-11449500D01*
X20103465Y-11449500D01*
X19896535Y-11449500D01*
X19896532Y-11449500D01*
X19693581Y-11489869D01*
X19502402Y-11569058D01*
X19330348Y-11684020D01*
X19184020Y-11830348D01*
X19082316Y-11982561D01*
X19034266Y-12020441D01*
X18973128Y-12022843D01*
X18922254Y-11988851D01*
X18917684Y-11982561D01*
X18815979Y-11830348D01*
X18815977Y-11830345D01*
X18669655Y-11684023D01*
X18669651Y-11684020D01*
X18497597Y-11569058D01*
X18306418Y-11489869D01*
X18103467Y-11449500D01*
X18103465Y-11449500D01*
X17896535Y-11449500D01*
X17896532Y-11449500D01*
X17693581Y-11489869D01*
X17502402Y-11569058D01*
X17330348Y-11684020D01*
X17184020Y-11830348D01*
X17069058Y-12002402D01*
X16989869Y-12193581D01*
X16949500Y-12396532D01*
X10050499Y-12396532D01*
X10010130Y-12193580D01*
X9930941Y-12002402D01*
X9815977Y-11830345D01*
X9669655Y-11684023D01*
X9669651Y-11684020D01*
X9497597Y-11569058D01*
X9306418Y-11489869D01*
X9103467Y-11449500D01*
X9103465Y-11449500D01*
X8896535Y-11449500D01*
X8896532Y-11449500D01*
X8693581Y-11489869D01*
X8502402Y-11569058D01*
X8330348Y-11684020D01*
X8184020Y-11830348D01*
X8082316Y-11982561D01*
X8034266Y-12020441D01*
X7973128Y-12022843D01*
X7922254Y-11988851D01*
X7917684Y-11982561D01*
X7815979Y-11830348D01*
X7815977Y-11830345D01*
X7669655Y-11684023D01*
X7669651Y-11684020D01*
X7497597Y-11569058D01*
X7306418Y-11489869D01*
X7103467Y-11449500D01*
X7103465Y-11449500D01*
X6896535Y-11449500D01*
X6896532Y-11449500D01*
X6693581Y-11489869D01*
X6502402Y-11569058D01*
X6330348Y-11684020D01*
X6184020Y-11830348D01*
X6082316Y-11982561D01*
X6034266Y-12020441D01*
X5973128Y-12022843D01*
X5922254Y-11988851D01*
X5917684Y-11982561D01*
X5815979Y-11830348D01*
X5815977Y-11830345D01*
X5669655Y-11684023D01*
X5669651Y-11684020D01*
X5497597Y-11569058D01*
X5306418Y-11489869D01*
X5103467Y-11449500D01*
X5103465Y-11449500D01*
X4896535Y-11449500D01*
X4896532Y-11449500D01*
X4693581Y-11489869D01*
X4502402Y-11569058D01*
X4330348Y-11684020D01*
X4184020Y-11830348D01*
X4069058Y-12002402D01*
X3989869Y-12193581D01*
X3949500Y-12396532D01*
X500500Y-12396532D01*
X500500Y-9175565D01*
X24824500Y-9175565D01*
X24824500Y-14150565D01*
X24824500Y-14249435D01*
X24843872Y-14321733D01*
X24850091Y-14344942D01*
X24890167Y-14414354D01*
X24899525Y-14430562D01*
X24969438Y-14500475D01*
X24987592Y-14510956D01*
X25055058Y-14549908D01*
X25055056Y-14549908D01*
X25055060Y-14549909D01*
X25055062Y-14549910D01*
X25150565Y-14575500D01*
X30781995Y-14575500D01*
X30789493Y-14575784D01*
X30792177Y-14575987D01*
X30820848Y-14578166D01*
X30825945Y-14577206D01*
X30844251Y-14575500D01*
X30849434Y-14575500D01*
X30849435Y-14575500D01*
X30879819Y-14567357D01*
X30887125Y-14565695D01*
X30918013Y-14559884D01*
X30922683Y-14557640D01*
X30939927Y-14551252D01*
X30944938Y-14549910D01*
X30972179Y-14534181D01*
X30978782Y-14530695D01*
X31007138Y-14517077D01*
X31011065Y-14513703D01*
X31026069Y-14503068D01*
X31030562Y-14500475D01*
X31052800Y-14478235D01*
X31058278Y-14473157D01*
X31073093Y-14460435D01*
X31111963Y-14439918D01*
X31212485Y-14412984D01*
X31338015Y-14340509D01*
X31440509Y-14238015D01*
X31473128Y-14181518D01*
X31512982Y-14112489D01*
X31512982Y-14112487D01*
X31512984Y-14112485D01*
X31550500Y-13972475D01*
X31550500Y-13827525D01*
X31512984Y-13687515D01*
X31512982Y-13687512D01*
X31512982Y-13687510D01*
X31440512Y-13561989D01*
X31440507Y-13561983D01*
X31404496Y-13525971D01*
X31376719Y-13471454D01*
X31375500Y-13455968D01*
X31375500Y-12024566D01*
X31375500Y-12024565D01*
X31349910Y-11929062D01*
X31349908Y-11929059D01*
X31349908Y-11929057D01*
X31300476Y-11843440D01*
X31300475Y-11843438D01*
X31253538Y-11796501D01*
X31225763Y-11741987D01*
X31235334Y-11681555D01*
X31278599Y-11638290D01*
X31323544Y-11627500D01*
X31850500Y-11627500D01*
X31908691Y-11646407D01*
X31944655Y-11695907D01*
X31949500Y-11726500D01*
X31949500Y-11727525D01*
X31949500Y-11872475D01*
X31970845Y-11952133D01*
X31987017Y-12012489D01*
X32059487Y-12138010D01*
X32059489Y-12138012D01*
X32059491Y-12138015D01*
X32161985Y-12240509D01*
X32161987Y-12240510D01*
X32161989Y-12240512D01*
X32287511Y-12312982D01*
X32287512Y-12312982D01*
X32287515Y-12312984D01*
X32427525Y-12350500D01*
X32427526Y-12350500D01*
X32572474Y-12350500D01*
X32572475Y-12350500D01*
X32712485Y-12312984D01*
X32712487Y-12312982D01*
X32712489Y-12312982D01*
X32838010Y-12240512D01*
X32838010Y-12240511D01*
X32838015Y-12240509D01*
X32940509Y-12138015D01*
X33012984Y-12012485D01*
X33029157Y-11952129D01*
X34749500Y-11952129D01*
X34749500Y-17047866D01*
X34749501Y-17047870D01*
X34755908Y-17107480D01*
X34755909Y-17107485D01*
X34806202Y-17242328D01*
X34806203Y-17242329D01*
X34806204Y-17242331D01*
X34814228Y-17253049D01*
X34829753Y-17273788D01*
X34849490Y-17331702D01*
X34849500Y-17333117D01*
X34849500Y-17564069D01*
X34856080Y-17597150D01*
X34874499Y-17689742D01*
X34874500Y-17689747D01*
X34923534Y-17808125D01*
X34923538Y-17808133D01*
X34966365Y-17872226D01*
X34994724Y-17914669D01*
X35085331Y-18005276D01*
X35148848Y-18047717D01*
X35191866Y-18076461D01*
X35191870Y-18076463D01*
X35191873Y-18076465D01*
X35310256Y-18125501D01*
X35435931Y-18150500D01*
X35435932Y-18150500D01*
X35564068Y-18150500D01*
X35564069Y-18150500D01*
X35689744Y-18125501D01*
X35808127Y-18076465D01*
X35914669Y-18005276D01*
X36005276Y-17914669D01*
X36076465Y-17808127D01*
X36125501Y-17689744D01*
X36150500Y-17564069D01*
X36150500Y-17333117D01*
X36169407Y-17274926D01*
X36170247Y-17273788D01*
X36185772Y-17253049D01*
X36193796Y-17242331D01*
X36244091Y-17107483D01*
X36250500Y-17047873D01*
X36250499Y-11952129D01*
X38749500Y-11952129D01*
X38749500Y-17047866D01*
X38749501Y-17047870D01*
X38755908Y-17107480D01*
X38755909Y-17107485D01*
X38806202Y-17242329D01*
X38890191Y-17354523D01*
X38892454Y-17357546D01*
X38892457Y-17357548D01*
X38892458Y-17357549D01*
X39007670Y-17443797D01*
X39142511Y-17494089D01*
X39142512Y-17494089D01*
X39142517Y-17494091D01*
X39202127Y-17500500D01*
X39797872Y-17500499D01*
X39857483Y-17494091D01*
X39924907Y-17468943D01*
X39992329Y-17443797D01*
X39992329Y-17443796D01*
X39992331Y-17443796D01*
X40107546Y-17357546D01*
X40193796Y-17242331D01*
X40244091Y-17107483D01*
X40250500Y-17047873D01*
X40250499Y-11952128D01*
X40244091Y-11892517D01*
X40236616Y-11872475D01*
X40193797Y-11757670D01*
X40107549Y-11642458D01*
X40107548Y-11642457D01*
X40107546Y-11642454D01*
X40107541Y-11642450D01*
X39992329Y-11556202D01*
X39857488Y-11505910D01*
X39857483Y-11505909D01*
X39857481Y-11505908D01*
X39857477Y-11505908D01*
X39821888Y-11502082D01*
X39797873Y-11499500D01*
X39797870Y-11499500D01*
X39202133Y-11499500D01*
X39202129Y-11499500D01*
X39202128Y-11499501D01*
X39194949Y-11500272D01*
X39142519Y-11505908D01*
X39142514Y-11505909D01*
X39007670Y-11556202D01*
X38892458Y-11642450D01*
X38892450Y-11642458D01*
X38806202Y-11757670D01*
X38755910Y-11892511D01*
X38755909Y-11892517D01*
X38749783Y-11949500D01*
X38749500Y-11952129D01*
X36250499Y-11952129D01*
X36250499Y-11952128D01*
X36244091Y-11892517D01*
X36236616Y-11872475D01*
X36193797Y-11757670D01*
X36107549Y-11642458D01*
X36107548Y-11642457D01*
X36107546Y-11642454D01*
X36107541Y-11642450D01*
X35992329Y-11556202D01*
X35857488Y-11505910D01*
X35857483Y-11505909D01*
X35857481Y-11505908D01*
X35857477Y-11505908D01*
X35821888Y-11502082D01*
X35797873Y-11499500D01*
X35797870Y-11499500D01*
X35202133Y-11499500D01*
X35202129Y-11499500D01*
X35202128Y-11499501D01*
X35194949Y-11500272D01*
X35142519Y-11505908D01*
X35142514Y-11505909D01*
X35007670Y-11556202D01*
X34892458Y-11642450D01*
X34892450Y-11642458D01*
X34806202Y-11757670D01*
X34755910Y-11892511D01*
X34755909Y-11892517D01*
X34749783Y-11949500D01*
X34749500Y-11952129D01*
X33029157Y-11952129D01*
X33050500Y-11872475D01*
X33050500Y-11727525D01*
X33012984Y-11587515D01*
X33012982Y-11587512D01*
X33012982Y-11587510D01*
X32940512Y-11461989D01*
X32940507Y-11461983D01*
X32904496Y-11425971D01*
X32876719Y-11371454D01*
X32875500Y-11355968D01*
X32875500Y-11202566D01*
X32875061Y-11200926D01*
X32849910Y-11107062D01*
X32849908Y-11107059D01*
X32849908Y-11107057D01*
X32800476Y-11021440D01*
X32800475Y-11021438D01*
X32730562Y-10951525D01*
X32719160Y-10944942D01*
X32644941Y-10902091D01*
X32644943Y-10902091D01*
X32607885Y-10892161D01*
X32549435Y-10876500D01*
X32549433Y-10876500D01*
X30977685Y-10876500D01*
X30919494Y-10857593D01*
X30895370Y-10832502D01*
X30880603Y-10810402D01*
X30880601Y-10810399D01*
X30879503Y-10809665D01*
X30797742Y-10755035D01*
X30797740Y-10755034D01*
X30797737Y-10755033D01*
X30797736Y-10755033D01*
X30724684Y-10740501D01*
X30724674Y-10740500D01*
X30075326Y-10740500D01*
X30075325Y-10740500D01*
X30075315Y-10740501D01*
X30002263Y-10755033D01*
X30002257Y-10755035D01*
X29919400Y-10810397D01*
X29919397Y-10810400D01*
X29864035Y-10893257D01*
X29864033Y-10893263D01*
X29849501Y-10966315D01*
X29849500Y-10966327D01*
X29849500Y-11463500D01*
X29830593Y-11521691D01*
X29781093Y-11557655D01*
X29750500Y-11562500D01*
X29175326Y-11562500D01*
X29175325Y-11562500D01*
X29175315Y-11562501D01*
X29102263Y-11577033D01*
X29102261Y-11577033D01*
X29102260Y-11577034D01*
X29102259Y-11577034D01*
X29093251Y-11580766D01*
X29092416Y-11578751D01*
X29046112Y-11591811D01*
X29007386Y-11579227D01*
X29006749Y-11580766D01*
X28997742Y-11577035D01*
X28997740Y-11577034D01*
X28997736Y-11577033D01*
X28924684Y-11562501D01*
X28924674Y-11562500D01*
X28275326Y-11562500D01*
X28275325Y-11562500D01*
X28275315Y-11562501D01*
X28202263Y-11577033D01*
X28202257Y-11577035D01*
X28119400Y-11632397D01*
X28119397Y-11632400D01*
X28064035Y-11715257D01*
X28064033Y-11715263D01*
X28049501Y-11788315D01*
X28049024Y-11793162D01*
X28047705Y-11793032D01*
X28030593Y-11845699D01*
X27981328Y-11881586D01*
X27607776Y-12003996D01*
X27546591Y-12004149D01*
X27527450Y-11995656D01*
X27512485Y-11987016D01*
X27495859Y-11982561D01*
X27372475Y-11949500D01*
X27227525Y-11949500D01*
X27217714Y-11952129D01*
X27087510Y-11987017D01*
X26961989Y-12059487D01*
X26859487Y-12161989D01*
X26787017Y-12287510D01*
X26756741Y-12400500D01*
X26749500Y-12427525D01*
X26749500Y-12572475D01*
X26759654Y-12610368D01*
X26787017Y-12712489D01*
X26859487Y-12838010D01*
X26859489Y-12838012D01*
X26859491Y-12838015D01*
X26961985Y-12940509D01*
X26961987Y-12940510D01*
X26961989Y-12940512D01*
X27087511Y-13012982D01*
X27087512Y-13012982D01*
X27087515Y-13012984D01*
X27227525Y-13050500D01*
X27227526Y-13050500D01*
X27372474Y-13050500D01*
X27372475Y-13050500D01*
X27512485Y-13012984D01*
X27512487Y-13012982D01*
X27512489Y-13012982D01*
X27638010Y-12940512D01*
X27638010Y-12940511D01*
X27638015Y-12940509D01*
X27740509Y-12838015D01*
X27783685Y-12763231D01*
X27829153Y-12722290D01*
X27838581Y-12718656D01*
X28232158Y-12589684D01*
X28272698Y-12585241D01*
X28275325Y-12585500D01*
X28275326Y-12585500D01*
X28924673Y-12585500D01*
X28924674Y-12585500D01*
X28924675Y-12585499D01*
X28924682Y-12585499D01*
X28975723Y-12575345D01*
X28997740Y-12570966D01*
X28997740Y-12570965D01*
X29006184Y-12569286D01*
X29066946Y-12576476D01*
X29111876Y-12618008D01*
X29124500Y-12666383D01*
X29124500Y-12755968D01*
X29105593Y-12814159D01*
X29095504Y-12825971D01*
X29059492Y-12861983D01*
X29059487Y-12861989D01*
X28987017Y-12987510D01*
X28978998Y-13017438D01*
X28949500Y-13127525D01*
X28949500Y-13272475D01*
X28961157Y-13315979D01*
X28987017Y-13412489D01*
X29059487Y-13538010D01*
X29059489Y-13538012D01*
X29059491Y-13538015D01*
X29161985Y-13640509D01*
X29161987Y-13640510D01*
X29161988Y-13640511D01*
X29167134Y-13644460D01*
X29166116Y-13645785D01*
X29201636Y-13685237D01*
X29208029Y-13746087D01*
X29177434Y-13799074D01*
X29121537Y-13823958D01*
X29111193Y-13824500D01*
X25674500Y-13824500D01*
X25616309Y-13805593D01*
X25580345Y-13756093D01*
X25575500Y-13725500D01*
X25575500Y-9934108D01*
X28999500Y-9934108D01*
X28999500Y-10065892D01*
X29022012Y-10149908D01*
X29033609Y-10193190D01*
X29099496Y-10307309D01*
X29099498Y-10307311D01*
X29099500Y-10307314D01*
X29192686Y-10400500D01*
X29192688Y-10400501D01*
X29192690Y-10400503D01*
X29306810Y-10466390D01*
X29306808Y-10466390D01*
X29306812Y-10466391D01*
X29306814Y-10466392D01*
X29434108Y-10500500D01*
X29434110Y-10500500D01*
X29565890Y-10500500D01*
X29565892Y-10500500D01*
X29693186Y-10466392D01*
X29693188Y-10466390D01*
X29693190Y-10466390D01*
X29807309Y-10400503D01*
X29807309Y-10400502D01*
X29807314Y-10400500D01*
X29900500Y-10307314D01*
X29966392Y-10193186D01*
X30000500Y-10065892D01*
X30000500Y-9934108D01*
X29966392Y-9806814D01*
X29966390Y-9806811D01*
X29966390Y-9806809D01*
X29900503Y-9692690D01*
X29900501Y-9692688D01*
X29900500Y-9692686D01*
X29807314Y-9599500D01*
X29807311Y-9599498D01*
X29807309Y-9599496D01*
X29693189Y-9533609D01*
X29693191Y-9533609D01*
X29643799Y-9520375D01*
X29565892Y-9499500D01*
X29434108Y-9499500D01*
X29356200Y-9520375D01*
X29306809Y-9533609D01*
X29192690Y-9599496D01*
X29099496Y-9692690D01*
X29033609Y-9806809D01*
X29022188Y-9849433D01*
X28999500Y-9934108D01*
X25575500Y-9934108D01*
X25575500Y-9699500D01*
X25594407Y-9641309D01*
X25643907Y-9605345D01*
X25674500Y-9600500D01*
X25729899Y-9600500D01*
X25788090Y-9619407D01*
X25822656Y-9664902D01*
X25828372Y-9680226D01*
X25910313Y-9789687D01*
X26019774Y-9871628D01*
X26147886Y-9919412D01*
X26204515Y-9925500D01*
X26795484Y-9925499D01*
X26852114Y-9919412D01*
X26980226Y-9871628D01*
X27089687Y-9789687D01*
X27171628Y-9680226D01*
X27219412Y-9552114D01*
X27225500Y-9495485D01*
X27225499Y-8954516D01*
X27219412Y-8897886D01*
X27171628Y-8769774D01*
X27089687Y-8660313D01*
X27053476Y-8633206D01*
X26980228Y-8578373D01*
X26980226Y-8578372D01*
X26852114Y-8530588D01*
X26852113Y-8530587D01*
X26813895Y-8526479D01*
X26795485Y-8524500D01*
X26795481Y-8524500D01*
X26204521Y-8524500D01*
X26204515Y-8524501D01*
X26147888Y-8530587D01*
X26147886Y-8530588D01*
X26019774Y-8578372D01*
X26019773Y-8578372D01*
X26019772Y-8578373D01*
X25910315Y-8660311D01*
X25910311Y-8660315D01*
X25828373Y-8769771D01*
X25828371Y-8769775D01*
X25822657Y-8785097D01*
X25784606Y-8833012D01*
X25729899Y-8849500D01*
X25249435Y-8849500D01*
X25150565Y-8849500D01*
X25092114Y-8865161D01*
X25055057Y-8875091D01*
X24969440Y-8924523D01*
X24899523Y-8994440D01*
X24850091Y-9080057D01*
X24850090Y-9080062D01*
X24824500Y-9175565D01*
X500500Y-9175565D01*
X500500Y-6675327D01*
X3949500Y-6675327D01*
X3949500Y-8324672D01*
X3949501Y-8324684D01*
X3964033Y-8397736D01*
X3964035Y-8397742D01*
X4019397Y-8480599D01*
X4019400Y-8480602D01*
X4049177Y-8500498D01*
X4102260Y-8535966D01*
X4154770Y-8546411D01*
X4175315Y-8550498D01*
X4175320Y-8550498D01*
X4175326Y-8550500D01*
X4175327Y-8550500D01*
X5824673Y-8550500D01*
X5824674Y-8550500D01*
X5897740Y-8535966D01*
X5980601Y-8480601D01*
X6035966Y-8397740D01*
X6050500Y-8324674D01*
X6050500Y-8275139D01*
X6069407Y-8216948D01*
X6118907Y-8180984D01*
X6180093Y-8180984D01*
X6219501Y-8205133D01*
X6330345Y-8315977D01*
X6502402Y-8430941D01*
X6693580Y-8510130D01*
X6896535Y-8550500D01*
X6896536Y-8550500D01*
X7103464Y-8550500D01*
X7103465Y-8550500D01*
X7306420Y-8510130D01*
X7497598Y-8430941D01*
X7669655Y-8315977D01*
X7815977Y-8169655D01*
X7917684Y-8017437D01*
X7965734Y-7979558D01*
X8026872Y-7977156D01*
X8077746Y-8011148D01*
X8082310Y-8017430D01*
X8184023Y-8169655D01*
X8330345Y-8315977D01*
X8502402Y-8430941D01*
X8693580Y-8510130D01*
X8896535Y-8550500D01*
X8896536Y-8550500D01*
X9103464Y-8550500D01*
X9103465Y-8550500D01*
X9306420Y-8510130D01*
X9497598Y-8430941D01*
X9669655Y-8315977D01*
X9815977Y-8169655D01*
X9930941Y-7997598D01*
X10010130Y-7806420D01*
X10050500Y-7603465D01*
X10050500Y-7396535D01*
X10010130Y-7193580D01*
X9930941Y-7002402D01*
X9815977Y-6830345D01*
X9755133Y-6769501D01*
X9727358Y-6714987D01*
X9733639Y-6675327D01*
X16949500Y-6675327D01*
X16949500Y-8324672D01*
X16949501Y-8324684D01*
X16964033Y-8397736D01*
X16964035Y-8397742D01*
X17019397Y-8480599D01*
X17019400Y-8480602D01*
X17049177Y-8500498D01*
X17102260Y-8535966D01*
X17154770Y-8546411D01*
X17175315Y-8550498D01*
X17175320Y-8550498D01*
X17175326Y-8550500D01*
X17175327Y-8550500D01*
X18824673Y-8550500D01*
X18824674Y-8550500D01*
X18897740Y-8535966D01*
X18980601Y-8480601D01*
X19035966Y-8397740D01*
X19050500Y-8324674D01*
X19050500Y-8275139D01*
X19069407Y-8216948D01*
X19118907Y-8180984D01*
X19180093Y-8180984D01*
X19219501Y-8205133D01*
X19330345Y-8315977D01*
X19502402Y-8430941D01*
X19693580Y-8510130D01*
X19896535Y-8550500D01*
X19896536Y-8550500D01*
X20103464Y-8550500D01*
X20103465Y-8550500D01*
X20306420Y-8510130D01*
X20497598Y-8430941D01*
X20669655Y-8315977D01*
X20815977Y-8169655D01*
X20930941Y-7997598D01*
X21010130Y-7806420D01*
X21050500Y-7603465D01*
X21050500Y-7396535D01*
X21010130Y-7193580D01*
X20930941Y-7002402D01*
X20815977Y-6830345D01*
X20669655Y-6684023D01*
X20669651Y-6684020D01*
X20497597Y-6569058D01*
X20306418Y-6489869D01*
X20103467Y-6449500D01*
X20103465Y-6449500D01*
X19896535Y-6449500D01*
X19896532Y-6449500D01*
X19693581Y-6489869D01*
X19502402Y-6569058D01*
X19330348Y-6684020D01*
X19330345Y-6684022D01*
X19330345Y-6684023D01*
X19219501Y-6794866D01*
X19164987Y-6822642D01*
X19104555Y-6813071D01*
X19061290Y-6769806D01*
X19050500Y-6724861D01*
X19050500Y-6675327D01*
X19050498Y-6675315D01*
X19044173Y-6643517D01*
X19035966Y-6602260D01*
X19007446Y-6559576D01*
X18980602Y-6519400D01*
X18980599Y-6519397D01*
X18897742Y-6464035D01*
X18897740Y-6464034D01*
X18897737Y-6464033D01*
X18897736Y-6464033D01*
X18824684Y-6449501D01*
X18824674Y-6449500D01*
X17175326Y-6449500D01*
X17175325Y-6449500D01*
X17175315Y-6449501D01*
X17102263Y-6464033D01*
X17102257Y-6464035D01*
X17019400Y-6519397D01*
X17019397Y-6519400D01*
X16964035Y-6602257D01*
X16964033Y-6602263D01*
X16949501Y-6675315D01*
X16949500Y-6675327D01*
X9733639Y-6675327D01*
X9736929Y-6654555D01*
X9780194Y-6611290D01*
X9825139Y-6600500D01*
X11079055Y-6600500D01*
X11079057Y-6600500D01*
X11231784Y-6559577D01*
X11368716Y-6480520D01*
X11480520Y-6368716D01*
X11559577Y-6231784D01*
X11600500Y-6079057D01*
X11600500Y-6079053D01*
X11601887Y-6073877D01*
X11635211Y-6022563D01*
X11692332Y-6000636D01*
X11697514Y-6000500D01*
X23369049Y-6000500D01*
X23427240Y-6019407D01*
X23448302Y-6040171D01*
X23515936Y-6130519D01*
X23517454Y-6132546D01*
X23517457Y-6132548D01*
X23517458Y-6132549D01*
X23632670Y-6218797D01*
X23767511Y-6269089D01*
X23767512Y-6269089D01*
X23767517Y-6269091D01*
X23827127Y-6275500D01*
X25172872Y-6275499D01*
X25232483Y-6269091D01*
X25299907Y-6243943D01*
X25367329Y-6218797D01*
X25367329Y-6218796D01*
X25367331Y-6218796D01*
X25482546Y-6132546D01*
X25551698Y-6040171D01*
X25601706Y-6004918D01*
X25630951Y-6000500D01*
X25879055Y-6000500D01*
X25879057Y-6000500D01*
X26031784Y-5959577D01*
X26168716Y-5880520D01*
X26280520Y-5768716D01*
X26359577Y-5631784D01*
X26375879Y-5570943D01*
X32899500Y-5570943D01*
X32899500Y-5729057D01*
X32940423Y-5881784D01*
X33019480Y-6018716D01*
X33131284Y-6130520D01*
X33268216Y-6209577D01*
X33420943Y-6250500D01*
X33420945Y-6250500D01*
X33579055Y-6250500D01*
X33579057Y-6250500D01*
X33731784Y-6209577D01*
X33868716Y-6130520D01*
X33925359Y-6073877D01*
X33944741Y-6054496D01*
X33999258Y-6026719D01*
X34014744Y-6025500D01*
X34055787Y-6025500D01*
X34113978Y-6044407D01*
X34149942Y-6093907D01*
X34151414Y-6150123D01*
X34150091Y-6155060D01*
X34150090Y-6155062D01*
X34124500Y-6250565D01*
X34124500Y-10750565D01*
X34124500Y-10849435D01*
X34126686Y-10857593D01*
X34150091Y-10944942D01*
X34194257Y-11021438D01*
X34199525Y-11030562D01*
X34269438Y-11100475D01*
X34280847Y-11107062D01*
X34355058Y-11149908D01*
X34355056Y-11149908D01*
X34355060Y-11149909D01*
X34355062Y-11149910D01*
X34450565Y-11175500D01*
X41111193Y-11175500D01*
X41169384Y-11194407D01*
X41205348Y-11243907D01*
X41205348Y-11305093D01*
X41169384Y-11354593D01*
X41162775Y-11358884D01*
X41161984Y-11359491D01*
X41059493Y-11461982D01*
X41059491Y-11461984D01*
X41059491Y-11461985D01*
X41043392Y-11489869D01*
X41013284Y-11542015D01*
X40986878Y-11571765D01*
X40892459Y-11642449D01*
X40892450Y-11642458D01*
X40806202Y-11757670D01*
X40755910Y-11892511D01*
X40755909Y-11892517D01*
X40749783Y-11949500D01*
X40749500Y-11952129D01*
X40749500Y-17047866D01*
X40749501Y-17047870D01*
X40755908Y-17107480D01*
X40755909Y-17107485D01*
X40806202Y-17242329D01*
X40890191Y-17354523D01*
X40892454Y-17357546D01*
X40892457Y-17357548D01*
X40892458Y-17357549D01*
X41007670Y-17443797D01*
X41142511Y-17494089D01*
X41142512Y-17494089D01*
X41142517Y-17494091D01*
X41202127Y-17500500D01*
X41797872Y-17500499D01*
X41857483Y-17494091D01*
X41924907Y-17468943D01*
X41992329Y-17443797D01*
X41992329Y-17443796D01*
X41992331Y-17443796D01*
X42107546Y-17357546D01*
X42193796Y-17242331D01*
X42244091Y-17107483D01*
X42250500Y-17047873D01*
X42250499Y-11952129D01*
X42749500Y-11952129D01*
X42749500Y-17047866D01*
X42749501Y-17047870D01*
X42755908Y-17107480D01*
X42755909Y-17107485D01*
X42806202Y-17242329D01*
X42890191Y-17354523D01*
X42892454Y-17357546D01*
X42892457Y-17357548D01*
X42892458Y-17357549D01*
X43007670Y-17443797D01*
X43142511Y-17494089D01*
X43142512Y-17494089D01*
X43142517Y-17494091D01*
X43202127Y-17500500D01*
X43797872Y-17500499D01*
X43857483Y-17494091D01*
X43924907Y-17468943D01*
X43992329Y-17443797D01*
X43992329Y-17443796D01*
X43992331Y-17443796D01*
X44107546Y-17357546D01*
X44193796Y-17242331D01*
X44244091Y-17107483D01*
X44250500Y-17047873D01*
X44250499Y-11952129D01*
X44749500Y-11952129D01*
X44749500Y-17047866D01*
X44749501Y-17047870D01*
X44755908Y-17107480D01*
X44755909Y-17107485D01*
X44806202Y-17242329D01*
X44890191Y-17354523D01*
X44892454Y-17357546D01*
X44892457Y-17357548D01*
X44892458Y-17357549D01*
X45007670Y-17443797D01*
X45142511Y-17494089D01*
X45142512Y-17494089D01*
X45142517Y-17494091D01*
X45202127Y-17500500D01*
X45797872Y-17500499D01*
X45857483Y-17494091D01*
X45924907Y-17468943D01*
X45992329Y-17443797D01*
X45992329Y-17443796D01*
X45992331Y-17443796D01*
X46107546Y-17357546D01*
X46193796Y-17242331D01*
X46244091Y-17107483D01*
X46250500Y-17047873D01*
X46250499Y-11952128D01*
X46244091Y-11892517D01*
X46236616Y-11872475D01*
X46193797Y-11757670D01*
X46107549Y-11642458D01*
X46107548Y-11642457D01*
X46107546Y-11642454D01*
X46107541Y-11642450D01*
X45992329Y-11556202D01*
X45857488Y-11505910D01*
X45857483Y-11505909D01*
X45857481Y-11505908D01*
X45857477Y-11505908D01*
X45821888Y-11502082D01*
X45797873Y-11499500D01*
X45797870Y-11499500D01*
X45202133Y-11499500D01*
X45202129Y-11499500D01*
X45202128Y-11499501D01*
X45194949Y-11500272D01*
X45142519Y-11505908D01*
X45142514Y-11505909D01*
X45007670Y-11556202D01*
X44892458Y-11642450D01*
X44892450Y-11642458D01*
X44806202Y-11757670D01*
X44755910Y-11892511D01*
X44755909Y-11892517D01*
X44749783Y-11949500D01*
X44749500Y-11952129D01*
X44250499Y-11952129D01*
X44250499Y-11952128D01*
X44244091Y-11892517D01*
X44236616Y-11872475D01*
X44193797Y-11757670D01*
X44107549Y-11642458D01*
X44107548Y-11642457D01*
X44107546Y-11642454D01*
X44107541Y-11642450D01*
X43992329Y-11556202D01*
X43857488Y-11505910D01*
X43857483Y-11505909D01*
X43857481Y-11505908D01*
X43857477Y-11505908D01*
X43821888Y-11502082D01*
X43797873Y-11499500D01*
X43797870Y-11499500D01*
X43202133Y-11499500D01*
X43202129Y-11499500D01*
X43202128Y-11499501D01*
X43194949Y-11500272D01*
X43142519Y-11505908D01*
X43142514Y-11505909D01*
X43007670Y-11556202D01*
X42892458Y-11642450D01*
X42892450Y-11642458D01*
X42806202Y-11757670D01*
X42755910Y-11892511D01*
X42755909Y-11892517D01*
X42749783Y-11949500D01*
X42749500Y-11952129D01*
X42250499Y-11952129D01*
X42250499Y-11952128D01*
X42244091Y-11892517D01*
X42236616Y-11872475D01*
X42193797Y-11757670D01*
X42107549Y-11642458D01*
X42107548Y-11642457D01*
X42107546Y-11642454D01*
X42107539Y-11642449D01*
X42034151Y-11587510D01*
X42013119Y-11571765D01*
X41986716Y-11542017D01*
X41940509Y-11461985D01*
X41838015Y-11359491D01*
X41838012Y-11359489D01*
X41838011Y-11359488D01*
X41832866Y-11355540D01*
X41833883Y-11354214D01*
X41798364Y-11314763D01*
X41791971Y-11253913D01*
X41822566Y-11200926D01*
X41878463Y-11176042D01*
X41888807Y-11175500D01*
X47025500Y-11175500D01*
X47083691Y-11194407D01*
X47119655Y-11243907D01*
X47124500Y-11274500D01*
X47124500Y-11443891D01*
X47105593Y-11502082D01*
X47060098Y-11536648D01*
X47007669Y-11556204D01*
X47007664Y-11556206D01*
X47007663Y-11556207D01*
X46892458Y-11642450D01*
X46892450Y-11642458D01*
X46806202Y-11757670D01*
X46755910Y-11892511D01*
X46755909Y-11892517D01*
X46749783Y-11949500D01*
X46749500Y-11952129D01*
X46749500Y-17047866D01*
X46749501Y-17047870D01*
X46755908Y-17107480D01*
X46755909Y-17107485D01*
X46806202Y-17242329D01*
X46890191Y-17354523D01*
X46892454Y-17357546D01*
X46892457Y-17357548D01*
X46892458Y-17357549D01*
X47007670Y-17443797D01*
X47142511Y-17494089D01*
X47142512Y-17494089D01*
X47142517Y-17494091D01*
X47202127Y-17500500D01*
X47797872Y-17500499D01*
X47857483Y-17494091D01*
X47924907Y-17468943D01*
X47992329Y-17443797D01*
X47992329Y-17443796D01*
X47992331Y-17443796D01*
X48107546Y-17357546D01*
X48193796Y-17242331D01*
X48244091Y-17107483D01*
X48250500Y-17047873D01*
X48250499Y-11952129D01*
X48749500Y-11952129D01*
X48749500Y-17047866D01*
X48749501Y-17047870D01*
X48755908Y-17107480D01*
X48755909Y-17107485D01*
X48806202Y-17242329D01*
X48890191Y-17354523D01*
X48892454Y-17357546D01*
X48892457Y-17357548D01*
X48892458Y-17357549D01*
X49007670Y-17443797D01*
X49142511Y-17494089D01*
X49142512Y-17494089D01*
X49142517Y-17494091D01*
X49202127Y-17500500D01*
X49797872Y-17500499D01*
X49857483Y-17494091D01*
X49924907Y-17468943D01*
X49992329Y-17443797D01*
X49992329Y-17443796D01*
X49992331Y-17443796D01*
X50107546Y-17357546D01*
X50193796Y-17242331D01*
X50244091Y-17107483D01*
X50250500Y-17047873D01*
X50250499Y-11952129D01*
X50749500Y-11952129D01*
X50749500Y-17047866D01*
X50749501Y-17047870D01*
X50755908Y-17107480D01*
X50755909Y-17107485D01*
X50806202Y-17242329D01*
X50890191Y-17354523D01*
X50892454Y-17357546D01*
X50892457Y-17357548D01*
X50892458Y-17357549D01*
X51007670Y-17443797D01*
X51142511Y-17494089D01*
X51142512Y-17494089D01*
X51142517Y-17494091D01*
X51202127Y-17500500D01*
X51797872Y-17500499D01*
X51857483Y-17494091D01*
X51924907Y-17468943D01*
X51992329Y-17443797D01*
X51992329Y-17443796D01*
X51992331Y-17443796D01*
X52107546Y-17357546D01*
X52193796Y-17242331D01*
X52244091Y-17107483D01*
X52250500Y-17047873D01*
X52250499Y-15452129D01*
X54849500Y-15452129D01*
X54849500Y-18047866D01*
X54849501Y-18047870D01*
X54855908Y-18107480D01*
X54855909Y-18107485D01*
X54906202Y-18242329D01*
X54992450Y-18357541D01*
X54992454Y-18357546D01*
X54992457Y-18357548D01*
X54992458Y-18357549D01*
X55107670Y-18443797D01*
X55242511Y-18494089D01*
X55242512Y-18494089D01*
X55242517Y-18494091D01*
X55302127Y-18500500D01*
X56497872Y-18500499D01*
X56557483Y-18494091D01*
X56624907Y-18468943D01*
X56692329Y-18443797D01*
X56692329Y-18443796D01*
X56692331Y-18443796D01*
X56807546Y-18357546D01*
X56893796Y-18242331D01*
X56944091Y-18107483D01*
X56950500Y-18047873D01*
X56950499Y-15452128D01*
X56944091Y-15392517D01*
X56923885Y-15338342D01*
X56893797Y-15257670D01*
X56807549Y-15142458D01*
X56807548Y-15142457D01*
X56807546Y-15142454D01*
X56792940Y-15131520D01*
X56692329Y-15056202D01*
X56557488Y-15005910D01*
X56557483Y-15005909D01*
X56557481Y-15005908D01*
X56557477Y-15005908D01*
X56526249Y-15002550D01*
X56497873Y-14999500D01*
X56497870Y-14999500D01*
X55302133Y-14999500D01*
X55302129Y-14999500D01*
X55302128Y-14999501D01*
X55294949Y-15000272D01*
X55242519Y-15005908D01*
X55242514Y-15005909D01*
X55107670Y-15056202D01*
X54992458Y-15142450D01*
X54992450Y-15142458D01*
X54906202Y-15257670D01*
X54855910Y-15392511D01*
X54855908Y-15392522D01*
X54849500Y-15452129D01*
X52250499Y-15452129D01*
X52250499Y-14478250D01*
X52250499Y-11952133D01*
X52250499Y-11952128D01*
X52244091Y-11892517D01*
X52236616Y-11872475D01*
X52193797Y-11757670D01*
X52107549Y-11642458D01*
X52107548Y-11642457D01*
X52107546Y-11642454D01*
X52107541Y-11642450D01*
X51992329Y-11556202D01*
X51857488Y-11505910D01*
X51857483Y-11505909D01*
X51857481Y-11505908D01*
X51857477Y-11505908D01*
X51821888Y-11502082D01*
X51797873Y-11499500D01*
X51797870Y-11499500D01*
X51202133Y-11499500D01*
X51202129Y-11499500D01*
X51202128Y-11499501D01*
X51194949Y-11500272D01*
X51142519Y-11505908D01*
X51142514Y-11505909D01*
X51007670Y-11556202D01*
X50892458Y-11642450D01*
X50892450Y-11642458D01*
X50806202Y-11757670D01*
X50755910Y-11892511D01*
X50755909Y-11892517D01*
X50749783Y-11949500D01*
X50749500Y-11952129D01*
X50250499Y-11952129D01*
X50250499Y-11952128D01*
X50244091Y-11892517D01*
X50236616Y-11872475D01*
X50193797Y-11757670D01*
X50107549Y-11642458D01*
X50107548Y-11642457D01*
X50107546Y-11642454D01*
X50107539Y-11642449D01*
X50099853Y-11636695D01*
X50064600Y-11586687D01*
X50063554Y-11583061D01*
X50059577Y-11568216D01*
X49980520Y-11431284D01*
X49868716Y-11319480D01*
X49731784Y-11240423D01*
X49579057Y-11199500D01*
X49420943Y-11199500D01*
X49280588Y-11237108D01*
X49268216Y-11240423D01*
X49131284Y-11319480D01*
X49019480Y-11431284D01*
X48940422Y-11568217D01*
X48936443Y-11583068D01*
X48903116Y-11634381D01*
X48900150Y-11636692D01*
X48892454Y-11642453D01*
X48806202Y-11757670D01*
X48755910Y-11892511D01*
X48755909Y-11892517D01*
X48749783Y-11949500D01*
X48749500Y-11952129D01*
X48250499Y-11952129D01*
X48250499Y-11952128D01*
X48244091Y-11892517D01*
X48236616Y-11872475D01*
X48193797Y-11757670D01*
X48107549Y-11642458D01*
X48107548Y-11642457D01*
X48107546Y-11642454D01*
X48107541Y-11642450D01*
X47992336Y-11556207D01*
X47992335Y-11556206D01*
X47992332Y-11556205D01*
X47992331Y-11556204D01*
X47939901Y-11536648D01*
X47891988Y-11498597D01*
X47875500Y-11443891D01*
X47875500Y-10750566D01*
X47856339Y-10679057D01*
X47849910Y-10655062D01*
X47849908Y-10655059D01*
X47849908Y-10655057D01*
X47800476Y-10569440D01*
X47800475Y-10569438D01*
X47730562Y-10499525D01*
X47730559Y-10499523D01*
X47644941Y-10450091D01*
X47644943Y-10450091D01*
X47607885Y-10440161D01*
X47549435Y-10424500D01*
X47549433Y-10424500D01*
X34974500Y-10424500D01*
X34916309Y-10405593D01*
X34880345Y-10356093D01*
X34875500Y-10325500D01*
X34875500Y-6774500D01*
X34894407Y-6716309D01*
X34943907Y-6680345D01*
X34974500Y-6675500D01*
X35742617Y-6675500D01*
X35784480Y-6689003D01*
X35786147Y-6685595D01*
X35898604Y-6740572D01*
X35898605Y-6740572D01*
X35898607Y-6740573D01*
X35966740Y-6750500D01*
X35966743Y-6750500D01*
X37308257Y-6750500D01*
X37308260Y-6750500D01*
X37376393Y-6740573D01*
X37481483Y-6689198D01*
X37564198Y-6606483D01*
X37615573Y-6501393D01*
X37625500Y-6433260D01*
X37625500Y-6166740D01*
X37615573Y-6098607D01*
X37576401Y-6018480D01*
X37567830Y-5957899D01*
X37576402Y-5931519D01*
X37586530Y-5910801D01*
X37615573Y-5851393D01*
X37625500Y-5783260D01*
X37625500Y-5516740D01*
X37615573Y-5448607D01*
X37576401Y-5368480D01*
X37567830Y-5307899D01*
X37576402Y-5281519D01*
X37579833Y-5274500D01*
X37615573Y-5201393D01*
X37625500Y-5133260D01*
X37625500Y-4866740D01*
X37615573Y-4798607D01*
X37610150Y-4787515D01*
X37576857Y-4719412D01*
X37564198Y-4693517D01*
X37481483Y-4610802D01*
X37470828Y-4605593D01*
X37376395Y-4559427D01*
X37349139Y-4555456D01*
X37308260Y-4549500D01*
X35966740Y-4549500D01*
X35932673Y-4554463D01*
X35898604Y-4559427D01*
X35786147Y-4614405D01*
X35784480Y-4610996D01*
X35742617Y-4624500D01*
X35444032Y-4624500D01*
X35385841Y-4605593D01*
X35374029Y-4595504D01*
X35338016Y-4559492D01*
X35338010Y-4559487D01*
X35212488Y-4487017D01*
X35212489Y-4487017D01*
X35182896Y-4479087D01*
X35072475Y-4449500D01*
X34927525Y-4449500D01*
X34865790Y-4466041D01*
X34787510Y-4487017D01*
X34661989Y-4559487D01*
X34559487Y-4661989D01*
X34487017Y-4787510D01*
X34465787Y-4866740D01*
X34449500Y-4927525D01*
X34449500Y-5072475D01*
X34466637Y-5136430D01*
X34470240Y-5149877D01*
X34467037Y-5210978D01*
X34428532Y-5258528D01*
X34374613Y-5274500D01*
X34014744Y-5274500D01*
X33956553Y-5255593D01*
X33944741Y-5245504D01*
X33868718Y-5169482D01*
X33868716Y-5169480D01*
X33731784Y-5090423D01*
X33579057Y-5049500D01*
X33420943Y-5049500D01*
X33268216Y-5090423D01*
X33131284Y-5169480D01*
X33019480Y-5281284D01*
X32940423Y-5418216D01*
X32899500Y-5570943D01*
X26375879Y-5570943D01*
X26400500Y-5479057D01*
X26400500Y-5320943D01*
X26359577Y-5168216D01*
X26280520Y-5031284D01*
X26168716Y-4919480D01*
X26031784Y-4840423D01*
X25879057Y-4799500D01*
X25879055Y-4799500D01*
X25630951Y-4799500D01*
X25572760Y-4780593D01*
X25551698Y-4759829D01*
X25482549Y-4667458D01*
X25482548Y-4667457D01*
X25482546Y-4667454D01*
X25475246Y-4661989D01*
X25367329Y-4581202D01*
X25232488Y-4530910D01*
X25232483Y-4530909D01*
X25232481Y-4530908D01*
X25232477Y-4530908D01*
X25201249Y-4527550D01*
X25172873Y-4524500D01*
X25172870Y-4524500D01*
X23827133Y-4524500D01*
X23827129Y-4524500D01*
X23827128Y-4524501D01*
X23819949Y-4525272D01*
X23767519Y-4530908D01*
X23767514Y-4530909D01*
X23632670Y-4581202D01*
X23517458Y-4667450D01*
X23517450Y-4667458D01*
X23448302Y-4759829D01*
X23398294Y-4795082D01*
X23369049Y-4799500D01*
X11079057Y-4799500D01*
X10920943Y-4799500D01*
X10768216Y-4840423D01*
X10631284Y-4919480D01*
X10519480Y-5031284D01*
X10440423Y-5168216D01*
X10399500Y-5320943D01*
X10399500Y-5320946D01*
X10398113Y-5326123D01*
X10364789Y-5377437D01*
X10307668Y-5399364D01*
X10302486Y-5399500D01*
X7079057Y-5399500D01*
X6920943Y-5399500D01*
X6768216Y-5440423D01*
X6631284Y-5519480D01*
X6519480Y-5631284D01*
X6440423Y-5768216D01*
X6402218Y-5910802D01*
X6399500Y-5920944D01*
X6399500Y-6584898D01*
X6380593Y-6643089D01*
X6355504Y-6667212D01*
X6344571Y-6674517D01*
X6330350Y-6684020D01*
X6330344Y-6684024D01*
X6330341Y-6684026D01*
X6219504Y-6794864D01*
X6164987Y-6822641D01*
X6104555Y-6813070D01*
X6061290Y-6769805D01*
X6050500Y-6724860D01*
X6050500Y-6675327D01*
X6050498Y-6675315D01*
X6044173Y-6643517D01*
X6035966Y-6602260D01*
X6007446Y-6559576D01*
X5980602Y-6519400D01*
X5980599Y-6519397D01*
X5897742Y-6464035D01*
X5897740Y-6464034D01*
X5897737Y-6464033D01*
X5897736Y-6464033D01*
X5824684Y-6449501D01*
X5824674Y-6449500D01*
X4175326Y-6449500D01*
X4175325Y-6449500D01*
X4175315Y-6449501D01*
X4102263Y-6464033D01*
X4102257Y-6464035D01*
X4019400Y-6519397D01*
X4019397Y-6519400D01*
X3964035Y-6602257D01*
X3964033Y-6602263D01*
X3949501Y-6675315D01*
X3949500Y-6675327D01*
X500500Y-6675327D01*
X500500Y-599500D01*
X519407Y-541309D01*
X568907Y-505345D01*
X599500Y-500500D01*
X24049649Y-500500D01*
X24107840Y-519407D01*
G37*
%TD.AperFunction*%
%TD*%
M02*
