%TF.GenerationSoftware,KiCad,Pcbnew,10.0.5*%
%TF.CreationDate,2026-08-03T21:53:20+04:00*%
%TF.ProjectId,espnoise-carrier,6573706e-6f69-4736-952d-636172726965,rev?*%
%TF.SameCoordinates,Original*%
%TF.FileFunction,Soldermask,Bot*%
%TF.FilePolarity,Negative*%
%FSLAX46Y46*%
G04 Gerber Fmt 4.6, Leading zero omitted, Abs format (unit mm)*
G04 Created by KiCad (PCBNEW 10.0.5) date 2026-08-03 21:53:20*
%MOMM*%
%LPD*%
G01*
G04 APERTURE LIST*
G04 Aperture macros list*
%AMRoundRect*
0 Rectangle with rounded corners*
0 $1 Rounding radius*
0 $2 $3 $4 $5 $6 $7 $8 $9 X,Y pos of 4 corners*
0 Add a 4 corners polygon primitive as box body*
4,1,4,$2,$3,$4,$5,$6,$7,$8,$9,$2,$3,0*
0 Add four circle primitives for the rounded corners*
1,1,$1+$1,$2,$3*
1,1,$1+$1,$4,$5*
1,1,$1+$1,$6,$7*
1,1,$1+$1,$8,$9*
0 Add four rect primitives between the rounded corners*
20,1,$1+$1,$2,$3,$4,$5,0*
20,1,$1+$1,$4,$5,$6,$7,0*
20,1,$1+$1,$6,$7,$8,$9,0*
20,1,$1+$1,$8,$9,$2,$3,0*%
%AMFreePoly0*
4,1,64,0.031751,0.146088,0.079639,0.146088,0.235856,0.115014,0.383010,0.054061,0.515445,-0.034429,0.628071,-0.147055,0.716561,-0.279490,0.777514,-0.426644,0.808588,-0.582861,0.808588,-0.742139,0.777514,-0.898356,0.716561,-1.045510,0.628071,-1.177945,0.515445,-1.290571,0.383010,-1.379061,0.235856,-1.440014,0.079639,-1.471088,-0.079639,-1.471088,-0.235856,-1.440014,-0.383010,-1.379061,
-0.515445,-1.290571,-0.628071,-1.177945,-0.716561,-1.045510,-0.777514,-0.898356,-0.808588,-0.742139,-0.808588,-0.595028,-0.512500,-0.595028,-0.512500,-0.729972,-0.477574,-0.860317,-0.410102,-0.977182,-0.314682,-1.072602,-0.197817,-1.140074,-0.067472,-1.175000,0.067472,-1.175000,0.197817,-1.140074,0.314682,-1.072602,0.410102,-0.977182,0.477574,-0.860317,0.512500,-0.729972,0.512500,-0.595028,
0.477574,-0.464683,0.410102,-0.347818,0.314682,-0.252398,0.197817,-0.184926,0.067472,-0.150000,-0.067472,-0.150000,-0.197817,-0.184926,-0.314682,-0.252398,-0.410102,-0.347818,-0.477574,-0.464683,-0.512500,-0.595028,-0.808588,-0.595028,-0.808588,-0.582861,-0.777514,-0.426644,-0.716561,-0.279490,-0.628071,-0.147055,-0.515445,-0.034429,-0.383010,0.054061,-0.235856,0.115014,-0.079639,0.146088,
-0.031751,0.146088,-0.029264,0.147118,0.029264,0.147118,0.031751,0.146088,0.031751,0.146088,$1*%
G04 Aperture macros list end*
%ADD10R,1.600000X1.600000*%
%ADD11C,1.600000*%
%ADD12C,0.500000*%
%ADD13R,0.600000X0.522000*%
%ADD14FreePoly0,270.000000*%
%ADD15RoundRect,0.200000X-0.200000X-0.275000X0.200000X-0.275000X0.200000X0.275000X-0.200000X0.275000X0*%
%ADD16RoundRect,0.250000X-0.250000X-2.500000X0.250000X-2.500000X0.250000X2.500000X-0.250000X2.500000X0*%
%ADD17RoundRect,0.250000X-0.550000X-1.250000X0.550000X-1.250000X0.550000X1.250000X-0.550000X1.250000X0*%
%ADD18RoundRect,0.250000X-1.950000X-1.000000X1.950000X-1.000000X1.950000X1.000000X-1.950000X1.000000X0*%
%ADD19RoundRect,0.250000X-0.625000X0.375000X-0.625000X-0.375000X0.625000X-0.375000X0.625000X0.375000X0*%
%ADD20RoundRect,0.225000X-0.250000X0.225000X-0.250000X-0.225000X0.250000X-0.225000X0.250000X0.225000X0*%
%ADD21RoundRect,0.225000X-0.225000X-0.250000X0.225000X-0.250000X0.225000X0.250000X-0.225000X0.250000X0*%
%ADD22RoundRect,0.200000X-0.275000X0.200000X-0.275000X-0.200000X0.275000X-0.200000X0.275000X0.200000X0*%
%ADD23RoundRect,0.150000X-0.587500X-0.150000X0.587500X-0.150000X0.587500X0.150000X-0.587500X0.150000X0*%
%ADD24RoundRect,0.100000X-0.637500X-0.100000X0.637500X-0.100000X0.637500X0.100000X-0.637500X0.100000X0*%
G04 APERTURE END LIST*
D10*
%TO.C,SW2*%
X5000000Y-7500000D03*
D11*
X7000000Y-7500000D03*
X9000000Y-7500000D03*
X5000000Y-12500000D03*
X7000000Y-12500000D03*
X9000000Y-12500000D03*
%TD*%
D10*
%TO.C,SW1*%
X18000000Y-7500000D03*
D11*
X20000000Y-7500000D03*
X22000000Y-7500000D03*
X18000000Y-12500000D03*
X20000000Y-12500000D03*
X22000000Y-12500000D03*
%TD*%
D12*
%TO.C,MIC1*%
X29500000Y-10000000D03*
D13*
X28600000Y-12074000D03*
X28600000Y-11252000D03*
D14*
X30162500Y-10000000D03*
D13*
X30400000Y-11252000D03*
X30400000Y-12074000D03*
X29500000Y-12074000D03*
%TD*%
D15*
%TO.C,R2*%
X59175000Y-17000000D03*
X60825000Y-17000000D03*
%TD*%
D16*
%TO.C,J2*%
X35500000Y-14500000D03*
X37500000Y-14500000D03*
X39500000Y-14500000D03*
X41500000Y-14500000D03*
X43500000Y-14500000D03*
X45500000Y-14500000D03*
X47500000Y-14500000D03*
X49500000Y-14500000D03*
X51500000Y-14500000D03*
X53500000Y-14500000D03*
D17*
X33100000Y-16750000D03*
X55900000Y-16750000D03*
%TD*%
D18*
%TO.C,C2*%
X68300000Y-15000000D03*
X75700000Y-15000000D03*
%TD*%
D19*
%TO.C,F1*%
X24500000Y-2600000D03*
X24500000Y-5400000D03*
%TD*%
D16*
%TO.C,J1*%
X74200000Y-4500000D03*
X76200000Y-4500000D03*
D17*
X71800000Y-6750000D03*
X78600000Y-6750000D03*
%TD*%
D20*
%TO.C,C3*%
X26500000Y-9225000D03*
X26500000Y-10775000D03*
%TD*%
D16*
%TO.C,J3*%
X58500000Y-4500000D03*
X60500000Y-4500000D03*
X62500000Y-4500000D03*
X64500000Y-4500000D03*
X66500000Y-4500000D03*
D17*
X56100000Y-6750000D03*
X68900000Y-6750000D03*
%TD*%
D21*
%TO.C,C1*%
X29725000Y-4000000D03*
X31275000Y-4000000D03*
%TD*%
D15*
%TO.C,R1*%
X47675000Y-5000000D03*
X49325000Y-5000000D03*
%TD*%
D22*
%TO.C,R3*%
X64000000Y-16175000D03*
X64000000Y-17825000D03*
%TD*%
D23*
%TO.C,Q1*%
X59562500Y-14950000D03*
X59562500Y-13050000D03*
X61437500Y-14000000D03*
%TD*%
D24*
%TO.C,U1*%
X36637500Y-6950000D03*
X36637500Y-6300000D03*
X36637500Y-5650000D03*
X36637500Y-5000000D03*
X36637500Y-4350000D03*
X36637500Y-3700000D03*
X36637500Y-3050000D03*
X42362500Y-3050000D03*
X42362500Y-3700000D03*
X42362500Y-4350000D03*
X42362500Y-5000000D03*
X42362500Y-5650000D03*
X42362500Y-6300000D03*
X42362500Y-6950000D03*
%TD*%
M02*
