M48
; DRILL file KiCad 10.0.5 date 2026-08-03T21:53:21
; FORMAT={-:-/ absolute / metric / decimal}
; #@! TF.CreationDate,2026-08-03T21:53:21+04:00
; #@! TF.GenerationSoftware,Kicad,Pcbnew,10.0.5
; #@! TF.FileFunction,MixedPlating,1,2
FMAT,2
METRIC
; #@! TA.AperFunction,Plated,PTH,ViaDrill
T1C0.300
; #@! TA.AperFunction,Plated,PTH,ViaDrill
T2C0.350
; #@! TA.AperFunction,Plated,PTH,ComponentDrill
T3C1.000
; #@! TA.AperFunction,NonPlated,NPTH,ComponentDrill
T4C0.500
%
G90
G05
T1
X27.3Y-12.5
X29.5Y-13.2
X31.0Y-13.9
X32.5Y-11.8
X35.0Y-5.0
X39.5Y-13.9
X41.5Y-11.8
X43.5Y-12.5
X45.5Y-13.2
T2
X24.5Y-1.2
X25.8Y-5.4
X29.0Y-3.0
X33.5Y-5.65
X35.5Y-17.5
X44.2Y-4.35
X46.5Y-5.0
X49.5Y-11.8
X51.5Y-15.7
X55.0Y-10.6
X58.5Y-3.1
X59.175Y-11.8
X61.0Y-13.05
X62.0Y-12.0
X64.5Y-3.1
X66.8Y-15.0
X72.8Y-3.0
X76.5Y-10.6
T3
X5.0Y-7.5
X5.0Y-12.5
X7.0Y-7.5
X7.0Y-12.5
X9.0Y-7.5
X9.0Y-12.5
X18.0Y-7.5
X18.0Y-12.5
X20.0Y-7.5
X20.0Y-12.5
X22.0Y-7.5
X22.0Y-12.5
T4
X29.5Y-10.0
M30
