M48
; DRILL file KiCad 10.0.5 date 2026-08-03T21:14:08
; FORMAT={-:-/ absolute / metric / decimal}
; #@! TF.CreationDate,2026-08-03T21:14:08+04:00
; #@! TF.GenerationSoftware,Kicad,Pcbnew,10.0.5
; #@! TF.FileFunction,MixedPlating,1,2
FMAT,2
METRIC
; #@! TA.AperFunction,Plated,PTH,ViaDrill
T1C0.300
; #@! TA.AperFunction,Plated,PTH,ViaDrill
T2C0.350
; #@! TA.AperFunction,Plated,PTH,ComponentDrill
T3C1.000
; #@! TA.AperFunction,NonPlated,NPTH,ComponentDrill
T4C3.200
%
G90
G05
T1
X45.7Y-16.0
T2
X6.0Y-34.5
X12.0Y-33.5
X16.0Y-29.0
X18.0Y-29.0
X20.0Y-29.0
X22.0Y-33.5
X36.0Y-33.5
X40.0Y-29.0
X53.5Y-29.0
X56.0Y-21.83
X62.0Y-28.0
X63.6Y-20.0
X65.0Y-34.5
X68.0Y-18.0
X74.0Y-30.0
X77.5Y-28.0
X78.0Y-21.94
T3
X20.9Y-8.9
X20.9Y-13.9
X22.9Y-8.9
X22.9Y-13.9
X24.9Y-8.9
X24.9Y-13.9
X50.9Y-7.6
X50.9Y-12.6
X52.9Y-7.6
X52.9Y-12.6
X54.9Y-7.6
X54.9Y-12.6
T4
X4.0Y-4.0
X92.0Y-4.0
M30
