%TF.GenerationSoftware,KiCad,Pcbnew,10.0.5*%
%TF.CreationDate,2026-08-03T21:14:08+04:00*%
%TF.ProjectId,espnoise-carrier,6573706e-6f69-4736-952d-636172726965,rev?*%
%TF.SameCoordinates,Original*%
%TF.FileFunction,Legend,Bot*%
%TF.FilePolarity,Positive*%
%FSLAX46Y46*%
G04 Gerber Fmt 4.6, Leading zero omitted, Abs format (unit mm)*
G04 Created by KiCad (PCBNEW 10.0.5) date 2026-08-03 21:14:08*
%MOMM*%
%LPD*%
G01*
G04 APERTURE LIST*
%ADD10C,0.150000*%
%ADD11C,0.120000*%
G04 APERTURE END LIST*
D10*
X60035718Y-36189164D02*
X60035718Y-36724878D01*
X60035718Y-36724878D02*
X60071433Y-36832021D01*
X60071433Y-36832021D02*
X60142861Y-36903450D01*
X60142861Y-36903450D02*
X60250004Y-36939164D01*
X60250004Y-36939164D02*
X60321433Y-36939164D01*
X59714289Y-36260592D02*
X59678575Y-36224878D01*
X59678575Y-36224878D02*
X59607147Y-36189164D01*
X59607147Y-36189164D02*
X59428575Y-36189164D01*
X59428575Y-36189164D02*
X59357147Y-36224878D01*
X59357147Y-36224878D02*
X59321432Y-36260592D01*
X59321432Y-36260592D02*
X59285718Y-36332021D01*
X59285718Y-36332021D02*
X59285718Y-36403450D01*
X59285718Y-36403450D02*
X59321432Y-36510592D01*
X59321432Y-36510592D02*
X59750004Y-36939164D01*
X59750004Y-36939164D02*
X59285718Y-36939164D01*
X57964289Y-36867735D02*
X58000003Y-36903450D01*
X58000003Y-36903450D02*
X58107146Y-36939164D01*
X58107146Y-36939164D02*
X58178574Y-36939164D01*
X58178574Y-36939164D02*
X58285717Y-36903450D01*
X58285717Y-36903450D02*
X58357146Y-36832021D01*
X58357146Y-36832021D02*
X58392860Y-36760592D01*
X58392860Y-36760592D02*
X58428574Y-36617735D01*
X58428574Y-36617735D02*
X58428574Y-36510592D01*
X58428574Y-36510592D02*
X58392860Y-36367735D01*
X58392860Y-36367735D02*
X58357146Y-36296307D01*
X58357146Y-36296307D02*
X58285717Y-36224878D01*
X58285717Y-36224878D02*
X58178574Y-36189164D01*
X58178574Y-36189164D02*
X58107146Y-36189164D01*
X58107146Y-36189164D02*
X58000003Y-36224878D01*
X58000003Y-36224878D02*
X57964289Y-36260592D01*
X57750003Y-36189164D02*
X57321432Y-36189164D01*
X57535717Y-36939164D02*
X57535717Y-36189164D01*
X56642860Y-36939164D02*
X56892860Y-36582021D01*
X57071431Y-36939164D02*
X57071431Y-36189164D01*
X57071431Y-36189164D02*
X56785717Y-36189164D01*
X56785717Y-36189164D02*
X56714288Y-36224878D01*
X56714288Y-36224878D02*
X56678574Y-36260592D01*
X56678574Y-36260592D02*
X56642860Y-36332021D01*
X56642860Y-36332021D02*
X56642860Y-36439164D01*
X56642860Y-36439164D02*
X56678574Y-36510592D01*
X56678574Y-36510592D02*
X56714288Y-36546307D01*
X56714288Y-36546307D02*
X56785717Y-36582021D01*
X56785717Y-36582021D02*
X57071431Y-36582021D01*
X55964288Y-36939164D02*
X56321431Y-36939164D01*
X56321431Y-36939164D02*
X56321431Y-36189164D01*
X54357144Y-36189164D02*
X54357144Y-36724878D01*
X54357144Y-36724878D02*
X54392859Y-36832021D01*
X54392859Y-36832021D02*
X54464287Y-36903450D01*
X54464287Y-36903450D02*
X54571430Y-36939164D01*
X54571430Y-36939164D02*
X54642859Y-36939164D01*
X53678573Y-36439164D02*
X53678573Y-36939164D01*
X53857144Y-36153450D02*
X54035715Y-36689164D01*
X54035715Y-36689164D02*
X53571430Y-36689164D01*
X52714286Y-36939164D02*
X52714286Y-36189164D01*
X52714286Y-36189164D02*
X52464286Y-36724878D01*
X52464286Y-36724878D02*
X52214286Y-36189164D01*
X52214286Y-36189164D02*
X52214286Y-36939164D01*
X51857143Y-36939164D02*
X51857143Y-36189164D01*
X51071429Y-36867735D02*
X51107143Y-36903450D01*
X51107143Y-36903450D02*
X51214286Y-36939164D01*
X51214286Y-36939164D02*
X51285714Y-36939164D01*
X51285714Y-36939164D02*
X51392857Y-36903450D01*
X51392857Y-36903450D02*
X51464286Y-36832021D01*
X51464286Y-36832021D02*
X51500000Y-36760592D01*
X51500000Y-36760592D02*
X51535714Y-36617735D01*
X51535714Y-36617735D02*
X51535714Y-36510592D01*
X51535714Y-36510592D02*
X51500000Y-36367735D01*
X51500000Y-36367735D02*
X51464286Y-36296307D01*
X51464286Y-36296307D02*
X51392857Y-36224878D01*
X51392857Y-36224878D02*
X51285714Y-36189164D01*
X51285714Y-36189164D02*
X51214286Y-36189164D01*
X51214286Y-36189164D02*
X51107143Y-36224878D01*
X51107143Y-36224878D02*
X51071429Y-36260592D01*
X49392856Y-36189164D02*
X49392856Y-36724878D01*
X49392856Y-36724878D02*
X49428571Y-36832021D01*
X49428571Y-36832021D02*
X49499999Y-36903450D01*
X49499999Y-36903450D02*
X49607142Y-36939164D01*
X49607142Y-36939164D02*
X49678571Y-36939164D01*
X49107142Y-36189164D02*
X48642856Y-36189164D01*
X48642856Y-36189164D02*
X48892856Y-36474878D01*
X48892856Y-36474878D02*
X48785713Y-36474878D01*
X48785713Y-36474878D02*
X48714285Y-36510592D01*
X48714285Y-36510592D02*
X48678570Y-36546307D01*
X48678570Y-36546307D02*
X48642856Y-36617735D01*
X48642856Y-36617735D02*
X48642856Y-36796307D01*
X48642856Y-36796307D02*
X48678570Y-36867735D01*
X48678570Y-36867735D02*
X48714285Y-36903450D01*
X48714285Y-36903450D02*
X48785713Y-36939164D01*
X48785713Y-36939164D02*
X48999999Y-36939164D01*
X48999999Y-36939164D02*
X49071427Y-36903450D01*
X49071427Y-36903450D02*
X49107142Y-36867735D01*
X47392855Y-36939164D02*
X47749998Y-36939164D01*
X47749998Y-36939164D02*
X47749998Y-36189164D01*
X47142855Y-36546307D02*
X46892855Y-36546307D01*
X46785712Y-36939164D02*
X47142855Y-36939164D01*
X47142855Y-36939164D02*
X47142855Y-36189164D01*
X47142855Y-36189164D02*
X46785712Y-36189164D01*
X46464284Y-36939164D02*
X46464284Y-36189164D01*
X46464284Y-36189164D02*
X46285713Y-36189164D01*
X46285713Y-36189164D02*
X46178570Y-36224878D01*
X46178570Y-36224878D02*
X46107141Y-36296307D01*
X46107141Y-36296307D02*
X46071427Y-36367735D01*
X46071427Y-36367735D02*
X46035713Y-36510592D01*
X46035713Y-36510592D02*
X46035713Y-36617735D01*
X46035713Y-36617735D02*
X46071427Y-36760592D01*
X46071427Y-36760592D02*
X46107141Y-36832021D01*
X46107141Y-36832021D02*
X46178570Y-36903450D01*
X46178570Y-36903450D02*
X46285713Y-36939164D01*
X46285713Y-36939164D02*
X46464284Y-36939164D01*
X44357140Y-36189164D02*
X44357140Y-36724878D01*
X44357140Y-36724878D02*
X44392855Y-36832021D01*
X44392855Y-36832021D02*
X44464283Y-36903450D01*
X44464283Y-36903450D02*
X44571426Y-36939164D01*
X44571426Y-36939164D02*
X44642855Y-36939164D01*
X43607140Y-36939164D02*
X44035711Y-36939164D01*
X43821426Y-36939164D02*
X43821426Y-36189164D01*
X43821426Y-36189164D02*
X43892854Y-36296307D01*
X43892854Y-36296307D02*
X43964283Y-36367735D01*
X43964283Y-36367735D02*
X44035711Y-36403450D01*
X42357139Y-36189164D02*
X42714282Y-36189164D01*
X42714282Y-36189164D02*
X42749996Y-36546307D01*
X42749996Y-36546307D02*
X42714282Y-36510592D01*
X42714282Y-36510592D02*
X42642854Y-36474878D01*
X42642854Y-36474878D02*
X42464282Y-36474878D01*
X42464282Y-36474878D02*
X42392854Y-36510592D01*
X42392854Y-36510592D02*
X42357139Y-36546307D01*
X42357139Y-36546307D02*
X42321425Y-36617735D01*
X42321425Y-36617735D02*
X42321425Y-36796307D01*
X42321425Y-36796307D02*
X42357139Y-36867735D01*
X42357139Y-36867735D02*
X42392854Y-36903450D01*
X42392854Y-36903450D02*
X42464282Y-36939164D01*
X42464282Y-36939164D02*
X42642854Y-36939164D01*
X42642854Y-36939164D02*
X42714282Y-36903450D01*
X42714282Y-36903450D02*
X42749996Y-36867735D01*
X42107139Y-36189164D02*
X41857139Y-36939164D01*
X41857139Y-36939164D02*
X41607139Y-36189164D01*
X39999995Y-36189164D02*
X39999995Y-36724878D01*
X39999995Y-36724878D02*
X40035710Y-36832021D01*
X40035710Y-36832021D02*
X40107138Y-36903450D01*
X40107138Y-36903450D02*
X40214281Y-36939164D01*
X40214281Y-36939164D02*
X40285710Y-36939164D01*
X39285709Y-36189164D02*
X39642852Y-36189164D01*
X39642852Y-36189164D02*
X39678566Y-36546307D01*
X39678566Y-36546307D02*
X39642852Y-36510592D01*
X39642852Y-36510592D02*
X39571424Y-36474878D01*
X39571424Y-36474878D02*
X39392852Y-36474878D01*
X39392852Y-36474878D02*
X39321424Y-36510592D01*
X39321424Y-36510592D02*
X39285709Y-36546307D01*
X39285709Y-36546307D02*
X39249995Y-36617735D01*
X39249995Y-36617735D02*
X39249995Y-36796307D01*
X39249995Y-36796307D02*
X39285709Y-36867735D01*
X39285709Y-36867735D02*
X39321424Y-36903450D01*
X39321424Y-36903450D02*
X39392852Y-36939164D01*
X39392852Y-36939164D02*
X39571424Y-36939164D01*
X39571424Y-36939164D02*
X39642852Y-36903450D01*
X39642852Y-36903450D02*
X39678566Y-36867735D01*
X38107137Y-36546307D02*
X37999994Y-36582021D01*
X37999994Y-36582021D02*
X37964280Y-36617735D01*
X37964280Y-36617735D02*
X37928566Y-36689164D01*
X37928566Y-36689164D02*
X37928566Y-36796307D01*
X37928566Y-36796307D02*
X37964280Y-36867735D01*
X37964280Y-36867735D02*
X37999994Y-36903450D01*
X37999994Y-36903450D02*
X38071423Y-36939164D01*
X38071423Y-36939164D02*
X38357137Y-36939164D01*
X38357137Y-36939164D02*
X38357137Y-36189164D01*
X38357137Y-36189164D02*
X38107137Y-36189164D01*
X38107137Y-36189164D02*
X38035709Y-36224878D01*
X38035709Y-36224878D02*
X37999994Y-36260592D01*
X37999994Y-36260592D02*
X37964280Y-36332021D01*
X37964280Y-36332021D02*
X37964280Y-36403450D01*
X37964280Y-36403450D02*
X37999994Y-36474878D01*
X37999994Y-36474878D02*
X38035709Y-36510592D01*
X38035709Y-36510592D02*
X38107137Y-36546307D01*
X38107137Y-36546307D02*
X38357137Y-36546307D01*
X37607137Y-36189164D02*
X37607137Y-36796307D01*
X37607137Y-36796307D02*
X37571423Y-36867735D01*
X37571423Y-36867735D02*
X37535709Y-36903450D01*
X37535709Y-36903450D02*
X37464280Y-36939164D01*
X37464280Y-36939164D02*
X37321423Y-36939164D01*
X37321423Y-36939164D02*
X37249994Y-36903450D01*
X37249994Y-36903450D02*
X37214280Y-36867735D01*
X37214280Y-36867735D02*
X37178566Y-36796307D01*
X37178566Y-36796307D02*
X37178566Y-36189164D01*
X36892852Y-36189164D02*
X36392852Y-36189164D01*
X36392852Y-36189164D02*
X36892852Y-36939164D01*
X36892852Y-36939164D02*
X36392852Y-36939164D01*
X36178566Y-36189164D02*
X35678566Y-36189164D01*
X35678566Y-36189164D02*
X36178566Y-36939164D01*
X36178566Y-36939164D02*
X35678566Y-36939164D01*
X58571429Y-6654819D02*
X59047619Y-6654819D01*
X59047619Y-6654819D02*
X59047619Y-5654819D01*
X58047619Y-5654819D02*
X57857143Y-5654819D01*
X57857143Y-5654819D02*
X57761905Y-5702438D01*
X57761905Y-5702438D02*
X57666667Y-5797676D01*
X57666667Y-5797676D02*
X57619048Y-5988152D01*
X57619048Y-5988152D02*
X57619048Y-6321485D01*
X57619048Y-6321485D02*
X57666667Y-6511961D01*
X57666667Y-6511961D02*
X57761905Y-6607200D01*
X57761905Y-6607200D02*
X57857143Y-6654819D01*
X57857143Y-6654819D02*
X58047619Y-6654819D01*
X58047619Y-6654819D02*
X58142857Y-6607200D01*
X58142857Y-6607200D02*
X58238095Y-6511961D01*
X58238095Y-6511961D02*
X58285714Y-6321485D01*
X58285714Y-6321485D02*
X58285714Y-5988152D01*
X58285714Y-5988152D02*
X58238095Y-5797676D01*
X58238095Y-5797676D02*
X58142857Y-5702438D01*
X58142857Y-5702438D02*
X58047619Y-5654819D01*
X57285714Y-5654819D02*
X57047619Y-6654819D01*
X57047619Y-6654819D02*
X56857143Y-5940533D01*
X56857143Y-5940533D02*
X56666667Y-6654819D01*
X56666667Y-6654819D02*
X56428572Y-5654819D01*
X56047619Y-6131009D02*
X55714286Y-6131009D01*
X55571429Y-6654819D02*
X56047619Y-6654819D01*
X56047619Y-6654819D02*
X56047619Y-5654819D01*
X56047619Y-5654819D02*
X55571429Y-5654819D01*
X54571429Y-6654819D02*
X54904762Y-6178628D01*
X55142857Y-6654819D02*
X55142857Y-5654819D01*
X55142857Y-5654819D02*
X54761905Y-5654819D01*
X54761905Y-5654819D02*
X54666667Y-5702438D01*
X54666667Y-5702438D02*
X54619048Y-5750057D01*
X54619048Y-5750057D02*
X54571429Y-5845295D01*
X54571429Y-5845295D02*
X54571429Y-5988152D01*
X54571429Y-5988152D02*
X54619048Y-6083390D01*
X54619048Y-6083390D02*
X54666667Y-6131009D01*
X54666667Y-6131009D02*
X54761905Y-6178628D01*
X54761905Y-6178628D02*
X55142857Y-6178628D01*
X53047619Y-6131009D02*
X53380952Y-6131009D01*
X53380952Y-6654819D02*
X53380952Y-5654819D01*
X53380952Y-5654819D02*
X52904762Y-5654819D01*
X52571428Y-6369104D02*
X52095238Y-6369104D01*
X52666666Y-6654819D02*
X52333333Y-5654819D01*
X52333333Y-5654819D02*
X52000000Y-6654819D01*
X51095238Y-6559580D02*
X51142857Y-6607200D01*
X51142857Y-6607200D02*
X51285714Y-6654819D01*
X51285714Y-6654819D02*
X51380952Y-6654819D01*
X51380952Y-6654819D02*
X51523809Y-6607200D01*
X51523809Y-6607200D02*
X51619047Y-6511961D01*
X51619047Y-6511961D02*
X51666666Y-6416723D01*
X51666666Y-6416723D02*
X51714285Y-6226247D01*
X51714285Y-6226247D02*
X51714285Y-6083390D01*
X51714285Y-6083390D02*
X51666666Y-5892914D01*
X51666666Y-5892914D02*
X51619047Y-5797676D01*
X51619047Y-5797676D02*
X51523809Y-5702438D01*
X51523809Y-5702438D02*
X51380952Y-5654819D01*
X51380952Y-5654819D02*
X51285714Y-5654819D01*
X51285714Y-5654819D02*
X51142857Y-5702438D01*
X51142857Y-5702438D02*
X51095238Y-5750057D01*
X50666666Y-6131009D02*
X50333333Y-6131009D01*
X50190476Y-6654819D02*
X50666666Y-6654819D01*
X50666666Y-6654819D02*
X50666666Y-5654819D01*
X50666666Y-5654819D02*
X50190476Y-5654819D01*
X48999999Y-6273866D02*
X48238095Y-6273866D01*
X46428571Y-6559580D02*
X46476190Y-6607200D01*
X46476190Y-6607200D02*
X46619047Y-6654819D01*
X46619047Y-6654819D02*
X46714285Y-6654819D01*
X46714285Y-6654819D02*
X46857142Y-6607200D01*
X46857142Y-6607200D02*
X46952380Y-6511961D01*
X46952380Y-6511961D02*
X46999999Y-6416723D01*
X46999999Y-6416723D02*
X47047618Y-6226247D01*
X47047618Y-6226247D02*
X47047618Y-6083390D01*
X47047618Y-6083390D02*
X46999999Y-5892914D01*
X46999999Y-5892914D02*
X46952380Y-5797676D01*
X46952380Y-5797676D02*
X46857142Y-5702438D01*
X46857142Y-5702438D02*
X46714285Y-5654819D01*
X46714285Y-5654819D02*
X46619047Y-5654819D01*
X46619047Y-5654819D02*
X46476190Y-5702438D01*
X46476190Y-5702438D02*
X46428571Y-5750057D01*
X46047618Y-6369104D02*
X45571428Y-6369104D01*
X46142856Y-6654819D02*
X45809523Y-5654819D01*
X45809523Y-5654819D02*
X45476190Y-6654819D01*
X44809523Y-6131009D02*
X44666666Y-6178628D01*
X44666666Y-6178628D02*
X44619047Y-6226247D01*
X44619047Y-6226247D02*
X44571428Y-6321485D01*
X44571428Y-6321485D02*
X44571428Y-6464342D01*
X44571428Y-6464342D02*
X44619047Y-6559580D01*
X44619047Y-6559580D02*
X44666666Y-6607200D01*
X44666666Y-6607200D02*
X44761904Y-6654819D01*
X44761904Y-6654819D02*
X45142856Y-6654819D01*
X45142856Y-6654819D02*
X45142856Y-5654819D01*
X45142856Y-5654819D02*
X44809523Y-5654819D01*
X44809523Y-5654819D02*
X44714285Y-5702438D01*
X44714285Y-5702438D02*
X44666666Y-5750057D01*
X44666666Y-5750057D02*
X44619047Y-5845295D01*
X44619047Y-5845295D02*
X44619047Y-5940533D01*
X44619047Y-5940533D02*
X44666666Y-6035771D01*
X44666666Y-6035771D02*
X44714285Y-6083390D01*
X44714285Y-6083390D02*
X44809523Y-6131009D01*
X44809523Y-6131009D02*
X45142856Y-6131009D01*
X43666666Y-6654819D02*
X44142856Y-6654819D01*
X44142856Y-6654819D02*
X44142856Y-5654819D01*
X43333332Y-6131009D02*
X42999999Y-6131009D01*
X42857142Y-6654819D02*
X43333332Y-6654819D01*
X43333332Y-6654819D02*
X43333332Y-5654819D01*
X43333332Y-5654819D02*
X42857142Y-5654819D01*
X42476189Y-6607200D02*
X42333332Y-6654819D01*
X42333332Y-6654819D02*
X42095237Y-6654819D01*
X42095237Y-6654819D02*
X41999999Y-6607200D01*
X41999999Y-6607200D02*
X41952380Y-6559580D01*
X41952380Y-6559580D02*
X41904761Y-6464342D01*
X41904761Y-6464342D02*
X41904761Y-6369104D01*
X41904761Y-6369104D02*
X41952380Y-6273866D01*
X41952380Y-6273866D02*
X41999999Y-6226247D01*
X41999999Y-6226247D02*
X42095237Y-6178628D01*
X42095237Y-6178628D02*
X42285713Y-6131009D01*
X42285713Y-6131009D02*
X42380951Y-6083390D01*
X42380951Y-6083390D02*
X42428570Y-6035771D01*
X42428570Y-6035771D02*
X42476189Y-5940533D01*
X42476189Y-5940533D02*
X42476189Y-5845295D01*
X42476189Y-5845295D02*
X42428570Y-5750057D01*
X42428570Y-5750057D02*
X42380951Y-5702438D01*
X42380951Y-5702438D02*
X42285713Y-5654819D01*
X42285713Y-5654819D02*
X42047618Y-5654819D01*
X42047618Y-5654819D02*
X41904761Y-5702438D01*
X40714284Y-6654819D02*
X40714284Y-5654819D01*
X40714284Y-5654819D02*
X40476189Y-5654819D01*
X40476189Y-5654819D02*
X40333332Y-5702438D01*
X40333332Y-5702438D02*
X40238094Y-5797676D01*
X40238094Y-5797676D02*
X40190475Y-5892914D01*
X40190475Y-5892914D02*
X40142856Y-6083390D01*
X40142856Y-6083390D02*
X40142856Y-6226247D01*
X40142856Y-6226247D02*
X40190475Y-6416723D01*
X40190475Y-6416723D02*
X40238094Y-6511961D01*
X40238094Y-6511961D02*
X40333332Y-6607200D01*
X40333332Y-6607200D02*
X40476189Y-6654819D01*
X40476189Y-6654819D02*
X40714284Y-6654819D01*
X39523808Y-5654819D02*
X39333332Y-5654819D01*
X39333332Y-5654819D02*
X39238094Y-5702438D01*
X39238094Y-5702438D02*
X39142856Y-5797676D01*
X39142856Y-5797676D02*
X39095237Y-5988152D01*
X39095237Y-5988152D02*
X39095237Y-6321485D01*
X39095237Y-6321485D02*
X39142856Y-6511961D01*
X39142856Y-6511961D02*
X39238094Y-6607200D01*
X39238094Y-6607200D02*
X39333332Y-6654819D01*
X39333332Y-6654819D02*
X39523808Y-6654819D01*
X39523808Y-6654819D02*
X39619046Y-6607200D01*
X39619046Y-6607200D02*
X39714284Y-6511961D01*
X39714284Y-6511961D02*
X39761903Y-6321485D01*
X39761903Y-6321485D02*
X39761903Y-5988152D01*
X39761903Y-5988152D02*
X39714284Y-5797676D01*
X39714284Y-5797676D02*
X39619046Y-5702438D01*
X39619046Y-5702438D02*
X39523808Y-5654819D01*
X38761903Y-5654819D02*
X38523808Y-6654819D01*
X38523808Y-6654819D02*
X38333332Y-5940533D01*
X38333332Y-5940533D02*
X38142856Y-6654819D01*
X38142856Y-6654819D02*
X37904761Y-5654819D01*
X37523808Y-6654819D02*
X37523808Y-5654819D01*
X37523808Y-5654819D02*
X36952380Y-6654819D01*
X36952380Y-6654819D02*
X36952380Y-5654819D01*
%TO.C,U1*%
D11*
X44390000Y-18690000D02*
X44390000Y-23310000D01*
X44390000Y-23310000D02*
X44590000Y-23310000D01*
X44590000Y-18690000D02*
X44390000Y-18690000D01*
X49410000Y-23310000D02*
X49610000Y-23310000D01*
X49610000Y-18690000D02*
X49410000Y-18690000D01*
X49610000Y-23310000D02*
X49610000Y-18690000D01*
X44590000Y-18050000D02*
X44120000Y-17710000D01*
X44120000Y-18390000D01*
X44590000Y-18050000D01*
G36*
X44590000Y-18050000D02*
G01*
X44120000Y-18390000D01*
X44120000Y-17710000D01*
X44590000Y-18050000D01*
G37*
%TO.C,Q1*%
X74440000Y-20240000D02*
X74440000Y-21760000D01*
X74440000Y-21760000D02*
X75440000Y-21760000D01*
X74490000Y-20240000D02*
X74440000Y-20240000D01*
X76390000Y-20240000D02*
X75610000Y-20240000D01*
X76560000Y-21760000D02*
X77560000Y-21760000D01*
X77560000Y-20240000D02*
X77510000Y-20240000D01*
X77560000Y-21760000D02*
X77560000Y-20240000D01*
X75620000Y-19700000D02*
X75950000Y-19940000D01*
X75950000Y-19460000D01*
X75620000Y-19700000D01*
G36*
X75950000Y-19940000D02*
G01*
X75620000Y-19700000D01*
X75950000Y-19460000D01*
X75950000Y-19940000D01*
G37*
%TO.C,J1*%
X61915000Y-30140000D02*
X64240000Y-30140000D01*
X61915000Y-30990000D02*
X61915000Y-30140000D01*
X61915000Y-34510000D02*
X61915000Y-35360000D01*
X61915000Y-35360000D02*
X70085000Y-35360000D01*
X64240000Y-30140000D02*
X64240000Y-27750000D01*
X70085000Y-30140000D02*
X67760000Y-30140000D01*
X70085000Y-30990000D02*
X70085000Y-30140000D01*
X70085000Y-35360000D02*
X70085000Y-34510000D01*
%TO.C,F1*%
X64397936Y-21090000D02*
X65602064Y-21090000D01*
X64397936Y-22910000D02*
X65602064Y-22910000D01*
%TO.C,R1*%
X53477500Y-20762742D02*
X53477500Y-21237258D01*
X54522500Y-20762742D02*
X54522500Y-21237258D01*
%TO.C,R2*%
X69762742Y-17477500D02*
X70237258Y-17477500D01*
X69762742Y-18522500D02*
X70237258Y-18522500D01*
%TO.C,C1*%
X41490000Y-20859420D02*
X41490000Y-21140580D01*
X42510000Y-20859420D02*
X42510000Y-21140580D01*
%TO.C,J5*%
X72415000Y-30140000D02*
X74740000Y-30140000D01*
X72415000Y-30990000D02*
X72415000Y-30140000D01*
X72415000Y-34510000D02*
X72415000Y-35360000D01*
X72415000Y-35360000D02*
X80585000Y-35360000D01*
X74740000Y-30140000D02*
X74740000Y-27750000D01*
X80585000Y-30140000D02*
X78260000Y-30140000D01*
X80585000Y-30990000D02*
X80585000Y-30140000D01*
X80585000Y-35360000D02*
X80585000Y-34510000D01*
%TO.C,R3*%
X75477500Y-15762742D02*
X75477500Y-16237258D01*
X76522500Y-15762742D02*
X76522500Y-16237258D01*
%TO.C,J3*%
X46415000Y-30140000D02*
X48740000Y-30140000D01*
X46415000Y-30990000D02*
X46415000Y-30140000D01*
X46415000Y-34510000D02*
X46415000Y-35360000D01*
X46415000Y-35360000D02*
X60585000Y-35360000D01*
X48740000Y-30140000D02*
X48740000Y-27750000D01*
X60585000Y-30140000D02*
X58260000Y-30140000D01*
X60585000Y-30990000D02*
X60585000Y-30140000D01*
X60585000Y-35360000D02*
X60585000Y-34510000D01*
%TO.C,C2*%
X81650000Y-24760000D02*
X82900000Y-24760000D01*
X82275000Y-25385000D02*
X82275000Y-24135000D01*
X83140000Y-17704437D02*
X83140000Y-20490000D01*
X83140000Y-17704437D02*
X84204437Y-16640000D01*
X83140000Y-26295563D02*
X83140000Y-23510000D01*
X83140000Y-26295563D02*
X84204437Y-27360000D01*
X84204437Y-16640000D02*
X93860000Y-16640000D01*
X84204437Y-27360000D02*
X93860000Y-27360000D01*
X93860000Y-16640000D02*
X93860000Y-20490000D01*
X93860000Y-27360000D02*
X93860000Y-23510000D01*
%TO.C,J2*%
X2915000Y-30140000D02*
X5240000Y-30140000D01*
X2915000Y-30990000D02*
X2915000Y-30140000D01*
X2915000Y-34510000D02*
X2915000Y-35360000D01*
X2915000Y-35360000D02*
X27085000Y-35360000D01*
X5240000Y-30140000D02*
X5240000Y-27750000D01*
X27085000Y-30140000D02*
X24760000Y-30140000D01*
X27085000Y-30990000D02*
X27085000Y-30140000D01*
X27085000Y-35360000D02*
X27085000Y-34510000D01*
%TO.C,J4*%
X28915000Y-30140000D02*
X31240000Y-30140000D01*
X28915000Y-30990000D02*
X28915000Y-30140000D01*
X28915000Y-34510000D02*
X28915000Y-35360000D01*
X28915000Y-35360000D02*
X45085000Y-35360000D01*
X31240000Y-30140000D02*
X31240000Y-27750000D01*
X45085000Y-30140000D02*
X42760000Y-30140000D01*
X45085000Y-30990000D02*
X45085000Y-30140000D01*
X45085000Y-35360000D02*
X45085000Y-34510000D01*
%TD*%
M02*
