%TF.GenerationSoftware,KiCad,Pcbnew,10.0.5*%
%TF.CreationDate,2026-08-03T21:14:08+04:00*%
%TF.ProjectId,espnoise-carrier,6573706e-6f69-4736-952d-636172726965,rev?*%
%TF.SameCoordinates,Original*%
%TF.FileFunction,Copper,L2,Bot*%
%TF.FilePolarity,Positive*%
%FSLAX46Y46*%
G04 Gerber Fmt 4.6, Leading zero omitted, Abs format (unit mm)*
G04 Created by KiCad (PCBNEW 10.0.5) date 2026-08-03 21:14:08*
%MOMM*%
%LPD*%
G01*
G04 APERTURE LIST*
G04 Aperture macros list*
%AMRoundRect*
0 Rectangle with rounded corners*
0 $1 Rounding radius*
0 $2 $3 $4 $5 $6 $7 $8 $9 X,Y pos of 4 corners*
0 Add a 4 corners polygon primitive as box body*
4,1,4,$2,$3,$4,$5,$6,$7,$8,$9,$2,$3,0*
0 Add four circle primitives for the rounded corners*
1,1,$1+$1,$2,$3*
1,1,$1+$1,$4,$5*
1,1,$1+$1,$6,$7*
1,1,$1+$1,$8,$9*
0 Add four rect primitives between the rounded corners*
20,1,$1+$1,$2,$3,$4,$5,0*
20,1,$1+$1,$4,$5,$6,$7,0*
20,1,$1+$1,$6,$7,$8,$9,0*
20,1,$1+$1,$8,$9,$2,$3,0*%
G04 Aperture macros list end*
%TA.AperFunction,ComponentPad*%
%ADD10R,1.600000X1.600000*%
%TD*%
%TA.AperFunction,ComponentPad*%
%ADD11C,1.600000*%
%TD*%
%TA.AperFunction,SMDPad,CuDef*%
%ADD12RoundRect,0.100000X-0.100000X0.637500X-0.100000X-0.637500X0.100000X-0.637500X0.100000X0.637500X0*%
%TD*%
%TA.AperFunction,SMDPad,CuDef*%
%ADD13RoundRect,0.150000X-0.150000X0.587500X-0.150000X-0.587500X0.150000X-0.587500X0.150000X0.587500X0*%
%TD*%
%TA.AperFunction,SMDPad,CuDef*%
%ADD14RoundRect,0.250000X-0.250000X-2.500000X0.250000X-2.500000X0.250000X2.500000X-0.250000X2.500000X0*%
%TD*%
%TA.AperFunction,SMDPad,CuDef*%
%ADD15RoundRect,0.250000X-0.550000X-1.250000X0.550000X-1.250000X0.550000X1.250000X-0.550000X1.250000X0*%
%TD*%
%TA.AperFunction,SMDPad,CuDef*%
%ADD16RoundRect,0.250000X-0.375000X-0.625000X0.375000X-0.625000X0.375000X0.625000X-0.375000X0.625000X0*%
%TD*%
%TA.AperFunction,SMDPad,CuDef*%
%ADD17RoundRect,0.200000X-0.275000X0.200000X-0.275000X-0.200000X0.275000X-0.200000X0.275000X0.200000X0*%
%TD*%
%TA.AperFunction,SMDPad,CuDef*%
%ADD18RoundRect,0.200000X-0.200000X-0.275000X0.200000X-0.275000X0.200000X0.275000X-0.200000X0.275000X0*%
%TD*%
%TA.AperFunction,SMDPad,CuDef*%
%ADD19RoundRect,0.225000X-0.250000X0.225000X-0.250000X-0.225000X0.250000X-0.225000X0.250000X0.225000X0*%
%TD*%
%TA.AperFunction,SMDPad,CuDef*%
%ADD20RoundRect,0.250000X-1.950000X-1.000000X1.950000X-1.000000X1.950000X1.000000X-1.950000X1.000000X0*%
%TD*%
%TA.AperFunction,ViaPad*%
%ADD21C,0.700000*%
%TD*%
%TA.AperFunction,ViaPad*%
%ADD22C,0.600000*%
%TD*%
%TA.AperFunction,Conductor*%
%ADD23C,0.900000*%
%TD*%
%TA.AperFunction,Conductor*%
%ADD24C,0.800000*%
%TD*%
%TA.AperFunction,Conductor*%
%ADD25C,0.700000*%
%TD*%
%TA.AperFunction,Conductor*%
%ADD26C,0.350000*%
%TD*%
%TA.AperFunction,Conductor*%
%ADD27C,0.450000*%
%TD*%
%TA.AperFunction,Conductor*%
%ADD28C,0.250000*%
%TD*%
%TA.AperFunction,Conductor*%
%ADD29C,0.500000*%
%TD*%
G04 APERTURE END LIST*
D10*
%TO.P,SW2,1*%
%TO.N,+5V_BUZZER_SW*%
X20900000Y-8900000D03*
D11*
%TO.P,SW2,2*%
%TO.N,+5V_PERIPH*%
X22900000Y-8900000D03*
%TO.P,SW2,3*%
%TO.N,N/C*%
X24900000Y-8900000D03*
%TO.P,SW2,4*%
X20900000Y-13900000D03*
%TO.P,SW2,5*%
X22900000Y-13900000D03*
%TO.P,SW2,6*%
X24900000Y-13900000D03*
%TD*%
D10*
%TO.P,SW1,1*%
%TO.N,N/C*%
X50900000Y-7600000D03*
D11*
%TO.P,SW1,2*%
%TO.N,MUTE_N*%
X52900000Y-7600000D03*
%TO.P,SW1,3*%
%TO.N,GND*%
X54900000Y-7600000D03*
%TO.P,SW1,4*%
%TO.N,N/C*%
X50900000Y-12600000D03*
%TO.P,SW1,5*%
X52900000Y-12600000D03*
%TO.P,SW1,6*%
X54900000Y-12600000D03*
%TD*%
D12*
%TO.P,U1,1*%
%TO.N,GND*%
X45050000Y-18137500D03*
%TO.P,U1,2*%
%TO.N,LED_DATA_3V3*%
X45700000Y-18137500D03*
%TO.P,U1,3*%
%TO.N,LED_DATA_5V_RAW*%
X46350000Y-18137500D03*
%TO.P,U1,4*%
%TO.N,+5V_PERIPH*%
X47000000Y-18137500D03*
%TO.P,U1,5*%
%TO.N,GND*%
X47650000Y-18137500D03*
%TO.P,U1,6*%
%TO.N,N/C*%
X48300000Y-18137500D03*
%TO.P,U1,7*%
%TO.N,GND*%
X48950000Y-18137500D03*
%TO.P,U1,8*%
%TO.N,N/C*%
X48950000Y-23862500D03*
%TO.P,U1,9*%
%TO.N,GND*%
X48300000Y-23862500D03*
%TO.P,U1,10*%
%TO.N,+5V_PERIPH*%
X47650000Y-23862500D03*
%TO.P,U1,11*%
%TO.N,N/C*%
X47000000Y-23862500D03*
%TO.P,U1,12*%
%TO.N,GND*%
X46350000Y-23862500D03*
%TO.P,U1,13*%
%TO.N,+5V_PERIPH*%
X45700000Y-23862500D03*
%TO.P,U1,14*%
X45050000Y-23862500D03*
%TD*%
D13*
%TO.P,Q1,1*%
%TO.N,BUZZER_BASE*%
X75050000Y-20062500D03*
%TO.P,Q1,2*%
%TO.N,GND*%
X76950000Y-20062500D03*
%TO.P,Q1,3*%
%TO.N,BUZZER_COLLECTOR*%
X76000000Y-21937500D03*
%TD*%
D14*
%TO.P,J1,1*%
%TO.N,+5V_IN*%
X65000000Y-30500000D03*
%TO.P,J1,2*%
%TO.N,GND*%
X67000000Y-30500000D03*
D15*
%TO.P,J1,MP*%
%TO.N,N/C*%
X62600000Y-32750000D03*
X69400000Y-32750000D03*
%TD*%
D16*
%TO.P,F1,1*%
%TO.N,+5V_IN*%
X63600000Y-22000000D03*
%TO.P,F1,2*%
%TO.N,+5V_PERIPH*%
X66400000Y-22000000D03*
%TD*%
D17*
%TO.P,R1,1*%
%TO.N,LED_DATA_5V_RAW*%
X54000000Y-20175000D03*
%TO.P,R1,2*%
%TO.N,LED_DATA_5V*%
X54000000Y-21825000D03*
%TD*%
D18*
%TO.P,R2,1*%
%TO.N,BUZZER_PWM*%
X69175000Y-18000000D03*
%TO.P,R2,2*%
%TO.N,BUZZER_BASE*%
X70825000Y-18000000D03*
%TD*%
D19*
%TO.P,C1,1*%
%TO.N,+5V_PERIPH*%
X42000000Y-20225000D03*
%TO.P,C1,2*%
%TO.N,GND*%
X42000000Y-21775000D03*
%TD*%
D14*
%TO.P,J5,1*%
%TO.N,+5V_BUZZER_SW*%
X75500000Y-30500000D03*
%TO.P,J5,2*%
%TO.N,BUZZER_COLLECTOR*%
X77500000Y-30500000D03*
D15*
%TO.P,J5,MP*%
%TO.N,N/C*%
X73100000Y-32750000D03*
X79900000Y-32750000D03*
%TD*%
D17*
%TO.P,R3,1*%
%TO.N,BUZZER_BASE*%
X76000000Y-15175000D03*
%TO.P,R3,2*%
%TO.N,GND*%
X76000000Y-16825000D03*
%TD*%
D14*
%TO.P,J3,1*%
%TO.N,+5V_PERIPH*%
X49500000Y-30500000D03*
%TO.P,J3,2*%
%TO.N,GND*%
X51500000Y-30500000D03*
%TO.P,J3,3*%
%TO.N,LED_DATA_5V*%
X53500000Y-30500000D03*
%TO.P,J3,4*%
%TO.N,+5V_PERIPH*%
X55500000Y-30500000D03*
%TO.P,J3,5*%
%TO.N,GND*%
X57500000Y-30500000D03*
D15*
%TO.P,J3,MP*%
%TO.N,N/C*%
X47100000Y-32750000D03*
X59900000Y-32750000D03*
%TD*%
D20*
%TO.P,C2,1*%
%TO.N,+5V_PERIPH*%
X84300000Y-22000000D03*
%TO.P,C2,2*%
%TO.N,GND*%
X92700000Y-22000000D03*
%TD*%
D14*
%TO.P,J2,1*%
%TO.N,+5V_IN*%
X6000000Y-30500000D03*
%TO.P,J2,2*%
%TO.N,GND*%
X8000000Y-30500000D03*
%TO.P,J2,3*%
%TO.N,+3V3*%
X10000000Y-30500000D03*
%TO.P,J2,4*%
%TO.N,MIC_SCK*%
X12000000Y-30500000D03*
%TO.P,J2,5*%
%TO.N,MIC_WS*%
X14000000Y-30500000D03*
%TO.P,J2,6*%
%TO.N,MIC_SD*%
X16000000Y-30500000D03*
%TO.P,J2,7*%
%TO.N,LED_DATA_3V3*%
X18000000Y-30500000D03*
%TO.P,J2,8*%
%TO.N,BUZZER_PWM*%
X20000000Y-30500000D03*
%TO.P,J2,9*%
%TO.N,MUTE_N*%
X22000000Y-30500000D03*
%TO.P,J2,10*%
%TO.N,GND*%
X24000000Y-30500000D03*
D15*
%TO.P,J2,MP*%
%TO.N,N/C*%
X3600000Y-32750000D03*
X26400000Y-32750000D03*
%TD*%
D14*
%TO.P,J4,1*%
%TO.N,+3V3*%
X32000000Y-30500000D03*
%TO.P,J4,2*%
%TO.N,GND*%
X34000000Y-30500000D03*
%TO.P,J4,3*%
%TO.N,MIC_SCK*%
X36000000Y-30500000D03*
%TO.P,J4,4*%
%TO.N,MIC_WS*%
X38000000Y-30500000D03*
%TO.P,J4,5*%
%TO.N,MIC_SD*%
X40000000Y-30500000D03*
%TO.P,J4,6*%
%TO.N,GND*%
X42000000Y-30500000D03*
D15*
%TO.P,J4,MP*%
%TO.N,N/C*%
X29600000Y-32750000D03*
X44400000Y-32750000D03*
%TD*%
D21*
%TO.N,+5V_IN*%
X62000000Y-28000000D03*
X63600000Y-20000000D03*
X6000000Y-34500000D03*
X65000000Y-34500000D03*
%TO.N,+5V_BUZZER_SW*%
X74000000Y-30000000D03*
%TO.N,MIC_SCK*%
X12000000Y-33500000D03*
X36000000Y-33500000D03*
%TO.N,MIC_SD*%
X16000000Y-29000000D03*
X40000000Y-29000000D03*
D22*
%TO.N,LED_DATA_3V3*%
X45700000Y-16000000D03*
D21*
X18000000Y-29000000D03*
%TO.N,LED_DATA_5V*%
X56000000Y-21830000D03*
X53500000Y-29000000D03*
%TO.N,BUZZER_PWM*%
X20000000Y-29000000D03*
X68000000Y-18000000D03*
%TO.N,BUZZER_COLLECTOR*%
X78000000Y-21940000D03*
X77500000Y-28000000D03*
%TO.N,MUTE_N*%
X22000000Y-33500000D03*
%TD*%
%TO.N,+5V_IN*%
D23*
X65000000Y-34500000D02*
X65000000Y-30500000D01*
X65000000Y-30500000D02*
X62000000Y-30500000D01*
X62000000Y-30500000D02*
X62000000Y-28000000D01*
X6000000Y-30500000D02*
X6000000Y-34500000D01*
X63600000Y-20000000D02*
X63600000Y-22000000D01*
%TO.N,+5V_PERIPH*%
D24*
X66400000Y-22000000D02*
X66400000Y-26200000D01*
D25*
X61000000Y-26200000D02*
X61000000Y-10100000D01*
D26*
X47000000Y-18137500D02*
X47000000Y-16000000D01*
D25*
X22900000Y-5500000D02*
X22900000Y-8900000D01*
X61000000Y-10100000D02*
X27000000Y-10100000D01*
D27*
X42000000Y-26200000D02*
X40000000Y-26200000D01*
D24*
X66400000Y-26200000D02*
X42000000Y-26200000D01*
X49500000Y-26200000D02*
X49500000Y-30500000D01*
D26*
X47000000Y-16000000D02*
X51000000Y-16000000D01*
X45700000Y-26200000D02*
X45700000Y-23862500D01*
D27*
X40000000Y-26200000D02*
X40000000Y-20230000D01*
D24*
X66400000Y-22000000D02*
X84300000Y-26200000D01*
D26*
X47650000Y-26200000D02*
X47650000Y-23862500D01*
X51000000Y-16000000D02*
X51000000Y-26200000D01*
D25*
X27000000Y-5500000D02*
X22900000Y-5500000D01*
D24*
X55500000Y-26200000D02*
X55500000Y-30500000D01*
D25*
X27000000Y-10100000D02*
X27000000Y-5500000D01*
D24*
X84300000Y-26200000D02*
X84300000Y-22000000D01*
D26*
X45050000Y-26200000D02*
X45050000Y-23862500D01*
D27*
X40000000Y-20230000D02*
X42000000Y-20225000D01*
%TO.N,+5V_BUZZER_SW*%
D25*
X74000000Y-30000000D02*
X75500000Y-30500000D01*
%TO.N,+3V3*%
D28*
X10000000Y-36000000D02*
X32000000Y-36000000D01*
X10000000Y-30500000D02*
X10000000Y-36000000D01*
X32000000Y-36000000D02*
X32000000Y-30500000D01*
%TO.N,MIC_SCK*%
X36000000Y-33500000D02*
X36000000Y-30500000D01*
X12000000Y-30500000D02*
X12000000Y-33500000D01*
%TO.N,MIC_WS*%
X14000000Y-25000000D02*
X38000000Y-25000000D01*
X38000000Y-25000000D02*
X38000000Y-30500000D01*
X14000000Y-30500000D02*
X14000000Y-25000000D01*
%TO.N,MIC_SD*%
X40000000Y-29000000D02*
X40000000Y-30500000D01*
X16000000Y-30500000D02*
X16000000Y-29000000D01*
%TO.N,LED_DATA_3V3*%
X45700000Y-16000000D02*
X45700000Y-18137500D01*
X18000000Y-30500000D02*
X18000000Y-29000000D01*
%TO.N,LED_DATA_5V_RAW*%
X46350000Y-14500000D02*
X54000000Y-14500000D01*
X54000000Y-14500000D02*
X54000000Y-20175000D01*
X46350000Y-18137500D02*
X46350000Y-14500000D01*
%TO.N,LED_DATA_5V*%
X54000000Y-21825000D02*
X56000000Y-21830000D01*
X53500000Y-29000000D02*
X53500000Y-30500000D01*
%TO.N,BUZZER_PWM*%
X68000000Y-18000000D02*
X69175000Y-18000000D01*
X20000000Y-30500000D02*
X20000000Y-29000000D01*
%TO.N,BUZZER_BASE*%
X70825000Y-18000000D02*
X75050000Y-20062500D01*
X75050000Y-20062500D02*
X73500000Y-16000000D01*
X73500000Y-16000000D02*
X76000000Y-15175000D01*
%TO.N,BUZZER_COLLECTOR*%
X76000000Y-21937500D02*
X78000000Y-21940000D01*
D29*
X77500000Y-28000000D02*
X77500000Y-30500000D01*
%TO.N,MUTE_N*%
D28*
X22000000Y-30500000D02*
X22000000Y-33500000D01*
%TD*%
%TA.AperFunction,Conductor*%
%TO.N,GND*%
G36*
X95458691Y-519407D02*
G01*
X95494655Y-568907D01*
X95499500Y-599500D01*
X95499500Y-37400500D01*
X95480593Y-37458691D01*
X95431093Y-37494655D01*
X95400500Y-37499500D01*
X599500Y-37499500D01*
X541309Y-37480593D01*
X505345Y-37431093D01*
X500500Y-37400500D01*
X500500Y-31452129D01*
X2549500Y-31452129D01*
X2549500Y-34047866D01*
X2549501Y-34047870D01*
X2555908Y-34107480D01*
X2555909Y-34107485D01*
X2606202Y-34242329D01*
X2692450Y-34357541D01*
X2692454Y-34357546D01*
X2692457Y-34357548D01*
X2692458Y-34357549D01*
X2807670Y-34443797D01*
X2942511Y-34494089D01*
X2942512Y-34494089D01*
X2942517Y-34494091D01*
X3002127Y-34500500D01*
X4197872Y-34500499D01*
X4257483Y-34494091D01*
X4324907Y-34468943D01*
X4392329Y-34443797D01*
X4392329Y-34443796D01*
X4392331Y-34443796D01*
X4507546Y-34357546D01*
X4593796Y-34242331D01*
X4644091Y-34107483D01*
X4650500Y-34047873D01*
X4650499Y-31452128D01*
X4644091Y-31392517D01*
X4644089Y-31392511D01*
X4593797Y-31257670D01*
X4507549Y-31142458D01*
X4507548Y-31142457D01*
X4507546Y-31142454D01*
X4497545Y-31134967D01*
X4392329Y-31056202D01*
X4257488Y-31005910D01*
X4257483Y-31005909D01*
X4257481Y-31005908D01*
X4257477Y-31005908D01*
X4226249Y-31002550D01*
X4197873Y-30999500D01*
X4197870Y-30999500D01*
X3002133Y-30999500D01*
X3002129Y-30999500D01*
X3002128Y-30999501D01*
X2994949Y-31000272D01*
X2942519Y-31005908D01*
X2942514Y-31005909D01*
X2807670Y-31056202D01*
X2692458Y-31142450D01*
X2692450Y-31142458D01*
X2606202Y-31257670D01*
X2555910Y-31392511D01*
X2555908Y-31392522D01*
X2549500Y-31452129D01*
X500500Y-31452129D01*
X500500Y-27952129D01*
X5249500Y-27952129D01*
X5249500Y-33047866D01*
X5249501Y-33047870D01*
X5255908Y-33107480D01*
X5255909Y-33107482D01*
X5293258Y-33207620D01*
X5299500Y-33242217D01*
X5299500Y-34568995D01*
X5326420Y-34704327D01*
X5326420Y-34704329D01*
X5379222Y-34831806D01*
X5379228Y-34831817D01*
X5455885Y-34946541D01*
X5553458Y-35044114D01*
X5668182Y-35120771D01*
X5668193Y-35120777D01*
X5715283Y-35140282D01*
X5795672Y-35173580D01*
X5931007Y-35200500D01*
X5931008Y-35200500D01*
X6068992Y-35200500D01*
X6068993Y-35200500D01*
X6204328Y-35173580D01*
X6331811Y-35120775D01*
X6446542Y-35044114D01*
X6544114Y-34946542D01*
X6620775Y-34831811D01*
X6673580Y-34704328D01*
X6700500Y-34568993D01*
X6700500Y-33242217D01*
X6706742Y-33207620D01*
X6744091Y-33107483D01*
X6750500Y-33047873D01*
X6750499Y-27952129D01*
X9249500Y-27952129D01*
X9249500Y-33047866D01*
X9249501Y-33047870D01*
X9255908Y-33107480D01*
X9255909Y-33107485D01*
X9306202Y-33242329D01*
X9381381Y-33342755D01*
X9392454Y-33357546D01*
X9392457Y-33357548D01*
X9392458Y-33357549D01*
X9507667Y-33443795D01*
X9507668Y-33443795D01*
X9507669Y-33443796D01*
X9560098Y-33463350D01*
X9608011Y-33501400D01*
X9624500Y-33556108D01*
X9624500Y-36049435D01*
X9647067Y-36133657D01*
X9650091Y-36144942D01*
X9699523Y-36230559D01*
X9699525Y-36230562D01*
X9769438Y-36300475D01*
X9769440Y-36300476D01*
X9855058Y-36349908D01*
X9855056Y-36349908D01*
X9855060Y-36349909D01*
X9855062Y-36349910D01*
X9950565Y-36375500D01*
X9950567Y-36375500D01*
X32049433Y-36375500D01*
X32049435Y-36375500D01*
X32144938Y-36349910D01*
X32144940Y-36349908D01*
X32144942Y-36349908D01*
X32170377Y-36335222D01*
X32230562Y-36300475D01*
X32300475Y-36230562D01*
X32349910Y-36144938D01*
X32375500Y-36049435D01*
X32375500Y-33556108D01*
X32394407Y-33497917D01*
X32439901Y-33463350D01*
X32492331Y-33443796D01*
X32607546Y-33357546D01*
X32693796Y-33242331D01*
X32706743Y-33207620D01*
X32744089Y-33107488D01*
X32744090Y-33107485D01*
X32744091Y-33107483D01*
X32750500Y-33047873D01*
X32750499Y-27952129D01*
X35249500Y-27952129D01*
X35249500Y-33047866D01*
X35249501Y-33047870D01*
X35255908Y-33107480D01*
X35255909Y-33107485D01*
X35306202Y-33242329D01*
X35381381Y-33342755D01*
X35401118Y-33400670D01*
X35400282Y-33415001D01*
X35399500Y-33420943D01*
X35399500Y-33579057D01*
X35440423Y-33731784D01*
X35519480Y-33868716D01*
X35631284Y-33980520D01*
X35768216Y-34059577D01*
X35920943Y-34100500D01*
X35920945Y-34100500D01*
X36079055Y-34100500D01*
X36079057Y-34100500D01*
X36231784Y-34059577D01*
X36368716Y-33980520D01*
X36480520Y-33868716D01*
X36559577Y-33731784D01*
X36600500Y-33579057D01*
X36600500Y-33420943D01*
X36600498Y-33420938D01*
X36599718Y-33415010D01*
X36610866Y-33354848D01*
X36618614Y-33342760D01*
X36693796Y-33242331D01*
X36706743Y-33207620D01*
X36744089Y-33107488D01*
X36744090Y-33107485D01*
X36744091Y-33107483D01*
X36750500Y-33047873D01*
X36750499Y-27952128D01*
X36744091Y-27892517D01*
X36744089Y-27892511D01*
X36693797Y-27757670D01*
X36607549Y-27642458D01*
X36607548Y-27642457D01*
X36607546Y-27642454D01*
X36607541Y-27642450D01*
X36492329Y-27556202D01*
X36357488Y-27505910D01*
X36357483Y-27505909D01*
X36357481Y-27505908D01*
X36357477Y-27505908D01*
X36321888Y-27502082D01*
X36297873Y-27499500D01*
X36297870Y-27499500D01*
X35702133Y-27499500D01*
X35702129Y-27499500D01*
X35702128Y-27499501D01*
X35694949Y-27500272D01*
X35642519Y-27505908D01*
X35642514Y-27505909D01*
X35507670Y-27556202D01*
X35392458Y-27642450D01*
X35392450Y-27642458D01*
X35306202Y-27757670D01*
X35255910Y-27892511D01*
X35255908Y-27892522D01*
X35249500Y-27952129D01*
X32750499Y-27952129D01*
X32750499Y-27952128D01*
X32744091Y-27892517D01*
X32744089Y-27892511D01*
X32693797Y-27757670D01*
X32607549Y-27642458D01*
X32607548Y-27642457D01*
X32607546Y-27642454D01*
X32607541Y-27642450D01*
X32492329Y-27556202D01*
X32357488Y-27505910D01*
X32357483Y-27505909D01*
X32357481Y-27505908D01*
X32357477Y-27505908D01*
X32321888Y-27502082D01*
X32297873Y-27499500D01*
X32297870Y-27499500D01*
X31702133Y-27499500D01*
X31702129Y-27499500D01*
X31702128Y-27499501D01*
X31694949Y-27500272D01*
X31642519Y-27505908D01*
X31642514Y-27505909D01*
X31507670Y-27556202D01*
X31392458Y-27642450D01*
X31392450Y-27642458D01*
X31306202Y-27757670D01*
X31255910Y-27892511D01*
X31255908Y-27892522D01*
X31249500Y-27952129D01*
X31249500Y-33047866D01*
X31249501Y-33047870D01*
X31255908Y-33107480D01*
X31255909Y-33107485D01*
X31306202Y-33242329D01*
X31381381Y-33342755D01*
X31392454Y-33357546D01*
X31392457Y-33357548D01*
X31392458Y-33357549D01*
X31507667Y-33443795D01*
X31507668Y-33443795D01*
X31507669Y-33443796D01*
X31560098Y-33463350D01*
X31608011Y-33501400D01*
X31624500Y-33556108D01*
X31624500Y-35525500D01*
X31605593Y-35583691D01*
X31556093Y-35619655D01*
X31525500Y-35624500D01*
X10474500Y-35624500D01*
X10416309Y-35605593D01*
X10380345Y-35556093D01*
X10375500Y-35525500D01*
X10375500Y-33556108D01*
X10394407Y-33497917D01*
X10439901Y-33463350D01*
X10492331Y-33443796D01*
X10607546Y-33357546D01*
X10693796Y-33242331D01*
X10706743Y-33207620D01*
X10744089Y-33107488D01*
X10744090Y-33107485D01*
X10744091Y-33107483D01*
X10750500Y-33047873D01*
X10750499Y-27952129D01*
X11249500Y-27952129D01*
X11249500Y-33047866D01*
X11249501Y-33047870D01*
X11255908Y-33107480D01*
X11255909Y-33107485D01*
X11306202Y-33242329D01*
X11381381Y-33342755D01*
X11401118Y-33400670D01*
X11400282Y-33415001D01*
X11399500Y-33420943D01*
X11399500Y-33579057D01*
X11440423Y-33731784D01*
X11519480Y-33868716D01*
X11631284Y-33980520D01*
X11768216Y-34059577D01*
X11920943Y-34100500D01*
X11920945Y-34100500D01*
X12079055Y-34100500D01*
X12079057Y-34100500D01*
X12231784Y-34059577D01*
X12368716Y-33980520D01*
X12480520Y-33868716D01*
X12559577Y-33731784D01*
X12600500Y-33579057D01*
X12600500Y-33420943D01*
X12600498Y-33420938D01*
X12599718Y-33415010D01*
X12610866Y-33354848D01*
X12618614Y-33342760D01*
X12693796Y-33242331D01*
X12706743Y-33207620D01*
X12744089Y-33107488D01*
X12744090Y-33107485D01*
X12744091Y-33107483D01*
X12750500Y-33047873D01*
X12750499Y-27952129D01*
X13249500Y-27952129D01*
X13249500Y-33047866D01*
X13249501Y-33047870D01*
X13255908Y-33107480D01*
X13255909Y-33107485D01*
X13306202Y-33242329D01*
X13381381Y-33342755D01*
X13392454Y-33357546D01*
X13392457Y-33357548D01*
X13392458Y-33357549D01*
X13507670Y-33443797D01*
X13642511Y-33494089D01*
X13642512Y-33494089D01*
X13642517Y-33494091D01*
X13702127Y-33500500D01*
X14297872Y-33500499D01*
X14357483Y-33494091D01*
X14439907Y-33463349D01*
X14492329Y-33443797D01*
X14492329Y-33443796D01*
X14492331Y-33443796D01*
X14607546Y-33357546D01*
X14693796Y-33242331D01*
X14706743Y-33207620D01*
X14744089Y-33107488D01*
X14744090Y-33107485D01*
X14744091Y-33107483D01*
X14750500Y-33047873D01*
X14750499Y-27952129D01*
X15249500Y-27952129D01*
X15249500Y-33047866D01*
X15249501Y-33047870D01*
X15255908Y-33107480D01*
X15255909Y-33107485D01*
X15306202Y-33242329D01*
X15381381Y-33342755D01*
X15392454Y-33357546D01*
X15392457Y-33357548D01*
X15392458Y-33357549D01*
X15507670Y-33443797D01*
X15642511Y-33494089D01*
X15642512Y-33494089D01*
X15642517Y-33494091D01*
X15702127Y-33500500D01*
X16297872Y-33500499D01*
X16357483Y-33494091D01*
X16439907Y-33463349D01*
X16492329Y-33443797D01*
X16492329Y-33443796D01*
X16492331Y-33443796D01*
X16607546Y-33357546D01*
X16693796Y-33242331D01*
X16706743Y-33207620D01*
X16744089Y-33107488D01*
X16744090Y-33107485D01*
X16744091Y-33107483D01*
X16750500Y-33047873D01*
X16750499Y-27952129D01*
X17249500Y-27952129D01*
X17249500Y-33047866D01*
X17249501Y-33047870D01*
X17255908Y-33107480D01*
X17255909Y-33107485D01*
X17306202Y-33242329D01*
X17381381Y-33342755D01*
X17392454Y-33357546D01*
X17392457Y-33357548D01*
X17392458Y-33357549D01*
X17507670Y-33443797D01*
X17642511Y-33494089D01*
X17642512Y-33494089D01*
X17642517Y-33494091D01*
X17702127Y-33500500D01*
X18297872Y-33500499D01*
X18357483Y-33494091D01*
X18439907Y-33463349D01*
X18492329Y-33443797D01*
X18492329Y-33443796D01*
X18492331Y-33443796D01*
X18607546Y-33357546D01*
X18693796Y-33242331D01*
X18706743Y-33207620D01*
X18744089Y-33107488D01*
X18744090Y-33107485D01*
X18744091Y-33107483D01*
X18750500Y-33047873D01*
X18750499Y-27952129D01*
X19249500Y-27952129D01*
X19249500Y-33047866D01*
X19249501Y-33047870D01*
X19255908Y-33107480D01*
X19255909Y-33107485D01*
X19306202Y-33242329D01*
X19381381Y-33342755D01*
X19392454Y-33357546D01*
X19392457Y-33357548D01*
X19392458Y-33357549D01*
X19507670Y-33443797D01*
X19642511Y-33494089D01*
X19642512Y-33494089D01*
X19642517Y-33494091D01*
X19702127Y-33500500D01*
X20297872Y-33500499D01*
X20357483Y-33494091D01*
X20439907Y-33463349D01*
X20492329Y-33443797D01*
X20492329Y-33443796D01*
X20492331Y-33443796D01*
X20607546Y-33357546D01*
X20693796Y-33242331D01*
X20706743Y-33207620D01*
X20744089Y-33107488D01*
X20744090Y-33107485D01*
X20744091Y-33107483D01*
X20750500Y-33047873D01*
X20750499Y-27952129D01*
X21249500Y-27952129D01*
X21249500Y-33047866D01*
X21249501Y-33047870D01*
X21255908Y-33107480D01*
X21255909Y-33107485D01*
X21306202Y-33242329D01*
X21381381Y-33342755D01*
X21401118Y-33400670D01*
X21400282Y-33415001D01*
X21399500Y-33420943D01*
X21399500Y-33579057D01*
X21440423Y-33731784D01*
X21519480Y-33868716D01*
X21631284Y-33980520D01*
X21768216Y-34059577D01*
X21920943Y-34100500D01*
X21920945Y-34100500D01*
X22079055Y-34100500D01*
X22079057Y-34100500D01*
X22231784Y-34059577D01*
X22368716Y-33980520D01*
X22480520Y-33868716D01*
X22559577Y-33731784D01*
X22600500Y-33579057D01*
X22600500Y-33420943D01*
X22600498Y-33420938D01*
X22599718Y-33415010D01*
X22610866Y-33354848D01*
X22618614Y-33342760D01*
X22693796Y-33242331D01*
X22706743Y-33207620D01*
X22744089Y-33107488D01*
X22744090Y-33107485D01*
X22744091Y-33107483D01*
X22750500Y-33047873D01*
X22750499Y-31452129D01*
X25349500Y-31452129D01*
X25349500Y-34047866D01*
X25349501Y-34047870D01*
X25355908Y-34107480D01*
X25355909Y-34107485D01*
X25406202Y-34242329D01*
X25492450Y-34357541D01*
X25492454Y-34357546D01*
X25492457Y-34357548D01*
X25492458Y-34357549D01*
X25607670Y-34443797D01*
X25742511Y-34494089D01*
X25742512Y-34494089D01*
X25742517Y-34494091D01*
X25802127Y-34500500D01*
X26997872Y-34500499D01*
X27057483Y-34494091D01*
X27124907Y-34468943D01*
X27192329Y-34443797D01*
X27192329Y-34443796D01*
X27192331Y-34443796D01*
X27307546Y-34357546D01*
X27393796Y-34242331D01*
X27444091Y-34107483D01*
X27450500Y-34047873D01*
X27450499Y-31452129D01*
X28549500Y-31452129D01*
X28549500Y-34047866D01*
X28549501Y-34047870D01*
X28555908Y-34107480D01*
X28555909Y-34107485D01*
X28606202Y-34242329D01*
X28692450Y-34357541D01*
X28692454Y-34357546D01*
X28692457Y-34357548D01*
X28692458Y-34357549D01*
X28807670Y-34443797D01*
X28942511Y-34494089D01*
X28942512Y-34494089D01*
X28942517Y-34494091D01*
X29002127Y-34500500D01*
X30197872Y-34500499D01*
X30257483Y-34494091D01*
X30324907Y-34468943D01*
X30392329Y-34443797D01*
X30392329Y-34443796D01*
X30392331Y-34443796D01*
X30507546Y-34357546D01*
X30593796Y-34242331D01*
X30644091Y-34107483D01*
X30650500Y-34047873D01*
X30650499Y-31452128D01*
X30644091Y-31392517D01*
X30644089Y-31392511D01*
X30593797Y-31257670D01*
X30507549Y-31142458D01*
X30507548Y-31142457D01*
X30507546Y-31142454D01*
X30497545Y-31134967D01*
X30392329Y-31056202D01*
X30257488Y-31005910D01*
X30257483Y-31005909D01*
X30257481Y-31005908D01*
X30257477Y-31005908D01*
X30226249Y-31002550D01*
X30197873Y-30999500D01*
X30197870Y-30999500D01*
X29002133Y-30999500D01*
X29002129Y-30999500D01*
X29002128Y-30999501D01*
X28994949Y-31000272D01*
X28942519Y-31005908D01*
X28942514Y-31005909D01*
X28807670Y-31056202D01*
X28692458Y-31142450D01*
X28692450Y-31142458D01*
X28606202Y-31257670D01*
X28555910Y-31392511D01*
X28555908Y-31392522D01*
X28549500Y-31452129D01*
X27450499Y-31452129D01*
X27450499Y-31452128D01*
X27444091Y-31392517D01*
X27444089Y-31392511D01*
X27393797Y-31257670D01*
X27307549Y-31142458D01*
X27307548Y-31142457D01*
X27307546Y-31142454D01*
X27297545Y-31134967D01*
X27192329Y-31056202D01*
X27057488Y-31005910D01*
X27057483Y-31005909D01*
X27057481Y-31005908D01*
X27057477Y-31005908D01*
X27026249Y-31002550D01*
X26997873Y-30999500D01*
X26997870Y-30999500D01*
X25802133Y-30999500D01*
X25802129Y-30999500D01*
X25802128Y-30999501D01*
X25794949Y-31000272D01*
X25742519Y-31005908D01*
X25742514Y-31005909D01*
X25607670Y-31056202D01*
X25492458Y-31142450D01*
X25492450Y-31142458D01*
X25406202Y-31257670D01*
X25355910Y-31392511D01*
X25355908Y-31392522D01*
X25349500Y-31452129D01*
X22750499Y-31452129D01*
X22750499Y-30480520D01*
X22750499Y-27952133D01*
X22750499Y-27952128D01*
X22744091Y-27892517D01*
X22744089Y-27892511D01*
X22693797Y-27757670D01*
X22607549Y-27642458D01*
X22607548Y-27642457D01*
X22607546Y-27642454D01*
X22607541Y-27642450D01*
X22492329Y-27556202D01*
X22357488Y-27505910D01*
X22357483Y-27505909D01*
X22357481Y-27505908D01*
X22357477Y-27505908D01*
X22321888Y-27502082D01*
X22297873Y-27499500D01*
X22297870Y-27499500D01*
X21702133Y-27499500D01*
X21702129Y-27499500D01*
X21702128Y-27499501D01*
X21694949Y-27500272D01*
X21642519Y-27505908D01*
X21642514Y-27505909D01*
X21507670Y-27556202D01*
X21392458Y-27642450D01*
X21392450Y-27642458D01*
X21306202Y-27757670D01*
X21255910Y-27892511D01*
X21255908Y-27892522D01*
X21249500Y-27952129D01*
X20750499Y-27952129D01*
X20750499Y-27952128D01*
X20744091Y-27892517D01*
X20744089Y-27892511D01*
X20693797Y-27757670D01*
X20607549Y-27642458D01*
X20607548Y-27642457D01*
X20607546Y-27642454D01*
X20607541Y-27642450D01*
X20492329Y-27556202D01*
X20357488Y-27505910D01*
X20357483Y-27505909D01*
X20357481Y-27505908D01*
X20357477Y-27505908D01*
X20321888Y-27502082D01*
X20297873Y-27499500D01*
X20297870Y-27499500D01*
X19702133Y-27499500D01*
X19702129Y-27499500D01*
X19702128Y-27499501D01*
X19694949Y-27500272D01*
X19642519Y-27505908D01*
X19642514Y-27505909D01*
X19507670Y-27556202D01*
X19392458Y-27642450D01*
X19392450Y-27642458D01*
X19306202Y-27757670D01*
X19255910Y-27892511D01*
X19255908Y-27892522D01*
X19249500Y-27952129D01*
X18750499Y-27952129D01*
X18750499Y-27952128D01*
X18744091Y-27892517D01*
X18744089Y-27892511D01*
X18693797Y-27757670D01*
X18607549Y-27642458D01*
X18607548Y-27642457D01*
X18607546Y-27642454D01*
X18607541Y-27642450D01*
X18492329Y-27556202D01*
X18357488Y-27505910D01*
X18357483Y-27505909D01*
X18357481Y-27505908D01*
X18357477Y-27505908D01*
X18321888Y-27502082D01*
X18297873Y-27499500D01*
X18297870Y-27499500D01*
X17702133Y-27499500D01*
X17702129Y-27499500D01*
X17702128Y-27499501D01*
X17694949Y-27500272D01*
X17642519Y-27505908D01*
X17642514Y-27505909D01*
X17507670Y-27556202D01*
X17392458Y-27642450D01*
X17392450Y-27642458D01*
X17306202Y-27757670D01*
X17255910Y-27892511D01*
X17255908Y-27892522D01*
X17249500Y-27952129D01*
X16750499Y-27952129D01*
X16750499Y-27952128D01*
X16744091Y-27892517D01*
X16744089Y-27892511D01*
X16693797Y-27757670D01*
X16607549Y-27642458D01*
X16607548Y-27642457D01*
X16607546Y-27642454D01*
X16607541Y-27642450D01*
X16492329Y-27556202D01*
X16357488Y-27505910D01*
X16357483Y-27505909D01*
X16357481Y-27505908D01*
X16357477Y-27505908D01*
X16321888Y-27502082D01*
X16297873Y-27499500D01*
X16297870Y-27499500D01*
X15702133Y-27499500D01*
X15702129Y-27499500D01*
X15702128Y-27499501D01*
X15694949Y-27500272D01*
X15642519Y-27505908D01*
X15642514Y-27505909D01*
X15507670Y-27556202D01*
X15392458Y-27642450D01*
X15392450Y-27642458D01*
X15306202Y-27757670D01*
X15255910Y-27892511D01*
X15255908Y-27892522D01*
X15249500Y-27952129D01*
X14750499Y-27952129D01*
X14750499Y-27952128D01*
X14744091Y-27892517D01*
X14744089Y-27892511D01*
X14693797Y-27757670D01*
X14607549Y-27642458D01*
X14607548Y-27642457D01*
X14607546Y-27642454D01*
X14607541Y-27642450D01*
X14492336Y-27556207D01*
X14492335Y-27556206D01*
X14492332Y-27556205D01*
X14492331Y-27556204D01*
X14439901Y-27536648D01*
X14391988Y-27498597D01*
X14375500Y-27443891D01*
X14375500Y-25474500D01*
X14394407Y-25416309D01*
X14443907Y-25380345D01*
X14474500Y-25375500D01*
X37525500Y-25375500D01*
X37583691Y-25394407D01*
X37619655Y-25443907D01*
X37624500Y-25474500D01*
X37624500Y-27443891D01*
X37605593Y-27502082D01*
X37560098Y-27536648D01*
X37507669Y-27556204D01*
X37507664Y-27556206D01*
X37507663Y-27556207D01*
X37392458Y-27642450D01*
X37392450Y-27642458D01*
X37306202Y-27757670D01*
X37255910Y-27892511D01*
X37255908Y-27892522D01*
X37249500Y-27952129D01*
X37249500Y-33047866D01*
X37249501Y-33047870D01*
X37255908Y-33107480D01*
X37255909Y-33107485D01*
X37306202Y-33242329D01*
X37381381Y-33342755D01*
X37392454Y-33357546D01*
X37392457Y-33357548D01*
X37392458Y-33357549D01*
X37507670Y-33443797D01*
X37642511Y-33494089D01*
X37642512Y-33494089D01*
X37642517Y-33494091D01*
X37702127Y-33500500D01*
X38297872Y-33500499D01*
X38357483Y-33494091D01*
X38439907Y-33463349D01*
X38492329Y-33443797D01*
X38492329Y-33443796D01*
X38492331Y-33443796D01*
X38607546Y-33357546D01*
X38693796Y-33242331D01*
X38706743Y-33207620D01*
X38744089Y-33107488D01*
X38744090Y-33107485D01*
X38744091Y-33107483D01*
X38750500Y-33047873D01*
X38750499Y-27952129D01*
X39249500Y-27952129D01*
X39249500Y-33047866D01*
X39249501Y-33047870D01*
X39255908Y-33107480D01*
X39255909Y-33107485D01*
X39306202Y-33242329D01*
X39381381Y-33342755D01*
X39392454Y-33357546D01*
X39392457Y-33357548D01*
X39392458Y-33357549D01*
X39507670Y-33443797D01*
X39642511Y-33494089D01*
X39642512Y-33494089D01*
X39642517Y-33494091D01*
X39702127Y-33500500D01*
X40297872Y-33500499D01*
X40357483Y-33494091D01*
X40439907Y-33463349D01*
X40492329Y-33443797D01*
X40492329Y-33443796D01*
X40492331Y-33443796D01*
X40607546Y-33357546D01*
X40693796Y-33242331D01*
X40706743Y-33207620D01*
X40744089Y-33107488D01*
X40744090Y-33107485D01*
X40744091Y-33107483D01*
X40750500Y-33047873D01*
X40750499Y-31452129D01*
X43349500Y-31452129D01*
X43349500Y-34047866D01*
X43349501Y-34047870D01*
X43355908Y-34107480D01*
X43355909Y-34107485D01*
X43406202Y-34242329D01*
X43492450Y-34357541D01*
X43492454Y-34357546D01*
X43492457Y-34357548D01*
X43492458Y-34357549D01*
X43607670Y-34443797D01*
X43742511Y-34494089D01*
X43742512Y-34494089D01*
X43742517Y-34494091D01*
X43802127Y-34500500D01*
X44997872Y-34500499D01*
X45057483Y-34494091D01*
X45124907Y-34468943D01*
X45192329Y-34443797D01*
X45192329Y-34443796D01*
X45192331Y-34443796D01*
X45307546Y-34357546D01*
X45393796Y-34242331D01*
X45444091Y-34107483D01*
X45450500Y-34047873D01*
X45450499Y-31452129D01*
X46049500Y-31452129D01*
X46049500Y-34047866D01*
X46049501Y-34047870D01*
X46055908Y-34107480D01*
X46055909Y-34107485D01*
X46106202Y-34242329D01*
X46192450Y-34357541D01*
X46192454Y-34357546D01*
X46192457Y-34357548D01*
X46192458Y-34357549D01*
X46307670Y-34443797D01*
X46442511Y-34494089D01*
X46442512Y-34494089D01*
X46442517Y-34494091D01*
X46502127Y-34500500D01*
X47697872Y-34500499D01*
X47757483Y-34494091D01*
X47824907Y-34468943D01*
X47892329Y-34443797D01*
X47892329Y-34443796D01*
X47892331Y-34443796D01*
X48007546Y-34357546D01*
X48093796Y-34242331D01*
X48144091Y-34107483D01*
X48150500Y-34047873D01*
X48150499Y-31452128D01*
X48144091Y-31392517D01*
X48144089Y-31392511D01*
X48093797Y-31257670D01*
X48007549Y-31142458D01*
X48007548Y-31142457D01*
X48007546Y-31142454D01*
X47997545Y-31134967D01*
X47892329Y-31056202D01*
X47757488Y-31005910D01*
X47757483Y-31005909D01*
X47757481Y-31005908D01*
X47757477Y-31005908D01*
X47726249Y-31002550D01*
X47697873Y-30999500D01*
X47697870Y-30999500D01*
X46502133Y-30999500D01*
X46502129Y-30999500D01*
X46502128Y-30999501D01*
X46494949Y-31000272D01*
X46442519Y-31005908D01*
X46442514Y-31005909D01*
X46307670Y-31056202D01*
X46192458Y-31142450D01*
X46192450Y-31142458D01*
X46106202Y-31257670D01*
X46055910Y-31392511D01*
X46055908Y-31392522D01*
X46049500Y-31452129D01*
X45450499Y-31452129D01*
X45450499Y-31452128D01*
X45444091Y-31392517D01*
X45444089Y-31392511D01*
X45393797Y-31257670D01*
X45307549Y-31142458D01*
X45307548Y-31142457D01*
X45307546Y-31142454D01*
X45297545Y-31134967D01*
X45192329Y-31056202D01*
X45057488Y-31005910D01*
X45057483Y-31005909D01*
X45057481Y-31005908D01*
X45057477Y-31005908D01*
X45026249Y-31002550D01*
X44997873Y-30999500D01*
X44997870Y-30999500D01*
X43802133Y-30999500D01*
X43802129Y-30999500D01*
X43802128Y-30999501D01*
X43794949Y-31000272D01*
X43742519Y-31005908D01*
X43742514Y-31005909D01*
X43607670Y-31056202D01*
X43492458Y-31142450D01*
X43492450Y-31142458D01*
X43406202Y-31257670D01*
X43355910Y-31392511D01*
X43355908Y-31392522D01*
X43349500Y-31452129D01*
X40750499Y-31452129D01*
X40750499Y-30480520D01*
X40750499Y-27952133D01*
X40750499Y-27952128D01*
X40744091Y-27892517D01*
X40744089Y-27892511D01*
X40693797Y-27757670D01*
X40607549Y-27642458D01*
X40607548Y-27642457D01*
X40607546Y-27642454D01*
X40607541Y-27642450D01*
X40492329Y-27556202D01*
X40357488Y-27505910D01*
X40357483Y-27505909D01*
X40357481Y-27505908D01*
X40357477Y-27505908D01*
X40321888Y-27502082D01*
X40297873Y-27499500D01*
X40297870Y-27499500D01*
X39702133Y-27499500D01*
X39702129Y-27499500D01*
X39702128Y-27499501D01*
X39694949Y-27500272D01*
X39642519Y-27505908D01*
X39642514Y-27505909D01*
X39507670Y-27556202D01*
X39392458Y-27642450D01*
X39392450Y-27642458D01*
X39306202Y-27757670D01*
X39255910Y-27892511D01*
X39255908Y-27892522D01*
X39249500Y-27952129D01*
X38750499Y-27952129D01*
X38750499Y-27952128D01*
X38744091Y-27892517D01*
X38744089Y-27892511D01*
X38693797Y-27757670D01*
X38607549Y-27642458D01*
X38607548Y-27642457D01*
X38607546Y-27642454D01*
X38607541Y-27642450D01*
X38492336Y-27556207D01*
X38492335Y-27556206D01*
X38492332Y-27556205D01*
X38492331Y-27556204D01*
X38439901Y-27536648D01*
X38391988Y-27498597D01*
X38375500Y-27443891D01*
X38375500Y-24950566D01*
X38375500Y-24950565D01*
X38349910Y-24855062D01*
X38349908Y-24855059D01*
X38349908Y-24855057D01*
X38300476Y-24769440D01*
X38300475Y-24769438D01*
X38230562Y-24699525D01*
X38230559Y-24699523D01*
X38144941Y-24650091D01*
X38144943Y-24650091D01*
X38107885Y-24640161D01*
X38049435Y-24624500D01*
X14049435Y-24624500D01*
X13950565Y-24624500D01*
X13892114Y-24640161D01*
X13855057Y-24650091D01*
X13769440Y-24699523D01*
X13699523Y-24769440D01*
X13650091Y-24855057D01*
X13650090Y-24855062D01*
X13624786Y-24949500D01*
X13624500Y-24950566D01*
X13624500Y-27443891D01*
X13605593Y-27502082D01*
X13560098Y-27536648D01*
X13507669Y-27556204D01*
X13507664Y-27556206D01*
X13507663Y-27556207D01*
X13392458Y-27642450D01*
X13392450Y-27642458D01*
X13306202Y-27757670D01*
X13255910Y-27892511D01*
X13255908Y-27892522D01*
X13249500Y-27952129D01*
X12750499Y-27952129D01*
X12750499Y-27952128D01*
X12744091Y-27892517D01*
X12744089Y-27892511D01*
X12693797Y-27757670D01*
X12607549Y-27642458D01*
X12607548Y-27642457D01*
X12607546Y-27642454D01*
X12607541Y-27642450D01*
X12492329Y-27556202D01*
X12357488Y-27505910D01*
X12357483Y-27505909D01*
X12357481Y-27505908D01*
X12357477Y-27505908D01*
X12321888Y-27502082D01*
X12297873Y-27499500D01*
X12297870Y-27499500D01*
X11702133Y-27499500D01*
X11702129Y-27499500D01*
X11702128Y-27499501D01*
X11694949Y-27500272D01*
X11642519Y-27505908D01*
X11642514Y-27505909D01*
X11507670Y-27556202D01*
X11392458Y-27642450D01*
X11392450Y-27642458D01*
X11306202Y-27757670D01*
X11255910Y-27892511D01*
X11255908Y-27892522D01*
X11249500Y-27952129D01*
X10750499Y-27952129D01*
X10750499Y-27952128D01*
X10744091Y-27892517D01*
X10744089Y-27892511D01*
X10693797Y-27757670D01*
X10607549Y-27642458D01*
X10607548Y-27642457D01*
X10607546Y-27642454D01*
X10607541Y-27642450D01*
X10492329Y-27556202D01*
X10357488Y-27505910D01*
X10357483Y-27505909D01*
X10357481Y-27505908D01*
X10357477Y-27505908D01*
X10321888Y-27502082D01*
X10297873Y-27499500D01*
X10297870Y-27499500D01*
X9702133Y-27499500D01*
X9702129Y-27499500D01*
X9702128Y-27499501D01*
X9694949Y-27500272D01*
X9642519Y-27505908D01*
X9642514Y-27505909D01*
X9507670Y-27556202D01*
X9392458Y-27642450D01*
X9392450Y-27642458D01*
X9306202Y-27757670D01*
X9255910Y-27892511D01*
X9255908Y-27892522D01*
X9249500Y-27952129D01*
X6750499Y-27952129D01*
X6750499Y-27952128D01*
X6744091Y-27892517D01*
X6744089Y-27892511D01*
X6693797Y-27757670D01*
X6607549Y-27642458D01*
X6607548Y-27642457D01*
X6607546Y-27642454D01*
X6607541Y-27642450D01*
X6492329Y-27556202D01*
X6357488Y-27505910D01*
X6357483Y-27505909D01*
X6357481Y-27505908D01*
X6357477Y-27505908D01*
X6321888Y-27502082D01*
X6297873Y-27499500D01*
X6297870Y-27499500D01*
X5702133Y-27499500D01*
X5702129Y-27499500D01*
X5702128Y-27499501D01*
X5694949Y-27500272D01*
X5642519Y-27505908D01*
X5642514Y-27505909D01*
X5507670Y-27556202D01*
X5392458Y-27642450D01*
X5392450Y-27642458D01*
X5306202Y-27757670D01*
X5255910Y-27892511D01*
X5255908Y-27892522D01*
X5249500Y-27952129D01*
X500500Y-27952129D01*
X500500Y-13796532D01*
X19849500Y-13796532D01*
X19849500Y-14003467D01*
X19889869Y-14206418D01*
X19969058Y-14397597D01*
X20055759Y-14527355D01*
X20084023Y-14569655D01*
X20230345Y-14715977D01*
X20402402Y-14830941D01*
X20593580Y-14910130D01*
X20796535Y-14950500D01*
X20796536Y-14950500D01*
X21003464Y-14950500D01*
X21003465Y-14950500D01*
X21206420Y-14910130D01*
X21397598Y-14830941D01*
X21569655Y-14715977D01*
X21715977Y-14569655D01*
X21817684Y-14417437D01*
X21865734Y-14379558D01*
X21926872Y-14377156D01*
X21977746Y-14411148D01*
X21982316Y-14417438D01*
X22055758Y-14527354D01*
X22084023Y-14569655D01*
X22230345Y-14715977D01*
X22402402Y-14830941D01*
X22593580Y-14910130D01*
X22796535Y-14950500D01*
X22796536Y-14950500D01*
X23003464Y-14950500D01*
X23003465Y-14950500D01*
X23206420Y-14910130D01*
X23397598Y-14830941D01*
X23569655Y-14715977D01*
X23715977Y-14569655D01*
X23817684Y-14417437D01*
X23865734Y-14379558D01*
X23926872Y-14377156D01*
X23977746Y-14411148D01*
X23982316Y-14417438D01*
X24055758Y-14527354D01*
X24084023Y-14569655D01*
X24230345Y-14715977D01*
X24402402Y-14830941D01*
X24593580Y-14910130D01*
X24796535Y-14950500D01*
X24796536Y-14950500D01*
X25003464Y-14950500D01*
X25003465Y-14950500D01*
X25206420Y-14910130D01*
X25397598Y-14830941D01*
X25569655Y-14715977D01*
X25715977Y-14569655D01*
X25830941Y-14397598D01*
X25910130Y-14206420D01*
X25950500Y-14003465D01*
X25950500Y-13796535D01*
X25910130Y-13593580D01*
X25830941Y-13402402D01*
X25715977Y-13230345D01*
X25569655Y-13084023D01*
X25397598Y-12969059D01*
X25397599Y-12969059D01*
X25397597Y-12969058D01*
X25206418Y-12889869D01*
X25003467Y-12849500D01*
X25003465Y-12849500D01*
X24796535Y-12849500D01*
X24796532Y-12849500D01*
X24593581Y-12889869D01*
X24402402Y-12969058D01*
X24230348Y-13084020D01*
X24084020Y-13230348D01*
X23982316Y-13382561D01*
X23934266Y-13420441D01*
X23873128Y-13422843D01*
X23822254Y-13388851D01*
X23817684Y-13382561D01*
X23715979Y-13230348D01*
X23715977Y-13230345D01*
X23569655Y-13084023D01*
X23397598Y-12969059D01*
X23397599Y-12969059D01*
X23397597Y-12969058D01*
X23206418Y-12889869D01*
X23003467Y-12849500D01*
X23003465Y-12849500D01*
X22796535Y-12849500D01*
X22796532Y-12849500D01*
X22593581Y-12889869D01*
X22402402Y-12969058D01*
X22230348Y-13084020D01*
X22084020Y-13230348D01*
X21982316Y-13382561D01*
X21934266Y-13420441D01*
X21873128Y-13422843D01*
X21822254Y-13388851D01*
X21817684Y-13382561D01*
X21715979Y-13230348D01*
X21715977Y-13230345D01*
X21569655Y-13084023D01*
X21397598Y-12969059D01*
X21397599Y-12969059D01*
X21397597Y-12969058D01*
X21206418Y-12889869D01*
X21003467Y-12849500D01*
X21003465Y-12849500D01*
X20796535Y-12849500D01*
X20796532Y-12849500D01*
X20593581Y-12889869D01*
X20402402Y-12969058D01*
X20230348Y-13084020D01*
X20084020Y-13230348D01*
X19969058Y-13402402D01*
X19889869Y-13593581D01*
X19849500Y-13796532D01*
X500500Y-13796532D01*
X500500Y-12496532D01*
X49849500Y-12496532D01*
X49849500Y-12703467D01*
X49889869Y-12906418D01*
X49969058Y-13097597D01*
X50057757Y-13230345D01*
X50084023Y-13269655D01*
X50230345Y-13415977D01*
X50402402Y-13530941D01*
X50593580Y-13610130D01*
X50796535Y-13650500D01*
X50796536Y-13650500D01*
X51003464Y-13650500D01*
X51003465Y-13650500D01*
X51206420Y-13610130D01*
X51397598Y-13530941D01*
X51569655Y-13415977D01*
X51715977Y-13269655D01*
X51817684Y-13117437D01*
X51865734Y-13079558D01*
X51926872Y-13077156D01*
X51977746Y-13111148D01*
X51982310Y-13117430D01*
X52084023Y-13269655D01*
X52230345Y-13415977D01*
X52402402Y-13530941D01*
X52593580Y-13610130D01*
X52796535Y-13650500D01*
X52796536Y-13650500D01*
X53003464Y-13650500D01*
X53003465Y-13650500D01*
X53206420Y-13610130D01*
X53397598Y-13530941D01*
X53569655Y-13415977D01*
X53715977Y-13269655D01*
X53817684Y-13117437D01*
X53865734Y-13079558D01*
X53926872Y-13077156D01*
X53977746Y-13111148D01*
X53982310Y-13117430D01*
X54084023Y-13269655D01*
X54230345Y-13415977D01*
X54402402Y-13530941D01*
X54593580Y-13610130D01*
X54796535Y-13650500D01*
X54796536Y-13650500D01*
X55003464Y-13650500D01*
X55003465Y-13650500D01*
X55206420Y-13610130D01*
X55397598Y-13530941D01*
X55569655Y-13415977D01*
X55715977Y-13269655D01*
X55830941Y-13097598D01*
X55910130Y-12906420D01*
X55950500Y-12703465D01*
X55950500Y-12496535D01*
X55910130Y-12293580D01*
X55830941Y-12102402D01*
X55715977Y-11930345D01*
X55569655Y-11784023D01*
X55397598Y-11669059D01*
X55397599Y-11669059D01*
X55397597Y-11669058D01*
X55206418Y-11589869D01*
X55003467Y-11549500D01*
X55003465Y-11549500D01*
X54796535Y-11549500D01*
X54796532Y-11549500D01*
X54593581Y-11589869D01*
X54402402Y-11669058D01*
X54230348Y-11784020D01*
X54084020Y-11930348D01*
X53982316Y-12082561D01*
X53934266Y-12120441D01*
X53873128Y-12122843D01*
X53822254Y-12088851D01*
X53817684Y-12082561D01*
X53715979Y-11930348D01*
X53715977Y-11930345D01*
X53569655Y-11784023D01*
X53397598Y-11669059D01*
X53397599Y-11669059D01*
X53397597Y-11669058D01*
X53206418Y-11589869D01*
X53003467Y-11549500D01*
X53003465Y-11549500D01*
X52796535Y-11549500D01*
X52796532Y-11549500D01*
X52593581Y-11589869D01*
X52402402Y-11669058D01*
X52230348Y-11784020D01*
X52084020Y-11930348D01*
X51982316Y-12082561D01*
X51934266Y-12120441D01*
X51873128Y-12122843D01*
X51822254Y-12088851D01*
X51817684Y-12082561D01*
X51715979Y-11930348D01*
X51715977Y-11930345D01*
X51569655Y-11784023D01*
X51397598Y-11669059D01*
X51397599Y-11669059D01*
X51397597Y-11669058D01*
X51206418Y-11589869D01*
X51003467Y-11549500D01*
X51003465Y-11549500D01*
X50796535Y-11549500D01*
X50796532Y-11549500D01*
X50593581Y-11589869D01*
X50402402Y-11669058D01*
X50230348Y-11784020D01*
X50084020Y-11930348D01*
X49969058Y-12102402D01*
X49889869Y-12293581D01*
X49849500Y-12496532D01*
X500500Y-12496532D01*
X500500Y-8075327D01*
X19849500Y-8075327D01*
X19849500Y-9724672D01*
X19849501Y-9724684D01*
X19864033Y-9797736D01*
X19864035Y-9797742D01*
X19919397Y-9880599D01*
X19919399Y-9880601D01*
X20002260Y-9935966D01*
X20057808Y-9947015D01*
X20075315Y-9950498D01*
X20075320Y-9950498D01*
X20075326Y-9950500D01*
X20075327Y-9950500D01*
X21724673Y-9950500D01*
X21724674Y-9950500D01*
X21797740Y-9935966D01*
X21880601Y-9880601D01*
X21935966Y-9797740D01*
X21950500Y-9724674D01*
X21950500Y-9675139D01*
X21969407Y-9616948D01*
X22018907Y-9580984D01*
X22080093Y-9580984D01*
X22119501Y-9605133D01*
X22230345Y-9715977D01*
X22402402Y-9830941D01*
X22593580Y-9910130D01*
X22796535Y-9950500D01*
X22796536Y-9950500D01*
X23003464Y-9950500D01*
X23003465Y-9950500D01*
X23206420Y-9910130D01*
X23397598Y-9830941D01*
X23569655Y-9715977D01*
X23715977Y-9569655D01*
X23817684Y-9417437D01*
X23865734Y-9379558D01*
X23926872Y-9377156D01*
X23977746Y-9411148D01*
X23982310Y-9417430D01*
X24084023Y-9569655D01*
X24230345Y-9715977D01*
X24402402Y-9830941D01*
X24593580Y-9910130D01*
X24796535Y-9950500D01*
X24796536Y-9950500D01*
X25003464Y-9950500D01*
X25003465Y-9950500D01*
X25206420Y-9910130D01*
X25397598Y-9830941D01*
X25569655Y-9715977D01*
X25715977Y-9569655D01*
X25830941Y-9397598D01*
X25910130Y-9206420D01*
X25950500Y-9003465D01*
X25950500Y-8796535D01*
X25910130Y-8593580D01*
X25830941Y-8402402D01*
X25715977Y-8230345D01*
X25569655Y-8084023D01*
X25569651Y-8084020D01*
X25397597Y-7969058D01*
X25206418Y-7889869D01*
X25003467Y-7849500D01*
X25003465Y-7849500D01*
X24796535Y-7849500D01*
X24796532Y-7849500D01*
X24593581Y-7889869D01*
X24402402Y-7969058D01*
X24230348Y-8084020D01*
X24084020Y-8230348D01*
X23982316Y-8382561D01*
X23934266Y-8420441D01*
X23873128Y-8422843D01*
X23822254Y-8388851D01*
X23817684Y-8382561D01*
X23715977Y-8230345D01*
X23569663Y-8084030D01*
X23569658Y-8084026D01*
X23569655Y-8084023D01*
X23544496Y-8067212D01*
X23506618Y-8019161D01*
X23500500Y-7984898D01*
X23500500Y-6199500D01*
X23519407Y-6141309D01*
X23568907Y-6105345D01*
X23599500Y-6100500D01*
X26300500Y-6100500D01*
X26358691Y-6119407D01*
X26394655Y-6168907D01*
X26399500Y-6199500D01*
X26399500Y-10020943D01*
X26399500Y-10179057D01*
X26440423Y-10331784D01*
X26519480Y-10468716D01*
X26631284Y-10580520D01*
X26768216Y-10659577D01*
X26920943Y-10700500D01*
X60300500Y-10700500D01*
X60358691Y-10719407D01*
X60394655Y-10768907D01*
X60399500Y-10799500D01*
X60399500Y-25450500D01*
X60380593Y-25508691D01*
X60331093Y-25544655D01*
X60300500Y-25549500D01*
X51524500Y-25549500D01*
X51466309Y-25530593D01*
X51430345Y-25481093D01*
X51425500Y-25450500D01*
X51425500Y-21570725D01*
X53274500Y-21570725D01*
X53274500Y-22079274D01*
X53277353Y-22109694D01*
X53277355Y-22109703D01*
X53322207Y-22237883D01*
X53402845Y-22347144D01*
X53402847Y-22347146D01*
X53402850Y-22347150D01*
X53402853Y-22347152D01*
X53402855Y-22347154D01*
X53512116Y-22427792D01*
X53512117Y-22427792D01*
X53512118Y-22427793D01*
X53640301Y-22472646D01*
X53670725Y-22475499D01*
X53670727Y-22475500D01*
X53670734Y-22475500D01*
X54329273Y-22475500D01*
X54329273Y-22475499D01*
X54359699Y-22472646D01*
X54487882Y-22427793D01*
X54597150Y-22347150D01*
X54674314Y-22242595D01*
X54724078Y-22207005D01*
X54754208Y-22202385D01*
X55484216Y-22204210D01*
X55542358Y-22223263D01*
X55553964Y-22233200D01*
X55631284Y-22310520D01*
X55768216Y-22389577D01*
X55920943Y-22430500D01*
X55920945Y-22430500D01*
X56079055Y-22430500D01*
X56079057Y-22430500D01*
X56231784Y-22389577D01*
X56368716Y-22310520D01*
X56480520Y-22198716D01*
X56559577Y-22061784D01*
X56600500Y-21909057D01*
X56600500Y-21750943D01*
X56559577Y-21598216D01*
X56480520Y-21461284D01*
X56368716Y-21349480D01*
X56231784Y-21270423D01*
X56079057Y-21229500D01*
X55920943Y-21229500D01*
X55768216Y-21270423D01*
X55669991Y-21327133D01*
X55631281Y-21349482D01*
X55556545Y-21424218D01*
X55502028Y-21451995D01*
X55486294Y-21453214D01*
X54756506Y-21451389D01*
X54698363Y-21432336D01*
X54677099Y-21411177D01*
X54597153Y-21302854D01*
X54597152Y-21302853D01*
X54597150Y-21302850D01*
X54597146Y-21302847D01*
X54597144Y-21302845D01*
X54487883Y-21222207D01*
X54359703Y-21177355D01*
X54359694Y-21177353D01*
X54329274Y-21174500D01*
X54329266Y-21174500D01*
X53670734Y-21174500D01*
X53670725Y-21174500D01*
X53640305Y-21177353D01*
X53640296Y-21177355D01*
X53512116Y-21222207D01*
X53402855Y-21302845D01*
X53402845Y-21302855D01*
X53322207Y-21412116D01*
X53277355Y-21540296D01*
X53277353Y-21540305D01*
X53274500Y-21570725D01*
X51425500Y-21570725D01*
X51425500Y-15943983D01*
X51422892Y-15934250D01*
X51396503Y-15835763D01*
X51396501Y-15835760D01*
X51396501Y-15835758D01*
X51340486Y-15738739D01*
X51340485Y-15738737D01*
X51261263Y-15659515D01*
X51261260Y-15659513D01*
X51164240Y-15603498D01*
X51164242Y-15603498D01*
X51105964Y-15587883D01*
X51056018Y-15574500D01*
X47056018Y-15574500D01*
X46943982Y-15574500D01*
X46912979Y-15582807D01*
X46850122Y-15599649D01*
X46789021Y-15596446D01*
X46741471Y-15557941D01*
X46725500Y-15504022D01*
X46725500Y-14974500D01*
X46744407Y-14916309D01*
X46793907Y-14880345D01*
X46824500Y-14875500D01*
X53525500Y-14875500D01*
X53583691Y-14894407D01*
X53619655Y-14943907D01*
X53624500Y-14974500D01*
X53624500Y-19462638D01*
X53605593Y-19520829D01*
X53558198Y-19556082D01*
X53512120Y-19572205D01*
X53512114Y-19572208D01*
X53402855Y-19652845D01*
X53402845Y-19652855D01*
X53322207Y-19762116D01*
X53277355Y-19890296D01*
X53277353Y-19890305D01*
X53274500Y-19920725D01*
X53274500Y-20429274D01*
X53277353Y-20459694D01*
X53277355Y-20459703D01*
X53322207Y-20587883D01*
X53402845Y-20697144D01*
X53402847Y-20697146D01*
X53402850Y-20697150D01*
X53402853Y-20697152D01*
X53402855Y-20697154D01*
X53512116Y-20777792D01*
X53512117Y-20777792D01*
X53512118Y-20777793D01*
X53640301Y-20822646D01*
X53670725Y-20825499D01*
X53670727Y-20825500D01*
X53670734Y-20825500D01*
X54329273Y-20825500D01*
X54329273Y-20825499D01*
X54359699Y-20822646D01*
X54487882Y-20777793D01*
X54597150Y-20697150D01*
X54677793Y-20587882D01*
X54722646Y-20459699D01*
X54725499Y-20429273D01*
X54725500Y-20429273D01*
X54725500Y-19920727D01*
X54725499Y-19920725D01*
X54722646Y-19890301D01*
X54677793Y-19762118D01*
X54672287Y-19754658D01*
X54597154Y-19652855D01*
X54597152Y-19652853D01*
X54597150Y-19652850D01*
X54597146Y-19652847D01*
X54597144Y-19652845D01*
X54487885Y-19572208D01*
X54487879Y-19572205D01*
X54441802Y-19556082D01*
X54393121Y-19519016D01*
X54375500Y-19462638D01*
X54375500Y-14450566D01*
X54375500Y-14450565D01*
X54349910Y-14355062D01*
X54349908Y-14355059D01*
X54349908Y-14355057D01*
X54300476Y-14269440D01*
X54300475Y-14269438D01*
X54230562Y-14199525D01*
X54230559Y-14199523D01*
X54144941Y-14150091D01*
X54144943Y-14150091D01*
X54107885Y-14140161D01*
X54049435Y-14124500D01*
X46399435Y-14124500D01*
X46300565Y-14124500D01*
X46242114Y-14140161D01*
X46205057Y-14150091D01*
X46119440Y-14199523D01*
X46049523Y-14269440D01*
X46000091Y-14355057D01*
X45974500Y-14450566D01*
X45974500Y-15374613D01*
X45955593Y-15432804D01*
X45906093Y-15468768D01*
X45849877Y-15470240D01*
X45772475Y-15449500D01*
X45627525Y-15449500D01*
X45565790Y-15466041D01*
X45487510Y-15487017D01*
X45361989Y-15559487D01*
X45259487Y-15661989D01*
X45187017Y-15787510D01*
X45172749Y-15840759D01*
X45149500Y-15927525D01*
X45149500Y-16072475D01*
X45151881Y-16081361D01*
X45187017Y-16212489D01*
X45259487Y-16338010D01*
X45259489Y-16338012D01*
X45259491Y-16338015D01*
X45295505Y-16374029D01*
X45323281Y-16428544D01*
X45324500Y-16444031D01*
X45324500Y-17242616D01*
X45311183Y-17284572D01*
X45314405Y-17286147D01*
X45259427Y-17398604D01*
X45258808Y-17402855D01*
X45249500Y-17466740D01*
X45249500Y-18808260D01*
X45256118Y-18853682D01*
X45259427Y-18876395D01*
X45310801Y-18981481D01*
X45310802Y-18981483D01*
X45393517Y-19064198D01*
X45418481Y-19076402D01*
X45498604Y-19115572D01*
X45498605Y-19115572D01*
X45498607Y-19115573D01*
X45566740Y-19125500D01*
X45566743Y-19125500D01*
X45833257Y-19125500D01*
X45833260Y-19125500D01*
X45901393Y-19115573D01*
X45981519Y-19076401D01*
X46042101Y-19067830D01*
X46068480Y-19076401D01*
X46148607Y-19115573D01*
X46216740Y-19125500D01*
X46216743Y-19125500D01*
X46483257Y-19125500D01*
X46483260Y-19125500D01*
X46551393Y-19115573D01*
X46631519Y-19076401D01*
X46692101Y-19067830D01*
X46718480Y-19076401D01*
X46798607Y-19115573D01*
X46866740Y-19125500D01*
X46866743Y-19125500D01*
X47133257Y-19125500D01*
X47133260Y-19125500D01*
X47201393Y-19115573D01*
X47306483Y-19064198D01*
X47389198Y-18981483D01*
X47440573Y-18876393D01*
X47450500Y-18808260D01*
X47450500Y-17466740D01*
X47849500Y-17466740D01*
X47849500Y-18808260D01*
X47856118Y-18853682D01*
X47859427Y-18876395D01*
X47910801Y-18981481D01*
X47910802Y-18981483D01*
X47993517Y-19064198D01*
X48018481Y-19076402D01*
X48098604Y-19115572D01*
X48098605Y-19115572D01*
X48098607Y-19115573D01*
X48166740Y-19125500D01*
X48166743Y-19125500D01*
X48433257Y-19125500D01*
X48433260Y-19125500D01*
X48501393Y-19115573D01*
X48606483Y-19064198D01*
X48689198Y-18981483D01*
X48740573Y-18876393D01*
X48750500Y-18808260D01*
X48750500Y-17466740D01*
X48740573Y-17398607D01*
X48689198Y-17293517D01*
X48606483Y-17210802D01*
X48606481Y-17210801D01*
X48501395Y-17159427D01*
X48474139Y-17155456D01*
X48433260Y-17149500D01*
X48166740Y-17149500D01*
X48132673Y-17154463D01*
X48098604Y-17159427D01*
X47993518Y-17210801D01*
X47910801Y-17293518D01*
X47859427Y-17398604D01*
X47858808Y-17402855D01*
X47849500Y-17466740D01*
X47450500Y-17466740D01*
X47440573Y-17398607D01*
X47430175Y-17377339D01*
X47427640Y-17365340D01*
X47428457Y-17357651D01*
X47425500Y-17344869D01*
X47425500Y-16524500D01*
X47444407Y-16466309D01*
X47493907Y-16430345D01*
X47524500Y-16425500D01*
X50475500Y-16425500D01*
X50533691Y-16444407D01*
X50569655Y-16493907D01*
X50574500Y-16524500D01*
X50574500Y-25450500D01*
X50555593Y-25508691D01*
X50506093Y-25544655D01*
X50475500Y-25549500D01*
X48174500Y-25549500D01*
X48116309Y-25530593D01*
X48080345Y-25481093D01*
X48075500Y-25450500D01*
X48075500Y-24655129D01*
X48085558Y-24611650D01*
X48090573Y-24601393D01*
X48100500Y-24533260D01*
X48100500Y-23191740D01*
X48499500Y-23191740D01*
X48499500Y-24533260D01*
X48506118Y-24578682D01*
X48509427Y-24601395D01*
X48557399Y-24699523D01*
X48560802Y-24706483D01*
X48643517Y-24789198D01*
X48697285Y-24815483D01*
X48748604Y-24840572D01*
X48748605Y-24840572D01*
X48748607Y-24840573D01*
X48816740Y-24850500D01*
X48816743Y-24850500D01*
X49083257Y-24850500D01*
X49083260Y-24850500D01*
X49151393Y-24840573D01*
X49256483Y-24789198D01*
X49339198Y-24706483D01*
X49390573Y-24601393D01*
X49400500Y-24533260D01*
X49400500Y-23191740D01*
X49390573Y-23123607D01*
X49388365Y-23119091D01*
X49353549Y-23047873D01*
X49339198Y-23018517D01*
X49256483Y-22935802D01*
X49235406Y-22925498D01*
X49151395Y-22884427D01*
X49124139Y-22880456D01*
X49083260Y-22874500D01*
X48816740Y-22874500D01*
X48782673Y-22879463D01*
X48748604Y-22884427D01*
X48643518Y-22935801D01*
X48560801Y-23018518D01*
X48509427Y-23123604D01*
X48509427Y-23123607D01*
X48499500Y-23191740D01*
X48100500Y-23191740D01*
X48090573Y-23123607D01*
X48088365Y-23119091D01*
X48053549Y-23047873D01*
X48039198Y-23018517D01*
X47956483Y-22935802D01*
X47935406Y-22925498D01*
X47851395Y-22884427D01*
X47824139Y-22880456D01*
X47783260Y-22874500D01*
X47516740Y-22874500D01*
X47482673Y-22879463D01*
X47448604Y-22884427D01*
X47368480Y-22923598D01*
X47307898Y-22932169D01*
X47281520Y-22923598D01*
X47201395Y-22884427D01*
X47174139Y-22880456D01*
X47133260Y-22874500D01*
X46866740Y-22874500D01*
X46832673Y-22879463D01*
X46798604Y-22884427D01*
X46693518Y-22935801D01*
X46610801Y-23018518D01*
X46559427Y-23123604D01*
X46559427Y-23123607D01*
X46549500Y-23191740D01*
X46549500Y-24533260D01*
X46556118Y-24578682D01*
X46559427Y-24601395D01*
X46607399Y-24699523D01*
X46610802Y-24706483D01*
X46693517Y-24789198D01*
X46747285Y-24815483D01*
X46798604Y-24840572D01*
X46798605Y-24840572D01*
X46798607Y-24840573D01*
X46866740Y-24850500D01*
X46866743Y-24850500D01*
X47125500Y-24850500D01*
X47183691Y-24869407D01*
X47219655Y-24918907D01*
X47224500Y-24949500D01*
X47224500Y-25450500D01*
X47205593Y-25508691D01*
X47156093Y-25544655D01*
X47125500Y-25549500D01*
X46224500Y-25549500D01*
X46166309Y-25530593D01*
X46130345Y-25481093D01*
X46125500Y-25450500D01*
X46125500Y-24655129D01*
X46135558Y-24611650D01*
X46140573Y-24601393D01*
X46150500Y-24533260D01*
X46150500Y-23191740D01*
X46140573Y-23123607D01*
X46138365Y-23119091D01*
X46103549Y-23047873D01*
X46089198Y-23018517D01*
X46006483Y-22935802D01*
X45985406Y-22925498D01*
X45901395Y-22884427D01*
X45874139Y-22880456D01*
X45833260Y-22874500D01*
X45566740Y-22874500D01*
X45532673Y-22879463D01*
X45498604Y-22884427D01*
X45418480Y-22923598D01*
X45357898Y-22932169D01*
X45331520Y-22923598D01*
X45251395Y-22884427D01*
X45224139Y-22880456D01*
X45183260Y-22874500D01*
X44916740Y-22874500D01*
X44882673Y-22879463D01*
X44848604Y-22884427D01*
X44743518Y-22935801D01*
X44660801Y-23018518D01*
X44609427Y-23123604D01*
X44609427Y-23123607D01*
X44599500Y-23191740D01*
X44599500Y-24533260D01*
X44609427Y-24601393D01*
X44614441Y-24611650D01*
X44624500Y-24655129D01*
X44624500Y-25450500D01*
X44605593Y-25508691D01*
X44556093Y-25544655D01*
X44525500Y-25549500D01*
X41935930Y-25549500D01*
X41873093Y-25561999D01*
X41810256Y-25574499D01*
X41810255Y-25574499D01*
X41810252Y-25574500D01*
X41691874Y-25623534D01*
X41691866Y-25623538D01*
X41585331Y-25694724D01*
X41585327Y-25694727D01*
X41584551Y-25695504D01*
X41584102Y-25695732D01*
X41581562Y-25697817D01*
X41581104Y-25697259D01*
X41530034Y-25723281D01*
X41514547Y-25724500D01*
X40574500Y-25724500D01*
X40516309Y-25705593D01*
X40480345Y-25656093D01*
X40475500Y-25625500D01*
X40475500Y-20803065D01*
X40494407Y-20744874D01*
X40543907Y-20708910D01*
X40574252Y-20704065D01*
X41295065Y-20702263D01*
X41353302Y-20721025D01*
X41374566Y-20741935D01*
X41410310Y-20789685D01*
X41497368Y-20854855D01*
X41519774Y-20871628D01*
X41647886Y-20919412D01*
X41704515Y-20925500D01*
X42295484Y-20925499D01*
X42352114Y-20919412D01*
X42480226Y-20871628D01*
X42589687Y-20789687D01*
X42671628Y-20680226D01*
X42719412Y-20552114D01*
X42725500Y-20495485D01*
X42725499Y-19954516D01*
X42719412Y-19897886D01*
X42671628Y-19769774D01*
X42589687Y-19660313D01*
X42553476Y-19633206D01*
X42480228Y-19578373D01*
X42480226Y-19578372D01*
X42352114Y-19530588D01*
X42352113Y-19530587D01*
X42313895Y-19526479D01*
X42295485Y-19524500D01*
X42295481Y-19524500D01*
X41704521Y-19524500D01*
X41704515Y-19524501D01*
X41647888Y-19530587D01*
X41647886Y-19530588D01*
X41519774Y-19578372D01*
X41519773Y-19578372D01*
X41519772Y-19578373D01*
X41410315Y-19660311D01*
X41410312Y-19660314D01*
X41371923Y-19711595D01*
X41321913Y-19746847D01*
X41292918Y-19751265D01*
X39999410Y-19754500D01*
X39937385Y-19754500D01*
X39937103Y-19754538D01*
X39936763Y-19754583D01*
X39936231Y-19754652D01*
X39876385Y-19770848D01*
X39876149Y-19770911D01*
X39816445Y-19786909D01*
X39816145Y-19787035D01*
X39815822Y-19787169D01*
X39815380Y-19787351D01*
X39761737Y-19818500D01*
X39761525Y-19818622D01*
X39708022Y-19849512D01*
X39707744Y-19849727D01*
X39707475Y-19849934D01*
X39707101Y-19850220D01*
X39684592Y-19872841D01*
X39663330Y-19894210D01*
X39619487Y-19938053D01*
X39619227Y-19938395D01*
X39619037Y-19938644D01*
X39618785Y-19938971D01*
X39588021Y-19992567D01*
X39587898Y-19992781D01*
X39556897Y-20046477D01*
X39556769Y-20046790D01*
X39556649Y-20047079D01*
X39556455Y-20047546D01*
X39540632Y-20107191D01*
X39540569Y-20107427D01*
X39524494Y-20167419D01*
X39524424Y-20167967D01*
X39524394Y-20168200D01*
X39524345Y-20168571D01*
X39524345Y-20168587D01*
X39524345Y-20168588D01*
X39524500Y-20230588D01*
X39524500Y-26137399D01*
X39524500Y-26262601D01*
X39556905Y-26383536D01*
X39619505Y-26491964D01*
X39708036Y-26580495D01*
X39816464Y-26643095D01*
X39937399Y-26675500D01*
X41514547Y-26675500D01*
X41572738Y-26694407D01*
X41584551Y-26704496D01*
X41585331Y-26705276D01*
X41646491Y-26746142D01*
X41691866Y-26776461D01*
X41691870Y-26776463D01*
X41691873Y-26776465D01*
X41810256Y-26825501D01*
X41935931Y-26850500D01*
X48750500Y-26850500D01*
X48808691Y-26869407D01*
X48844655Y-26918907D01*
X48849500Y-26949500D01*
X48849500Y-27666882D01*
X48830593Y-27725073D01*
X48829790Y-27726161D01*
X48819745Y-27739579D01*
X48806201Y-27757672D01*
X48755910Y-27892511D01*
X48755908Y-27892522D01*
X48749500Y-27952129D01*
X48749500Y-33047866D01*
X48749501Y-33047870D01*
X48755908Y-33107480D01*
X48755909Y-33107485D01*
X48806202Y-33242329D01*
X48881381Y-33342755D01*
X48892454Y-33357546D01*
X48892457Y-33357548D01*
X48892458Y-33357549D01*
X49007670Y-33443797D01*
X49142511Y-33494089D01*
X49142512Y-33494089D01*
X49142517Y-33494091D01*
X49202127Y-33500500D01*
X49797872Y-33500499D01*
X49857483Y-33494091D01*
X49939907Y-33463349D01*
X49992329Y-33443797D01*
X49992329Y-33443796D01*
X49992331Y-33443796D01*
X50107546Y-33357546D01*
X50193796Y-33242331D01*
X50206743Y-33207620D01*
X50244089Y-33107488D01*
X50244090Y-33107485D01*
X50244091Y-33107483D01*
X50250500Y-33047873D01*
X50250499Y-27952129D01*
X52749500Y-27952129D01*
X52749500Y-33047866D01*
X52749501Y-33047870D01*
X52755908Y-33107480D01*
X52755909Y-33107485D01*
X52806202Y-33242329D01*
X52881381Y-33342755D01*
X52892454Y-33357546D01*
X52892457Y-33357548D01*
X52892458Y-33357549D01*
X53007670Y-33443797D01*
X53142511Y-33494089D01*
X53142512Y-33494089D01*
X53142517Y-33494091D01*
X53202127Y-33500500D01*
X53797872Y-33500499D01*
X53857483Y-33494091D01*
X53939907Y-33463349D01*
X53992329Y-33443797D01*
X53992329Y-33443796D01*
X53992331Y-33443796D01*
X54107546Y-33357546D01*
X54193796Y-33242331D01*
X54206743Y-33207620D01*
X54244089Y-33107488D01*
X54244090Y-33107485D01*
X54244091Y-33107483D01*
X54250500Y-33047873D01*
X54250499Y-27952128D01*
X54244091Y-27892517D01*
X54244089Y-27892511D01*
X54193797Y-27757670D01*
X54107549Y-27642458D01*
X54107548Y-27642457D01*
X54107546Y-27642454D01*
X54107541Y-27642450D01*
X53992329Y-27556202D01*
X53857488Y-27505910D01*
X53857483Y-27505909D01*
X53857481Y-27505908D01*
X53857477Y-27505908D01*
X53821888Y-27502082D01*
X53797873Y-27499500D01*
X53797870Y-27499500D01*
X53202133Y-27499500D01*
X53202129Y-27499500D01*
X53202128Y-27499501D01*
X53194949Y-27500272D01*
X53142519Y-27505908D01*
X53142514Y-27505909D01*
X53007670Y-27556202D01*
X52892458Y-27642450D01*
X52892450Y-27642458D01*
X52806202Y-27757670D01*
X52755910Y-27892511D01*
X52755908Y-27892522D01*
X52749500Y-27952129D01*
X50250499Y-27952129D01*
X50250499Y-27952128D01*
X50244091Y-27892517D01*
X50244089Y-27892511D01*
X50193798Y-27757672D01*
X50193796Y-27757669D01*
X50170245Y-27726209D01*
X50150510Y-27668296D01*
X50150500Y-27666882D01*
X50150500Y-26949500D01*
X50169407Y-26891309D01*
X50218907Y-26855345D01*
X50249500Y-26850500D01*
X54750500Y-26850500D01*
X54808691Y-26869407D01*
X54844655Y-26918907D01*
X54849500Y-26949500D01*
X54849500Y-27666882D01*
X54830593Y-27725073D01*
X54829790Y-27726161D01*
X54819745Y-27739579D01*
X54806201Y-27757672D01*
X54755910Y-27892511D01*
X54755908Y-27892522D01*
X54749500Y-27952129D01*
X54749500Y-33047866D01*
X54749501Y-33047870D01*
X54755908Y-33107480D01*
X54755909Y-33107485D01*
X54806202Y-33242329D01*
X54881381Y-33342755D01*
X54892454Y-33357546D01*
X54892457Y-33357548D01*
X54892458Y-33357549D01*
X55007670Y-33443797D01*
X55142511Y-33494089D01*
X55142512Y-33494089D01*
X55142517Y-33494091D01*
X55202127Y-33500500D01*
X55797872Y-33500499D01*
X55857483Y-33494091D01*
X55939907Y-33463349D01*
X55992329Y-33443797D01*
X55992329Y-33443796D01*
X55992331Y-33443796D01*
X56107546Y-33357546D01*
X56193796Y-33242331D01*
X56206743Y-33207620D01*
X56244089Y-33107488D01*
X56244090Y-33107485D01*
X56244091Y-33107483D01*
X56250500Y-33047873D01*
X56250499Y-31452129D01*
X58849500Y-31452129D01*
X58849500Y-34047866D01*
X58849501Y-34047870D01*
X58855908Y-34107480D01*
X58855909Y-34107485D01*
X58906202Y-34242329D01*
X58992450Y-34357541D01*
X58992454Y-34357546D01*
X58992457Y-34357548D01*
X58992458Y-34357549D01*
X59107670Y-34443797D01*
X59242511Y-34494089D01*
X59242512Y-34494089D01*
X59242517Y-34494091D01*
X59302127Y-34500500D01*
X60497872Y-34500499D01*
X60557483Y-34494091D01*
X60624907Y-34468943D01*
X60692329Y-34443797D01*
X60692329Y-34443796D01*
X60692331Y-34443796D01*
X60807546Y-34357546D01*
X60893796Y-34242331D01*
X60944091Y-34107483D01*
X60950500Y-34047873D01*
X60950499Y-31452128D01*
X60944091Y-31392517D01*
X60944089Y-31392511D01*
X60893797Y-31257670D01*
X60807549Y-31142458D01*
X60807548Y-31142457D01*
X60807546Y-31142454D01*
X60797545Y-31134967D01*
X60692329Y-31056202D01*
X60557488Y-31005910D01*
X60557483Y-31005909D01*
X60557481Y-31005908D01*
X60557477Y-31005908D01*
X60526249Y-31002550D01*
X60497873Y-30999500D01*
X60497870Y-30999500D01*
X59302133Y-30999500D01*
X59302129Y-30999500D01*
X59302128Y-30999501D01*
X59294949Y-31000272D01*
X59242519Y-31005908D01*
X59242514Y-31005909D01*
X59107670Y-31056202D01*
X58992458Y-31142450D01*
X58992450Y-31142458D01*
X58906202Y-31257670D01*
X58855910Y-31392511D01*
X58855908Y-31392522D01*
X58849500Y-31452129D01*
X56250499Y-31452129D01*
X56250499Y-30480520D01*
X56250499Y-27952133D01*
X56250499Y-27952128D01*
X56248228Y-27931004D01*
X61299500Y-27931004D01*
X61299500Y-30568995D01*
X61326420Y-30704327D01*
X61326420Y-30704329D01*
X61379222Y-30831806D01*
X61379228Y-30831817D01*
X61455885Y-30946541D01*
X61553458Y-31044114D01*
X61608335Y-31080782D01*
X61646214Y-31128832D01*
X61648616Y-31189971D01*
X61632587Y-31222425D01*
X61606202Y-31257670D01*
X61555910Y-31392511D01*
X61555908Y-31392522D01*
X61549500Y-31452129D01*
X61549500Y-34047866D01*
X61549501Y-34047870D01*
X61555908Y-34107480D01*
X61555909Y-34107485D01*
X61606202Y-34242329D01*
X61692450Y-34357541D01*
X61692454Y-34357546D01*
X61692457Y-34357548D01*
X61692458Y-34357549D01*
X61807670Y-34443797D01*
X61942511Y-34494089D01*
X61942512Y-34494089D01*
X61942517Y-34494091D01*
X62002127Y-34500500D01*
X63197872Y-34500499D01*
X63257483Y-34494091D01*
X63324907Y-34468943D01*
X63392329Y-34443797D01*
X63392329Y-34443796D01*
X63392331Y-34443796D01*
X63507546Y-34357546D01*
X63593796Y-34242331D01*
X63644091Y-34107483D01*
X63650500Y-34047873D01*
X63650499Y-31452128D01*
X63644091Y-31392517D01*
X63644089Y-31392511D01*
X63622302Y-31334096D01*
X63619682Y-31272966D01*
X63653494Y-31221972D01*
X63710821Y-31200591D01*
X63715060Y-31200500D01*
X64150501Y-31200500D01*
X64208692Y-31219407D01*
X64244656Y-31268907D01*
X64249501Y-31299500D01*
X64249501Y-33047870D01*
X64255908Y-33107480D01*
X64255909Y-33107482D01*
X64293258Y-33207620D01*
X64299500Y-33242217D01*
X64299500Y-34568995D01*
X64326420Y-34704327D01*
X64326420Y-34704329D01*
X64379222Y-34831806D01*
X64379228Y-34831817D01*
X64455885Y-34946541D01*
X64553458Y-35044114D01*
X64668182Y-35120771D01*
X64668193Y-35120777D01*
X64715283Y-35140282D01*
X64795672Y-35173580D01*
X64931007Y-35200500D01*
X64931008Y-35200500D01*
X65068992Y-35200500D01*
X65068993Y-35200500D01*
X65204328Y-35173580D01*
X65331811Y-35120775D01*
X65446542Y-35044114D01*
X65544114Y-34946542D01*
X65620775Y-34831811D01*
X65673580Y-34704328D01*
X65700500Y-34568993D01*
X65700500Y-33242217D01*
X65706742Y-33207620D01*
X65744091Y-33107483D01*
X65750500Y-33047873D01*
X65750500Y-31452129D01*
X68349500Y-31452129D01*
X68349500Y-34047866D01*
X68349501Y-34047870D01*
X68355908Y-34107480D01*
X68355909Y-34107485D01*
X68406202Y-34242329D01*
X68492450Y-34357541D01*
X68492454Y-34357546D01*
X68492457Y-34357548D01*
X68492458Y-34357549D01*
X68607670Y-34443797D01*
X68742511Y-34494089D01*
X68742512Y-34494089D01*
X68742517Y-34494091D01*
X68802127Y-34500500D01*
X69997872Y-34500499D01*
X70057483Y-34494091D01*
X70124907Y-34468943D01*
X70192329Y-34443797D01*
X70192329Y-34443796D01*
X70192331Y-34443796D01*
X70307546Y-34357546D01*
X70393796Y-34242331D01*
X70444091Y-34107483D01*
X70450500Y-34047873D01*
X70450499Y-31452129D01*
X72049500Y-31452129D01*
X72049500Y-34047866D01*
X72049501Y-34047870D01*
X72055908Y-34107480D01*
X72055909Y-34107485D01*
X72106202Y-34242329D01*
X72192450Y-34357541D01*
X72192454Y-34357546D01*
X72192457Y-34357548D01*
X72192458Y-34357549D01*
X72307670Y-34443797D01*
X72442511Y-34494089D01*
X72442512Y-34494089D01*
X72442517Y-34494091D01*
X72502127Y-34500500D01*
X73697872Y-34500499D01*
X73757483Y-34494091D01*
X73824907Y-34468943D01*
X73892329Y-34443797D01*
X73892329Y-34443796D01*
X73892331Y-34443796D01*
X74007546Y-34357546D01*
X74093796Y-34242331D01*
X74144091Y-34107483D01*
X74150500Y-34047873D01*
X74150499Y-31452128D01*
X74144091Y-31392517D01*
X74144089Y-31392511D01*
X74093797Y-31257670D01*
X74007549Y-31142458D01*
X74007548Y-31142457D01*
X74007546Y-31142454D01*
X73997545Y-31134967D01*
X73892329Y-31056202D01*
X73757488Y-31005910D01*
X73757483Y-31005909D01*
X73757481Y-31005908D01*
X73757477Y-31005908D01*
X73726249Y-31002550D01*
X73697873Y-30999500D01*
X73697870Y-30999500D01*
X72502133Y-30999500D01*
X72502129Y-30999500D01*
X72502128Y-30999501D01*
X72494949Y-31000272D01*
X72442519Y-31005908D01*
X72442514Y-31005909D01*
X72307670Y-31056202D01*
X72192458Y-31142450D01*
X72192450Y-31142458D01*
X72106202Y-31257670D01*
X72055910Y-31392511D01*
X72055908Y-31392522D01*
X72049500Y-31452129D01*
X70450499Y-31452129D01*
X70450499Y-31452128D01*
X70444091Y-31392517D01*
X70444089Y-31392511D01*
X70393797Y-31257670D01*
X70307549Y-31142458D01*
X70307548Y-31142457D01*
X70307546Y-31142454D01*
X70297545Y-31134967D01*
X70192329Y-31056202D01*
X70057488Y-31005910D01*
X70057483Y-31005909D01*
X70057481Y-31005908D01*
X70057477Y-31005908D01*
X70026249Y-31002550D01*
X69997873Y-30999500D01*
X69997870Y-30999500D01*
X68802133Y-30999500D01*
X68802129Y-30999500D01*
X68802128Y-30999501D01*
X68794949Y-31000272D01*
X68742519Y-31005908D01*
X68742514Y-31005909D01*
X68607670Y-31056202D01*
X68492458Y-31142450D01*
X68492450Y-31142458D01*
X68406202Y-31257670D01*
X68355910Y-31392511D01*
X68355908Y-31392522D01*
X68349500Y-31452129D01*
X65750500Y-31452129D01*
X65750500Y-30509567D01*
X65750500Y-30043481D01*
X65750500Y-30042933D01*
X73395841Y-30042933D01*
X73396552Y-30046409D01*
X73397490Y-30050991D01*
X73399500Y-30070836D01*
X73399500Y-30079059D01*
X73414531Y-30135159D01*
X73415894Y-30140931D01*
X73427541Y-30197844D01*
X73431217Y-30205196D01*
X73438294Y-30223839D01*
X73440423Y-30231784D01*
X73440424Y-30231786D01*
X73469464Y-30282085D01*
X73472275Y-30287310D01*
X73498252Y-30339264D01*
X73503701Y-30345408D01*
X73515368Y-30361594D01*
X73519480Y-30368716D01*
X73519484Y-30368720D01*
X73560561Y-30409798D01*
X73564629Y-30414117D01*
X73603157Y-30457565D01*
X73610013Y-30462092D01*
X73625465Y-30474702D01*
X73631283Y-30480519D01*
X73631284Y-30480520D01*
X73681610Y-30509575D01*
X73686630Y-30512678D01*
X73735105Y-30544684D01*
X73742904Y-30547283D01*
X73761091Y-30555463D01*
X73768216Y-30559577D01*
X73824335Y-30574614D01*
X73830007Y-30576318D01*
X74681806Y-30860250D01*
X74731032Y-30896589D01*
X74749500Y-30954170D01*
X74749500Y-33047866D01*
X74749501Y-33047870D01*
X74755908Y-33107480D01*
X74755909Y-33107485D01*
X74806202Y-33242329D01*
X74881381Y-33342755D01*
X74892454Y-33357546D01*
X74892457Y-33357548D01*
X74892458Y-33357549D01*
X75007670Y-33443797D01*
X75142511Y-33494089D01*
X75142512Y-33494089D01*
X75142517Y-33494091D01*
X75202127Y-33500500D01*
X75797872Y-33500499D01*
X75857483Y-33494091D01*
X75939907Y-33463349D01*
X75992329Y-33443797D01*
X75992329Y-33443796D01*
X75992331Y-33443796D01*
X76107546Y-33357546D01*
X76193796Y-33242331D01*
X76206743Y-33207620D01*
X76244089Y-33107488D01*
X76244090Y-33107485D01*
X76244091Y-33107483D01*
X76250500Y-33047873D01*
X76250499Y-27952129D01*
X76749500Y-27952129D01*
X76749500Y-33047866D01*
X76749501Y-33047870D01*
X76755908Y-33107480D01*
X76755909Y-33107485D01*
X76806202Y-33242329D01*
X76881381Y-33342755D01*
X76892454Y-33357546D01*
X76892457Y-33357548D01*
X76892458Y-33357549D01*
X77007670Y-33443797D01*
X77142511Y-33494089D01*
X77142512Y-33494089D01*
X77142517Y-33494091D01*
X77202127Y-33500500D01*
X77797872Y-33500499D01*
X77857483Y-33494091D01*
X77939907Y-33463349D01*
X77992329Y-33443797D01*
X77992329Y-33443796D01*
X77992331Y-33443796D01*
X78107546Y-33357546D01*
X78193796Y-33242331D01*
X78206743Y-33207620D01*
X78244089Y-33107488D01*
X78244090Y-33107485D01*
X78244091Y-33107483D01*
X78250500Y-33047873D01*
X78250499Y-31452129D01*
X78849500Y-31452129D01*
X78849500Y-34047866D01*
X78849501Y-34047870D01*
X78855908Y-34107480D01*
X78855909Y-34107485D01*
X78906202Y-34242329D01*
X78992450Y-34357541D01*
X78992454Y-34357546D01*
X78992457Y-34357548D01*
X78992458Y-34357549D01*
X79107670Y-34443797D01*
X79242511Y-34494089D01*
X79242512Y-34494089D01*
X79242517Y-34494091D01*
X79302127Y-34500500D01*
X80497872Y-34500499D01*
X80557483Y-34494091D01*
X80624907Y-34468943D01*
X80692329Y-34443797D01*
X80692329Y-34443796D01*
X80692331Y-34443796D01*
X80807546Y-34357546D01*
X80893796Y-34242331D01*
X80944091Y-34107483D01*
X80950500Y-34047873D01*
X80950499Y-31452128D01*
X80944091Y-31392517D01*
X80944089Y-31392511D01*
X80893797Y-31257670D01*
X80807549Y-31142458D01*
X80807548Y-31142457D01*
X80807546Y-31142454D01*
X80797545Y-31134967D01*
X80692329Y-31056202D01*
X80557488Y-31005910D01*
X80557483Y-31005909D01*
X80557481Y-31005908D01*
X80557477Y-31005908D01*
X80526249Y-31002550D01*
X80497873Y-30999500D01*
X80497870Y-30999500D01*
X79302133Y-30999500D01*
X79302129Y-30999500D01*
X79302128Y-30999501D01*
X79294949Y-31000272D01*
X79242519Y-31005908D01*
X79242514Y-31005909D01*
X79107670Y-31056202D01*
X78992458Y-31142450D01*
X78992450Y-31142458D01*
X78906202Y-31257670D01*
X78855910Y-31392511D01*
X78855908Y-31392522D01*
X78849500Y-31452129D01*
X78250499Y-31452129D01*
X78250499Y-30480520D01*
X78250499Y-27952133D01*
X78250499Y-27952128D01*
X78244091Y-27892517D01*
X78244089Y-27892511D01*
X78193797Y-27757670D01*
X78107549Y-27642458D01*
X78107548Y-27642457D01*
X78107546Y-27642454D01*
X78107541Y-27642450D01*
X77992329Y-27556202D01*
X77857484Y-27505909D01*
X77851458Y-27504485D01*
X77851846Y-27502842D01*
X77824287Y-27493828D01*
X77731785Y-27440423D01*
X77680875Y-27426782D01*
X77579057Y-27399500D01*
X77420943Y-27399500D01*
X77268216Y-27440423D01*
X77268214Y-27440423D01*
X77268214Y-27440424D01*
X77175710Y-27493829D01*
X77148154Y-27502845D01*
X77148542Y-27504485D01*
X77142515Y-27505909D01*
X77007670Y-27556202D01*
X76892458Y-27642450D01*
X76892450Y-27642458D01*
X76806202Y-27757670D01*
X76755910Y-27892511D01*
X76755908Y-27892522D01*
X76749500Y-27952129D01*
X76250499Y-27952129D01*
X76250499Y-27952128D01*
X76244091Y-27892517D01*
X76244089Y-27892511D01*
X76193797Y-27757670D01*
X76107549Y-27642458D01*
X76107548Y-27642457D01*
X76107546Y-27642454D01*
X76107541Y-27642450D01*
X75992329Y-27556202D01*
X75857488Y-27505910D01*
X75857483Y-27505909D01*
X75857481Y-27505908D01*
X75857477Y-27505908D01*
X75821888Y-27502082D01*
X75797873Y-27499500D01*
X75797870Y-27499500D01*
X75202133Y-27499500D01*
X75202129Y-27499500D01*
X75202128Y-27499501D01*
X75194949Y-27500272D01*
X75142519Y-27505908D01*
X75142514Y-27505909D01*
X75007670Y-27556202D01*
X74892458Y-27642450D01*
X74892450Y-27642458D01*
X74806202Y-27757670D01*
X74755910Y-27892511D01*
X74755908Y-27892522D01*
X74749500Y-27952129D01*
X74749500Y-29479495D01*
X74730593Y-29537686D01*
X74681093Y-29573650D01*
X74619907Y-29573650D01*
X74619193Y-29573415D01*
X74257093Y-29452715D01*
X74238901Y-29444532D01*
X74231784Y-29440423D01*
X74231780Y-29440421D01*
X74175683Y-29425390D01*
X74170002Y-29423684D01*
X74114892Y-29405315D01*
X74114895Y-29405315D01*
X74106678Y-29404822D01*
X74087001Y-29401628D01*
X74079060Y-29399500D01*
X74079057Y-29399500D01*
X74020971Y-29399500D01*
X74015039Y-29399322D01*
X73957065Y-29395841D01*
X73957064Y-29395842D01*
X73949011Y-29397490D01*
X73929163Y-29399500D01*
X73920940Y-29399500D01*
X73864846Y-29414530D01*
X73859074Y-29415893D01*
X73802159Y-29427540D01*
X73802156Y-29427541D01*
X73794791Y-29431223D01*
X73776161Y-29438293D01*
X73768221Y-29440421D01*
X73768212Y-29440425D01*
X73717918Y-29469461D01*
X73712697Y-29472270D01*
X73660737Y-29498251D01*
X73654582Y-29503709D01*
X73638410Y-29515365D01*
X73631286Y-29519478D01*
X73631282Y-29519481D01*
X73590206Y-29560556D01*
X73585890Y-29564621D01*
X73542433Y-29603158D01*
X73542431Y-29603160D01*
X73537901Y-29610021D01*
X73525300Y-29625462D01*
X73519482Y-29631281D01*
X73490435Y-29681591D01*
X73487316Y-29686637D01*
X73455315Y-29735105D01*
X73455313Y-29735108D01*
X73452711Y-29742914D01*
X73444537Y-29761087D01*
X73440427Y-29768206D01*
X73440421Y-29768221D01*
X73425387Y-29824325D01*
X73423682Y-29830004D01*
X73405314Y-29885111D01*
X73405314Y-29885112D01*
X73404821Y-29893319D01*
X73401629Y-29912990D01*
X73399501Y-29920933D01*
X73399500Y-29920944D01*
X73399500Y-29979028D01*
X73399322Y-29984960D01*
X73395841Y-30042933D01*
X65750500Y-30042933D01*
X65750499Y-27952133D01*
X65750499Y-27952128D01*
X65744091Y-27892517D01*
X65744089Y-27892511D01*
X65693797Y-27757670D01*
X65607549Y-27642458D01*
X65607548Y-27642457D01*
X65607546Y-27642454D01*
X65607541Y-27642450D01*
X65492329Y-27556202D01*
X65357488Y-27505910D01*
X65357483Y-27505909D01*
X65357481Y-27505908D01*
X65357477Y-27505908D01*
X65321888Y-27502082D01*
X65297873Y-27499500D01*
X65297870Y-27499500D01*
X64702133Y-27499500D01*
X64702129Y-27499500D01*
X64702128Y-27499501D01*
X64694949Y-27500272D01*
X64642519Y-27505908D01*
X64642514Y-27505909D01*
X64507670Y-27556202D01*
X64392458Y-27642450D01*
X64392450Y-27642458D01*
X64306202Y-27757670D01*
X64255910Y-27892511D01*
X64255908Y-27892522D01*
X64249500Y-27952129D01*
X64249500Y-29700500D01*
X64230593Y-29758691D01*
X64181093Y-29794655D01*
X64150500Y-29799500D01*
X62799500Y-29799500D01*
X62741309Y-29780593D01*
X62705345Y-29731093D01*
X62700500Y-29700500D01*
X62700500Y-27931008D01*
X62700499Y-27931004D01*
X62673580Y-27795672D01*
X62655978Y-27753177D01*
X62620777Y-27668193D01*
X62620771Y-27668182D01*
X62544114Y-27553458D01*
X62446541Y-27455885D01*
X62331817Y-27379228D01*
X62331806Y-27379222D01*
X62204328Y-27326420D01*
X62068995Y-27299500D01*
X62068993Y-27299500D01*
X61931007Y-27299500D01*
X61931004Y-27299500D01*
X61795672Y-27326420D01*
X61795670Y-27326420D01*
X61668193Y-27379222D01*
X61668182Y-27379228D01*
X61553458Y-27455885D01*
X61455885Y-27553458D01*
X61379228Y-27668182D01*
X61379222Y-27668193D01*
X61326420Y-27795670D01*
X61326420Y-27795672D01*
X61299500Y-27931004D01*
X56248228Y-27931004D01*
X56244091Y-27892517D01*
X56244089Y-27892511D01*
X56193798Y-27757672D01*
X56193796Y-27757669D01*
X56170245Y-27726209D01*
X56150510Y-27668296D01*
X56150500Y-27666882D01*
X56150500Y-26949500D01*
X56169407Y-26891309D01*
X56218907Y-26855345D01*
X56249500Y-26850500D01*
X66464068Y-26850500D01*
X66464069Y-26850500D01*
X66589744Y-26825501D01*
X66708127Y-26776465D01*
X66814669Y-26705276D01*
X66905276Y-26614669D01*
X66976465Y-26508127D01*
X67025501Y-26389744D01*
X67050500Y-26264069D01*
X67050500Y-23093521D01*
X67069407Y-23035330D01*
X67090171Y-23014268D01*
X67105077Y-23003108D01*
X67132546Y-22982546D01*
X67184469Y-22913185D01*
X67234476Y-22877933D01*
X67286334Y-22876133D01*
X84092089Y-26819382D01*
X84107360Y-26824301D01*
X84110256Y-26825501D01*
X84160588Y-26835513D01*
X84163793Y-26836207D01*
X84213779Y-26847936D01*
X84216912Y-26848042D01*
X84232855Y-26849888D01*
X84235931Y-26850500D01*
X84287241Y-26850500D01*
X84290615Y-26850557D01*
X84341842Y-26852306D01*
X84344934Y-26851800D01*
X84360926Y-26850500D01*
X84364066Y-26850500D01*
X84364069Y-26850500D01*
X84414408Y-26840485D01*
X84417665Y-26839894D01*
X84468296Y-26831609D01*
X84471222Y-26830511D01*
X84486669Y-26826112D01*
X84489744Y-26825501D01*
X84537198Y-26805844D01*
X84540227Y-26804649D01*
X84588283Y-26786640D01*
X84590948Y-26784987D01*
X84605219Y-26777669D01*
X84608127Y-26776465D01*
X84650796Y-26747952D01*
X84653572Y-26746165D01*
X84697192Y-26719127D01*
X84699481Y-26716989D01*
X84712065Y-26707015D01*
X84714669Y-26705276D01*
X84750929Y-26669014D01*
X84753328Y-26666695D01*
X84790837Y-26631664D01*
X84792660Y-26629126D01*
X84803066Y-26616877D01*
X84805276Y-26614669D01*
X84833776Y-26572013D01*
X84835661Y-26569293D01*
X84865619Y-26527612D01*
X84866915Y-26524760D01*
X84874725Y-26510730D01*
X84876465Y-26508127D01*
X84896108Y-26460703D01*
X84897424Y-26457675D01*
X84918665Y-26410971D01*
X84919383Y-26407907D01*
X84924304Y-26392633D01*
X84925501Y-26389744D01*
X84935509Y-26339425D01*
X84936205Y-26336212D01*
X84947936Y-26286221D01*
X84948042Y-26283087D01*
X84949887Y-26267144D01*
X84950500Y-26264069D01*
X84950500Y-26212758D01*
X84950558Y-26209381D01*
X84952306Y-26158156D01*
X84951800Y-26155064D01*
X84950500Y-26139074D01*
X84950500Y-23599499D01*
X84969407Y-23541308D01*
X85018907Y-23505344D01*
X85049500Y-23500499D01*
X86297867Y-23500499D01*
X86297872Y-23500499D01*
X86357483Y-23494091D01*
X86424907Y-23468943D01*
X86492329Y-23443797D01*
X86492329Y-23443796D01*
X86492331Y-23443796D01*
X86607546Y-23357546D01*
X86693796Y-23242331D01*
X86744091Y-23107483D01*
X86750500Y-23047873D01*
X86750499Y-20952128D01*
X86744091Y-20892517D01*
X86739761Y-20880908D01*
X86693797Y-20757670D01*
X86607549Y-20642458D01*
X86607548Y-20642457D01*
X86607546Y-20642454D01*
X86534649Y-20587883D01*
X86492329Y-20556202D01*
X86357488Y-20505910D01*
X86357483Y-20505909D01*
X86357481Y-20505908D01*
X86357477Y-20505908D01*
X86326249Y-20502550D01*
X86297873Y-20499500D01*
X86297870Y-20499500D01*
X82302133Y-20499500D01*
X82302129Y-20499500D01*
X82302128Y-20499501D01*
X82294949Y-20500272D01*
X82242519Y-20505908D01*
X82242514Y-20505909D01*
X82107670Y-20556202D01*
X81992458Y-20642450D01*
X81992450Y-20642458D01*
X81906202Y-20757670D01*
X81855910Y-20892511D01*
X81855909Y-20892517D01*
X81849783Y-20949501D01*
X81849500Y-20952129D01*
X81849500Y-23047866D01*
X81849501Y-23047870D01*
X81855908Y-23107480D01*
X81855909Y-23107485D01*
X81906202Y-23242329D01*
X81992450Y-23357541D01*
X81992454Y-23357546D01*
X81992457Y-23357548D01*
X81992458Y-23357549D01*
X82107670Y-23443797D01*
X82242511Y-23494089D01*
X82242512Y-23494089D01*
X82242517Y-23494091D01*
X82302127Y-23500500D01*
X83550500Y-23500499D01*
X83608691Y-23519406D01*
X83644655Y-23568906D01*
X83649500Y-23599499D01*
X83649500Y-25254284D01*
X83630593Y-25312475D01*
X83581093Y-25348439D01*
X83527885Y-25350666D01*
X67351884Y-21555179D01*
X67299551Y-21523479D01*
X67275846Y-21467073D01*
X67275499Y-21458797D01*
X67275499Y-21327133D01*
X67275499Y-21327128D01*
X67269091Y-21267517D01*
X67254912Y-21229500D01*
X67218797Y-21132670D01*
X67132549Y-21017458D01*
X67132548Y-21017457D01*
X67132546Y-21017454D01*
X67112693Y-21002592D01*
X67017329Y-20931202D01*
X66882488Y-20880910D01*
X66882483Y-20880909D01*
X66882481Y-20880908D01*
X66882477Y-20880908D01*
X66851249Y-20877550D01*
X66822873Y-20874500D01*
X66822870Y-20874500D01*
X65977133Y-20874500D01*
X65977129Y-20874500D01*
X65977128Y-20874501D01*
X65969949Y-20875272D01*
X65917519Y-20880908D01*
X65917514Y-20880909D01*
X65782670Y-20931202D01*
X65667458Y-21017450D01*
X65667450Y-21017458D01*
X65581202Y-21132670D01*
X65530910Y-21267511D01*
X65530908Y-21267522D01*
X65527111Y-21302845D01*
X65525430Y-21318482D01*
X65524500Y-21327129D01*
X65524500Y-22672866D01*
X65524501Y-22672870D01*
X65530908Y-22732480D01*
X65530909Y-22732485D01*
X65581202Y-22867329D01*
X65632461Y-22935802D01*
X65667454Y-22982546D01*
X65667457Y-22982548D01*
X65667458Y-22982549D01*
X65709829Y-23014268D01*
X65745082Y-23064276D01*
X65749500Y-23093521D01*
X65749500Y-25450500D01*
X65730593Y-25508691D01*
X65681093Y-25544655D01*
X65650500Y-25549500D01*
X61699500Y-25549500D01*
X61641309Y-25530593D01*
X61605345Y-25481093D01*
X61600500Y-25450500D01*
X61600500Y-21327129D01*
X62724500Y-21327129D01*
X62724500Y-22672866D01*
X62724501Y-22672870D01*
X62730908Y-22732480D01*
X62730909Y-22732485D01*
X62781202Y-22867329D01*
X62832461Y-22935802D01*
X62867454Y-22982546D01*
X62867457Y-22982548D01*
X62867458Y-22982549D01*
X62982670Y-23068797D01*
X63117511Y-23119089D01*
X63117512Y-23119089D01*
X63117517Y-23119091D01*
X63177127Y-23125500D01*
X64022872Y-23125499D01*
X64082483Y-23119091D01*
X64151040Y-23093521D01*
X64217329Y-23068797D01*
X64217329Y-23068796D01*
X64217331Y-23068796D01*
X64332546Y-22982546D01*
X64418796Y-22867331D01*
X64424123Y-22853050D01*
X64469089Y-22732488D01*
X64469090Y-22732485D01*
X64469091Y-22732483D01*
X64475500Y-22672873D01*
X64475499Y-21327128D01*
X64469091Y-21267517D01*
X64454912Y-21229500D01*
X64418797Y-21132670D01*
X64332549Y-21017458D01*
X64332548Y-21017457D01*
X64332546Y-21017454D01*
X64332541Y-21017450D01*
X64329496Y-21014405D01*
X64301719Y-20959888D01*
X64300500Y-20944401D01*
X64300500Y-19931008D01*
X64300499Y-19931004D01*
X64273580Y-19795672D01*
X64220775Y-19668189D01*
X64220774Y-19668187D01*
X64220771Y-19668182D01*
X64144114Y-19553458D01*
X64046541Y-19455885D01*
X63931817Y-19379228D01*
X63931806Y-19379222D01*
X63804328Y-19326420D01*
X63668995Y-19299500D01*
X63668993Y-19299500D01*
X63531007Y-19299500D01*
X63531004Y-19299500D01*
X63395672Y-19326420D01*
X63395670Y-19326420D01*
X63268193Y-19379222D01*
X63268182Y-19379228D01*
X63153458Y-19455885D01*
X63055885Y-19553458D01*
X62979228Y-19668182D01*
X62979222Y-19668193D01*
X62926420Y-19795670D01*
X62926420Y-19795672D01*
X62899500Y-19931004D01*
X62899500Y-20944401D01*
X62880593Y-21002592D01*
X62870504Y-21014405D01*
X62867450Y-21017458D01*
X62781202Y-21132670D01*
X62730910Y-21267511D01*
X62730908Y-21267522D01*
X62727111Y-21302845D01*
X62725430Y-21318482D01*
X62724500Y-21327129D01*
X61600500Y-21327129D01*
X61600500Y-17920943D01*
X67399500Y-17920943D01*
X67399500Y-18079057D01*
X67440423Y-18231784D01*
X67519480Y-18368716D01*
X67631284Y-18480520D01*
X67768216Y-18559577D01*
X67920943Y-18600500D01*
X67920945Y-18600500D01*
X68079055Y-18600500D01*
X68079057Y-18600500D01*
X68231784Y-18559577D01*
X68368716Y-18480520D01*
X68406142Y-18443093D01*
X68460656Y-18415317D01*
X68521088Y-18424888D01*
X68564353Y-18468152D01*
X68569587Y-18480396D01*
X68572207Y-18487883D01*
X68652845Y-18597144D01*
X68652847Y-18597146D01*
X68652850Y-18597150D01*
X68652853Y-18597152D01*
X68652855Y-18597154D01*
X68762116Y-18677792D01*
X68762117Y-18677792D01*
X68762118Y-18677793D01*
X68890301Y-18722646D01*
X68920725Y-18725499D01*
X68920727Y-18725500D01*
X68920734Y-18725500D01*
X69429273Y-18725500D01*
X69429273Y-18725499D01*
X69459699Y-18722646D01*
X69587882Y-18677793D01*
X69697150Y-18597150D01*
X69777793Y-18487882D01*
X69822646Y-18359699D01*
X69825499Y-18329273D01*
X69825500Y-18329273D01*
X69825500Y-17670727D01*
X69825499Y-17670725D01*
X70174500Y-17670725D01*
X70174500Y-18329274D01*
X70177353Y-18359694D01*
X70177355Y-18359703D01*
X70222207Y-18487883D01*
X70302845Y-18597144D01*
X70302847Y-18597146D01*
X70302850Y-18597150D01*
X70302853Y-18597152D01*
X70302855Y-18597154D01*
X70412116Y-18677792D01*
X70412117Y-18677792D01*
X70412118Y-18677793D01*
X70540301Y-18722646D01*
X70570725Y-18725499D01*
X70570727Y-18725500D01*
X70570734Y-18725500D01*
X71079273Y-18725500D01*
X71079273Y-18725499D01*
X71109699Y-18722646D01*
X71237882Y-18677793D01*
X71237886Y-18677789D01*
X71244440Y-18674327D01*
X71245139Y-18675649D01*
X71295241Y-18658946D01*
X71339425Y-18668977D01*
X74443931Y-20184491D01*
X74487928Y-20227008D01*
X74499500Y-20273455D01*
X74499500Y-20681520D01*
X74499501Y-20681523D01*
X74514352Y-20775299D01*
X74514354Y-20775304D01*
X74571950Y-20888342D01*
X74661658Y-20978050D01*
X74774696Y-21035646D01*
X74868481Y-21050500D01*
X75231518Y-21050499D01*
X75231520Y-21050499D01*
X75231521Y-21050498D01*
X75278411Y-21043072D01*
X75325299Y-21035647D01*
X75325301Y-21035647D01*
X75325302Y-21035646D01*
X75325304Y-21035646D01*
X75371734Y-21011988D01*
X75432163Y-21002417D01*
X75486680Y-21030193D01*
X75514459Y-21084709D01*
X75504888Y-21145142D01*
X75504888Y-21145143D01*
X75464354Y-21224696D01*
X75449500Y-21318478D01*
X75449500Y-22556521D01*
X75449501Y-22556523D01*
X75464352Y-22650299D01*
X75464354Y-22650304D01*
X75521950Y-22763342D01*
X75611658Y-22853050D01*
X75724696Y-22910646D01*
X75818481Y-22925500D01*
X76181518Y-22925499D01*
X76181520Y-22925499D01*
X76181521Y-22925498D01*
X76228411Y-22918072D01*
X76275299Y-22910647D01*
X76275299Y-22910646D01*
X76275304Y-22910646D01*
X76388342Y-22853050D01*
X76478050Y-22763342D01*
X76535646Y-22650304D01*
X76550500Y-22556519D01*
X76550499Y-22412810D01*
X76569406Y-22354621D01*
X76618906Y-22318657D01*
X76649617Y-22313811D01*
X77484738Y-22314855D01*
X77542903Y-22333835D01*
X77554609Y-22343845D01*
X77631284Y-22420520D01*
X77768216Y-22499577D01*
X77920943Y-22540500D01*
X77920945Y-22540500D01*
X78079055Y-22540500D01*
X78079057Y-22540500D01*
X78231784Y-22499577D01*
X78368716Y-22420520D01*
X78480520Y-22308716D01*
X78559577Y-22171784D01*
X78600500Y-22019057D01*
X78600500Y-21860943D01*
X78559577Y-21708216D01*
X78480520Y-21571284D01*
X78368716Y-21459480D01*
X78231784Y-21380423D01*
X78079057Y-21339500D01*
X77920943Y-21339500D01*
X77768216Y-21380423D01*
X77642138Y-21453214D01*
X77631281Y-21459482D01*
X77555902Y-21534860D01*
X77501385Y-21562637D01*
X77485775Y-21563856D01*
X76649375Y-21562810D01*
X76591208Y-21543830D01*
X76555306Y-21494285D01*
X76550499Y-21463810D01*
X76550499Y-21318478D01*
X76550498Y-21318476D01*
X76535647Y-21224700D01*
X76535646Y-21224698D01*
X76535646Y-21224696D01*
X76478050Y-21111658D01*
X76388342Y-21021950D01*
X76275304Y-20964354D01*
X76275305Y-20964354D01*
X76181522Y-20949500D01*
X75818479Y-20949500D01*
X75818476Y-20949501D01*
X75724700Y-20964352D01*
X75724697Y-20964353D01*
X75678266Y-20988011D01*
X75617833Y-20997582D01*
X75563317Y-20969804D01*
X75535540Y-20915287D01*
X75545111Y-20854856D01*
X75585646Y-20775304D01*
X75600500Y-20681519D01*
X75600499Y-19443482D01*
X75600499Y-19443478D01*
X75600498Y-19443476D01*
X75585647Y-19349700D01*
X75585646Y-19349698D01*
X75585646Y-19349696D01*
X75528050Y-19236658D01*
X75438342Y-19146950D01*
X75325304Y-19089354D01*
X75325305Y-19089354D01*
X75231522Y-19074500D01*
X75231519Y-19074500D01*
X75143131Y-19074500D01*
X75084940Y-19055593D01*
X75050635Y-19010791D01*
X74027897Y-16330228D01*
X74024819Y-16269120D01*
X74058246Y-16217873D01*
X74089364Y-16200926D01*
X75420078Y-15761790D01*
X75481262Y-15761510D01*
X75509891Y-15776149D01*
X75512118Y-15777793D01*
X75640301Y-15822646D01*
X75670725Y-15825499D01*
X75670727Y-15825500D01*
X75670734Y-15825500D01*
X76329273Y-15825500D01*
X76329273Y-15825499D01*
X76359699Y-15822646D01*
X76487882Y-15777793D01*
X76597150Y-15697150D01*
X76677793Y-15587882D01*
X76722646Y-15459699D01*
X76725499Y-15429273D01*
X76725500Y-15429273D01*
X76725500Y-14920727D01*
X76725499Y-14920725D01*
X76725085Y-14916309D01*
X76722646Y-14890301D01*
X76677793Y-14762118D01*
X76597150Y-14652850D01*
X76597146Y-14652847D01*
X76597144Y-14652845D01*
X76487883Y-14572207D01*
X76359703Y-14527355D01*
X76359694Y-14527353D01*
X76329274Y-14524500D01*
X76329266Y-14524500D01*
X75670734Y-14524500D01*
X75670725Y-14524500D01*
X75640305Y-14527353D01*
X75640296Y-14527355D01*
X75512116Y-14572207D01*
X75402855Y-14652845D01*
X75402845Y-14652855D01*
X75322207Y-14762116D01*
X75277355Y-14890296D01*
X75277353Y-14890305D01*
X75274500Y-14920725D01*
X75274500Y-14947416D01*
X75255593Y-15005607D01*
X75206524Y-15041429D01*
X73431191Y-15627288D01*
X73418629Y-15629975D01*
X73418646Y-15630044D01*
X73412327Y-15631547D01*
X73376303Y-15645292D01*
X73372038Y-15646809D01*
X73335384Y-15658904D01*
X73329539Y-15661726D01*
X73329509Y-15661663D01*
X73325634Y-15663644D01*
X73325667Y-15663705D01*
X73319961Y-15666788D01*
X73288700Y-15689402D01*
X73284978Y-15691967D01*
X73252710Y-15713134D01*
X73247798Y-15717370D01*
X73247752Y-15717317D01*
X73244516Y-15720238D01*
X73244564Y-15720289D01*
X73239846Y-15724747D01*
X73215502Y-15754684D01*
X73212570Y-15758126D01*
X73186889Y-15786913D01*
X73183238Y-15792278D01*
X73183181Y-15792239D01*
X73180816Y-15795891D01*
X73180875Y-15795928D01*
X73177471Y-15801457D01*
X73161705Y-15836674D01*
X73159763Y-15840759D01*
X73142407Y-15875212D01*
X73140270Y-15881338D01*
X73140205Y-15881315D01*
X73138863Y-15885464D01*
X73138929Y-15885484D01*
X73137073Y-15891700D01*
X73130959Y-15929802D01*
X73130141Y-15934250D01*
X73122294Y-15972022D01*
X73121815Y-15978490D01*
X73121746Y-15978484D01*
X73121524Y-15982829D01*
X73121594Y-15982831D01*
X73121410Y-15989319D01*
X73125366Y-16027711D01*
X73125726Y-16032218D01*
X73127922Y-16070726D01*
X73129134Y-16077101D01*
X73129067Y-16077113D01*
X73129978Y-16081376D01*
X73130045Y-16081361D01*
X73131545Y-16087669D01*
X73145292Y-16123697D01*
X73146809Y-16127963D01*
X73158906Y-16164619D01*
X73161725Y-16170460D01*
X73161662Y-16170490D01*
X73167512Y-16181935D01*
X74267206Y-19064198D01*
X74270819Y-19073666D01*
X74273897Y-19134774D01*
X74240470Y-19186021D01*
X74183304Y-19207832D01*
X74134893Y-19197922D01*
X71531070Y-17926825D01*
X71487072Y-17884307D01*
X71475500Y-17837860D01*
X71475500Y-17670727D01*
X71475499Y-17670725D01*
X71472646Y-17640305D01*
X71472646Y-17640301D01*
X71427793Y-17512118D01*
X71347150Y-17402850D01*
X71347146Y-17402847D01*
X71347144Y-17402845D01*
X71237883Y-17322207D01*
X71109703Y-17277355D01*
X71109694Y-17277353D01*
X71079274Y-17274500D01*
X71079266Y-17274500D01*
X70570734Y-17274500D01*
X70570725Y-17274500D01*
X70540305Y-17277353D01*
X70540296Y-17277355D01*
X70412116Y-17322207D01*
X70302855Y-17402845D01*
X70302845Y-17402855D01*
X70222207Y-17512116D01*
X70177355Y-17640296D01*
X70177353Y-17640305D01*
X70174500Y-17670725D01*
X69825499Y-17670725D01*
X69822646Y-17640305D01*
X69822646Y-17640301D01*
X69777793Y-17512118D01*
X69697150Y-17402850D01*
X69697146Y-17402847D01*
X69697144Y-17402845D01*
X69587883Y-17322207D01*
X69459703Y-17277355D01*
X69459694Y-17277353D01*
X69429274Y-17274500D01*
X69429266Y-17274500D01*
X68920734Y-17274500D01*
X68920725Y-17274500D01*
X68890305Y-17277353D01*
X68890296Y-17277355D01*
X68762116Y-17322207D01*
X68652855Y-17402845D01*
X68652845Y-17402855D01*
X68572207Y-17512116D01*
X68572205Y-17512119D01*
X68569586Y-17519605D01*
X68532517Y-17568283D01*
X68473915Y-17585876D01*
X68416165Y-17565663D01*
X68406147Y-17556911D01*
X68368716Y-17519480D01*
X68231784Y-17440423D01*
X68079057Y-17399500D01*
X67920943Y-17399500D01*
X67768216Y-17440423D01*
X67631284Y-17519480D01*
X67519480Y-17631284D01*
X67440423Y-17768216D01*
X67399500Y-17920943D01*
X61600500Y-17920943D01*
X61600500Y-10020944D01*
X61600500Y-10020943D01*
X61559577Y-9868216D01*
X61480520Y-9731284D01*
X61368716Y-9619480D01*
X61231784Y-9540423D01*
X61079057Y-9499500D01*
X61079055Y-9499500D01*
X27699500Y-9499500D01*
X27641309Y-9480593D01*
X27605345Y-9431093D01*
X27600500Y-9400500D01*
X27600500Y-6775327D01*
X49849500Y-6775327D01*
X49849500Y-8424672D01*
X49849501Y-8424684D01*
X49864033Y-8497736D01*
X49864035Y-8497742D01*
X49919397Y-8580599D01*
X49919400Y-8580602D01*
X49938825Y-8593581D01*
X50002260Y-8635966D01*
X50057808Y-8647015D01*
X50075315Y-8650498D01*
X50075320Y-8650498D01*
X50075326Y-8650500D01*
X50075327Y-8650500D01*
X51724673Y-8650500D01*
X51724674Y-8650500D01*
X51797740Y-8635966D01*
X51880601Y-8580601D01*
X51935966Y-8497740D01*
X51950500Y-8424674D01*
X51950500Y-8375139D01*
X51969407Y-8316948D01*
X52018907Y-8280984D01*
X52080093Y-8280984D01*
X52119501Y-8305133D01*
X52230345Y-8415977D01*
X52402402Y-8530941D01*
X52593580Y-8610130D01*
X52796535Y-8650500D01*
X52796536Y-8650500D01*
X53003464Y-8650500D01*
X53003465Y-8650500D01*
X53206420Y-8610130D01*
X53397598Y-8530941D01*
X53569655Y-8415977D01*
X53715977Y-8269655D01*
X53830941Y-8097598D01*
X53910130Y-7906420D01*
X53950500Y-7703465D01*
X53950500Y-7496535D01*
X53910130Y-7293580D01*
X53830941Y-7102402D01*
X53715977Y-6930345D01*
X53569655Y-6784023D01*
X53569651Y-6784020D01*
X53397597Y-6669058D01*
X53206418Y-6589869D01*
X53003467Y-6549500D01*
X53003465Y-6549500D01*
X52796535Y-6549500D01*
X52796532Y-6549500D01*
X52593581Y-6589869D01*
X52402402Y-6669058D01*
X52230348Y-6784020D01*
X52230345Y-6784022D01*
X52230345Y-6784023D01*
X52119501Y-6894866D01*
X52064987Y-6922642D01*
X52004555Y-6913071D01*
X51961290Y-6869806D01*
X51950500Y-6824861D01*
X51950500Y-6775327D01*
X51950498Y-6775315D01*
X51947015Y-6757808D01*
X51935966Y-6702260D01*
X51880601Y-6619399D01*
X51880599Y-6619397D01*
X51797742Y-6564035D01*
X51797740Y-6564034D01*
X51797737Y-6564033D01*
X51797736Y-6564033D01*
X51724684Y-6549501D01*
X51724674Y-6549500D01*
X50075326Y-6549500D01*
X50075325Y-6549500D01*
X50075315Y-6549501D01*
X50002263Y-6564033D01*
X50002257Y-6564035D01*
X49919400Y-6619397D01*
X49919397Y-6619400D01*
X49864035Y-6702257D01*
X49864033Y-6702263D01*
X49849501Y-6775315D01*
X49849500Y-6775327D01*
X27600500Y-6775327D01*
X27600500Y-5420944D01*
X27593353Y-5394270D01*
X27559577Y-5268216D01*
X27480520Y-5131284D01*
X27368716Y-5019480D01*
X27231784Y-4940423D01*
X27079057Y-4899500D01*
X22979057Y-4899500D01*
X22820943Y-4899500D01*
X22668216Y-4940423D01*
X22531284Y-5019480D01*
X22419480Y-5131284D01*
X22340423Y-5268216D01*
X22306649Y-5394265D01*
X22299500Y-5420944D01*
X22299500Y-7984898D01*
X22280593Y-8043089D01*
X22255503Y-8067212D01*
X22230350Y-8084020D01*
X22230344Y-8084024D01*
X22230341Y-8084026D01*
X22119504Y-8194864D01*
X22064987Y-8222641D01*
X22004555Y-8213070D01*
X21961290Y-8169805D01*
X21950500Y-8124860D01*
X21950500Y-8075327D01*
X21950498Y-8075315D01*
X21946018Y-8052792D01*
X21935966Y-8002260D01*
X21880601Y-7919399D01*
X21880599Y-7919397D01*
X21797742Y-7864035D01*
X21797740Y-7864034D01*
X21797737Y-7864033D01*
X21797736Y-7864033D01*
X21724684Y-7849501D01*
X21724674Y-7849500D01*
X20075326Y-7849500D01*
X20075325Y-7849500D01*
X20075315Y-7849501D01*
X20002263Y-7864033D01*
X20002257Y-7864035D01*
X19919400Y-7919397D01*
X19919397Y-7919400D01*
X19864035Y-8002257D01*
X19864033Y-8002263D01*
X19849501Y-8075315D01*
X19849500Y-8075327D01*
X500500Y-8075327D01*
X500500Y-3878710D01*
X2149500Y-3878710D01*
X2149500Y-4121289D01*
X2181161Y-4361781D01*
X2181161Y-4361786D01*
X2243944Y-4596092D01*
X2243948Y-4596105D01*
X2336772Y-4820204D01*
X2336774Y-4820208D01*
X2336776Y-4820212D01*
X2458064Y-5030289D01*
X2458066Y-5030292D01*
X2605729Y-5222731D01*
X2605731Y-5222733D01*
X2605735Y-5222738D01*
X2777262Y-5394265D01*
X2777266Y-5394268D01*
X2777268Y-5394270D01*
X2969707Y-5541933D01*
X2969711Y-5541936D01*
X3179788Y-5663224D01*
X3403900Y-5756054D01*
X3638211Y-5818838D01*
X3878712Y-5850500D01*
X3878713Y-5850500D01*
X4121287Y-5850500D01*
X4121288Y-5850500D01*
X4361789Y-5818838D01*
X4596100Y-5756054D01*
X4820212Y-5663224D01*
X5030289Y-5541936D01*
X5222738Y-5394265D01*
X5394265Y-5222738D01*
X5541936Y-5030289D01*
X5663224Y-4820212D01*
X5756054Y-4596100D01*
X5818838Y-4361789D01*
X5850500Y-4121288D01*
X5850500Y-3878712D01*
X5850500Y-3878710D01*
X90149500Y-3878710D01*
X90149500Y-4121289D01*
X90181161Y-4361781D01*
X90181161Y-4361786D01*
X90243944Y-4596092D01*
X90243948Y-4596105D01*
X90336772Y-4820204D01*
X90336774Y-4820208D01*
X90336776Y-4820212D01*
X90458064Y-5030289D01*
X90458066Y-5030292D01*
X90605729Y-5222731D01*
X90605731Y-5222733D01*
X90605735Y-5222738D01*
X90777262Y-5394265D01*
X90777266Y-5394268D01*
X90777268Y-5394270D01*
X90969707Y-5541933D01*
X90969711Y-5541936D01*
X91179788Y-5663224D01*
X91403900Y-5756054D01*
X91638211Y-5818838D01*
X91878712Y-5850500D01*
X91878713Y-5850500D01*
X92121287Y-5850500D01*
X92121288Y-5850500D01*
X92361789Y-5818838D01*
X92596100Y-5756054D01*
X92820212Y-5663224D01*
X93030289Y-5541936D01*
X93222738Y-5394265D01*
X93394265Y-5222738D01*
X93541936Y-5030289D01*
X93663224Y-4820212D01*
X93756054Y-4596100D01*
X93818838Y-4361789D01*
X93850500Y-4121288D01*
X93850500Y-3878712D01*
X93818838Y-3638211D01*
X93756054Y-3403900D01*
X93663224Y-3179788D01*
X93541936Y-2969711D01*
X93394265Y-2777262D01*
X93222738Y-2605735D01*
X93222733Y-2605731D01*
X93222731Y-2605729D01*
X93030292Y-2458066D01*
X93030289Y-2458064D01*
X92820212Y-2336776D01*
X92820208Y-2336774D01*
X92820204Y-2336772D01*
X92596105Y-2243948D01*
X92596104Y-2243947D01*
X92596100Y-2243946D01*
X92361789Y-2181162D01*
X92361786Y-2181161D01*
X92361784Y-2181161D01*
X92121289Y-2149500D01*
X92121288Y-2149500D01*
X91878712Y-2149500D01*
X91878710Y-2149500D01*
X91638218Y-2181161D01*
X91638213Y-2181161D01*
X91403907Y-2243944D01*
X91403894Y-2243948D01*
X91179795Y-2336772D01*
X90969707Y-2458066D01*
X90777268Y-2605729D01*
X90605729Y-2777268D01*
X90458066Y-2969707D01*
X90336772Y-3179795D01*
X90243948Y-3403894D01*
X90243944Y-3403907D01*
X90181161Y-3638213D01*
X90181161Y-3638218D01*
X90149500Y-3878710D01*
X5850500Y-3878710D01*
X5818838Y-3638211D01*
X5756054Y-3403900D01*
X5663224Y-3179788D01*
X5541936Y-2969711D01*
X5394265Y-2777262D01*
X5222738Y-2605735D01*
X5222733Y-2605731D01*
X5222731Y-2605729D01*
X5030292Y-2458066D01*
X5030289Y-2458064D01*
X4820212Y-2336776D01*
X4820208Y-2336774D01*
X4820204Y-2336772D01*
X4596105Y-2243948D01*
X4596104Y-2243947D01*
X4596100Y-2243946D01*
X4361789Y-2181162D01*
X4361786Y-2181161D01*
X4361784Y-2181161D01*
X4121289Y-2149500D01*
X4121288Y-2149500D01*
X3878712Y-2149500D01*
X3878710Y-2149500D01*
X3638218Y-2181161D01*
X3638213Y-2181161D01*
X3403907Y-2243944D01*
X3403894Y-2243948D01*
X3179795Y-2336772D01*
X2969707Y-2458066D01*
X2777268Y-2605729D01*
X2605729Y-2777268D01*
X2458066Y-2969707D01*
X2336772Y-3179795D01*
X2243948Y-3403894D01*
X2243944Y-3403907D01*
X2181161Y-3638213D01*
X2181161Y-3638218D01*
X2149500Y-3878710D01*
X500500Y-3878710D01*
X500500Y-599500D01*
X519407Y-541309D01*
X568907Y-505345D01*
X599500Y-500500D01*
X95400500Y-500500D01*
X95458691Y-519407D01*
G37*
%TD.AperFunction*%
%TD*%
M02*
