%TF.GenerationSoftware,KiCad,Pcbnew,10.0.5*%
%TF.CreationDate,2026-08-03T21:53:20+04:00*%
%TF.ProjectId,espnoise-carrier,6573706e-6f69-4736-952d-636172726965,rev?*%
%TF.SameCoordinates,Original*%
%TF.FileFunction,Paste,Bot*%
%TF.FilePolarity,Positive*%
%FSLAX46Y46*%
G04 Gerber Fmt 4.6, Leading zero omitted, Abs format (unit mm)*
G04 Created by KiCad (PCBNEW 10.0.5) date 2026-08-03 21:53:20*
%MOMM*%
%LPD*%
G01*
G04 APERTURE LIST*
G04 Aperture macros list*
%AMRoundRect*
0 Rectangle with rounded corners*
0 $1 Rounding radius*
0 $2 $3 $4 $5 $6 $7 $8 $9 X,Y pos of 4 corners*
0 Add a 4 corners polygon primitive as box body*
4,1,4,$2,$3,$4,$5,$6,$7,$8,$9,$2,$3,0*
0 Add four circle primitives for the rounded corners*
1,1,$1+$1,$2,$3*
1,1,$1+$1,$4,$5*
1,1,$1+$1,$6,$7*
1,1,$1+$1,$8,$9*
0 Add four rect primitives between the rounded corners*
20,1,$1+$1,$2,$3,$4,$5,0*
20,1,$1+$1,$4,$5,$6,$7,0*
20,1,$1+$1,$6,$7,$8,$9,0*
20,1,$1+$1,$8,$9,$2,$3,0*%
G04 Aperture macros list end*
%ADD10C,0.000000*%
%ADD11RoundRect,0.200000X-0.200000X-0.275000X0.200000X-0.275000X0.200000X0.275000X-0.200000X0.275000X0*%
%ADD12RoundRect,0.250000X-0.250000X-2.500000X0.250000X-2.500000X0.250000X2.500000X-0.250000X2.500000X0*%
%ADD13RoundRect,0.250000X-0.550000X-1.250000X0.550000X-1.250000X0.550000X1.250000X-0.550000X1.250000X0*%
%ADD14RoundRect,0.250000X-1.950000X-1.000000X1.950000X-1.000000X1.950000X1.000000X-1.950000X1.000000X0*%
%ADD15RoundRect,0.250000X-0.625000X0.375000X-0.625000X-0.375000X0.625000X-0.375000X0.625000X0.375000X0*%
%ADD16RoundRect,0.225000X-0.250000X0.225000X-0.250000X-0.225000X0.250000X-0.225000X0.250000X0.225000X0*%
%ADD17RoundRect,0.225000X-0.225000X-0.250000X0.225000X-0.250000X0.225000X0.250000X-0.225000X0.250000X0*%
%ADD18RoundRect,0.200000X-0.275000X0.200000X-0.275000X-0.200000X0.275000X-0.200000X0.275000X0.200000X0*%
%ADD19RoundRect,0.150000X-0.587500X-0.150000X0.587500X-0.150000X0.587500X0.150000X-0.587500X0.150000X0*%
%ADD20RoundRect,0.100000X-0.637500X-0.100000X0.637500X-0.100000X0.637500X0.100000X-0.637500X0.100000X0*%
G04 APERTURE END LIST*
%TO.C,MIC1*%
G36*
X28350000Y-11863000D02*
G01*
X28850000Y-11863000D01*
X28850000Y-12285000D01*
X28350000Y-12285000D01*
X28350000Y-11863000D01*
G37*
G36*
X28350000Y-11041000D02*
G01*
X28850000Y-11041000D01*
X28850000Y-11463000D01*
X28350000Y-11463000D01*
X28350000Y-11041000D01*
G37*
G36*
X29250000Y-11863000D02*
G01*
X29750000Y-11863000D01*
X29750000Y-12285000D01*
X29250000Y-12285000D01*
X29250000Y-11863000D01*
G37*
G36*
X30150000Y-11041000D02*
G01*
X30650000Y-11041000D01*
X30650000Y-11463000D01*
X30150000Y-11463000D01*
X30150000Y-11041000D01*
G37*
G36*
X30150000Y-11863000D02*
G01*
X30650000Y-11863000D01*
X30650000Y-12285000D01*
X30150000Y-12285000D01*
X30150000Y-11863000D01*
G37*
D10*
G36*
X28960700Y-10159800D02*
G01*
X29002900Y-10263200D01*
X29064700Y-10356300D01*
X29143700Y-10435300D01*
X29236800Y-10497100D01*
X29340200Y-10539300D01*
X29450000Y-10560300D01*
X29450000Y-10811000D01*
X29284500Y-10783400D01*
X29128300Y-10722500D01*
X28987800Y-10630800D01*
X28869200Y-10512200D01*
X28777500Y-10371700D01*
X28716600Y-10215500D01*
X28689000Y-10050000D01*
X28939700Y-10050000D01*
X28960700Y-10159800D01*
G37*
G36*
X29450000Y-9439700D02*
G01*
X29340200Y-9460700D01*
X29236800Y-9502900D01*
X29143700Y-9564700D01*
X29064700Y-9643700D01*
X29002900Y-9736800D01*
X28960700Y-9840200D01*
X28939700Y-9950000D01*
X28689000Y-9950000D01*
X28716600Y-9784500D01*
X28777500Y-9628300D01*
X28869200Y-9487800D01*
X28987800Y-9369200D01*
X29128300Y-9277500D01*
X29284500Y-9216600D01*
X29450000Y-9189000D01*
X29450000Y-9439700D01*
G37*
G36*
X30283400Y-10215500D02*
G01*
X30222500Y-10371700D01*
X30130800Y-10512200D01*
X30012200Y-10630800D01*
X29871700Y-10722500D01*
X29715500Y-10783400D01*
X29550000Y-10811000D01*
X29550000Y-10560300D01*
X29659800Y-10539300D01*
X29763200Y-10497100D01*
X29856300Y-10435300D01*
X29935300Y-10356300D01*
X29997100Y-10263200D01*
X30039300Y-10159800D01*
X30060300Y-10050000D01*
X30311000Y-10050000D01*
X30283400Y-10215500D01*
G37*
G36*
X29715500Y-9216600D02*
G01*
X29871700Y-9277500D01*
X30012200Y-9369200D01*
X30130800Y-9487800D01*
X30222500Y-9628300D01*
X30283400Y-9784500D01*
X30311000Y-9950000D01*
X30060300Y-9950000D01*
X30039300Y-9840200D01*
X29997100Y-9736800D01*
X29935300Y-9643700D01*
X29856300Y-9564700D01*
X29763200Y-9502900D01*
X29659800Y-9460700D01*
X29550000Y-9439700D01*
X29550000Y-9189000D01*
X29715500Y-9216600D01*
G37*
%TD*%
D11*
%TO.C,R2*%
X59175000Y-17000000D03*
X60825000Y-17000000D03*
%TD*%
D12*
%TO.C,J2*%
X35500000Y-14500000D03*
X37500000Y-14500000D03*
X39500000Y-14500000D03*
X41500000Y-14500000D03*
X43500000Y-14500000D03*
X45500000Y-14500000D03*
X47500000Y-14500000D03*
X49500000Y-14500000D03*
X51500000Y-14500000D03*
X53500000Y-14500000D03*
D13*
X33100000Y-16750000D03*
X55900000Y-16750000D03*
%TD*%
D14*
%TO.C,C2*%
X68300000Y-15000000D03*
X75700000Y-15000000D03*
%TD*%
D15*
%TO.C,F1*%
X24500000Y-2600000D03*
X24500000Y-5400000D03*
%TD*%
D12*
%TO.C,J1*%
X74200000Y-4500000D03*
X76200000Y-4500000D03*
D13*
X71800000Y-6750000D03*
X78600000Y-6750000D03*
%TD*%
D16*
%TO.C,C3*%
X26500000Y-9225000D03*
X26500000Y-10775000D03*
%TD*%
D12*
%TO.C,J3*%
X58500000Y-4500000D03*
X60500000Y-4500000D03*
X62500000Y-4500000D03*
X64500000Y-4500000D03*
X66500000Y-4500000D03*
D13*
X56100000Y-6750000D03*
X68900000Y-6750000D03*
%TD*%
D17*
%TO.C,C1*%
X29725000Y-4000000D03*
X31275000Y-4000000D03*
%TD*%
D11*
%TO.C,R1*%
X47675000Y-5000000D03*
X49325000Y-5000000D03*
%TD*%
D18*
%TO.C,R3*%
X64000000Y-16175000D03*
X64000000Y-17825000D03*
%TD*%
D19*
%TO.C,Q1*%
X59562500Y-14950000D03*
X59562500Y-13050000D03*
X61437500Y-14000000D03*
%TD*%
D20*
%TO.C,U1*%
X36637500Y-6950000D03*
X36637500Y-6300000D03*
X36637500Y-5650000D03*
X36637500Y-5000000D03*
X36637500Y-4350000D03*
X36637500Y-3700000D03*
X36637500Y-3050000D03*
X42362500Y-3050000D03*
X42362500Y-3700000D03*
X42362500Y-4350000D03*
X42362500Y-5000000D03*
X42362500Y-5650000D03*
X42362500Y-6300000D03*
X42362500Y-6950000D03*
%TD*%
M02*
