%TF.GenerationSoftware,KiCad,Pcbnew,10.0.5*%
%TF.CreationDate,2026-08-03T21:53:20+04:00*%
%TF.ProjectId,espnoise-carrier,6573706e-6f69-4736-952d-636172726965,rev?*%
%TF.SameCoordinates,Original*%
%TF.FileFunction,Legend,Top*%
%TF.FilePolarity,Positive*%
%FSLAX46Y46*%
G04 Gerber Fmt 4.6, Leading zero omitted, Abs format (unit mm)*
G04 Created by KiCad (PCBNEW 10.0.5) date 2026-08-03 21:53:20*
%MOMM*%
%LPD*%
G01*
G04 APERTURE LIST*
%ADD10C,0.137500*%
%ADD11C,0.150000*%
%ADD12C,0.250000*%
%ADD13C,0.120000*%
%ADD14C,0.300000*%
%ADD15C,0.200000*%
G04 APERTURE END LIST*
D10*
X4158334Y-15259195D02*
X4341667Y-15259195D01*
X4420239Y-15547290D02*
X4158334Y-15547290D01*
X4158334Y-15547290D02*
X4158334Y-14997290D01*
X4158334Y-14997290D02*
X4420239Y-14997290D01*
X4603572Y-14997290D02*
X4970239Y-15547290D01*
X4970239Y-14997290D02*
X4603572Y-15547290D01*
X5101191Y-14997290D02*
X5415477Y-14997290D01*
X5258334Y-15547290D02*
X5258334Y-14997290D01*
X5598811Y-15259195D02*
X5782144Y-15259195D01*
X5860716Y-15547290D02*
X5598811Y-15547290D01*
X5598811Y-15547290D02*
X5598811Y-14997290D01*
X5598811Y-14997290D02*
X5860716Y-14997290D01*
X6096430Y-15547290D02*
X6096430Y-14997290D01*
X6096430Y-14997290D02*
X6410716Y-15547290D01*
X6410716Y-15547290D02*
X6410716Y-14997290D01*
X6672620Y-15547290D02*
X6672620Y-14997290D01*
X6672620Y-14997290D02*
X6803572Y-14997290D01*
X6803572Y-14997290D02*
X6882144Y-15023480D01*
X6882144Y-15023480D02*
X6934525Y-15075861D01*
X6934525Y-15075861D02*
X6960715Y-15128242D01*
X6960715Y-15128242D02*
X6986906Y-15233004D01*
X6986906Y-15233004D02*
X6986906Y-15311576D01*
X6986906Y-15311576D02*
X6960715Y-15416338D01*
X6960715Y-15416338D02*
X6934525Y-15468719D01*
X6934525Y-15468719D02*
X6882144Y-15521100D01*
X6882144Y-15521100D02*
X6803572Y-15547290D01*
X6803572Y-15547290D02*
X6672620Y-15547290D01*
X7222620Y-15259195D02*
X7405953Y-15259195D01*
X7484525Y-15547290D02*
X7222620Y-15547290D01*
X7222620Y-15547290D02*
X7222620Y-14997290D01*
X7222620Y-14997290D02*
X7484525Y-14997290D01*
X7720239Y-15547290D02*
X7720239Y-14997290D01*
X7720239Y-14997290D02*
X7851191Y-14997290D01*
X7851191Y-14997290D02*
X7929763Y-15023480D01*
X7929763Y-15023480D02*
X7982144Y-15075861D01*
X7982144Y-15075861D02*
X8008334Y-15128242D01*
X8008334Y-15128242D02*
X8034525Y-15233004D01*
X8034525Y-15233004D02*
X8034525Y-15311576D01*
X8034525Y-15311576D02*
X8008334Y-15416338D01*
X8008334Y-15416338D02*
X7982144Y-15468719D01*
X7982144Y-15468719D02*
X7929763Y-15521100D01*
X7929763Y-15521100D02*
X7851191Y-15547290D01*
X7851191Y-15547290D02*
X7720239Y-15547290D01*
X8270239Y-15259195D02*
X8689287Y-15259195D01*
X8689287Y-15416338D02*
X8270239Y-15416338D01*
X9055953Y-14997290D02*
X9160715Y-14997290D01*
X9160715Y-14997290D02*
X9213096Y-15023480D01*
X9213096Y-15023480D02*
X9265477Y-15075861D01*
X9265477Y-15075861D02*
X9291667Y-15180623D01*
X9291667Y-15180623D02*
X9291667Y-15363957D01*
X9291667Y-15363957D02*
X9265477Y-15468719D01*
X9265477Y-15468719D02*
X9213096Y-15521100D01*
X9213096Y-15521100D02*
X9160715Y-15547290D01*
X9160715Y-15547290D02*
X9055953Y-15547290D01*
X9055953Y-15547290D02*
X9003572Y-15521100D01*
X9003572Y-15521100D02*
X8951191Y-15468719D01*
X8951191Y-15468719D02*
X8925000Y-15363957D01*
X8925000Y-15363957D02*
X8925000Y-15180623D01*
X8925000Y-15180623D02*
X8951191Y-15075861D01*
X8951191Y-15075861D02*
X9003572Y-15023480D01*
X9003572Y-15023480D02*
X9055953Y-14997290D01*
X9527381Y-15547290D02*
X9527381Y-14997290D01*
X9527381Y-14997290D02*
X9841667Y-15547290D01*
X9841667Y-15547290D02*
X9841667Y-14997290D01*
X28910714Y-8147290D02*
X28910714Y-7597290D01*
X28910714Y-7597290D02*
X29094047Y-7990147D01*
X29094047Y-7990147D02*
X29277381Y-7597290D01*
X29277381Y-7597290D02*
X29277381Y-8147290D01*
X29539285Y-8147290D02*
X29539285Y-7597290D01*
X30115476Y-8094909D02*
X30089285Y-8121100D01*
X30089285Y-8121100D02*
X30010714Y-8147290D01*
X30010714Y-8147290D02*
X29958333Y-8147290D01*
X29958333Y-8147290D02*
X29879761Y-8121100D01*
X29879761Y-8121100D02*
X29827380Y-8068719D01*
X29827380Y-8068719D02*
X29801190Y-8016338D01*
X29801190Y-8016338D02*
X29774999Y-7911576D01*
X29774999Y-7911576D02*
X29774999Y-7833004D01*
X29774999Y-7833004D02*
X29801190Y-7728242D01*
X29801190Y-7728242D02*
X29827380Y-7675861D01*
X29827380Y-7675861D02*
X29879761Y-7623480D01*
X29879761Y-7623480D02*
X29958333Y-7597290D01*
X29958333Y-7597290D02*
X30010714Y-7597290D01*
X30010714Y-7597290D02*
X30089285Y-7623480D01*
X30089285Y-7623480D02*
X30115476Y-7649671D01*
D11*
X5158333Y-4652426D02*
X5251190Y-4683378D01*
X5251190Y-4683378D02*
X5282143Y-4714330D01*
X5282143Y-4714330D02*
X5313095Y-4776235D01*
X5313095Y-4776235D02*
X5313095Y-4869092D01*
X5313095Y-4869092D02*
X5282143Y-4930997D01*
X5282143Y-4930997D02*
X5251190Y-4961950D01*
X5251190Y-4961950D02*
X5189285Y-4992902D01*
X5189285Y-4992902D02*
X4941666Y-4992902D01*
X4941666Y-4992902D02*
X4941666Y-4342902D01*
X4941666Y-4342902D02*
X5158333Y-4342902D01*
X5158333Y-4342902D02*
X5220238Y-4373854D01*
X5220238Y-4373854D02*
X5251190Y-4404807D01*
X5251190Y-4404807D02*
X5282143Y-4466711D01*
X5282143Y-4466711D02*
X5282143Y-4528616D01*
X5282143Y-4528616D02*
X5251190Y-4590521D01*
X5251190Y-4590521D02*
X5220238Y-4621473D01*
X5220238Y-4621473D02*
X5158333Y-4652426D01*
X5158333Y-4652426D02*
X4941666Y-4652426D01*
X5591666Y-4342902D02*
X5591666Y-4869092D01*
X5591666Y-4869092D02*
X5622619Y-4930997D01*
X5622619Y-4930997D02*
X5653571Y-4961950D01*
X5653571Y-4961950D02*
X5715476Y-4992902D01*
X5715476Y-4992902D02*
X5839285Y-4992902D01*
X5839285Y-4992902D02*
X5901190Y-4961950D01*
X5901190Y-4961950D02*
X5932143Y-4930997D01*
X5932143Y-4930997D02*
X5963095Y-4869092D01*
X5963095Y-4869092D02*
X5963095Y-4342902D01*
X6210714Y-4342902D02*
X6644047Y-4342902D01*
X6644047Y-4342902D02*
X6210714Y-4992902D01*
X6210714Y-4992902D02*
X6644047Y-4992902D01*
X6829762Y-4342902D02*
X7263095Y-4342902D01*
X7263095Y-4342902D02*
X6829762Y-4992902D01*
X6829762Y-4992902D02*
X7263095Y-4992902D01*
X8129762Y-4342902D02*
X8253571Y-4342902D01*
X8253571Y-4342902D02*
X8315476Y-4373854D01*
X8315476Y-4373854D02*
X8377381Y-4435759D01*
X8377381Y-4435759D02*
X8408333Y-4559569D01*
X8408333Y-4559569D02*
X8408333Y-4776235D01*
X8408333Y-4776235D02*
X8377381Y-4900045D01*
X8377381Y-4900045D02*
X8315476Y-4961950D01*
X8315476Y-4961950D02*
X8253571Y-4992902D01*
X8253571Y-4992902D02*
X8129762Y-4992902D01*
X8129762Y-4992902D02*
X8067857Y-4961950D01*
X8067857Y-4961950D02*
X8005952Y-4900045D01*
X8005952Y-4900045D02*
X7975000Y-4776235D01*
X7975000Y-4776235D02*
X7975000Y-4559569D01*
X7975000Y-4559569D02*
X8005952Y-4435759D01*
X8005952Y-4435759D02*
X8067857Y-4373854D01*
X8067857Y-4373854D02*
X8129762Y-4342902D01*
X8686904Y-4992902D02*
X8686904Y-4342902D01*
X8686904Y-4342902D02*
X9058333Y-4992902D01*
X9058333Y-4992902D02*
X9058333Y-4342902D01*
X18901190Y-4992902D02*
X18901190Y-4342902D01*
X18901190Y-4342902D02*
X19117857Y-4807188D01*
X19117857Y-4807188D02*
X19334524Y-4342902D01*
X19334524Y-4342902D02*
X19334524Y-4992902D01*
X19644047Y-4342902D02*
X19644047Y-4869092D01*
X19644047Y-4869092D02*
X19675000Y-4930997D01*
X19675000Y-4930997D02*
X19705952Y-4961950D01*
X19705952Y-4961950D02*
X19767857Y-4992902D01*
X19767857Y-4992902D02*
X19891666Y-4992902D01*
X19891666Y-4992902D02*
X19953571Y-4961950D01*
X19953571Y-4961950D02*
X19984524Y-4930997D01*
X19984524Y-4930997D02*
X20015476Y-4869092D01*
X20015476Y-4869092D02*
X20015476Y-4342902D01*
X20232142Y-4342902D02*
X20603571Y-4342902D01*
X20417857Y-4992902D02*
X20417857Y-4342902D01*
X20820237Y-4652426D02*
X21036904Y-4652426D01*
X21129761Y-4992902D02*
X20820237Y-4992902D01*
X20820237Y-4992902D02*
X20820237Y-4342902D01*
X20820237Y-4342902D02*
X21129761Y-4342902D01*
X67467857Y-2252426D02*
X67560714Y-2283378D01*
X67560714Y-2283378D02*
X67591667Y-2314330D01*
X67591667Y-2314330D02*
X67622619Y-2376235D01*
X67622619Y-2376235D02*
X67622619Y-2469092D01*
X67622619Y-2469092D02*
X67591667Y-2530997D01*
X67591667Y-2530997D02*
X67560714Y-2561950D01*
X67560714Y-2561950D02*
X67498809Y-2592902D01*
X67498809Y-2592902D02*
X67251190Y-2592902D01*
X67251190Y-2592902D02*
X67251190Y-1942902D01*
X67251190Y-1942902D02*
X67467857Y-1942902D01*
X67467857Y-1942902D02*
X67529762Y-1973854D01*
X67529762Y-1973854D02*
X67560714Y-2004807D01*
X67560714Y-2004807D02*
X67591667Y-2066711D01*
X67591667Y-2066711D02*
X67591667Y-2128616D01*
X67591667Y-2128616D02*
X67560714Y-2190521D01*
X67560714Y-2190521D02*
X67529762Y-2221473D01*
X67529762Y-2221473D02*
X67467857Y-2252426D01*
X67467857Y-2252426D02*
X67251190Y-2252426D01*
X67901190Y-1942902D02*
X67901190Y-2469092D01*
X67901190Y-2469092D02*
X67932143Y-2530997D01*
X67932143Y-2530997D02*
X67963095Y-2561950D01*
X67963095Y-2561950D02*
X68025000Y-2592902D01*
X68025000Y-2592902D02*
X68148809Y-2592902D01*
X68148809Y-2592902D02*
X68210714Y-2561950D01*
X68210714Y-2561950D02*
X68241667Y-2530997D01*
X68241667Y-2530997D02*
X68272619Y-2469092D01*
X68272619Y-2469092D02*
X68272619Y-1942902D01*
X68520238Y-1942902D02*
X68953571Y-1942902D01*
X68953571Y-1942902D02*
X68520238Y-2592902D01*
X68520238Y-2592902D02*
X68953571Y-2592902D01*
X69139286Y-1942902D02*
X69572619Y-1942902D01*
X69572619Y-1942902D02*
X69139286Y-2592902D01*
X69139286Y-2592902D02*
X69572619Y-2592902D01*
X69820238Y-2252426D02*
X70036905Y-2252426D01*
X70129762Y-2592902D02*
X69820238Y-2592902D01*
X69820238Y-2592902D02*
X69820238Y-1942902D01*
X69820238Y-1942902D02*
X70129762Y-1942902D01*
X70779762Y-2592902D02*
X70563095Y-2283378D01*
X70408333Y-2592902D02*
X70408333Y-1942902D01*
X70408333Y-1942902D02*
X70655952Y-1942902D01*
X70655952Y-1942902D02*
X70717857Y-1973854D01*
X70717857Y-1973854D02*
X70748810Y-2004807D01*
X70748810Y-2004807D02*
X70779762Y-2066711D01*
X70779762Y-2066711D02*
X70779762Y-2159569D01*
X70779762Y-2159569D02*
X70748810Y-2221473D01*
X70748810Y-2221473D02*
X70717857Y-2252426D01*
X70717857Y-2252426D02*
X70655952Y-2283378D01*
X70655952Y-2283378D02*
X70408333Y-2283378D01*
X35785714Y-1246307D02*
X36035714Y-1246307D01*
X36142857Y-1639164D02*
X35785714Y-1639164D01*
X35785714Y-1639164D02*
X35785714Y-889164D01*
X35785714Y-889164D02*
X36142857Y-889164D01*
X36428571Y-1603450D02*
X36535714Y-1639164D01*
X36535714Y-1639164D02*
X36714285Y-1639164D01*
X36714285Y-1639164D02*
X36785714Y-1603450D01*
X36785714Y-1603450D02*
X36821428Y-1567735D01*
X36821428Y-1567735D02*
X36857142Y-1496307D01*
X36857142Y-1496307D02*
X36857142Y-1424878D01*
X36857142Y-1424878D02*
X36821428Y-1353450D01*
X36821428Y-1353450D02*
X36785714Y-1317735D01*
X36785714Y-1317735D02*
X36714285Y-1282021D01*
X36714285Y-1282021D02*
X36571428Y-1246307D01*
X36571428Y-1246307D02*
X36499999Y-1210592D01*
X36499999Y-1210592D02*
X36464285Y-1174878D01*
X36464285Y-1174878D02*
X36428571Y-1103450D01*
X36428571Y-1103450D02*
X36428571Y-1032021D01*
X36428571Y-1032021D02*
X36464285Y-960592D01*
X36464285Y-960592D02*
X36499999Y-924878D01*
X36499999Y-924878D02*
X36571428Y-889164D01*
X36571428Y-889164D02*
X36749999Y-889164D01*
X36749999Y-889164D02*
X36857142Y-924878D01*
X37178571Y-1639164D02*
X37178571Y-889164D01*
X37178571Y-889164D02*
X37464285Y-889164D01*
X37464285Y-889164D02*
X37535714Y-924878D01*
X37535714Y-924878D02*
X37571428Y-960592D01*
X37571428Y-960592D02*
X37607142Y-1032021D01*
X37607142Y-1032021D02*
X37607142Y-1139164D01*
X37607142Y-1139164D02*
X37571428Y-1210592D01*
X37571428Y-1210592D02*
X37535714Y-1246307D01*
X37535714Y-1246307D02*
X37464285Y-1282021D01*
X37464285Y-1282021D02*
X37178571Y-1282021D01*
X37928571Y-1639164D02*
X37928571Y-889164D01*
X37928571Y-889164D02*
X38357142Y-1639164D01*
X38357142Y-1639164D02*
X38357142Y-889164D01*
X38821428Y-1639164D02*
X38749999Y-1603450D01*
X38749999Y-1603450D02*
X38714285Y-1567735D01*
X38714285Y-1567735D02*
X38678571Y-1496307D01*
X38678571Y-1496307D02*
X38678571Y-1282021D01*
X38678571Y-1282021D02*
X38714285Y-1210592D01*
X38714285Y-1210592D02*
X38749999Y-1174878D01*
X38749999Y-1174878D02*
X38821428Y-1139164D01*
X38821428Y-1139164D02*
X38928571Y-1139164D01*
X38928571Y-1139164D02*
X38999999Y-1174878D01*
X38999999Y-1174878D02*
X39035714Y-1210592D01*
X39035714Y-1210592D02*
X39071428Y-1282021D01*
X39071428Y-1282021D02*
X39071428Y-1496307D01*
X39071428Y-1496307D02*
X39035714Y-1567735D01*
X39035714Y-1567735D02*
X38999999Y-1603450D01*
X38999999Y-1603450D02*
X38928571Y-1639164D01*
X38928571Y-1639164D02*
X38821428Y-1639164D01*
X39392856Y-1639164D02*
X39392856Y-1139164D01*
X39392856Y-889164D02*
X39357142Y-924878D01*
X39357142Y-924878D02*
X39392856Y-960592D01*
X39392856Y-960592D02*
X39428570Y-924878D01*
X39428570Y-924878D02*
X39392856Y-889164D01*
X39392856Y-889164D02*
X39392856Y-960592D01*
X39714285Y-1603450D02*
X39785713Y-1639164D01*
X39785713Y-1639164D02*
X39928570Y-1639164D01*
X39928570Y-1639164D02*
X39999999Y-1603450D01*
X39999999Y-1603450D02*
X40035713Y-1532021D01*
X40035713Y-1532021D02*
X40035713Y-1496307D01*
X40035713Y-1496307D02*
X39999999Y-1424878D01*
X39999999Y-1424878D02*
X39928570Y-1389164D01*
X39928570Y-1389164D02*
X39821428Y-1389164D01*
X39821428Y-1389164D02*
X39749999Y-1353450D01*
X39749999Y-1353450D02*
X39714285Y-1282021D01*
X39714285Y-1282021D02*
X39714285Y-1246307D01*
X39714285Y-1246307D02*
X39749999Y-1174878D01*
X39749999Y-1174878D02*
X39821428Y-1139164D01*
X39821428Y-1139164D02*
X39928570Y-1139164D01*
X39928570Y-1139164D02*
X39999999Y-1174878D01*
X40642856Y-1603450D02*
X40571428Y-1639164D01*
X40571428Y-1639164D02*
X40428571Y-1639164D01*
X40428571Y-1639164D02*
X40357142Y-1603450D01*
X40357142Y-1603450D02*
X40321428Y-1532021D01*
X40321428Y-1532021D02*
X40321428Y-1246307D01*
X40321428Y-1246307D02*
X40357142Y-1174878D01*
X40357142Y-1174878D02*
X40428571Y-1139164D01*
X40428571Y-1139164D02*
X40571428Y-1139164D01*
X40571428Y-1139164D02*
X40642856Y-1174878D01*
X40642856Y-1174878D02*
X40678571Y-1246307D01*
X40678571Y-1246307D02*
X40678571Y-1317735D01*
X40678571Y-1317735D02*
X40321428Y-1389164D01*
X41571428Y-1639164D02*
X41571428Y-1139164D01*
X41571428Y-1282021D02*
X41607142Y-1210592D01*
X41607142Y-1210592D02*
X41642857Y-1174878D01*
X41642857Y-1174878D02*
X41714285Y-1139164D01*
X41714285Y-1139164D02*
X41785714Y-1139164D01*
X42321428Y-1603450D02*
X42250000Y-1639164D01*
X42250000Y-1639164D02*
X42107143Y-1639164D01*
X42107143Y-1639164D02*
X42035714Y-1603450D01*
X42035714Y-1603450D02*
X42000000Y-1532021D01*
X42000000Y-1532021D02*
X42000000Y-1246307D01*
X42000000Y-1246307D02*
X42035714Y-1174878D01*
X42035714Y-1174878D02*
X42107143Y-1139164D01*
X42107143Y-1139164D02*
X42250000Y-1139164D01*
X42250000Y-1139164D02*
X42321428Y-1174878D01*
X42321428Y-1174878D02*
X42357143Y-1246307D01*
X42357143Y-1246307D02*
X42357143Y-1317735D01*
X42357143Y-1317735D02*
X42000000Y-1389164D01*
X42607142Y-1139164D02*
X42785714Y-1639164D01*
X42785714Y-1639164D02*
X42964285Y-1139164D01*
X44071429Y-1246307D02*
X44178572Y-1282021D01*
X44178572Y-1282021D02*
X44214286Y-1317735D01*
X44214286Y-1317735D02*
X44250000Y-1389164D01*
X44250000Y-1389164D02*
X44250000Y-1496307D01*
X44250000Y-1496307D02*
X44214286Y-1567735D01*
X44214286Y-1567735D02*
X44178572Y-1603450D01*
X44178572Y-1603450D02*
X44107143Y-1639164D01*
X44107143Y-1639164D02*
X43821429Y-1639164D01*
X43821429Y-1639164D02*
X43821429Y-889164D01*
X43821429Y-889164D02*
X44071429Y-889164D01*
X44071429Y-889164D02*
X44142858Y-924878D01*
X44142858Y-924878D02*
X44178572Y-960592D01*
X44178572Y-960592D02*
X44214286Y-1032021D01*
X44214286Y-1032021D02*
X44214286Y-1103450D01*
X44214286Y-1103450D02*
X44178572Y-1174878D01*
X44178572Y-1174878D02*
X44142858Y-1210592D01*
X44142858Y-1210592D02*
X44071429Y-1246307D01*
X44071429Y-1246307D02*
X43821429Y-1246307D01*
%TO.C,SW2*%
D12*
X3500000Y-6500000D02*
X10500000Y-6500000D01*
X10500000Y-13500000D01*
X3500000Y-13500000D01*
X3500000Y-6500000D01*
%TO.C,D1*%
D13*
X57390000Y-6950000D02*
X57390000Y-8650000D01*
X57390000Y-6950000D02*
X60050000Y-6950000D01*
X57390000Y-8650000D02*
X60050000Y-8650000D01*
%TO.C,SW1*%
D12*
X16500000Y-6500000D02*
X23500000Y-6500000D01*
X23500000Y-13500000D01*
X16500000Y-13500000D01*
X16500000Y-6500000D01*
%TO.C,BZ1*%
D14*
X73600000Y-3200000D02*
X75800000Y-3200000D01*
X75800000Y-3200000D02*
X75800000Y-5400000D01*
D15*
X62600000Y-3600000D02*
X75400000Y-3600000D01*
X75400000Y-16400000D01*
X62600000Y-16400000D01*
X62600000Y-3600000D01*
X70100000Y-10000000D02*
G75*
G02*
X67900000Y-10000000I-1100000J0D01*
G01*
X67900000Y-10000000D02*
G75*
G02*
X70100000Y-10000000I1100000J0D01*
G01*
%TD*%
M02*
