%TF.GenerationSoftware,KiCad,Pcbnew,10.0.5*%
%TF.CreationDate,2026-08-03T21:14:08+04:00*%
%TF.ProjectId,espnoise-carrier,6573706e-6f69-4736-952d-636172726965,rev?*%
%TF.SameCoordinates,Original*%
%TF.FileFunction,Soldermask,Bot*%
%TF.FilePolarity,Negative*%
%FSLAX46Y46*%
G04 Gerber Fmt 4.6, Leading zero omitted, Abs format (unit mm)*
G04 Created by KiCad (PCBNEW 10.0.5) date 2026-08-03 21:14:08*
%MOMM*%
%LPD*%
G01*
G04 APERTURE LIST*
G04 Aperture macros list*
%AMRoundRect*
0 Rectangle with rounded corners*
0 $1 Rounding radius*
0 $2 $3 $4 $5 $6 $7 $8 $9 X,Y pos of 4 corners*
0 Add a 4 corners polygon primitive as box body*
4,1,4,$2,$3,$4,$5,$6,$7,$8,$9,$2,$3,0*
0 Add four circle primitives for the rounded corners*
1,1,$1+$1,$2,$3*
1,1,$1+$1,$4,$5*
1,1,$1+$1,$6,$7*
1,1,$1+$1,$8,$9*
0 Add four rect primitives between the rounded corners*
20,1,$1+$1,$2,$3,$4,$5,0*
20,1,$1+$1,$4,$5,$6,$7,0*
20,1,$1+$1,$6,$7,$8,$9,0*
20,1,$1+$1,$8,$9,$2,$3,0*%
G04 Aperture macros list end*
%ADD10C,3.200000*%
%ADD11R,1.600000X1.600000*%
%ADD12C,1.600000*%
%ADD13RoundRect,0.100000X-0.100000X0.637500X-0.100000X-0.637500X0.100000X-0.637500X0.100000X0.637500X0*%
%ADD14RoundRect,0.150000X-0.150000X0.587500X-0.150000X-0.587500X0.150000X-0.587500X0.150000X0.587500X0*%
%ADD15RoundRect,0.250000X-0.250000X-2.500000X0.250000X-2.500000X0.250000X2.500000X-0.250000X2.500000X0*%
%ADD16RoundRect,0.250000X-0.550000X-1.250000X0.550000X-1.250000X0.550000X1.250000X-0.550000X1.250000X0*%
%ADD17RoundRect,0.250000X-0.375000X-0.625000X0.375000X-0.625000X0.375000X0.625000X-0.375000X0.625000X0*%
%ADD18RoundRect,0.200000X-0.275000X0.200000X-0.275000X-0.200000X0.275000X-0.200000X0.275000X0.200000X0*%
%ADD19RoundRect,0.200000X-0.200000X-0.275000X0.200000X-0.275000X0.200000X0.275000X-0.200000X0.275000X0*%
%ADD20RoundRect,0.225000X-0.250000X0.225000X-0.250000X-0.225000X0.250000X-0.225000X0.250000X0.225000X0*%
%ADD21RoundRect,0.250000X-1.950000X-1.000000X1.950000X-1.000000X1.950000X1.000000X-1.950000X1.000000X0*%
G04 APERTURE END LIST*
D10*
%TO.C,H1*%
X4000000Y-4000000D03*
%TD*%
D11*
%TO.C,SW2*%
X20900000Y-8900000D03*
D12*
X22900000Y-8900000D03*
X24900000Y-8900000D03*
X20900000Y-13900000D03*
X22900000Y-13900000D03*
X24900000Y-13900000D03*
%TD*%
D11*
%TO.C,SW1*%
X50900000Y-7600000D03*
D12*
X52900000Y-7600000D03*
X54900000Y-7600000D03*
X50900000Y-12600000D03*
X52900000Y-12600000D03*
X54900000Y-12600000D03*
%TD*%
D10*
%TO.C,H2*%
X92000000Y-4000000D03*
%TD*%
D13*
%TO.C,U1*%
X45050000Y-18137500D03*
X45700000Y-18137500D03*
X46350000Y-18137500D03*
X47000000Y-18137500D03*
X47650000Y-18137500D03*
X48300000Y-18137500D03*
X48950000Y-18137500D03*
X48950000Y-23862500D03*
X48300000Y-23862500D03*
X47650000Y-23862500D03*
X47000000Y-23862500D03*
X46350000Y-23862500D03*
X45700000Y-23862500D03*
X45050000Y-23862500D03*
%TD*%
D14*
%TO.C,Q1*%
X75050000Y-20062500D03*
X76950000Y-20062500D03*
X76000000Y-21937500D03*
%TD*%
D15*
%TO.C,J1*%
X65000000Y-30500000D03*
X67000000Y-30500000D03*
D16*
X62600000Y-32750000D03*
X69400000Y-32750000D03*
%TD*%
D17*
%TO.C,F1*%
X63600000Y-22000000D03*
X66400000Y-22000000D03*
%TD*%
D18*
%TO.C,R1*%
X54000000Y-20175000D03*
X54000000Y-21825000D03*
%TD*%
D19*
%TO.C,R2*%
X69175000Y-18000000D03*
X70825000Y-18000000D03*
%TD*%
D20*
%TO.C,C1*%
X42000000Y-20225000D03*
X42000000Y-21775000D03*
%TD*%
D15*
%TO.C,J5*%
X75500000Y-30500000D03*
X77500000Y-30500000D03*
D16*
X73100000Y-32750000D03*
X79900000Y-32750000D03*
%TD*%
D18*
%TO.C,R3*%
X76000000Y-15175000D03*
X76000000Y-16825000D03*
%TD*%
D15*
%TO.C,J3*%
X49500000Y-30500000D03*
X51500000Y-30500000D03*
X53500000Y-30500000D03*
X55500000Y-30500000D03*
X57500000Y-30500000D03*
D16*
X47100000Y-32750000D03*
X59900000Y-32750000D03*
%TD*%
D21*
%TO.C,C2*%
X84300000Y-22000000D03*
X92700000Y-22000000D03*
%TD*%
D15*
%TO.C,J2*%
X6000000Y-30500000D03*
X8000000Y-30500000D03*
X10000000Y-30500000D03*
X12000000Y-30500000D03*
X14000000Y-30500000D03*
X16000000Y-30500000D03*
X18000000Y-30500000D03*
X20000000Y-30500000D03*
X22000000Y-30500000D03*
X24000000Y-30500000D03*
D16*
X3600000Y-32750000D03*
X26400000Y-32750000D03*
%TD*%
D15*
%TO.C,J4*%
X32000000Y-30500000D03*
X34000000Y-30500000D03*
X36000000Y-30500000D03*
X38000000Y-30500000D03*
X40000000Y-30500000D03*
X42000000Y-30500000D03*
D16*
X29600000Y-32750000D03*
X44400000Y-32750000D03*
%TD*%
M02*
