%TF.GenerationSoftware,KiCad,Pcbnew,10.0.5*%
%TF.CreationDate,2026-08-03T21:53:20+04:00*%
%TF.ProjectId,espnoise-carrier,6573706e-6f69-4736-952d-636172726965,rev?*%
%TF.SameCoordinates,Original*%
%TF.FileFunction,Legend,Bot*%
%TF.FilePolarity,Positive*%
%FSLAX46Y46*%
G04 Gerber Fmt 4.6, Leading zero omitted, Abs format (unit mm)*
G04 Created by KiCad (PCBNEW 10.0.5) date 2026-08-03 21:53:20*
%MOMM*%
%LPD*%
G01*
G04 APERTURE LIST*
%ADD10C,0.125000*%
%ADD11C,0.137500*%
%ADD12C,0.150000*%
%ADD13C,0.120000*%
G04 APERTURE END LIST*
D10*
X76309522Y-10124809D02*
X76309522Y-10481952D01*
X76309522Y-10481952D02*
X76333331Y-10553380D01*
X76333331Y-10553380D02*
X76380950Y-10601000D01*
X76380950Y-10601000D02*
X76452379Y-10624809D01*
X76452379Y-10624809D02*
X76499998Y-10624809D01*
X75809522Y-10624809D02*
X76095236Y-10624809D01*
X75952379Y-10624809D02*
X75952379Y-10124809D01*
X75952379Y-10124809D02*
X75999998Y-10196238D01*
X75999998Y-10196238D02*
X76047617Y-10243857D01*
X76047617Y-10243857D02*
X76095236Y-10267666D01*
X75214285Y-10124809D02*
X75214285Y-10529571D01*
X75214285Y-10529571D02*
X75190475Y-10577190D01*
X75190475Y-10577190D02*
X75166666Y-10601000D01*
X75166666Y-10601000D02*
X75119047Y-10624809D01*
X75119047Y-10624809D02*
X75023809Y-10624809D01*
X75023809Y-10624809D02*
X74976190Y-10601000D01*
X74976190Y-10601000D02*
X74952380Y-10577190D01*
X74952380Y-10577190D02*
X74928571Y-10529571D01*
X74928571Y-10529571D02*
X74928571Y-10124809D01*
X74714284Y-10601000D02*
X74642856Y-10624809D01*
X74642856Y-10624809D02*
X74523808Y-10624809D01*
X74523808Y-10624809D02*
X74476189Y-10601000D01*
X74476189Y-10601000D02*
X74452380Y-10577190D01*
X74452380Y-10577190D02*
X74428570Y-10529571D01*
X74428570Y-10529571D02*
X74428570Y-10481952D01*
X74428570Y-10481952D02*
X74452380Y-10434333D01*
X74452380Y-10434333D02*
X74476189Y-10410523D01*
X74476189Y-10410523D02*
X74523808Y-10386714D01*
X74523808Y-10386714D02*
X74619046Y-10362904D01*
X74619046Y-10362904D02*
X74666665Y-10339095D01*
X74666665Y-10339095D02*
X74690475Y-10315285D01*
X74690475Y-10315285D02*
X74714284Y-10267666D01*
X74714284Y-10267666D02*
X74714284Y-10220047D01*
X74714284Y-10220047D02*
X74690475Y-10172428D01*
X74690475Y-10172428D02*
X74666665Y-10148619D01*
X74666665Y-10148619D02*
X74619046Y-10124809D01*
X74619046Y-10124809D02*
X74499999Y-10124809D01*
X74499999Y-10124809D02*
X74428570Y-10148619D01*
X74047618Y-10362904D02*
X73976190Y-10386714D01*
X73976190Y-10386714D02*
X73952380Y-10410523D01*
X73952380Y-10410523D02*
X73928571Y-10458142D01*
X73928571Y-10458142D02*
X73928571Y-10529571D01*
X73928571Y-10529571D02*
X73952380Y-10577190D01*
X73952380Y-10577190D02*
X73976190Y-10601000D01*
X73976190Y-10601000D02*
X74023809Y-10624809D01*
X74023809Y-10624809D02*
X74214285Y-10624809D01*
X74214285Y-10624809D02*
X74214285Y-10124809D01*
X74214285Y-10124809D02*
X74047618Y-10124809D01*
X74047618Y-10124809D02*
X73999999Y-10148619D01*
X73999999Y-10148619D02*
X73976190Y-10172428D01*
X73976190Y-10172428D02*
X73952380Y-10220047D01*
X73952380Y-10220047D02*
X73952380Y-10267666D01*
X73952380Y-10267666D02*
X73976190Y-10315285D01*
X73976190Y-10315285D02*
X73999999Y-10339095D01*
X73999999Y-10339095D02*
X74047618Y-10362904D01*
X74047618Y-10362904D02*
X74214285Y-10362904D01*
X73714285Y-10434333D02*
X73333333Y-10434333D01*
X72809523Y-10577190D02*
X72833332Y-10601000D01*
X72833332Y-10601000D02*
X72904761Y-10624809D01*
X72904761Y-10624809D02*
X72952380Y-10624809D01*
X72952380Y-10624809D02*
X73023808Y-10601000D01*
X73023808Y-10601000D02*
X73071427Y-10553380D01*
X73071427Y-10553380D02*
X73095237Y-10505761D01*
X73095237Y-10505761D02*
X73119046Y-10410523D01*
X73119046Y-10410523D02*
X73119046Y-10339095D01*
X73119046Y-10339095D02*
X73095237Y-10243857D01*
X73095237Y-10243857D02*
X73071427Y-10196238D01*
X73071427Y-10196238D02*
X73023808Y-10148619D01*
X73023808Y-10148619D02*
X72952380Y-10124809D01*
X72952380Y-10124809D02*
X72904761Y-10124809D01*
X72904761Y-10124809D02*
X72833332Y-10148619D01*
X72833332Y-10148619D02*
X72809523Y-10172428D01*
X71976190Y-10124809D02*
X72214285Y-10124809D01*
X72214285Y-10124809D02*
X72238094Y-10362904D01*
X72238094Y-10362904D02*
X72214285Y-10339095D01*
X72214285Y-10339095D02*
X72166666Y-10315285D01*
X72166666Y-10315285D02*
X72047618Y-10315285D01*
X72047618Y-10315285D02*
X71999999Y-10339095D01*
X71999999Y-10339095D02*
X71976190Y-10362904D01*
X71976190Y-10362904D02*
X71952380Y-10410523D01*
X71952380Y-10410523D02*
X71952380Y-10529571D01*
X71952380Y-10529571D02*
X71976190Y-10577190D01*
X71976190Y-10577190D02*
X71999999Y-10601000D01*
X71999999Y-10601000D02*
X72047618Y-10624809D01*
X72047618Y-10624809D02*
X72166666Y-10624809D01*
X72166666Y-10624809D02*
X72214285Y-10601000D01*
X72214285Y-10601000D02*
X72238094Y-10577190D01*
X71809523Y-10124809D02*
X71642857Y-10624809D01*
X71642857Y-10624809D02*
X71476190Y-10124809D01*
D11*
X45875000Y-10097290D02*
X45875000Y-10490147D01*
X45875000Y-10490147D02*
X45901191Y-10568719D01*
X45901191Y-10568719D02*
X45953572Y-10621100D01*
X45953572Y-10621100D02*
X46032143Y-10647290D01*
X46032143Y-10647290D02*
X46084524Y-10647290D01*
X45639286Y-10149671D02*
X45613095Y-10123480D01*
X45613095Y-10123480D02*
X45560714Y-10097290D01*
X45560714Y-10097290D02*
X45429762Y-10097290D01*
X45429762Y-10097290D02*
X45377381Y-10123480D01*
X45377381Y-10123480D02*
X45351190Y-10149671D01*
X45351190Y-10149671D02*
X45325000Y-10202052D01*
X45325000Y-10202052D02*
X45325000Y-10254433D01*
X45325000Y-10254433D02*
X45351190Y-10333004D01*
X45351190Y-10333004D02*
X45665476Y-10647290D01*
X45665476Y-10647290D02*
X45325000Y-10647290D01*
X44355951Y-10594909D02*
X44382142Y-10621100D01*
X44382142Y-10621100D02*
X44460713Y-10647290D01*
X44460713Y-10647290D02*
X44513094Y-10647290D01*
X44513094Y-10647290D02*
X44591666Y-10621100D01*
X44591666Y-10621100D02*
X44644047Y-10568719D01*
X44644047Y-10568719D02*
X44670237Y-10516338D01*
X44670237Y-10516338D02*
X44696428Y-10411576D01*
X44696428Y-10411576D02*
X44696428Y-10333004D01*
X44696428Y-10333004D02*
X44670237Y-10228242D01*
X44670237Y-10228242D02*
X44644047Y-10175861D01*
X44644047Y-10175861D02*
X44591666Y-10123480D01*
X44591666Y-10123480D02*
X44513094Y-10097290D01*
X44513094Y-10097290D02*
X44460713Y-10097290D01*
X44460713Y-10097290D02*
X44382142Y-10123480D01*
X44382142Y-10123480D02*
X44355951Y-10149671D01*
X44198809Y-10097290D02*
X43884523Y-10097290D01*
X44041666Y-10647290D02*
X44041666Y-10097290D01*
X43386903Y-10647290D02*
X43570237Y-10385385D01*
X43701189Y-10647290D02*
X43701189Y-10097290D01*
X43701189Y-10097290D02*
X43491665Y-10097290D01*
X43491665Y-10097290D02*
X43439284Y-10123480D01*
X43439284Y-10123480D02*
X43413094Y-10149671D01*
X43413094Y-10149671D02*
X43386903Y-10202052D01*
X43386903Y-10202052D02*
X43386903Y-10280623D01*
X43386903Y-10280623D02*
X43413094Y-10333004D01*
X43413094Y-10333004D02*
X43439284Y-10359195D01*
X43439284Y-10359195D02*
X43491665Y-10385385D01*
X43491665Y-10385385D02*
X43701189Y-10385385D01*
X42889284Y-10647290D02*
X43151189Y-10647290D01*
X43151189Y-10647290D02*
X43151189Y-10097290D01*
X63639285Y-10097290D02*
X63639285Y-10490147D01*
X63639285Y-10490147D02*
X63665476Y-10568719D01*
X63665476Y-10568719D02*
X63717857Y-10621100D01*
X63717857Y-10621100D02*
X63796428Y-10647290D01*
X63796428Y-10647290D02*
X63848809Y-10647290D01*
X63429761Y-10097290D02*
X63089285Y-10097290D01*
X63089285Y-10097290D02*
X63272618Y-10306814D01*
X63272618Y-10306814D02*
X63194047Y-10306814D01*
X63194047Y-10306814D02*
X63141666Y-10333004D01*
X63141666Y-10333004D02*
X63115475Y-10359195D01*
X63115475Y-10359195D02*
X63089285Y-10411576D01*
X63089285Y-10411576D02*
X63089285Y-10542528D01*
X63089285Y-10542528D02*
X63115475Y-10594909D01*
X63115475Y-10594909D02*
X63141666Y-10621100D01*
X63141666Y-10621100D02*
X63194047Y-10647290D01*
X63194047Y-10647290D02*
X63351190Y-10647290D01*
X63351190Y-10647290D02*
X63403571Y-10621100D01*
X63403571Y-10621100D02*
X63429761Y-10594909D01*
X62172617Y-10647290D02*
X62434522Y-10647290D01*
X62434522Y-10647290D02*
X62434522Y-10097290D01*
X61989284Y-10359195D02*
X61805951Y-10359195D01*
X61727379Y-10647290D02*
X61989284Y-10647290D01*
X61989284Y-10647290D02*
X61989284Y-10097290D01*
X61989284Y-10097290D02*
X61727379Y-10097290D01*
X61491665Y-10647290D02*
X61491665Y-10097290D01*
X61491665Y-10097290D02*
X61360713Y-10097290D01*
X61360713Y-10097290D02*
X61282141Y-10123480D01*
X61282141Y-10123480D02*
X61229760Y-10175861D01*
X61229760Y-10175861D02*
X61203570Y-10228242D01*
X61203570Y-10228242D02*
X61177379Y-10333004D01*
X61177379Y-10333004D02*
X61177379Y-10411576D01*
X61177379Y-10411576D02*
X61203570Y-10516338D01*
X61203570Y-10516338D02*
X61229760Y-10568719D01*
X61229760Y-10568719D02*
X61282141Y-10621100D01*
X61282141Y-10621100D02*
X61360713Y-10647290D01*
X61360713Y-10647290D02*
X61491665Y-10647290D01*
D12*
X47211902Y-18752426D02*
X47119045Y-18783378D01*
X47119045Y-18783378D02*
X47088092Y-18814330D01*
X47088092Y-18814330D02*
X47057140Y-18876235D01*
X47057140Y-18876235D02*
X47057140Y-18969092D01*
X47057140Y-18969092D02*
X47088092Y-19030997D01*
X47088092Y-19030997D02*
X47119045Y-19061950D01*
X47119045Y-19061950D02*
X47180950Y-19092902D01*
X47180950Y-19092902D02*
X47428569Y-19092902D01*
X47428569Y-19092902D02*
X47428569Y-18442902D01*
X47428569Y-18442902D02*
X47211902Y-18442902D01*
X47211902Y-18442902D02*
X47149997Y-18473854D01*
X47149997Y-18473854D02*
X47119045Y-18504807D01*
X47119045Y-18504807D02*
X47088092Y-18566711D01*
X47088092Y-18566711D02*
X47088092Y-18628616D01*
X47088092Y-18628616D02*
X47119045Y-18690521D01*
X47119045Y-18690521D02*
X47149997Y-18721473D01*
X47149997Y-18721473D02*
X47211902Y-18752426D01*
X47211902Y-18752426D02*
X47428569Y-18752426D01*
X46654759Y-18442902D02*
X46530950Y-18442902D01*
X46530950Y-18442902D02*
X46469045Y-18473854D01*
X46469045Y-18473854D02*
X46407140Y-18535759D01*
X46407140Y-18535759D02*
X46376188Y-18659569D01*
X46376188Y-18659569D02*
X46376188Y-18876235D01*
X46376188Y-18876235D02*
X46407140Y-19000045D01*
X46407140Y-19000045D02*
X46469045Y-19061950D01*
X46469045Y-19061950D02*
X46530950Y-19092902D01*
X46530950Y-19092902D02*
X46654759Y-19092902D01*
X46654759Y-19092902D02*
X46716664Y-19061950D01*
X46716664Y-19061950D02*
X46778569Y-19000045D01*
X46778569Y-19000045D02*
X46809521Y-18876235D01*
X46809521Y-18876235D02*
X46809521Y-18659569D01*
X46809521Y-18659569D02*
X46778569Y-18535759D01*
X46778569Y-18535759D02*
X46716664Y-18473854D01*
X46716664Y-18473854D02*
X46654759Y-18442902D01*
X46190474Y-18442902D02*
X45819045Y-18442902D01*
X46004759Y-19092902D02*
X46004759Y-18442902D01*
X45695236Y-18442902D02*
X45323807Y-18442902D01*
X45509521Y-19092902D02*
X45509521Y-18442902D01*
X44983331Y-18442902D02*
X44859522Y-18442902D01*
X44859522Y-18442902D02*
X44797617Y-18473854D01*
X44797617Y-18473854D02*
X44735712Y-18535759D01*
X44735712Y-18535759D02*
X44704760Y-18659569D01*
X44704760Y-18659569D02*
X44704760Y-18876235D01*
X44704760Y-18876235D02*
X44735712Y-19000045D01*
X44735712Y-19000045D02*
X44797617Y-19061950D01*
X44797617Y-19061950D02*
X44859522Y-19092902D01*
X44859522Y-19092902D02*
X44983331Y-19092902D01*
X44983331Y-19092902D02*
X45045236Y-19061950D01*
X45045236Y-19061950D02*
X45107141Y-19000045D01*
X45107141Y-19000045D02*
X45138093Y-18876235D01*
X45138093Y-18876235D02*
X45138093Y-18659569D01*
X45138093Y-18659569D02*
X45107141Y-18535759D01*
X45107141Y-18535759D02*
X45045236Y-18473854D01*
X45045236Y-18473854D02*
X44983331Y-18442902D01*
X44426189Y-19092902D02*
X44426189Y-18442902D01*
X44426189Y-18442902D02*
X44209522Y-18907188D01*
X44209522Y-18907188D02*
X43992855Y-18442902D01*
X43992855Y-18442902D02*
X43992855Y-19092902D01*
X43188094Y-18845283D02*
X42692856Y-18845283D01*
X41516665Y-19030997D02*
X41547617Y-19061950D01*
X41547617Y-19061950D02*
X41640475Y-19092902D01*
X41640475Y-19092902D02*
X41702379Y-19092902D01*
X41702379Y-19092902D02*
X41795236Y-19061950D01*
X41795236Y-19061950D02*
X41857141Y-19000045D01*
X41857141Y-19000045D02*
X41888094Y-18938140D01*
X41888094Y-18938140D02*
X41919046Y-18814330D01*
X41919046Y-18814330D02*
X41919046Y-18721473D01*
X41919046Y-18721473D02*
X41888094Y-18597664D01*
X41888094Y-18597664D02*
X41857141Y-18535759D01*
X41857141Y-18535759D02*
X41795236Y-18473854D01*
X41795236Y-18473854D02*
X41702379Y-18442902D01*
X41702379Y-18442902D02*
X41640475Y-18442902D01*
X41640475Y-18442902D02*
X41547617Y-18473854D01*
X41547617Y-18473854D02*
X41516665Y-18504807D01*
X41114284Y-18442902D02*
X40990475Y-18442902D01*
X40990475Y-18442902D02*
X40928570Y-18473854D01*
X40928570Y-18473854D02*
X40866665Y-18535759D01*
X40866665Y-18535759D02*
X40835713Y-18659569D01*
X40835713Y-18659569D02*
X40835713Y-18876235D01*
X40835713Y-18876235D02*
X40866665Y-19000045D01*
X40866665Y-19000045D02*
X40928570Y-19061950D01*
X40928570Y-19061950D02*
X40990475Y-19092902D01*
X40990475Y-19092902D02*
X41114284Y-19092902D01*
X41114284Y-19092902D02*
X41176189Y-19061950D01*
X41176189Y-19061950D02*
X41238094Y-19000045D01*
X41238094Y-19000045D02*
X41269046Y-18876235D01*
X41269046Y-18876235D02*
X41269046Y-18659569D01*
X41269046Y-18659569D02*
X41238094Y-18535759D01*
X41238094Y-18535759D02*
X41176189Y-18473854D01*
X41176189Y-18473854D02*
X41114284Y-18442902D01*
X40557142Y-19092902D02*
X40557142Y-18442902D01*
X40557142Y-18442902D02*
X40185713Y-19092902D01*
X40185713Y-19092902D02*
X40185713Y-18442902D01*
X39876190Y-19092902D02*
X39876190Y-18442902D01*
X39876190Y-18442902D02*
X39504761Y-19092902D01*
X39504761Y-19092902D02*
X39504761Y-18442902D01*
X39195238Y-18752426D02*
X38978571Y-18752426D01*
X38885714Y-19092902D02*
X39195238Y-19092902D01*
X39195238Y-19092902D02*
X39195238Y-18442902D01*
X39195238Y-18442902D02*
X38885714Y-18442902D01*
X38235714Y-19030997D02*
X38266666Y-19061950D01*
X38266666Y-19061950D02*
X38359524Y-19092902D01*
X38359524Y-19092902D02*
X38421428Y-19092902D01*
X38421428Y-19092902D02*
X38514285Y-19061950D01*
X38514285Y-19061950D02*
X38576190Y-19000045D01*
X38576190Y-19000045D02*
X38607143Y-18938140D01*
X38607143Y-18938140D02*
X38638095Y-18814330D01*
X38638095Y-18814330D02*
X38638095Y-18721473D01*
X38638095Y-18721473D02*
X38607143Y-18597664D01*
X38607143Y-18597664D02*
X38576190Y-18535759D01*
X38576190Y-18535759D02*
X38514285Y-18473854D01*
X38514285Y-18473854D02*
X38421428Y-18442902D01*
X38421428Y-18442902D02*
X38359524Y-18442902D01*
X38359524Y-18442902D02*
X38266666Y-18473854D01*
X38266666Y-18473854D02*
X38235714Y-18504807D01*
X38050000Y-18442902D02*
X37678571Y-18442902D01*
X37864285Y-19092902D02*
X37864285Y-18442902D01*
X37338095Y-18442902D02*
X37214286Y-18442902D01*
X37214286Y-18442902D02*
X37152381Y-18473854D01*
X37152381Y-18473854D02*
X37090476Y-18535759D01*
X37090476Y-18535759D02*
X37059524Y-18659569D01*
X37059524Y-18659569D02*
X37059524Y-18876235D01*
X37059524Y-18876235D02*
X37090476Y-19000045D01*
X37090476Y-19000045D02*
X37152381Y-19061950D01*
X37152381Y-19061950D02*
X37214286Y-19092902D01*
X37214286Y-19092902D02*
X37338095Y-19092902D01*
X37338095Y-19092902D02*
X37400000Y-19061950D01*
X37400000Y-19061950D02*
X37461905Y-19000045D01*
X37461905Y-19000045D02*
X37492857Y-18876235D01*
X37492857Y-18876235D02*
X37492857Y-18659569D01*
X37492857Y-18659569D02*
X37461905Y-18535759D01*
X37461905Y-18535759D02*
X37400000Y-18473854D01*
X37400000Y-18473854D02*
X37338095Y-18442902D01*
X36409524Y-19092902D02*
X36626191Y-18783378D01*
X36780953Y-19092902D02*
X36780953Y-18442902D01*
X36780953Y-18442902D02*
X36533334Y-18442902D01*
X36533334Y-18442902D02*
X36471429Y-18473854D01*
X36471429Y-18473854D02*
X36440476Y-18504807D01*
X36440476Y-18504807D02*
X36409524Y-18566711D01*
X36409524Y-18566711D02*
X36409524Y-18659569D01*
X36409524Y-18659569D02*
X36440476Y-18721473D01*
X36440476Y-18721473D02*
X36471429Y-18752426D01*
X36471429Y-18752426D02*
X36533334Y-18783378D01*
X36533334Y-18783378D02*
X36780953Y-18783378D01*
X36161905Y-19061950D02*
X36069048Y-19092902D01*
X36069048Y-19092902D02*
X35914286Y-19092902D01*
X35914286Y-19092902D02*
X35852381Y-19061950D01*
X35852381Y-19061950D02*
X35821429Y-19030997D01*
X35821429Y-19030997D02*
X35790476Y-18969092D01*
X35790476Y-18969092D02*
X35790476Y-18907188D01*
X35790476Y-18907188D02*
X35821429Y-18845283D01*
X35821429Y-18845283D02*
X35852381Y-18814330D01*
X35852381Y-18814330D02*
X35914286Y-18783378D01*
X35914286Y-18783378D02*
X36038095Y-18752426D01*
X36038095Y-18752426D02*
X36100000Y-18721473D01*
X36100000Y-18721473D02*
X36130953Y-18690521D01*
X36130953Y-18690521D02*
X36161905Y-18628616D01*
X36161905Y-18628616D02*
X36161905Y-18566711D01*
X36161905Y-18566711D02*
X36130953Y-18504807D01*
X36130953Y-18504807D02*
X36100000Y-18473854D01*
X36100000Y-18473854D02*
X36038095Y-18442902D01*
X36038095Y-18442902D02*
X35883334Y-18442902D01*
X35883334Y-18442902D02*
X35790476Y-18473854D01*
X35016667Y-19092902D02*
X35016667Y-18442902D01*
X35016667Y-18442902D02*
X34861905Y-18442902D01*
X34861905Y-18442902D02*
X34769048Y-18473854D01*
X34769048Y-18473854D02*
X34707143Y-18535759D01*
X34707143Y-18535759D02*
X34676190Y-18597664D01*
X34676190Y-18597664D02*
X34645238Y-18721473D01*
X34645238Y-18721473D02*
X34645238Y-18814330D01*
X34645238Y-18814330D02*
X34676190Y-18938140D01*
X34676190Y-18938140D02*
X34707143Y-19000045D01*
X34707143Y-19000045D02*
X34769048Y-19061950D01*
X34769048Y-19061950D02*
X34861905Y-19092902D01*
X34861905Y-19092902D02*
X35016667Y-19092902D01*
X34242857Y-18442902D02*
X34119048Y-18442902D01*
X34119048Y-18442902D02*
X34057143Y-18473854D01*
X34057143Y-18473854D02*
X33995238Y-18535759D01*
X33995238Y-18535759D02*
X33964286Y-18659569D01*
X33964286Y-18659569D02*
X33964286Y-18876235D01*
X33964286Y-18876235D02*
X33995238Y-19000045D01*
X33995238Y-19000045D02*
X34057143Y-19061950D01*
X34057143Y-19061950D02*
X34119048Y-19092902D01*
X34119048Y-19092902D02*
X34242857Y-19092902D01*
X34242857Y-19092902D02*
X34304762Y-19061950D01*
X34304762Y-19061950D02*
X34366667Y-19000045D01*
X34366667Y-19000045D02*
X34397619Y-18876235D01*
X34397619Y-18876235D02*
X34397619Y-18659569D01*
X34397619Y-18659569D02*
X34366667Y-18535759D01*
X34366667Y-18535759D02*
X34304762Y-18473854D01*
X34304762Y-18473854D02*
X34242857Y-18442902D01*
X33747619Y-18442902D02*
X33592857Y-19092902D01*
X33592857Y-19092902D02*
X33469048Y-18628616D01*
X33469048Y-18628616D02*
X33345238Y-19092902D01*
X33345238Y-19092902D02*
X33190477Y-18442902D01*
X32942858Y-19092902D02*
X32942858Y-18442902D01*
X32942858Y-18442902D02*
X32571429Y-19092902D01*
X32571429Y-19092902D02*
X32571429Y-18442902D01*
%TO.C,MIC1*%
D13*
X28075000Y-8860000D02*
X28075000Y-12260000D01*
X28375000Y-12560000D02*
X30925000Y-12560000D01*
X30925000Y-8860000D02*
X28075000Y-8860000D01*
X30925000Y-12560000D02*
X30925000Y-8860000D01*
X28075000Y-12560000D02*
X27795000Y-12560000D01*
X28075000Y-12840000D01*
X28075000Y-12560000D01*
G36*
X28075000Y-12840000D02*
G01*
X27795000Y-12560000D01*
X28075000Y-12560000D01*
X28075000Y-12840000D01*
G37*
%TO.C,R2*%
X59762742Y-16477500D02*
X60237258Y-16477500D01*
X59762742Y-17522500D02*
X60237258Y-17522500D01*
%TO.C,J2*%
X32415000Y-14140000D02*
X34740000Y-14140000D01*
X32415000Y-14990000D02*
X32415000Y-14140000D01*
X32415000Y-18510000D02*
X32415000Y-19360000D01*
X32415000Y-19360000D02*
X56585000Y-19360000D01*
X34740000Y-14140000D02*
X34740000Y-11750000D01*
X56585000Y-14140000D02*
X54260000Y-14140000D01*
X56585000Y-14990000D02*
X56585000Y-14140000D01*
X56585000Y-19360000D02*
X56585000Y-18510000D01*
%TO.C,C2*%
X66400000Y-17510000D02*
X67400000Y-17510000D01*
X66900000Y-18010000D02*
X66900000Y-17010000D01*
X67640000Y-11704437D02*
X67640000Y-13490000D01*
X67640000Y-11704437D02*
X68704437Y-10640000D01*
X67640000Y-18295563D02*
X67640000Y-16510000D01*
X67640000Y-18295563D02*
X68704437Y-19360000D01*
X68704437Y-10640000D02*
X76360000Y-10640000D01*
X68704437Y-19360000D02*
X76360000Y-19360000D01*
X76360000Y-10640000D02*
X76360000Y-13490000D01*
X76360000Y-19360000D02*
X76360000Y-16510000D01*
%TO.C,F1*%
X23590000Y-3397936D02*
X23590000Y-4602064D01*
X25410000Y-3397936D02*
X25410000Y-4602064D01*
%TO.C,J1*%
X71115000Y-4140000D02*
X73440000Y-4140000D01*
X71115000Y-4990000D02*
X71115000Y-4140000D01*
X71115000Y-8510000D02*
X71115000Y-9360000D01*
X71115000Y-9360000D02*
X79285000Y-9360000D01*
X73440000Y-4140000D02*
X73440000Y-1750000D01*
X79285000Y-4140000D02*
X76960000Y-4140000D01*
X79285000Y-4990000D02*
X79285000Y-4140000D01*
X79285000Y-9360000D02*
X79285000Y-8510000D01*
%TO.C,C3*%
X25990000Y-9859420D02*
X25990000Y-10140580D01*
X27010000Y-9859420D02*
X27010000Y-10140580D01*
%TO.C,J3*%
X55415000Y-4140000D02*
X57740000Y-4140000D01*
X55415000Y-4990000D02*
X55415000Y-4140000D01*
X55415000Y-8510000D02*
X55415000Y-9360000D01*
X55415000Y-9360000D02*
X69585000Y-9360000D01*
X57740000Y-4140000D02*
X57740000Y-1750000D01*
X69585000Y-4140000D02*
X67260000Y-4140000D01*
X69585000Y-4990000D02*
X69585000Y-4140000D01*
X69585000Y-9360000D02*
X69585000Y-8510000D01*
%TO.C,C1*%
X30359420Y-3490000D02*
X30640580Y-3490000D01*
X30359420Y-4510000D02*
X30640580Y-4510000D01*
%TO.C,R1*%
X48262742Y-4477500D02*
X48737258Y-4477500D01*
X48262742Y-5522500D02*
X48737258Y-5522500D01*
%TO.C,R3*%
X63477500Y-16762742D02*
X63477500Y-17237258D01*
X64522500Y-16762742D02*
X64522500Y-17237258D01*
%TO.C,Q1*%
X59740000Y-12440000D02*
X59740000Y-12490000D01*
X59740000Y-13610000D02*
X59740000Y-14390000D01*
X59740000Y-15510000D02*
X59740000Y-15560000D01*
X59740000Y-15560000D02*
X61260000Y-15560000D01*
X61260000Y-12440000D02*
X59740000Y-12440000D01*
X61260000Y-13440000D02*
X61260000Y-12440000D01*
X61260000Y-15560000D02*
X61260000Y-14560000D01*
X59200000Y-14380000D02*
X59440000Y-14050000D01*
X58960000Y-14050000D01*
X59200000Y-14380000D01*
G36*
X59200000Y-14380000D02*
G01*
X58960000Y-14050000D01*
X59440000Y-14050000D01*
X59200000Y-14380000D01*
G37*
%TO.C,U1*%
X37190000Y-2390000D02*
X37190000Y-2590000D01*
X37190000Y-7410000D02*
X37190000Y-7610000D01*
X37190000Y-7610000D02*
X41810000Y-7610000D01*
X41810000Y-2390000D02*
X37190000Y-2390000D01*
X41810000Y-2590000D02*
X41810000Y-2390000D01*
X41810000Y-7610000D02*
X41810000Y-7410000D01*
X36550000Y-7410000D02*
X36210000Y-7880000D01*
X36890000Y-7880000D01*
X36550000Y-7410000D01*
G36*
X36890000Y-7880000D02*
G01*
X36210000Y-7880000D01*
X36550000Y-7410000D01*
X36890000Y-7880000D01*
G37*
%TD*%
M02*
